<svg version="1.1" xmlns="http://www.w3.org/2000/svg" viewBox="0 0 250 250" x="0" y="0" width="250" height="250"><path stroke="white" stroke-width="1" stroke-linecap="butt" fill="black" d="M50 225 C 72 203, 85 190, 100 175 C 124.4 186.2, 140.4 198.6, 162.79999999999998 218.6 C 196 213.8, 216.79999999999998 216.6, 250 225 C 229.20000000000002 212.6, 217.4 203.6, 203.2 184.6 C 182 183.4, 167.8 181.6, 150 175 C 150 143, 150 133, 150 125 C 150 110, 150 100, 150 75 C 132.2 68.4, 118 66.6, 96.80000000000001 65.39999999999998 C 82.6 46.400000000000006, 70.8 37.400000000000006, 50 25 C 41.6 58.20000000000002, 38.8 79, 43.6 112.20000000000002 C 23.599999999999998 134.6, 11.199999999999996 150.6, 0 175 C 20 195, 40 215, 50 225 Z"></path></svg>