<svg version="1.1" xmlns="http://www.w3.org/2000/svg" viewBox="0 0 250 250" x="0" y="0" width="250" height="250"><path stroke="black" stroke-width="1.9" stroke-linecap="butt" fill="white" d="M50 191 C 53.04 183.4, 54.56 172.76, 53.8 162.88 C 62.16 172.76, 80.4 175.04000000000002, 97.12 177.32 L 97.12 238.576 C 118.4 216.84, 126 206.2, 145.76 181.12 C 156.39999999999998 184.92000000000002, 168.56 189.48, 179.2 191 C 156.39999999999998 201.64, 135.576 218.36, 135.576 238.576 C 153.36 238.12, 168.56 253.32, 173.576 248 C 176.16 244.2, 168.56 236.6, 164 229 L 202 191 L 164 153 L 182.24 115 C 194.4 88.39999999999998, 211.12 70.16, 243.04 61.80000000000001 C 232.4 48.120000000000005, 217.20000000000002 42.03999999999999, 202 39 C 198.96 54.19999999999999, 192.88 69.39999999999998, 179.2 80.04000000000002 C 170.84 48.120000000000005, 152.60000000000002 31.400000000000006, 126 19.24000000000001 L 88 1 L 50 39 L 88 77 C 95.6 72.44, 103.19999999999999 64.84, 107 67.424 C 112.32 72.44, 97.12 87.63999999999999, 97.576 105.424 C 77.36 105.424, 60.64 84.60000000000002, 50 61.80000000000001 C 48.48 72.44, 43.92 84.60000000000002, 40.12 95.24000000000001 C 65.2 115, 75.84 122.6, 97.576 143.88 L 36.32 143.88 C 34.04 160.6, 31.76 178.84, 21.88 187.2 C 31.76 186.44, 42.4 187.96, 50 191 Z"></path><path stroke="black" stroke-width="1.9" stroke-linecap="butt" fill="none" d="M63.68 39 L 91.04 39 C 162.48000000000002 39, 148.04000000000002 118.04000000000002, 103.19999999999999 222.92"></path><circle stroke="black" stroke-width="1.9" fill="none" cx="91.04" cy="57.24000000000001" r="7.6"></circle><circle stroke="black" stroke-width="1.9" fill="none" cx="91.04" cy="20.75999999999999" r="7.6"></circle></svg>