<svg width="600" height="300" viewBox="200 300 200 200" xmlns="http://www.w3.org/2000/svg"><polygon stroke="white" fill="white" points="137.500000,300.000000 131.250000,300.000000 131.250000,312.500000 118.750000,312.500000 118.750000,300.000000 112.500000,300.000000 112.500000,331.250000 100.000000,331.250000 100.000000,337.500000 118.750000,337.500000 118.750000,350.000000 131.250000,350.000000 131.250000,337.500000 150.000000,337.500000 150.000000,331.250000 137.500000,331.250000"></polygon><polygon stroke="grey" fill="grey" points="112.500000,400.000000 118.750000,400.000000 118.750000,387.500000 131.250000,387.500000 131.250000,400.000000 137.500000,400.000000 137.500000,368.750000 150.000000,368.750000 150.000000,362.500000 131.250000,362.500000 131.250000,350.000000 118.750000,350.000000 118.750000,362.500000 100.000000,362.500000 100.000000,368.750000 112.500000,368.750000"></polygon><polygon stroke="grey" fill="grey" points="187.500000,300.000000 181.250000,300.000000 181.250000,312.500000 168.750000,312.500000 168.750000,300.000000 162.500000,300.000000 162.500000,331.250000 150.000000,331.250000 150.000000,337.500000 168.750000,337.500000 168.750000,350.000000 181.250000,350.000000 181.250000,337.500000 200.000000,337.500000 200.000000,331.250000 187.500000,331.250000"></polygon><polygon stroke="black" fill="black" points="162.500000,400.000000 168.750000,400.000000 168.750000,387.500000 181.250000,387.500000 181.250000,400.000000 187.500000,400.000000 187.500000,368.750000 200.000000,368.750000 200.000000,362.500000 181.250000,362.500000 181.250000,350.000000 168.750000,350.000000 168.750000,362.500000 150.000000,362.500000 150.000000,368.750000 162.500000,368.750000"></polygon><polygon stroke="white" fill="white" points="237.500000,300.000000 231.250000,300.000000 231.250000,312.500000 218.750000,312.500000 218.750000,300.000000 212.500000,300.000000 212.500000,331.250000 200.000000,331.250000 200.000000,337.500000 218.750000,337.500000 218.750000,350.000000 231.250000,350.000000 231.250000,337.500000 250.000000,337.500000 250.000000,331.250000 237.500000,331.250000"></polygon><polygon stroke="grey" fill="grey" points="212.500000,400.000000 218.750000,400.000000 218.750000,387.500000 231.250000,387.500000 231.250000,400.000000 237.500000,400.000000 237.500000,368.750000 250.000000,368.750000 250.000000,362.500000 231.250000,362.500000 231.250000,350.000000 218.750000,350.000000 218.750000,362.500000 200.000000,362.500000 200.000000,368.750000 212.500000,368.750000"></polygon><polygon stroke="grey" fill="grey" points="287.500000,300.000000 281.250000,300.000000 281.250000,312.500000 268.750000,312.500000 268.750000,300.000000 262.500000,300.000000 262.500000,331.250000 250.000000,331.250000 250.000000,337.500000 268.750000,337.500000 268.750000,350.000000 281.250000,350.000000 281.250000,337.500000 300.000000,337.500000 300.000000,331.250000 287.500000,331.250000"></polygon><polygon stroke="black" fill="black" points="262.500000,400.000000 268.750000,400.000000 268.750000,387.500000 281.250000,387.500000 281.250000,400.000000 287.500000,400.000000 287.500000,368.750000 300.000000,368.750000 300.000000,362.500000 281.250000,362.500000 281.250000,350.000000 268.750000,350.000000 268.750000,362.500000 250.000000,362.500000 250.000000,368.750000 262.500000,368.750000"></polygon><polygon stroke="white" fill="white" points="137.500000,400.000000 131.250000,400.000000 131.250000,412.500000 118.750000,412.500000 118.750000,400.000000 112.500000,400.000000 112.500000,431.250000 100.000000,431.250000 100.000000,437.500000 118.750000,437.500000 118.750000,450.000000 131.250000,450.000000 131.250000,437.500000 150.000000,437.500000 150.000000,431.250000 137.500000,431.250000"></polygon><polygon stroke="grey" fill="grey" points="112.500000,500.000000 118.750000,500.000000 118.750000,487.500000 131.250000,487.500000 131.250000,500.000000 137.500000,500.000000 137.500000,468.750000 150.000000,468.750000 150.000000,462.500000 131.250000,462.500000 131.250000,450.000000 118.750000,450.000000 118.750000,462.500000 100.000000,462.500000 100.000000,468.750000 112.500000,468.750000"></polygon><polygon stroke="grey" fill="grey" points="187.500000,400.000000 181.250000,400.000000 181.250000,412.500000 168.750000,412.500000 168.750000,400.000000 162.500000,400.000000 162.500000,431.250000 150.000000,431.250000 150.000000,437.500000 168.750000,437.500000 168.750000,450.000000 181.250000,450.000000 181.250000,437.500000 200.000000,437.500000 200.000000,431.250000 187.500000,431.250000"></polygon><polygon stroke="black" fill="black" points="162.500000,500.000000 168.750000,500.000000 168.750000,487.500000 181.250000,487.500000 181.250000,500.000000 187.500000,500.000000 187.500000,468.750000 200.000000,468.750000 200.000000,462.500000 181.250000,462.500000 181.250000,450.000000 168.750000,450.000000 168.750000,462.500000 150.000000,462.500000 150.000000,468.750000 162.500000,468.750000"></polygon><polygon stroke="white" fill="white" points="237.500000,400.000000 231.250000,400.000000 231.250000,412.500000 218.750000,412.500000 218.750000,400.000000 212.500000,400.000000 212.500000,431.250000 200.000000,431.250000 200.000000,437.500000 218.750000,437.500000 218.750000,450.000000 231.250000,450.000000 231.250000,437.500000 250.000000,437.500000 250.000000,431.250000 237.500000,431.250000"></polygon><polygon stroke="grey" fill="grey" points="212.500000,500.000000 218.750000,500.000000 218.750000,487.500000 231.250000,487.500000 231.250000,500.000000 237.500000,500.000000 237.500000,468.750000 250.000000,468.750000 250.000000,462.500000 231.250000,462.500000 231.250000,450.000000 218.750000,450.000000 218.750000,462.500000 200.000000,462.500000 200.000000,468.750000 212.500000,468.750000"></polygon><polygon stroke="grey" fill="grey" points="287.500000,400.000000 281.250000,400.000000 281.250000,412.500000 268.750000,412.500000 268.750000,400.000000 262.500000,400.000000 262.500000,431.250000 250.000000,431.250000 250.000000,437.500000 268.750000,437.500000 268.750000,450.000000 281.250000,450.000000 281.250000,437.500000 300.000000,437.500000 300.000000,431.250000 287.500000,431.250000"></polygon><polygon stroke="black" fill="black" points="262.500000,500.000000 268.750000,500.000000 268.750000,487.500000 281.250000,487.500000 281.250000,500.000000 287.500000,500.000000 287.500000,468.750000 300.000000,468.750000 300.000000,462.500000 281.250000,462.500000 281.250000,450.000000 268.750000,450.000000 268.750000,462.500000 250.000000,462.500000 250.000000,468.750000 262.500000,468.750000"></polygon><polygon stroke="black" fill="black" points="337.500000,300.000000 331.250000,300.000000 331.250000,312.500000 318.750000,312.500000 318.750000,300.000000 312.500000,300.000000 312.500000,331.250000 300.000000,331.250000 300.000000,337.500000 318.750000,337.500000 318.750000,350.000000 331.250000,350.000000 331.250000,337.500000 350.000000,337.500000 350.000000,331.250000 337.500000,331.250000"></polygon><polygon stroke="white" fill="white" points="312.500000,400.000000 318.750000,400.000000 318.750000,387.500000 331.250000,387.500000 331.250000,400.000000 337.500000,400.000000 337.500000,368.750000 350.000000,368.750000 350.000000,362.500000 331.250000,362.500000 331.250000,350.000000 318.750000,350.000000 318.750000,362.500000 300.000000,362.500000 300.000000,368.750000 312.500000,368.750000"></polygon><polygon stroke="white" fill="white" points="387.500000,300.000000 381.250000,300.000000 381.250000,312.500000 368.750000,312.500000 368.750000,300.000000 362.500000,300.000000 362.500000,331.250000 350.000000,331.250000 350.000000,337.500000 368.750000,337.500000 368.750000,350.000000 381.250000,350.000000 381.250000,337.500000 400.000000,337.500000 400.000000,331.250000 387.500000,331.250000"></polygon><polygon stroke="grey" fill="grey" points="362.500000,400.000000 368.750000,400.000000 368.750000,387.500000 381.250000,387.500000 381.250000,400.000000 387.500000,400.000000 387.500000,368.750000 400.000000,368.750000 400.000000,362.500000 381.250000,362.500000 381.250000,350.000000 368.750000,350.000000 368.750000,362.500000 350.000000,362.500000 350.000000,368.750000 362.500000,368.750000"></polygon><polygon stroke="black" fill="black" points="437.500000,300.000000 431.250000,300.000000 431.250000,312.500000 418.750000,312.500000 418.750000,300.000000 412.500000,300.000000 412.500000,331.250000 400.000000,331.250000 400.000000,337.500000 418.750000,337.500000 418.750000,350.000000 431.250000,350.000000 431.250000,337.500000 450.000000,337.500000 450.000000,331.250000 437.500000,331.250000"></polygon><polygon stroke="white" fill="white" points="412.500000,400.000000 418.750000,400.000000 418.750000,387.500000 431.250000,387.500000 431.250000,400.000000 437.500000,400.000000 437.500000,368.750000 450.000000,368.750000 450.000000,362.500000 431.250000,362.500000 431.250000,350.000000 418.750000,350.000000 418.750000,362.500000 400.000000,362.500000 400.000000,368.750000 412.500000,368.750000"></polygon><polygon stroke="white" fill="white" points="487.500000,300.000000 481.250000,300.000000 481.250000,312.500000 468.750000,312.500000 468.750000,300.000000 462.500000,300.000000 462.500000,331.250000 450.000000,331.250000 450.000000,337.500000 468.750000,337.500000 468.750000,350.000000 481.250000,350.000000 481.250000,337.500000 500.000000,337.500000 500.000000,331.250000 487.500000,331.250000"></polygon><polygon stroke="grey" fill="grey" points="462.500000,400.000000 468.750000,400.000000 468.750000,387.500000 481.250000,387.500000 481.250000,400.000000 487.500000,400.000000 487.500000,368.750000 500.000000,368.750000 500.000000,362.500000 481.250000,362.500000 481.250000,350.000000 468.750000,350.000000 468.750000,362.500000 450.000000,362.500000 450.000000,368.750000 462.500000,368.750000"></polygon><polygon stroke="black" fill="black" points="337.500000,400.000000 331.250000,400.000000 331.250000,412.500000 318.750000,412.500000 318.750000,400.000000 312.500000,400.000000 312.500000,431.250000 300.000000,431.250000 300.000000,437.500000 318.750000,437.500000 318.750000,450.000000 331.250000,450.000000 331.250000,437.500000 350.000000,437.500000 350.000000,431.250000 337.500000,431.250000"></polygon><polygon stroke="white" fill="white" points="312.500000,500.000000 318.750000,500.000000 318.750000,487.500000 331.250000,487.500000 331.250000,500.000000 337.500000,500.000000 337.500000,468.750000 350.000000,468.750000 350.000000,462.500000 331.250000,462.500000 331.250000,450.000000 318.750000,450.000000 318.750000,462.500000 300.000000,462.500000 300.000000,468.750000 312.500000,468.750000"></polygon><polygon stroke="white" fill="white" points="387.500000,400.000000 381.250000,400.000000 381.250000,412.500000 368.750000,412.500000 368.750000,400.000000 362.500000,400.000000 362.500000,431.250000 350.000000,431.250000 350.000000,437.500000 368.750000,437.500000 368.750000,450.000000 381.250000,450.000000 381.250000,437.500000 400.000000,437.500000 400.000000,431.250000 387.500000,431.250000"></polygon><polygon stroke="grey" fill="grey" points="362.500000,500.000000 368.750000,500.000000 368.750000,487.500000 381.250000,487.500000 381.250000,500.000000 387.500000,500.000000 387.500000,468.750000 400.000000,468.750000 400.000000,462.500000 381.250000,462.500000 381.250000,450.000000 368.750000,450.000000 368.750000,462.500000 350.000000,462.500000 350.000000,468.750000 362.500000,468.750000"></polygon><polygon stroke="black" fill="black" points="437.500000,400.000000 431.250000,400.000000 431.250000,412.500000 418.750000,412.500000 418.750000,400.000000 412.500000,400.000000 412.500000,431.250000 400.000000,431.250000 400.000000,437.500000 418.750000,437.500000 418.750000,450.000000 431.250000,450.000000 431.250000,437.500000 450.000000,437.500000 450.000000,431.250000 437.500000,431.250000"></polygon><polygon stroke="white" fill="white" points="412.500000,500.000000 418.750000,500.000000 418.750000,487.500000 431.250000,487.500000 431.250000,500.000000 437.500000,500.000000 437.500000,468.750000 450.000000,468.750000 450.000000,462.500000 431.250000,462.500000 431.250000,450.000000 418.750000,450.000000 418.750000,462.500000 400.000000,462.500000 400.000000,468.750000 412.500000,468.750000"></polygon><polygon stroke="white" fill="white" points="487.500000,400.000000 481.250000,400.000000 481.250000,412.500000 468.750000,412.500000 468.750000,400.000000 462.500000,400.000000 462.500000,431.250000 450.000000,431.250000 450.000000,437.500000 468.750000,437.500000 468.750000,450.000000 481.250000,450.000000 481.250000,437.500000 500.000000,437.500000 500.000000,431.250000 487.500000,431.250000"></polygon><polygon stroke="grey" fill="grey" points="462.500000,500.000000 468.750000,500.000000 468.750000,487.500000 481.250000,487.500000 481.250000,500.000000 487.500000,500.000000 487.500000,468.750000 500.000000,468.750000 500.000000,462.500000 481.250000,462.500000 481.250000,450.000000 468.750000,450.000000 468.750000,462.500000 450.000000,462.500000 450.000000,468.750000 462.500000,468.750000"></polygon></svg>