<svg version="1.1" xmlns="http://www.w3.org/2000/svg" viewBox="0 0 340 290" x="-3px" y="0px" width="343" height="293" style="background-color:white"><path stroke="Black" stroke-width="1.071936807572228" fill="None" d="M288.17 243.09 C 271.075 207.275, 273.22 200.32, 293.045 157.095"></path><path stroke="Black" stroke-width="1.071936807572228" fill="None" d="M273.74 170.42000000000002 C 286.09 161.19, 291.94 153.51999999999998, 300 140"></path><path stroke="Black" stroke-width="1.071936807572228" fill="None" d="M267.5 205 C 271.79 193.43, 272.96 184.2, 273.74 170.42000000000002"></path><path stroke="Black" stroke-width="1.071936807572228" fill="None" d="M235 205 C 249.3 205, 257.75 205, 267.5 205"></path><path stroke="Black" stroke-width="1.071936807572228" fill="None" d="M235 237.5 C 235 224.5, 235 216.7, 235 205"></path><path stroke="Black" stroke-width="1.071936807572228" fill="None" d="M235 237.5 C 246.57 241.79, 255.8 242.96, 269.58 243.74"></path><path stroke="Black" stroke-width="1.071936807572228" fill="None" d="M269.58 243.74 C 261.65 224.5, 261.65 221.25, 267.5 205"></path><path stroke="Black" stroke-width="1.071936807572228" fill="None" d="M269.58 243.74 C 278.81 256.09, 286.48 261.94, 300 270"></path><path stroke="Black" stroke-width="1.071936807572228" fill="None" d="M300 270 C 302.73 259.21, 303.64 252.45, 302.08000000000004 241.66"></path><path stroke="Black" stroke-width="1.071936807572228" fill="None" d="M302.08000000000004 241.66 C 301.17 223.32999999999998, 285.18 225.02, 284.01 205"></path><path stroke="Black" stroke-width="1.071936807572228" fill="None" d="M284.01 205 C 283.75 201.75, 283.75 195.25, 283.75 188.75"></path><path stroke="Black" stroke-width="1.071936807572228" fill="None" d="M283.75 188.75 C 287.39 180.82, 291.42 175.62, 297.92 168.34"></path><path stroke="Black" stroke-width="1.071936807572228" fill="None" d="M297.92 168.34 C 296.36 157.55, 297.27 150.79, 300 140"></path><path stroke="Black" stroke-width="1.071936807572228" fill="None" d="M302.08000000000004 241.66 C 308.58000000000004 234.38, 312.61 229.18, 316.25 221.25"></path><path stroke="Black" stroke-width="1.071936807572228" fill="None" d="M316.25 221.25 C 308.125 213.125, 304.875 209.875, 300 205"></path><path stroke="Black" stroke-width="1.071936807572228" fill="None" d="M300 205 C 294.8 205, 288.3 205, 284.01 205"></path><path stroke="Black" stroke-width="1.071936807572228" fill="None" d="M301.625 230.675 C 307.15 228.01, 309.88 224.5, 311.635 218.325"></path><path stroke="Black" stroke-width="1.071936807572228" fill="None" d="M296.425 222.225 C 302.73 220.73000000000002, 305.33 218.78, 307.475 213.905"></path><path stroke="Black" stroke-width="1.071936807572228" fill="None" d="M290.25 215.01 C 297.65999999999997 215.66, 299.35 214.49, 303.38 209.81"></path><path stroke="Black" stroke-width="1.071936807572228" fill="None" d="M291.485 202.855 C 291.225 200.775, 291.225 198.825, 291.615 197.91500000000002"></path><path stroke="Black" stroke-width="1.071936807572228" fill="None" d="M287.585 202.85500000000002 C 286.35 199.15, 286.35 197.2, 288.105 194.14499999999998"></path><path stroke="Black" stroke-width="1.071936807572228" fill="None" d="M239.355 231.45499999999998 C 249.95 236.2, 257.1 235.55, 263.47 233.21"></path><path stroke="Black" stroke-width="1.071936807572228" fill="None" d="M239.355 225.085 C 250.6 228.4, 254.5 228.4, 261.975 226.775"></path><path stroke="Black" stroke-width="1.071936807572228" fill="None" d="M239.355 216.89499999999998 C 249.95 221.25, 255.15 221.25, 262.365 219.365"></path><path stroke="Black" stroke-width="1.071936807572228" fill="None" d="M237.665 210.525 C 251.9 214.1, 257.1 214.1, 263.73 212.93"></path><path stroke="Black" stroke-width="1.071936807572228" fill="None" d="M281.21500000000003 244.325 C 283.88 244.13, 285.18 244.13, 286.87 244.13"></path><path stroke="Black" stroke-width="1.071936807572228" fill="None" d="M281.21500000000003 244.325 C 283.88 248.42000000000002, 287.13 251.67000000000002, 291.68 254.79"></path><path stroke="Black" stroke-width="1.071936807572228" fill="None" d="M291.68 254.79 C 293.305 252.255, 289.86 247.9, 286.87 244.13"></path><path stroke="Black" stroke-width="1.071936807572228" fill="None" d="M290.12 243.22 C 292.2 242.7, 294.8 242.05, 296.035 241.725"></path><path stroke="Black" stroke-width="1.071936807572228" fill="None" d="M290.12 243.22 C 293.825 249.525, 294.8 250.5, 297.205 252.64499999999998"></path><path stroke="Black" stroke-width="1.071936807572228" fill="None" d="M297.205 252.64499999999998 C 297.075 247.575, 296.88 244.52, 296.035 241.725"></path><path stroke="Black" stroke-width="1.071936807572228" fill="None" d="M196.91 258.17 C 232.725 241.075, 239.68 243.22, 282.905 263.045"></path><path stroke="Black" stroke-width="1.071936807572228" fill="None" d="M269.58 243.74 C 278.81 256.09, 286.48 261.94, 300 270"></path><path stroke="Black" stroke-width="1.071936807572228" fill="None" d="M235 237.5 C 246.57 241.79, 255.8 242.96, 269.58 243.74"></path><path stroke="Black" stroke-width="1.071936807572228" fill="None" d="M235 205 C 235 219.3, 235 227.75, 235 237.5"></path><path stroke="Black" stroke-width="1.071936807572228" fill="None" d="M202.5 205 C 215.5 205, 223.3 205, 235 205"></path><path stroke="Black" stroke-width="1.071936807572228" fill="None" d="M202.5 205 C 198.21 216.57, 197.04 225.8, 196.26 239.57999999999998"></path><path stroke="Black" stroke-width="1.071936807572228" fill="None" d="M196.26 239.57999999999998 C 215.5 231.65, 218.75 231.65, 235 237.5"></path><path stroke="Black" stroke-width="1.071936807572228" fill="None" d="M196.26 239.57999999999998 C 183.91 248.81, 178.06 256.48, 170 270"></path><path stroke="Black" stroke-width="1.071936807572228" fill="None" d="M170 270 C 180.79 272.73, 187.55 273.64, 198.34 272.08000000000004"></path><path stroke="Black" stroke-width="1.071936807572228" fill="None" d="M198.34 272.08000000000004 C 216.67 271.17, 214.98 255.18, 235 254.01"></path><path stroke="Black" stroke-width="1.071936807572228" fill="None" d="M235 254.01 C 238.25 253.75, 244.75 253.75, 251.25 253.75"></path><path stroke="Black" stroke-width="1.071936807572228" fill="None" d="M251.25 253.75 C 259.18 257.39, 264.38 261.42, 271.65999999999997 267.92"></path><path stroke="Black" stroke-width="1.071936807572228" fill="None" d="M271.65999999999997 267.92 C 282.45 266.36, 289.21 267.27, 300 270"></path><path stroke="Black" stroke-width="1.071936807572228" fill="None" d="M198.34 272.08000000000004 C 205.62 278.58000000000004, 210.82 282.61, 218.75 286.25"></path><path stroke="Black" stroke-width="1.071936807572228" fill="None" d="M218.75 286.25 C 226.875 278.125, 230.125 274.875, 235 270"></path><path stroke="Black" stroke-width="1.071936807572228" fill="None" d="M235 270 C 235 264.8, 235 258.3, 235 254.01"></path><path stroke="Black" stroke-width="1.071936807572228" fill="None" d="M209.325 271.625 C 211.99 277.15, 215.5 279.88, 221.675 281.635"></path><path stroke="Black" stroke-width="1.071936807572228" fill="None" d="M217.775 266.425 C 219.26999999999998 272.73, 221.22 275.33, 226.095 277.475"></path><path stroke="Black" stroke-width="1.071936807572228" fill="None" d="M224.99 260.25 C 224.34 267.65999999999997, 225.51 269.35, 230.19 273.38"></path><path stroke="Black" stroke-width="1.071936807572228" fill="None" d="M237.145 261.485 C 239.225 261.225, 241.175 261.225, 242.085 261.615"></path><path stroke="Black" stroke-width="1.071936807572228" fill="None" d="M237.14499999999998 257.585 C 240.85 256.35, 242.8 256.35, 245.855 258.105"></path><path stroke="Black" stroke-width="1.071936807572228" fill="None" d="M208.54500000000002 209.35500000000002 C 203.8 219.95, 204.45 227.1, 206.79 233.47"></path><path stroke="Black" stroke-width="1.071936807572228" fill="None" d="M214.915 209.35500000000002 C 211.6 220.6, 211.6 224.5, 213.225 231.975"></path><path stroke="Black" stroke-width="1.071936807572228" fill="None" d="M223.105 209.35500000000002 C 218.75 219.95, 218.75 225.15, 220.635 232.365"></path><path stroke="Black" stroke-width="1.071936807572228" fill="None" d="M229.475 207.66500000000002 C 225.9 221.9, 225.9 227.1, 227.07 233.73"></path><path stroke="Black" stroke-width="1.071936807572228" fill="None" d="M195.675 251.215 C 195.87 253.88, 195.87 255.18, 195.87 256.87"></path><path stroke="Black" stroke-width="1.071936807572228" fill="None" d="M195.675 251.215 C 191.57999999999998 253.88, 188.32999999999998 257.13, 185.21 261.68"></path><path stroke="Black" stroke-width="1.071936807572228" fill="None" d="M185.21 261.68 C 187.745 263.305, 192.1 259.86, 195.87 256.87"></path><path stroke="Black" stroke-width="1.071936807572228" fill="None" d="M196.78 260.12 C 197.3 262.2, 197.95 264.8, 198.275 266.035"></path><path stroke="Black" stroke-width="1.071936807572228" fill="None" d="M196.78 260.12 C 190.475 263.825, 189.5 264.8, 187.35500000000002 267.205"></path><path stroke="Black" stroke-width="1.071936807572228" fill="None" d="M187.35500000000002 267.205 C 192.425 267.075, 195.48 266.88, 198.275 266.035"></path><path stroke="Black" stroke-width="1.071936807572228" fill="None" d="M181.83 166.91 C 198.925 202.725, 196.78 209.68, 176.955 252.905"></path><path stroke="Black" stroke-width="1.071936807572228" fill="None" d="M196.26 239.57999999999998 C 183.91 248.81, 178.06 256.48, 170 270"></path><path stroke="Black" stroke-width="1.071936807572228" fill="None" d="M202.5 205 C 198.21 216.57, 197.04 225.8, 196.26 239.57999999999998"></path><path stroke="Black" stroke-width="1.071936807572228" fill="None" d="M235 205 C 220.7 205, 212.25 205, 202.5 205"></path><path stroke="Black" stroke-width="1.071936807572228" fill="None" d="M235 172.5 C 235 185.5, 235 193.3, 235 205"></path><path stroke="Black" stroke-width="1.071936807572228" fill="None" d="M235 172.5 C 223.43 168.21, 214.2 167.04, 200.42000000000002 166.26"></path><path stroke="Black" stroke-width="1.071936807572228" fill="None" d="M200.42000000000002 166.26 C 208.35 185.5, 208.35 188.75, 202.5 205"></path><path stroke="Black" stroke-width="1.071936807572228" fill="None" d="M200.42000000000002 166.26 C 191.19 153.91, 183.51999999999998 148.06, 170 140"></path><path stroke="Black" stroke-width="1.071936807572228" fill="None" d="M170 140 C 167.26999999999998 150.79, 166.36 157.55, 167.92 168.34"></path><path stroke="Black" stroke-width="1.071936807572228" fill="None" d="M167.92 168.34 C 168.82999999999998 186.67000000000002, 184.82 184.98, 185.99 205"></path><path stroke="Black" stroke-width="1.071936807572228" fill="None" d="M185.99 205 C 186.25 208.25, 186.25 214.75, 186.25 221.25"></path><path stroke="Black" stroke-width="1.071936807572228" fill="None" d="M186.25 221.25 C 182.61 229.18, 178.57999999999998 234.38, 172.07999999999998 241.66"></path><path stroke="Black" stroke-width="1.071936807572228" fill="None" d="M172.07999999999998 241.66 C 173.64 252.45, 172.73 259.21, 170 270"></path><path stroke="Black" stroke-width="1.071936807572228" fill="None" d="M167.92 168.34 C 161.42 175.62, 157.39 180.82, 153.75 188.75"></path><path stroke="Black" stroke-width="1.071936807572228" fill="None" d="M153.75 188.75 C 161.875 196.875, 165.125 200.125, 170 205"></path><path stroke="Black" stroke-width="1.071936807572228" fill="None" d="M170 205 C 175.2 205, 181.7 205, 185.99 205"></path><path stroke="Black" stroke-width="1.071936807572228" fill="None" d="M168.375 179.325 C 162.85 181.99, 160.12 185.5, 158.365 191.675"></path><path stroke="Black" stroke-width="1.071936807572228" fill="None" d="M173.575 187.775 C 167.26999999999998 189.26999999999998, 164.67000000000002 191.22, 162.525 196.095"></path><path stroke="Black" stroke-width="1.071936807572228" fill="None" d="M179.75 194.99 C 172.34 194.34, 170.65 195.51, 166.62 200.19"></path><path stroke="Black" stroke-width="1.071936807572228" fill="None" d="M178.515 207.145 C 178.775 209.225, 178.775 211.175, 178.385 212.08499999999998"></path><path stroke="Black" stroke-width="1.071936807572228" fill="None" d="M182.415 207.14499999999998 C 183.65 210.85, 183.65 212.8, 181.89499999999998 215.85500000000002"></path><path stroke="Black" stroke-width="1.071936807572228" fill="None" d="M230.645 178.54500000000002 C 220.05 173.8, 212.9 174.45, 206.53 176.79"></path><path stroke="Black" stroke-width="1.071936807572228" fill="None" d="M230.645 184.915 C 219.4 181.6, 215.5 181.6, 208.025 183.225"></path><path stroke="Black" stroke-width="1.071936807572228" fill="None" d="M230.645 193.10500000000002 C 220.05 188.75, 214.85 188.75, 207.635 190.635"></path><path stroke="Black" stroke-width="1.071936807572228" fill="None" d="M232.335 199.475 C 218.1 195.9, 212.9 195.9, 206.27 197.07"></path><path stroke="Black" stroke-width="1.071936807572228" fill="None" d="M188.785 165.675 C 186.12 165.87, 184.82 165.87, 183.13 165.87"></path><path stroke="Black" stroke-width="1.071936807572228" fill="None" d="M188.785 165.675 C 186.12 161.57999999999998, 182.87 158.32999999999998, 178.32 155.21"></path><path stroke="Black" stroke-width="1.071936807572228" fill="None" d="M178.32 155.21 C 176.695 157.745, 180.14 162.1, 183.13 165.87"></path><path stroke="Black" stroke-width="1.071936807572228" fill="None" d="M179.88 166.78 C 177.8 167.3, 175.2 167.95, 173.965 168.275"></path><path stroke="Black" stroke-width="1.071936807572228" fill="None" d="M179.88 166.78 C 176.175 160.475, 175.2 159.5, 172.79500000000002 157.35500000000002"></path><path stroke="Black" stroke-width="1.071936807572228" fill="None" d="M172.79500000000002 157.35500000000002 C 172.925 162.425, 173.12 165.48, 173.965 168.275"></path><path stroke="Black" stroke-width="1.071936807572228" fill="None" d="M273.09 151.83 C 237.275 168.925, 230.32 166.78, 187.095 146.955"></path><path stroke="Black" stroke-width="1.071936807572228" fill="None" d="M200.42000000000002 166.26 C 191.19 153.91, 183.51999999999998 148.06, 170 140"></path><path stroke="Black" stroke-width="1.071936807572228" fill="None" d="M235 172.5 C 223.43 168.21, 214.2 167.04, 200.42000000000002 166.26"></path><path stroke="Black" stroke-width="1.071936807572228" fill="None" d="M235 205 C 235 190.7, 235 182.25, 235 172.5"></path><path stroke="Black" stroke-width="1.071936807572228" fill="None" d="M267.5 205 C 254.5 205, 246.7 205, 235 205"></path><path stroke="Black" stroke-width="1.071936807572228" fill="None" d="M267.5 205 C 271.79 193.43, 272.96 184.2, 273.74 170.42000000000002"></path><path stroke="Black" stroke-width="1.071936807572228" fill="None" d="M273.74 170.42000000000002 C 254.5 178.35, 251.25 178.35, 235 172.5"></path><path stroke="Black" stroke-width="1.071936807572228" fill="None" d="M273.74 170.42000000000002 C 286.09 161.19, 291.94 153.51999999999998, 300 140"></path><path stroke="Black" stroke-width="1.071936807572228" fill="None" d="M300 140 C 289.21 137.26999999999998, 282.45 136.36, 271.66 137.92"></path><path stroke="Black" stroke-width="1.071936807572228" fill="None" d="M271.66 137.92 C 253.33 138.82999999999998, 255.02 154.82, 235 155.99"></path><path stroke="Black" stroke-width="1.071936807572228" fill="None" d="M235 155.99 C 231.75 156.25, 225.25 156.25, 218.75 156.25"></path><path stroke="Black" stroke-width="1.071936807572228" fill="None" d="M218.75 156.25 C 210.82 152.61, 205.62 148.57999999999998, 198.34 142.07999999999998"></path><path stroke="Black" stroke-width="1.071936807572228" fill="None" d="M198.34 142.07999999999998 C 187.55 143.64, 180.79 142.73, 170 140"></path><path stroke="Black" stroke-width="1.071936807572228" fill="None" d="M271.66 137.92 C 264.38 131.42, 259.18 127.38999999999999, 251.25 123.75"></path><path stroke="Black" stroke-width="1.071936807572228" fill="None" d="M251.25 123.75 C 243.125 131.875, 239.875 135.125, 235 140"></path><path stroke="Black" stroke-width="1.071936807572228" fill="None" d="M235 140 C 235 145.2, 235 151.7, 235 155.99"></path><path stroke="Black" stroke-width="1.071936807572228" fill="None" d="M260.675 138.375 C 258.01 132.85, 254.5 130.12, 248.325 128.365"></path><path stroke="Black" stroke-width="1.071936807572228" fill="None" d="M252.225 143.575 C 250.73000000000002 137.26999999999998, 248.78 134.67000000000002, 243.905 132.525"></path><path stroke="Black" stroke-width="1.071936807572228" fill="None" d="M245.01 149.75 C 245.66 142.34, 244.49 140.65, 239.81 136.62"></path><path stroke="Black" stroke-width="1.071936807572228" fill="None" d="M232.855 148.515 C 230.775 148.775, 228.825 148.775, 227.915 148.385"></path><path stroke="Black" stroke-width="1.071936807572228" fill="None" d="M232.85500000000002 152.415 C 229.15 153.65, 227.2 153.65, 224.145 151.89499999999998"></path><path stroke="Black" stroke-width="1.071936807572228" fill="None" d="M261.455 200.64499999999998 C 266.2 190.05, 265.55 182.9, 263.21 176.53"></path><path stroke="Black" stroke-width="1.071936807572228" fill="None" d="M255.085 200.64499999999998 C 258.4 189.4, 258.4 185.5, 256.775 178.025"></path><path stroke="Black" stroke-width="1.071936807572228" fill="None" d="M246.895 200.64499999999998 C 251.25 190.05, 251.25 184.85, 249.365 177.635"></path><path stroke="Black" stroke-width="1.071936807572228" fill="None" d="M240.525 202.33499999999998 C 244.1 188.1, 244.1 182.9, 242.93 176.27"></path><path stroke="Black" stroke-width="1.071936807572228" fill="None" d="M274.325 158.785 C 274.13 156.12, 274.13 154.82, 274.13 153.13"></path><path stroke="Black" stroke-width="1.071936807572228" fill="None" d="M274.325 158.785 C 278.42 156.12, 281.67 152.87, 284.79 148.32"></path><path stroke="Black" stroke-width="1.071936807572228" fill="None" d="M284.79 148.32 C 282.255 146.695, 277.9 150.14, 274.13 153.13"></path><path stroke="Black" stroke-width="1.071936807572228" fill="None" d="M273.22 149.88 C 272.7 147.8, 272.05 145.2, 271.725 143.965"></path><path stroke="Black" stroke-width="1.071936807572228" fill="None" d="M273.22 149.88 C 279.525 146.175, 280.5 145.2, 282.645 142.79500000000002"></path><path stroke="Black" stroke-width="1.071936807572228" fill="None" d="M282.645 142.79500000000002 C 277.575 142.925, 274.52 143.12, 271.725 143.965"></path><polyline stroke="red" stroke-width="1" fill="None" points="40,140 170,140 170,10 40,10 40,140"></polyline><polyline stroke="red" stroke-width="1" fill="None" points="170,140 300,140 300,10 170,10 170,140"></polyline><polyline stroke="red" stroke-width="1" fill="None" points="40,270 170,270 170,140 40,140 40,270"></polyline><polyline stroke="red" stroke-width="1" fill="None" points="170,270 300,270 300,140 170,140 170,270"></polyline></svg>