<svg version="1.1" xmlns="http://www.w3.org/2000/svg" viewBox="50 0 750 200" x="0" y="0" width="750" height="200" style="background-color:lightgrey"><path stroke="none" stroke-width="2" stroke-linecap="butt" fill="white" d="M100 200 C 122 178, 135 165, 150 150 C 174.4 161.2, 190.4 173.6, 212.79999999999998 193.6 C 246 188.8, 266.79999999999995 191.6, 300 200 C 279.20000000000005 187.6, 267.4 178.6, 253.2 159.6 C 232 158.4, 217.8 156.6, 200 150 C 200 118, 200 108, 200 100 C 200 85.00000000000001, 200 75, 200 50 C 182.2 43.400000000000006, 168 41.599999999999994, 146.8 40.39999999999998 C 132.6 21.400000000000006, 120.8 12.400000000000006, 100 0 C 91.6 33.20000000000002, 88.8 54, 93.6 87.20000000000002 C 73.6 109.6, 61.199999999999996 125.6, 50 150 C 70 170, 90 190, 100 200 Z"></path><path stroke="black" stroke-width="2.5" stroke-linecap="butt" fill="white" d="M100.8 40 C 108 45.599999999999994, 113.6 60.80000000000001, 114.8 63 C 109 68, 102 76.6, 98.4 81.60000000000001 C 96.6 63, 97.6 46, 100.8 40 Z"></path><path stroke="black" stroke-width="2.5" stroke-linecap="butt" fill="white" d="M119 26 C 132 32, 140 42, 141 43.599999999999994 C 133 48, 128 52, 123 57 C 119 45, 118 34, 119 26 Z"></path><path stroke="none" stroke-width="2" stroke-linecap="butt" fill="black" d="M103.6 56 C 107.6 58.400000000000006, 110.6 63.19999999999999, 111.4 65.19999999999999 C 107 69.6, 102 75.6, 101.6 76.4 C 101 63, 102 60, 103.6 56 Z"></path><path stroke="none" stroke-width="2" stroke-linecap="butt" fill="black" d="M125.6 38 C 130 39, 134.8 43.400000000000006, 137 45.19999999999999 C 130.8 48.80000000000001, 127.80000000000001 52, 126.4 52.80000000000001 C 125.2 48, 124.4 41, 125.6 38 Z"></path><path stroke="black" stroke-width="2.5" stroke-linecap="butt" fill="none" d="M268 186 C 170 176, 128 100, 105 20"></path><path stroke="black" stroke-width="2.5" stroke-linecap="butt" fill="none" d="M97 96 C 108 120, 124 140, 142 148"></path><path stroke="black" stroke-width="2.5" stroke-linecap="butt" fill="none" d="M195 146 C 164 130, 168 80, 148 46"></path><path stroke="black" stroke-width="2.5" stroke-linecap="butt" fill="none" d="M175.4 124.6 C 182 118, 192 108, 199 101"></path><path stroke="black" stroke-width="2.5" stroke-linecap="butt" fill="none" d="M186 167 C 196 165, 198 156, 198 154"></path><path stroke="black" stroke-width="2.5" stroke-linecap="butt" fill="none" d="M190.4 164.4 C 202 174, 208 178, 220 184"></path><path stroke="black" stroke-width="2.5" stroke-linecap="butt" fill="none" d="M196.39999999999998 157 C 204 160, 220 168, 248 170"></path><path stroke="black" stroke-width="2.5" stroke-linecap="butt" fill="none" d="M66 152.6 C 75 129, 87 119, 102 104"></path><path stroke="black" stroke-width="2.5" stroke-linecap="butt" fill="none" d="M78 165 C 88 150, 94 140, 116 127"></path><path stroke="black" stroke-width="2.5" stroke-linecap="butt" fill="none" d="M91 177 C 102 164, 112 154, 134 144"></path><path stroke="black" stroke-width="2.5" stroke-linecap="butt" fill="none" d="M154 60 C 168 56, 185.2 58, 194.8 61.60000000000002"></path><path stroke="black" stroke-width="2.5" stroke-linecap="butt" fill="none" d="M162 86.00000000000001 C 180 75.6, 187 76.4, 194.8 77"></path><path stroke="black" stroke-width="2.5" stroke-linecap="butt" fill="none" d="M170 113 C 180 99, 184.39999999999998 96, 194.8 92.39999999999999"></path><path stroke="none" stroke-width="2" stroke-linecap="butt" fill="grey" d="M350 200 C 372 178, 385 165, 400 150 C 424.4 161.2, 440.4 173.6, 462.79999999999995 193.6 C 496 188.8, 516.8 191.6, 550 200 C 529.2 187.6, 517.4 178.6, 503.2 159.6 C 482 158.4, 467.8 156.6, 450 150 C 450 118, 450 108, 450 100 C 450 85.00000000000001, 450 75, 450 50 C 432.2 43.400000000000006, 418 41.599999999999994, 396.8 40.39999999999998 C 382.6 21.400000000000006, 370.8 12.400000000000006, 350 0 C 341.6 33.20000000000002, 338.8 54, 343.6 87.20000000000002 C 323.6 109.6, 311.2 125.6, 300 150 C 320 170, 340 190, 350 200 Z"></path><path stroke="white" stroke-width="2.5" stroke-linecap="butt" fill="white" d="M350.8 40 C 358 45.599999999999994, 363.6 60.80000000000001, 364.8 63 C 359 68, 352 76.6, 348.4 81.60000000000001 C 346.6 63, 347.6 46, 350.8 40 Z"></path><path stroke="white" stroke-width="2.5" stroke-linecap="butt" fill="white" d="M369 26 C 382 32, 390 42, 391 43.599999999999994 C 383 48, 378 52, 373 57 C 369 45, 368 34, 369 26 Z"></path><path stroke="none" stroke-width="2" stroke-linecap="butt" fill="grey" d="M353.6 56 C 357.6 58.400000000000006, 360.6 63.19999999999999, 361.4 65.19999999999999 C 357 69.6, 352 75.6, 351.6 76.4 C 351 63, 352 60, 353.6 56 Z"></path><path stroke="none" stroke-width="2" stroke-linecap="butt" fill="grey" d="M375.6 38 C 380 39, 384.8 43.400000000000006, 387 45.19999999999999 C 380.8 48.80000000000001, 377.8 52, 376.4 52.80000000000001 C 375.2 48, 374.4 41, 375.6 38 Z"></path><path stroke="white" stroke-width="2.5" stroke-linecap="butt" fill="none" d="M518 186 C 420 176, 378 100, 355 20"></path><path stroke="white" stroke-width="2.5" stroke-linecap="butt" fill="none" d="M347 96 C 358 120, 374 140, 392 148"></path><path stroke="white" stroke-width="2.5" stroke-linecap="butt" fill="none" d="M445 146 C 414 130, 418 80, 398 46"></path><path stroke="white" stroke-width="2.5" stroke-linecap="butt" fill="none" d="M425.4 124.6 C 432 118, 442 108, 449 101"></path><path stroke="white" stroke-width="2.5" stroke-linecap="butt" fill="none" d="M436 167 C 446 165, 448 156, 448 154"></path><path stroke="white" stroke-width="2.5" stroke-linecap="butt" fill="none" d="M440.4 164.4 C 452 174, 458 178, 470 184"></path><path stroke="white" stroke-width="2.5" stroke-linecap="butt" fill="none" d="M446.4 157 C 454 160, 470 168, 498 170"></path><path stroke="white" stroke-width="2.5" stroke-linecap="butt" fill="none" d="M316 152.6 C 325 129, 337 119, 352 104"></path><path stroke="white" stroke-width="2.5" stroke-linecap="butt" fill="none" d="M328 165 C 338 150, 344 140, 366 127"></path><path stroke="white" stroke-width="2.5" stroke-linecap="butt" fill="none" d="M341 177 C 352 164, 362 154, 384 144"></path><path stroke="white" stroke-width="2.5" stroke-linecap="butt" fill="none" d="M404 60 C 418 56, 435.2 58, 444.8 61.60000000000002"></path><path stroke="white" stroke-width="2.5" stroke-linecap="butt" fill="none" d="M412 86.00000000000001 C 430 75.6, 437 76.4, 444.8 77"></path><path stroke="white" stroke-width="2.5" stroke-linecap="butt" fill="none" d="M420 113 C 430 99, 434.4 96, 444.8 92.39999999999999"></path><path stroke="none" stroke-width="2" stroke-linecap="butt" fill="black" d="M600 200 C 622 178, 635 165, 650 150 C 674.4 161.2, 690.4 173.6, 712.8 193.6 C 746 188.8, 766.8 191.6, 800 200 C 779.2 187.6, 767.4 178.6, 753.2 159.6 C 732 158.4, 717.8 156.6, 700 150 C 700 118, 700 108, 700 100 C 700 85.00000000000001, 700 75, 700 50 C 682.2 43.400000000000006, 668 41.599999999999994, 646.8 40.39999999999998 C 632.6 21.400000000000006, 620.8 12.400000000000006, 600 0 C 591.6 33.20000000000002, 588.8 54, 593.6 87.20000000000002 C 573.6 109.6, 561.2 125.6, 550 150 C 570 170, 590 190, 600 200 Z"></path><path stroke="white" stroke-width="2.5" stroke-linecap="butt" fill="white" d="M600.8 40 C 608 45.599999999999994, 613.6 60.80000000000001, 614.8 63 C 609 68, 602 76.6, 598.4 81.60000000000001 C 596.6 63, 597.6 46, 600.8 40 Z"></path><path stroke="white" stroke-width="2.5" stroke-linecap="butt" fill="white" d="M619 26 C 632 32, 640 42, 641 43.599999999999994 C 633 48, 628 52, 623 57 C 619 45, 618 34, 619 26 Z"></path><path stroke="none" stroke-width="2" stroke-linecap="butt" fill="black" d="M603.6 56 C 607.6 58.400000000000006, 610.6 63.19999999999999, 611.4 65.19999999999999 C 607 69.6, 602 75.6, 601.6 76.4 C 601 63, 602 60, 603.6 56 Z"></path><path stroke="none" stroke-width="2" stroke-linecap="butt" fill="black" d="M625.6 38 C 630 39, 634.8 43.400000000000006, 637 45.19999999999999 C 630.8 48.80000000000001, 627.8 52, 626.4 52.80000000000001 C 625.2 48, 624.4 41, 625.6 38 Z"></path><path stroke="white" stroke-width="2.5" stroke-linecap="butt" fill="none" d="M768 186 C 670 176, 628 100, 605 20"></path><path stroke="white" stroke-width="2.5" stroke-linecap="butt" fill="none" d="M597 96 C 608 120, 624 140, 642 148"></path><path stroke="white" stroke-width="2.5" stroke-linecap="butt" fill="none" d="M695 146 C 664 130, 668 80, 648 46"></path><path stroke="white" stroke-width="2.5" stroke-linecap="butt" fill="none" d="M675.4 124.6 C 682 118, 692 108, 699 101"></path><path stroke="white" stroke-width="2.5" stroke-linecap="butt" fill="none" d="M686 167 C 696 165, 698 156, 698 154"></path><path stroke="white" stroke-width="2.5" stroke-linecap="butt" fill="none" d="M690.4 164.4 C 702 174, 708 178, 720 184"></path><path stroke="white" stroke-width="2.5" stroke-linecap="butt" fill="none" d="M696.4 157 C 704 160, 720 168, 748 170"></path><path stroke="white" stroke-width="2.5" stroke-linecap="butt" fill="none" d="M566 152.6 C 575 129, 587 119, 602 104"></path><path stroke="white" stroke-width="2.5" stroke-linecap="butt" fill="none" d="M578 165 C 588 150, 594 140, 616 127"></path><path stroke="white" stroke-width="2.5" stroke-linecap="butt" fill="none" d="M591 177 C 602 164, 612 154, 634 144"></path><path stroke="white" stroke-width="2.5" stroke-linecap="butt" fill="none" d="M654 60 C 668 56, 685.2 58, 694.8 61.60000000000002"></path><path stroke="white" stroke-width="2.5" stroke-linecap="butt" fill="none" d="M662 86.00000000000001 C 680 75.6, 687 76.4, 694.8 77"></path><path stroke="white" stroke-width="2.5" stroke-linecap="butt" fill="none" d="M670 113 C 680 99, 684.4 96, 694.8 92.39999999999999"></path></svg>