<svg version="1.1" xmlns="http://www.w3.org/2000/svg" viewBox="75 0 750 250" x="0" y="0" width="750" height="250" style="background-color:lightgrey"><path stroke="none" stroke-width="2" stroke-linecap="butt" fill="white" d="M200 125 C 200 103, 200 90, 200 75 C 182.2 68.39999999999998, 168 66.6, 146.8 65.4 C 132.6 46.400000000000006, 120.80000000000001 37.400000000000006, 100 25 C 116.6 29.19999999999999, 127 30.599999999999994, 143.60000000000002 28.19999999999999 C 154.8 38.19999999999999, 162.8 44.400000000000006, 175 50 C 191 34, 196 29, 200 25 C 207.5 17.5, 212.5 12.5, 225 0 C 237.2 5.600000000000023, 245.2 11.800000000000011, 256.4 21.799999999999983 C 273 19.400000000000006, 283.4 20.80000000000001, 300 25 C 287.6 45.80000000000001, 278.6 57.599999999999994, 259.6 71.80000000000001 C 258.4 93, 256.6 107.19999999999999, 250 125 C 230 125, 210 125, 200 125 Z"></path><path stroke="black" stroke-width="1.7677669529663689" stroke-linecap="butt" fill="white" d="M279.6 44.599999999999994 C 273.2 43.80000000000001, 262.8 48.60000000000002, 261.1 49.099999999999994 C 261.5 54.5, 260.7 62.30000000000001, 260 66.6 C 270.2 58.19999999999999, 278.2 49.19999999999999, 279.6 44.599999999999994 Z"></path><path stroke="black" stroke-width="1.7677669529663689" stroke-linecap="butt" fill="white" d="M277.5 28.5 C 268 25, 259 26, 257.7 26.30000000000001 C 259.5 32.5, 260 37, 260 42 C 268 38, 274 33, 277.5 28.5 Z"></path><path stroke="none" stroke-width="2" stroke-linecap="butt" fill="black" d="M270.2 51.19999999999999 C 267 50.400000000000006, 263.1 51.30000000000001, 261.7 51.89999999999998 C 261.7 56.30000000000001, 261.2 61.80000000000001, 261 62.400000000000006 C 268 56, 269 54, 270.2 51.19999999999999 Z"></path><path stroke="none" stroke-width="2" stroke-linecap="butt" fill="black" d="M268.2 31.19999999999999 C 265.5 29.5, 260.9 29.30000000000001, 258.9 29.099999999999994 C 260.2 34, 260.1 37.099999999999994, 260.4 38.19999999999999 C 263.4 36.400000000000006, 267.3 33.30000000000001, 268.2 31.19999999999999 Z"></path><path stroke="black" stroke-width="1.7677669529663689" stroke-linecap="butt" fill="none" d="M123 34 C 177 78, 236 61, 287.5 32.5"></path><path stroke="black" stroke-width="1.7677669529663689" stroke-linecap="butt" fill="none" d="M253.5 74.5 C 236 81, 218 83, 205 78"></path><path stroke="black" stroke-width="1.7677669529663689" stroke-linecap="butt" fill="none" d="M179.5 50.5 C 203 58, 226 31, 253 24"></path><path stroke="black" stroke-width="1.7677669529663689" stroke-linecap="butt" fill="none" d="M200 49.599999999999994 C 200 43, 200 33, 200 26"></path><path stroke="black" stroke-width="1.7677669529663689" stroke-linecap="butt" fill="none" d="M173.5 65.5 C 169.5 59.5, 173 54, 174 53"></path><path stroke="black" stroke-width="1.7677669529663689" stroke-linecap="butt" fill="none" d="M172.6 62 C 162 61, 157 60, 148 57"></path><path stroke="black" stroke-width="1.7677669529663689" stroke-linecap="butt" fill="none" d="M173.3 55.30000000000001 C 168 53, 156 49, 141 36"></path><path stroke="black" stroke-width="1.7677669529663689" stroke-linecap="butt" fill="none" d="M240.7 118.30000000000001 C 248 102, 247 91, 247 76"></path><path stroke="black" stroke-width="1.7677669529663689" stroke-linecap="butt" fill="none" d="M228.5 118.5 C 231 106, 233 98, 228.5 80.5"></path><path stroke="black" stroke-width="1.7677669529663689" stroke-linecap="butt" fill="none" d="M216 118 C 217 106, 217 96, 211 80"></path><path stroke="black" stroke-width="1.7677669529663689" stroke-linecap="butt" fill="none" d="M243 28 C 238 19, 228.4 11.400000000000006, 221.79999999999998 8.400000000000006"></path><path stroke="black" stroke-width="1.7677669529663689" stroke-linecap="butt" fill="none" d="M226 37 C 222.2 22.80000000000001, 218.3 19.69999999999999, 214.1 16.099999999999994"></path><path stroke="black" stroke-width="1.7677669529663689" stroke-linecap="butt" fill="none" d="M208.5 46.5 C 210.5 34.5, 209.8 30.80000000000001, 206.4 23.80000000000001"></path><path stroke="none" stroke-width="2" stroke-linecap="butt" fill="black" d="M200 125 C 178 125, 165 125, 150 125 C 143.39999999999998 142.8, 141.6 157, 140.4 178.2 C 121.4 192.4, 112.4 204.2, 100 225 C 104.19999999999999 208.4, 105.6 198, 103.2 181.39999999999998 C 113.2 170.2, 119.4 162.2, 125 150 C 109 134, 104 129, 100 125 C 92.5 117.5, 87.5 112.5, 75 100 C 80.60000000000001 87.80000000000001, 86.8 79.80000000000001, 96.79999999999998 68.6 C 94.4 52, 95.8 41.60000000000002, 100 25 C 120.80000000000001 37.400000000000006, 132.6 46.400000000000006, 146.8 65.4 C 168 66.6, 182.2 68.39999999999998, 200 75 C 200 95, 200 115, 200 125 Z"></path><path stroke="white" stroke-width="1.7677669529663689" stroke-linecap="butt" fill="white" d="M119.6 45.400000000000006 C 118.8 51.80000000000001, 123.60000000000001 62.19999999999999, 124.1 63.900000000000006 C 129.5 63.5, 137.3 64.30000000000001, 141.6 65 C 133.2 54.80000000000001, 124.2 46.80000000000001, 119.6 45.400000000000006 Z"></path><path stroke="white" stroke-width="1.7677669529663689" stroke-linecap="butt" fill="white" d="M103.5 47.5 C 100 57, 101 66, 101.3 67.30000000000001 C 107.5 65.5, 112 65, 117 65 C 113 57, 108 51, 103.5 47.5 Z"></path><path stroke="none" stroke-width="2" stroke-linecap="butt" fill="black" d="M126.2 54.80000000000001 C 125.4 58, 126.3 61.89999999999998, 126.89999999999999 63.30000000000001 C 131.3 63.30000000000001, 136.8 63.80000000000001, 137.4 64 C 131 57, 129 56, 126.2 54.80000000000001 Z"></path><path stroke="none" stroke-width="2" stroke-linecap="butt" fill="black" d="M106.2 56.80000000000001 C 104.5 59.5, 104.30000000000001 64.1, 104.1 66.1 C 109 64.80000000000001, 112.1 64.9, 113.2 64.60000000000002 C 111.4 61.599999999999994, 108.3 57.69999999999999, 106.2 56.80000000000001 Z"></path><path stroke="white" stroke-width="1.7677669529663689" stroke-linecap="butt" fill="none" d="M109 202 C 153 148, 136 89, 107.5 37.5"></path><path stroke="white" stroke-width="1.7677669529663689" stroke-linecap="butt" fill="none" d="M149.5 71.5 C 156 89, 158 107, 153 120"></path><path stroke="white" stroke-width="1.7677669529663689" stroke-linecap="butt" fill="none" d="M125.5 145.5 C 133 122, 106 99, 99 72"></path><path stroke="white" stroke-width="1.7677669529663689" stroke-linecap="butt" fill="none" d="M124.6 125 C 118 125, 108 125, 101 125"></path><path stroke="white" stroke-width="1.7677669529663689" stroke-linecap="butt" fill="none" d="M140.5 151.5 C 134.5 155.5, 129 152, 128 151"></path><path stroke="white" stroke-width="1.7677669529663689" stroke-linecap="butt" fill="none" d="M137 152.4 C 136 163, 135 168, 132 177"></path><path stroke="white" stroke-width="1.7677669529663689" stroke-linecap="butt" fill="none" d="M130.3 151.7 C 128 157, 124 169, 111 184"></path><path stroke="white" stroke-width="1.7677669529663689" stroke-linecap="butt" fill="none" d="M193.3 84.30000000000001 C 177 77, 166 78, 151 78"></path><path stroke="white" stroke-width="1.7677669529663689" stroke-linecap="butt" fill="none" d="M193.5 96.5 C 181 94, 173 92, 155.5 96.5"></path><path stroke="white" stroke-width="1.7677669529663689" stroke-linecap="butt" fill="none" d="M193 109 C 181 108, 171 108, 155 114"></path><path stroke="white" stroke-width="1.7677669529663689" stroke-linecap="butt" fill="none" d="M103 82 C 94 87, 86.4 96.6, 83.4 103.20000000000002"></path><path stroke="white" stroke-width="1.7677669529663689" stroke-linecap="butt" fill="none" d="M112 99 C 97.8 102.80000000000001, 94.7 106.69999999999999, 91.1 110.9"></path><path stroke="white" stroke-width="1.7677669529663689" stroke-linecap="butt" fill="none" d="M121.5 116.5 C 109.5 114.5, 105.80000000000001 115.19999999999999, 98.8 118.6"></path><path stroke="none" stroke-width="2" stroke-linecap="butt" fill="white" d="M200 125 C 200 147, 200 160, 200 175 C 217.8 181.60000000000002, 232 183.4, 253.2 184.6 C 267.4 203.6, 279.2 212.6, 300 225 C 283.4 220.8, 273 219.4, 256.4 221.8 C 245.2 211.8, 237.2 205.6, 225 200 C 209 216, 204 221, 200 225 C 192.5 232.5, 187.5 237.5, 175 250 C 162.8 244.39999999999998, 154.8 238.2, 143.6 228.20000000000002 C 127 230.6, 116.60000000000001 229.2, 100 225 C 112.4 204.2, 121.4 192.4, 140.4 178.2 C 141.6 157, 143.39999999999998 142.8, 150 125 C 170 125, 190 125, 200 125 Z"></path><path stroke="black" stroke-width="1.7677669529663689" stroke-linecap="butt" fill="white" d="M120.4 205.4 C 126.8 206.2, 137.2 201.39999999999998, 138.9 200.9 C 138.5 195.5, 139.3 187.7, 140 183.4 C 129.8 191.8, 121.8 200.8, 120.4 205.4 Z"></path><path stroke="black" stroke-width="1.7677669529663689" stroke-linecap="butt" fill="white" d="M122.5 221.5 C 132 225, 141 224, 142.3 223.7 C 140.5 217.5, 140 213, 140 208 C 132 212, 126 217, 122.5 221.5 Z"></path><path stroke="none" stroke-width="2" stroke-linecap="butt" fill="black" d="M129.8 198.8 C 133 199.6, 136.89999999999998 198.7, 138.3 198.10000000000002 C 138.3 193.7, 138.8 188.2, 139 187.6 C 132 194, 131 196, 129.8 198.8 Z"></path><path stroke="none" stroke-width="2" stroke-linecap="butt" fill="black" d="M131.8 218.8 C 134.5 220.5, 139.1 220.7, 141.1 220.9 C 139.8 216, 139.9 212.9, 139.60000000000002 211.8 C 136.6 213.6, 132.7 216.7, 131.8 218.8 Z"></path><path stroke="black" stroke-width="1.7677669529663689" stroke-linecap="butt" fill="none" d="M277 216 C 223 172, 164 189, 112.5 217.5"></path><path stroke="black" stroke-width="1.7677669529663689" stroke-linecap="butt" fill="none" d="M146.5 175.5 C 164 169, 182 167, 195 172"></path><path stroke="black" stroke-width="1.7677669529663689" stroke-linecap="butt" fill="none" d="M220.5 199.5 C 197 192, 174 219, 147 226"></path><path stroke="black" stroke-width="1.7677669529663689" stroke-linecap="butt" fill="none" d="M200 200.4 C 200 207, 200 217, 200 224"></path><path stroke="black" stroke-width="1.7677669529663689" stroke-linecap="butt" fill="none" d="M226.5 184.5 C 230.5 190.5, 227 196, 226 197"></path><path stroke="black" stroke-width="1.7677669529663689" stroke-linecap="butt" fill="none" d="M227.4 188 C 238 189, 243 190, 252 193"></path><path stroke="black" stroke-width="1.7677669529663689" stroke-linecap="butt" fill="none" d="M226.7 194.7 C 232 197, 244 201, 259 214"></path><path stroke="black" stroke-width="1.7677669529663689" stroke-linecap="butt" fill="none" d="M159.3 131.7 C 152 148, 153 159, 153 174"></path><path stroke="black" stroke-width="1.7677669529663689" stroke-linecap="butt" fill="none" d="M171.5 131.5 C 169 144, 167 152, 171.5 169.5"></path><path stroke="black" stroke-width="1.7677669529663689" stroke-linecap="butt" fill="none" d="M184 132 C 183 144, 183 154, 189 170"></path><path stroke="black" stroke-width="1.7677669529663689" stroke-linecap="butt" fill="none" d="M157 222 C 162 231, 171.6 238.6, 178.20000000000002 241.6"></path><path stroke="black" stroke-width="1.7677669529663689" stroke-linecap="butt" fill="none" d="M174 213 C 177.8 227.2, 181.7 230.3, 185.9 233.9"></path><path stroke="black" stroke-width="1.7677669529663689" stroke-linecap="butt" fill="none" d="M191.5 203.5 C 189.5 215.5, 190.2 219.2, 193.6 226.2"></path><path stroke="none" stroke-width="2" stroke-linecap="butt" fill="black" d="M200 125 C 222 125, 235 125, 250 125 C 256.6 107.19999999999999, 258.4 93, 259.6 71.80000000000001 C 278.6 57.599999999999994, 287.6 45.80000000000001, 300 25 C 295.8 41.599999999999994, 294.4 52, 296.8 68.60000000000002 C 286.8 79.80000000000001, 280.6 87.80000000000001, 275 100 C 291 116, 296 121, 300 125 C 307.5 132.5, 312.5 137.5, 325 150 C 319.4 162.2, 313.2 170.2, 303.20000000000005 181.4 C 305.6 198, 304.2 208.39999999999998, 300 225 C 279.2 212.6, 267.4 203.6, 253.2 184.6 C 232 183.4, 217.8 181.60000000000002, 200 175 C 200 155, 200 135, 200 125 Z"></path><path stroke="white" stroke-width="1.7677669529663689" stroke-linecap="butt" fill="white" d="M280.4 204.6 C 281.2 198.2, 276.4 187.8, 275.9 186.1 C 270.5 186.5, 262.7 185.7, 258.4 185 C 266.8 195.2, 275.8 203.2, 280.4 204.6 Z"></path><path stroke="white" stroke-width="1.7677669529663689" stroke-linecap="butt" fill="white" d="M296.5 202.5 C 300 193, 299 184, 298.7 182.7 C 292.5 184.5, 288 185, 283 185 C 287 193, 292 199, 296.5 202.5 Z"></path><path stroke="none" stroke-width="2" stroke-linecap="butt" fill="black" d="M273.8 195.2 C 274.6 192, 273.7 188.10000000000002, 273.1 186.7 C 268.7 186.7, 263.2 186.2, 262.6 186 C 269 193, 271 194, 273.8 195.2 Z"></path><path stroke="none" stroke-width="2" stroke-linecap="butt" fill="black" d="M293.8 193.2 C 295.5 190.5, 295.7 185.9, 295.9 183.9 C 291 185.2, 287.9 185.1, 286.8 185.39999999999998 C 288.6 188.4, 291.7 192.3, 293.8 193.2 Z"></path><path stroke="white" stroke-width="1.7677669529663689" stroke-linecap="butt" fill="none" d="M291 48 C 247 102, 264 161, 292.5 212.5"></path><path stroke="white" stroke-width="1.7677669529663689" stroke-linecap="butt" fill="none" d="M250.5 178.5 C 244 161, 242 143, 247 130"></path><path stroke="white" stroke-width="1.7677669529663689" stroke-linecap="butt" fill="none" d="M274.5 104.5 C 267 128, 294 151, 301 178"></path><path stroke="white" stroke-width="1.7677669529663689" stroke-linecap="butt" fill="none" d="M275.4 125 C 282 125, 292 125, 299 125"></path><path stroke="white" stroke-width="1.7677669529663689" stroke-linecap="butt" fill="none" d="M259.5 98.5 C 265.5 94.5, 271 98, 272 99"></path><path stroke="white" stroke-width="1.7677669529663689" stroke-linecap="butt" fill="none" d="M263 97.6 C 264 87, 265 82, 268 73"></path><path stroke="white" stroke-width="1.7677669529663689" stroke-linecap="butt" fill="none" d="M269.7 98.30000000000001 C 272 93, 276 81, 289 66"></path><path stroke="white" stroke-width="1.7677669529663689" stroke-linecap="butt" fill="none" d="M206.7 165.7 C 223 173, 234 172, 249 172"></path><path stroke="white" stroke-width="1.7677669529663689" stroke-linecap="butt" fill="none" d="M206.5 153.5 C 219 156, 227 158, 244.5 153.5"></path><path stroke="white" stroke-width="1.7677669529663689" stroke-linecap="butt" fill="none" d="M207 141 C 219 142, 229 142, 245 136"></path><path stroke="white" stroke-width="1.7677669529663689" stroke-linecap="butt" fill="none" d="M297 168 C 306 163, 313.6 153.4, 316.6 146.79999999999998"></path><path stroke="white" stroke-width="1.7677669529663689" stroke-linecap="butt" fill="none" d="M288 151 C 302.2 147.2, 305.3 143.3, 308.9 139.1"></path><path stroke="white" stroke-width="1.7677669529663689" stroke-linecap="butt" fill="none" d="M278.5 133.5 C 290.5 135.5, 294.2 134.8, 301.2 131.4"></path><path stroke="none" stroke-width="2" stroke-linecap="butt" fill="grey" d="M450 125 C 450 103, 450 90, 450 75 C 432.2 68.39999999999998, 418 66.6, 396.8 65.4 C 382.6 46.400000000000006, 370.8 37.400000000000006, 350 25 C 366.6 29.19999999999999, 377 30.599999999999994, 393.6 28.19999999999999 C 404.8 38.19999999999999, 412.8 44.400000000000006, 425 50 C 441 34, 446 29, 450 25 C 457.5 17.5, 462.5 12.5, 475 0 C 487.2 5.600000000000023, 495.2 11.800000000000011, 506.4 21.799999999999983 C 523 19.400000000000006, 533.4 20.80000000000001, 550 25 C 537.6 45.80000000000001, 528.6 57.599999999999994, 509.6 71.80000000000001 C 508.4 93, 506.6 107.19999999999999, 500 125 C 480 125, 460 125, 450 125 Z"></path><path stroke="white" stroke-width="1.7677669529663689" stroke-linecap="butt" fill="white" d="M529.6 44.599999999999994 C 523.2 43.80000000000001, 512.8 48.60000000000002, 511.1 49.099999999999994 C 511.5 54.5, 510.7 62.30000000000001, 510 66.6 C 520.2 58.19999999999999, 528.2 49.19999999999999, 529.6 44.599999999999994 Z"></path><path stroke="white" stroke-width="1.7677669529663689" stroke-linecap="butt" fill="white" d="M527.5 28.5 C 518 25, 509 26, 507.7 26.30000000000001 C 509.5 32.5, 510 37, 510 42 C 518 38, 524 33, 527.5 28.5 Z"></path><path stroke="none" stroke-width="2" stroke-linecap="butt" fill="grey" d="M520.2 51.19999999999999 C 517 50.400000000000006, 513.1 51.30000000000001, 511.7 51.89999999999998 C 511.7 56.30000000000001, 511.2 61.80000000000001, 511 62.400000000000006 C 518 56, 519 54, 520.2 51.19999999999999 Z"></path><path stroke="none" stroke-width="2" stroke-linecap="butt" fill="grey" d="M518.2 31.19999999999999 C 515.5 29.5, 510.9 29.30000000000001, 508.9 29.099999999999994 C 510.2 34, 510.1 37.099999999999994, 510.4 38.19999999999999 C 513.4 36.400000000000006, 517.3 33.30000000000001, 518.2 31.19999999999999 Z"></path><path stroke="white" stroke-width="1.7677669529663689" stroke-linecap="butt" fill="none" d="M373 34 C 427 78, 486 61, 537.5 32.5"></path><path stroke="white" stroke-width="1.7677669529663689" stroke-linecap="butt" fill="none" d="M503.5 74.5 C 486 81, 468 83, 455 78"></path><path stroke="white" stroke-width="1.7677669529663689" stroke-linecap="butt" fill="none" d="M429.5 50.5 C 453 58, 476 31, 503 24"></path><path stroke="white" stroke-width="1.7677669529663689" stroke-linecap="butt" fill="none" d="M450 49.599999999999994 C 450 43, 450 33, 450 26"></path><path stroke="white" stroke-width="1.7677669529663689" stroke-linecap="butt" fill="none" d="M423.5 65.5 C 419.5 59.5, 423 54, 424 53"></path><path stroke="white" stroke-width="1.7677669529663689" stroke-linecap="butt" fill="none" d="M422.6 62 C 412 61, 407 60, 398 57"></path><path stroke="white" stroke-width="1.7677669529663689" stroke-linecap="butt" fill="none" d="M423.3 55.30000000000001 C 418 53, 406 49, 391 36"></path><path stroke="white" stroke-width="1.7677669529663689" stroke-linecap="butt" fill="none" d="M490.7 118.30000000000001 C 498 102, 497 91, 497 76"></path><path stroke="white" stroke-width="1.7677669529663689" stroke-linecap="butt" fill="none" d="M478.5 118.5 C 481 106, 483 98, 478.5 80.5"></path><path stroke="white" stroke-width="1.7677669529663689" stroke-linecap="butt" fill="none" d="M466 118 C 467 106, 467 96, 461 80"></path><path stroke="white" stroke-width="1.7677669529663689" stroke-linecap="butt" fill="none" d="M493 28 C 488 19, 478.4 11.400000000000006, 471.8 8.400000000000006"></path><path stroke="white" stroke-width="1.7677669529663689" stroke-linecap="butt" fill="none" d="M476 37 C 472.2 22.80000000000001, 468.3 19.69999999999999, 464.1 16.099999999999994"></path><path stroke="white" stroke-width="1.7677669529663689" stroke-linecap="butt" fill="none" d="M458.5 46.5 C 460.5 34.5, 459.8 30.80000000000001, 456.4 23.80000000000001"></path><path stroke="none" stroke-width="2" stroke-linecap="butt" fill="black" d="M450 125 C 428 125, 415 125, 400 125 C 393.4 142.8, 391.6 157, 390.4 178.2 C 371.4 192.4, 362.4 204.2, 350 225 C 354.2 208.4, 355.6 198, 353.2 181.39999999999998 C 363.2 170.2, 369.4 162.2, 375 150 C 359 134, 354 129, 350 125 C 342.5 117.5, 337.5 112.5, 325 100 C 330.6 87.80000000000001, 336.8 79.80000000000001, 346.79999999999995 68.6 C 344.4 52, 345.8 41.60000000000002, 350 25 C 370.8 37.400000000000006, 382.6 46.400000000000006, 396.8 65.4 C 418 66.6, 432.2 68.39999999999998, 450 75 C 450 95, 450 115, 450 125 Z"></path><path stroke="white" stroke-width="1.7677669529663689" stroke-linecap="butt" fill="white" d="M369.6 45.400000000000006 C 368.8 51.80000000000001, 373.6 62.19999999999999, 374.1 63.900000000000006 C 379.5 63.5, 387.3 64.30000000000001, 391.6 65 C 383.2 54.80000000000001, 374.2 46.80000000000001, 369.6 45.400000000000006 Z"></path><path stroke="white" stroke-width="1.7677669529663689" stroke-linecap="butt" fill="white" d="M353.5 47.5 C 350 57, 351 66, 351.3 67.30000000000001 C 357.5 65.5, 362 65, 367 65 C 363 57, 358 51, 353.5 47.5 Z"></path><path stroke="none" stroke-width="2" stroke-linecap="butt" fill="black" d="M376.2 54.80000000000001 C 375.4 58, 376.3 61.89999999999998, 376.9 63.30000000000001 C 381.3 63.30000000000001, 386.8 63.80000000000001, 387.4 64 C 381 57, 379 56, 376.2 54.80000000000001 Z"></path><path stroke="none" stroke-width="2" stroke-linecap="butt" fill="black" d="M356.2 56.80000000000001 C 354.5 59.5, 354.3 64.1, 354.1 66.1 C 359 64.80000000000001, 362.1 64.9, 363.2 64.60000000000002 C 361.4 61.599999999999994, 358.3 57.69999999999999, 356.2 56.80000000000001 Z"></path><path stroke="white" stroke-width="1.7677669529663689" stroke-linecap="butt" fill="none" d="M359 202 C 403 148, 386 89, 357.5 37.5"></path><path stroke="white" stroke-width="1.7677669529663689" stroke-linecap="butt" fill="none" d="M399.5 71.5 C 406 89, 408 107, 403 120"></path><path stroke="white" stroke-width="1.7677669529663689" stroke-linecap="butt" fill="none" d="M375.5 145.5 C 383 122, 356 99, 349 72"></path><path stroke="white" stroke-width="1.7677669529663689" stroke-linecap="butt" fill="none" d="M374.6 125 C 368 125, 358 125, 351 125"></path><path stroke="white" stroke-width="1.7677669529663689" stroke-linecap="butt" fill="none" d="M390.5 151.5 C 384.5 155.5, 379 152, 378 151"></path><path stroke="white" stroke-width="1.7677669529663689" stroke-linecap="butt" fill="none" d="M387 152.4 C 386 163, 385 168, 382 177"></path><path stroke="white" stroke-width="1.7677669529663689" stroke-linecap="butt" fill="none" d="M380.3 151.7 C 378 157, 374 169, 361 184"></path><path stroke="white" stroke-width="1.7677669529663689" stroke-linecap="butt" fill="none" d="M443.3 84.30000000000001 C 427 77, 416 78, 401 78"></path><path stroke="white" stroke-width="1.7677669529663689" stroke-linecap="butt" fill="none" d="M443.5 96.5 C 431 94, 423 92, 405.5 96.5"></path><path stroke="white" stroke-width="1.7677669529663689" stroke-linecap="butt" fill="none" d="M443 109 C 431 108, 421 108, 405 114"></path><path stroke="white" stroke-width="1.7677669529663689" stroke-linecap="butt" fill="none" d="M353 82 C 344 87, 336.4 96.6, 333.4 103.20000000000002"></path><path stroke="white" stroke-width="1.7677669529663689" stroke-linecap="butt" fill="none" d="M362 99 C 347.8 102.80000000000001, 344.7 106.69999999999999, 341.1 110.9"></path><path stroke="white" stroke-width="1.7677669529663689" stroke-linecap="butt" fill="none" d="M371.5 116.5 C 359.5 114.5, 355.8 115.19999999999999, 348.8 118.6"></path><path stroke="none" stroke-width="2" stroke-linecap="butt" fill="white" d="M450 125 C 450 147, 450 160, 450 175 C 467.8 181.60000000000002, 482 183.4, 503.2 184.6 C 517.4 203.6, 529.2 212.6, 550 225 C 533.4 220.8, 523 219.4, 506.4 221.8 C 495.2 211.8, 487.2 205.6, 475 200 C 459 216, 454 221, 450 225 C 442.5 232.5, 437.5 237.5, 425 250 C 412.8 244.39999999999998, 404.8 238.2, 393.6 228.20000000000002 C 377 230.6, 366.6 229.2, 350 225 C 362.4 204.2, 371.4 192.4, 390.4 178.2 C 391.6 157, 393.4 142.8, 400 125 C 420 125, 440 125, 450 125 Z"></path><path stroke="black" stroke-width="1.7677669529663689" stroke-linecap="butt" fill="white" d="M370.4 205.4 C 376.8 206.2, 387.2 201.39999999999998, 388.9 200.9 C 388.5 195.5, 389.3 187.7, 390 183.4 C 379.8 191.8, 371.8 200.8, 370.4 205.4 Z"></path><path stroke="black" stroke-width="1.7677669529663689" stroke-linecap="butt" fill="white" d="M372.5 221.5 C 382 225, 391 224, 392.3 223.7 C 390.5 217.5, 390 213, 390 208 C 382 212, 376 217, 372.5 221.5 Z"></path><path stroke="none" stroke-width="2" stroke-linecap="butt" fill="black" d="M379.8 198.8 C 383 199.6, 386.9 198.7, 388.3 198.10000000000002 C 388.3 193.7, 388.8 188.2, 389 187.6 C 382 194, 381 196, 379.8 198.8 Z"></path><path stroke="none" stroke-width="2" stroke-linecap="butt" fill="black" d="M381.8 218.8 C 384.5 220.5, 389.1 220.7, 391.1 220.9 C 389.8 216, 389.9 212.9, 389.6 211.8 C 386.6 213.6, 382.7 216.7, 381.8 218.8 Z"></path><path stroke="black" stroke-width="1.7677669529663689" stroke-linecap="butt" fill="none" d="M527 216 C 473 172, 414 189, 362.5 217.5"></path><path stroke="black" stroke-width="1.7677669529663689" stroke-linecap="butt" fill="none" d="M396.5 175.5 C 414 169, 432 167, 445 172"></path><path stroke="black" stroke-width="1.7677669529663689" stroke-linecap="butt" fill="none" d="M470.5 199.5 C 447 192, 424 219, 397 226"></path><path stroke="black" stroke-width="1.7677669529663689" stroke-linecap="butt" fill="none" d="M450 200.4 C 450 207, 450 217, 450 224"></path><path stroke="black" stroke-width="1.7677669529663689" stroke-linecap="butt" fill="none" d="M476.5 184.5 C 480.5 190.5, 477 196, 476 197"></path><path stroke="black" stroke-width="1.7677669529663689" stroke-linecap="butt" fill="none" d="M477.4 188 C 488 189, 493 190, 502 193"></path><path stroke="black" stroke-width="1.7677669529663689" stroke-linecap="butt" fill="none" d="M476.7 194.7 C 482 197, 494 201, 509 214"></path><path stroke="black" stroke-width="1.7677669529663689" stroke-linecap="butt" fill="none" d="M409.3 131.7 C 402 148, 403 159, 403 174"></path><path stroke="black" stroke-width="1.7677669529663689" stroke-linecap="butt" fill="none" d="M421.5 131.5 C 419 144, 417 152, 421.5 169.5"></path><path stroke="black" stroke-width="1.7677669529663689" stroke-linecap="butt" fill="none" d="M434 132 C 433 144, 433 154, 439 170"></path><path stroke="black" stroke-width="1.7677669529663689" stroke-linecap="butt" fill="none" d="M407 222 C 412 231, 421.6 238.6, 428.2 241.6"></path><path stroke="black" stroke-width="1.7677669529663689" stroke-linecap="butt" fill="none" d="M424 213 C 427.8 227.2, 431.7 230.3, 435.9 233.9"></path><path stroke="black" stroke-width="1.7677669529663689" stroke-linecap="butt" fill="none" d="M441.5 203.5 C 439.5 215.5, 440.2 219.2, 443.6 226.2"></path><path stroke="none" stroke-width="2" stroke-linecap="butt" fill="black" d="M450 125 C 472 125, 485 125, 500 125 C 506.6 107.19999999999999, 508.4 93, 509.6 71.80000000000001 C 528.6 57.599999999999994, 537.6 45.80000000000001, 550 25 C 545.8 41.599999999999994, 544.4 52, 546.8 68.60000000000002 C 536.8 79.80000000000001, 530.6 87.80000000000001, 525 100 C 541 116, 546 121, 550 125 C 557.5 132.5, 562.5 137.5, 575 150 C 569.4 162.2, 563.2 170.2, 553.2 181.4 C 555.6 198, 554.2 208.39999999999998, 550 225 C 529.2 212.6, 517.4 203.6, 503.2 184.6 C 482 183.4, 467.8 181.60000000000002, 450 175 C 450 155, 450 135, 450 125 Z"></path><path stroke="white" stroke-width="1.7677669529663689" stroke-linecap="butt" fill="white" d="M530.4 204.6 C 531.2 198.2, 526.4 187.8, 525.9 186.1 C 520.5 186.5, 512.7 185.7, 508.4 185 C 516.8 195.2, 525.8 203.2, 530.4 204.6 Z"></path><path stroke="white" stroke-width="1.7677669529663689" stroke-linecap="butt" fill="white" d="M546.5 202.5 C 550 193, 549 184, 548.7 182.7 C 542.5 184.5, 538 185, 533 185 C 537 193, 542 199, 546.5 202.5 Z"></path><path stroke="none" stroke-width="2" stroke-linecap="butt" fill="black" d="M523.8 195.2 C 524.6 192, 523.7 188.10000000000002, 523.1 186.7 C 518.7 186.7, 513.2 186.2, 512.6 186 C 519 193, 521 194, 523.8 195.2 Z"></path><path stroke="none" stroke-width="2" stroke-linecap="butt" fill="black" d="M543.8 193.2 C 545.5 190.5, 545.7 185.9, 545.9 183.9 C 541 185.2, 537.9 185.1, 536.8 185.39999999999998 C 538.6 188.4, 541.7 192.3, 543.8 193.2 Z"></path><path stroke="white" stroke-width="1.7677669529663689" stroke-linecap="butt" fill="none" d="M541 48 C 497 102, 514 161, 542.5 212.5"></path><path stroke="white" stroke-width="1.7677669529663689" stroke-linecap="butt" fill="none" d="M500.5 178.5 C 494 161, 492 143, 497 130"></path><path stroke="white" stroke-width="1.7677669529663689" stroke-linecap="butt" fill="none" d="M524.5 104.5 C 517 128, 544 151, 551 178"></path><path stroke="white" stroke-width="1.7677669529663689" stroke-linecap="butt" fill="none" d="M525.4 125 C 532 125, 542 125, 549 125"></path><path stroke="white" stroke-width="1.7677669529663689" stroke-linecap="butt" fill="none" d="M509.5 98.5 C 515.5 94.5, 521 98, 522 99"></path><path stroke="white" stroke-width="1.7677669529663689" stroke-linecap="butt" fill="none" d="M513 97.6 C 514 87, 515 82, 518 73"></path><path stroke="white" stroke-width="1.7677669529663689" stroke-linecap="butt" fill="none" d="M519.7 98.30000000000001 C 522 93, 526 81, 539 66"></path><path stroke="white" stroke-width="1.7677669529663689" stroke-linecap="butt" fill="none" d="M456.7 165.7 C 473 173, 484 172, 499 172"></path><path stroke="white" stroke-width="1.7677669529663689" stroke-linecap="butt" fill="none" d="M456.5 153.5 C 469 156, 477 158, 494.5 153.5"></path><path stroke="white" stroke-width="1.7677669529663689" stroke-linecap="butt" fill="none" d="M457 141 C 469 142, 479 142, 495 136"></path><path stroke="white" stroke-width="1.7677669529663689" stroke-linecap="butt" fill="none" d="M547 168 C 556 163, 563.6 153.4, 566.6 146.79999999999998"></path><path stroke="white" stroke-width="1.7677669529663689" stroke-linecap="butt" fill="none" d="M538 151 C 552.2 147.2, 555.3 143.3, 558.9 139.1"></path><path stroke="white" stroke-width="1.7677669529663689" stroke-linecap="butt" fill="none" d="M528.5 133.5 C 540.5 135.5, 544.2 134.8, 551.2 131.4"></path><path stroke="none" stroke-width="2" stroke-linecap="butt" fill="white" d="M700 125 C 700 103, 700 90, 700 75 C 682.2 68.39999999999998, 668 66.6, 646.8 65.4 C 632.6 46.400000000000006, 620.8 37.400000000000006, 600 25 C 616.6 29.19999999999999, 627 30.599999999999994, 643.6 28.19999999999999 C 654.8 38.19999999999999, 662.8 44.400000000000006, 675 50 C 691 34, 696 29, 700 25 C 707.5 17.5, 712.5 12.5, 725 0 C 737.2 5.600000000000023, 745.2 11.800000000000011, 756.4 21.799999999999983 C 773 19.400000000000006, 783.4 20.80000000000001, 800 25 C 787.6 45.80000000000001, 778.6 57.599999999999994, 759.6 71.80000000000001 C 758.4 93, 756.6 107.19999999999999, 750 125 C 730 125, 710 125, 700 125 Z"></path><path stroke="black" stroke-width="1.7677669529663689" stroke-linecap="butt" fill="white" d="M779.6 44.599999999999994 C 773.2 43.80000000000001, 762.8 48.60000000000002, 761.1 49.099999999999994 C 761.5 54.5, 760.7 62.30000000000001, 760 66.6 C 770.2 58.19999999999999, 778.2 49.19999999999999, 779.6 44.599999999999994 Z"></path><path stroke="black" stroke-width="1.7677669529663689" stroke-linecap="butt" fill="white" d="M777.5 28.5 C 768 25, 759 26, 757.7 26.30000000000001 C 759.5 32.5, 760 37, 760 42 C 768 38, 774 33, 777.5 28.5 Z"></path><path stroke="none" stroke-width="2" stroke-linecap="butt" fill="black" d="M770.2 51.19999999999999 C 767 50.400000000000006, 763.1 51.30000000000001, 761.7 51.89999999999998 C 761.7 56.30000000000001, 761.2 61.80000000000001, 761 62.400000000000006 C 768 56, 769 54, 770.2 51.19999999999999 Z"></path><path stroke="none" stroke-width="2" stroke-linecap="butt" fill="black" d="M768.2 31.19999999999999 C 765.5 29.5, 760.9 29.30000000000001, 758.9 29.099999999999994 C 760.2 34, 760.1 37.099999999999994, 760.4 38.19999999999999 C 763.4 36.400000000000006, 767.3 33.30000000000001, 768.2 31.19999999999999 Z"></path><path stroke="black" stroke-width="1.7677669529663689" stroke-linecap="butt" fill="none" d="M623 34 C 677 78, 736 61, 787.5 32.5"></path><path stroke="black" stroke-width="1.7677669529663689" stroke-linecap="butt" fill="none" d="M753.5 74.5 C 736 81, 718 83, 705 78"></path><path stroke="black" stroke-width="1.7677669529663689" stroke-linecap="butt" fill="none" d="M679.5 50.5 C 703 58, 726 31, 753 24"></path><path stroke="black" stroke-width="1.7677669529663689" stroke-linecap="butt" fill="none" d="M700 49.599999999999994 C 700 43, 700 33, 700 26"></path><path stroke="black" stroke-width="1.7677669529663689" stroke-linecap="butt" fill="none" d="M673.5 65.5 C 669.5 59.5, 673 54, 674 53"></path><path stroke="black" stroke-width="1.7677669529663689" stroke-linecap="butt" fill="none" d="M672.6 62 C 662 61, 657 60, 648 57"></path><path stroke="black" stroke-width="1.7677669529663689" stroke-linecap="butt" fill="none" d="M673.3 55.30000000000001 C 668 53, 656 49, 641 36"></path><path stroke="black" stroke-width="1.7677669529663689" stroke-linecap="butt" fill="none" d="M740.7 118.30000000000001 C 748 102, 747 91, 747 76"></path><path stroke="black" stroke-width="1.7677669529663689" stroke-linecap="butt" fill="none" d="M728.5 118.5 C 731 106, 733 98, 728.5 80.5"></path><path stroke="black" stroke-width="1.7677669529663689" stroke-linecap="butt" fill="none" d="M716 118 C 717 106, 717 96, 711 80"></path><path stroke="black" stroke-width="1.7677669529663689" stroke-linecap="butt" fill="none" d="M743 28 C 738 19, 728.4 11.400000000000006, 721.8 8.400000000000006"></path><path stroke="black" stroke-width="1.7677669529663689" stroke-linecap="butt" fill="none" d="M726 37 C 722.2 22.80000000000001, 718.3 19.69999999999999, 714.1 16.099999999999994"></path><path stroke="black" stroke-width="1.7677669529663689" stroke-linecap="butt" fill="none" d="M708.5 46.5 C 710.5 34.5, 709.8 30.80000000000001, 706.4 23.80000000000001"></path><path stroke="none" stroke-width="2" stroke-linecap="butt" fill="black" d="M700 125 C 678 125, 665 125, 650 125 C 643.4 142.8, 641.6 157, 640.4 178.2 C 621.4 192.4, 612.4 204.2, 600 225 C 604.2 208.4, 605.6 198, 603.2 181.39999999999998 C 613.2 170.2, 619.4 162.2, 625 150 C 609 134, 604 129, 600 125 C 592.5 117.5, 587.5 112.5, 575 100 C 580.6 87.80000000000001, 586.8 79.80000000000001, 596.8 68.6 C 594.4 52, 595.8 41.60000000000002, 600 25 C 620.8 37.400000000000006, 632.6 46.400000000000006, 646.8 65.4 C 668 66.6, 682.2 68.39999999999998, 700 75 C 700 95, 700 115, 700 125 Z"></path><path stroke="white" stroke-width="1.7677669529663689" stroke-linecap="butt" fill="white" d="M619.6 45.400000000000006 C 618.8 51.80000000000001, 623.6 62.19999999999999, 624.1 63.900000000000006 C 629.5 63.5, 637.3 64.30000000000001, 641.6 65 C 633.2 54.80000000000001, 624.2 46.80000000000001, 619.6 45.400000000000006 Z"></path><path stroke="white" stroke-width="1.7677669529663689" stroke-linecap="butt" fill="white" d="M603.5 47.5 C 600 57, 601 66, 601.3 67.30000000000001 C 607.5 65.5, 612 65, 617 65 C 613 57, 608 51, 603.5 47.5 Z"></path><path stroke="none" stroke-width="2" stroke-linecap="butt" fill="black" d="M626.2 54.80000000000001 C 625.4 58, 626.3 61.89999999999998, 626.9 63.30000000000001 C 631.3 63.30000000000001, 636.8 63.80000000000001, 637.4 64 C 631 57, 629 56, 626.2 54.80000000000001 Z"></path><path stroke="none" stroke-width="2" stroke-linecap="butt" fill="black" d="M606.2 56.80000000000001 C 604.5 59.5, 604.3 64.1, 604.1 66.1 C 609 64.80000000000001, 612.1 64.9, 613.2 64.60000000000002 C 611.4 61.599999999999994, 608.3 57.69999999999999, 606.2 56.80000000000001 Z"></path><path stroke="white" stroke-width="1.7677669529663689" stroke-linecap="butt" fill="none" d="M609 202 C 653 148, 636 89, 607.5 37.5"></path><path stroke="white" stroke-width="1.7677669529663689" stroke-linecap="butt" fill="none" d="M649.5 71.5 C 656 89, 658 107, 653 120"></path><path stroke="white" stroke-width="1.7677669529663689" stroke-linecap="butt" fill="none" d="M625.5 145.5 C 633 122, 606 99, 599 72"></path><path stroke="white" stroke-width="1.7677669529663689" stroke-linecap="butt" fill="none" d="M624.6 125 C 618 125, 608 125, 601 125"></path><path stroke="white" stroke-width="1.7677669529663689" stroke-linecap="butt" fill="none" d="M640.5 151.5 C 634.5 155.5, 629 152, 628 151"></path><path stroke="white" stroke-width="1.7677669529663689" stroke-linecap="butt" fill="none" d="M637 152.4 C 636 163, 635 168, 632 177"></path><path stroke="white" stroke-width="1.7677669529663689" stroke-linecap="butt" fill="none" d="M630.3 151.7 C 628 157, 624 169, 611 184"></path><path stroke="white" stroke-width="1.7677669529663689" stroke-linecap="butt" fill="none" d="M693.3 84.30000000000001 C 677 77, 666 78, 651 78"></path><path stroke="white" stroke-width="1.7677669529663689" stroke-linecap="butt" fill="none" d="M693.5 96.5 C 681 94, 673 92, 655.5 96.5"></path><path stroke="white" stroke-width="1.7677669529663689" stroke-linecap="butt" fill="none" d="M693 109 C 681 108, 671 108, 655 114"></path><path stroke="white" stroke-width="1.7677669529663689" stroke-linecap="butt" fill="none" d="M603 82 C 594 87, 586.4 96.6, 583.4 103.20000000000002"></path><path stroke="white" stroke-width="1.7677669529663689" stroke-linecap="butt" fill="none" d="M612 99 C 597.8 102.80000000000001, 594.7 106.69999999999999, 591.1 110.9"></path><path stroke="white" stroke-width="1.7677669529663689" stroke-linecap="butt" fill="none" d="M621.5 116.5 C 609.5 114.5, 605.8 115.19999999999999, 598.8 118.6"></path><path stroke="none" stroke-width="2" stroke-linecap="butt" fill="grey" d="M700 125 C 700 147, 700 160, 700 175 C 717.8 181.60000000000002, 732 183.4, 753.2 184.6 C 767.4 203.6, 779.2 212.6, 800 225 C 783.4 220.8, 773 219.4, 756.4 221.8 C 745.2 211.8, 737.2 205.6, 725 200 C 709 216, 704 221, 700 225 C 692.5 232.5, 687.5 237.5, 675 250 C 662.8 244.39999999999998, 654.8 238.2, 643.6 228.20000000000002 C 627 230.6, 616.6 229.2, 600 225 C 612.4 204.2, 621.4 192.4, 640.4 178.2 C 641.6 157, 643.4 142.8, 650 125 C 670 125, 690 125, 700 125 Z"></path><path stroke="white" stroke-width="1.7677669529663689" stroke-linecap="butt" fill="white" d="M620.4 205.4 C 626.8 206.2, 637.2 201.39999999999998, 638.9 200.9 C 638.5 195.5, 639.3 187.7, 640 183.4 C 629.8 191.8, 621.8 200.8, 620.4 205.4 Z"></path><path stroke="white" stroke-width="1.7677669529663689" stroke-linecap="butt" fill="white" d="M622.5 221.5 C 632 225, 641 224, 642.3 223.7 C 640.5 217.5, 640 213, 640 208 C 632 212, 626 217, 622.5 221.5 Z"></path><path stroke="none" stroke-width="2" stroke-linecap="butt" fill="grey" d="M629.8 198.8 C 633 199.6, 636.9 198.7, 638.3 198.10000000000002 C 638.3 193.7, 638.8 188.2, 639 187.6 C 632 194, 631 196, 629.8 198.8 Z"></path><path stroke="none" stroke-width="2" stroke-linecap="butt" fill="grey" d="M631.8 218.8 C 634.5 220.5, 639.1 220.7, 641.1 220.9 C 639.8 216, 639.9 212.9, 639.6 211.8 C 636.6 213.6, 632.7 216.7, 631.8 218.8 Z"></path><path stroke="white" stroke-width="1.7677669529663689" stroke-linecap="butt" fill="none" d="M777 216 C 723 172, 664 189, 612.5 217.5"></path><path stroke="white" stroke-width="1.7677669529663689" stroke-linecap="butt" fill="none" d="M646.5 175.5 C 664 169, 682 167, 695 172"></path><path stroke="white" stroke-width="1.7677669529663689" stroke-linecap="butt" fill="none" d="M720.5 199.5 C 697 192, 674 219, 647 226"></path><path stroke="white" stroke-width="1.7677669529663689" stroke-linecap="butt" fill="none" d="M700 200.4 C 700 207, 700 217, 700 224"></path><path stroke="white" stroke-width="1.7677669529663689" stroke-linecap="butt" fill="none" d="M726.5 184.5 C 730.5 190.5, 727 196, 726 197"></path><path stroke="white" stroke-width="1.7677669529663689" stroke-linecap="butt" fill="none" d="M727.4 188 C 738 189, 743 190, 752 193"></path><path stroke="white" stroke-width="1.7677669529663689" stroke-linecap="butt" fill="none" d="M726.7 194.7 C 732 197, 744 201, 759 214"></path><path stroke="white" stroke-width="1.7677669529663689" stroke-linecap="butt" fill="none" d="M659.3 131.7 C 652 148, 653 159, 653 174"></path><path stroke="white" stroke-width="1.7677669529663689" stroke-linecap="butt" fill="none" d="M671.5 131.5 C 669 144, 667 152, 671.5 169.5"></path><path stroke="white" stroke-width="1.7677669529663689" stroke-linecap="butt" fill="none" d="M684 132 C 683 144, 683 154, 689 170"></path><path stroke="white" stroke-width="1.7677669529663689" stroke-linecap="butt" fill="none" d="M657 222 C 662 231, 671.6 238.6, 678.2 241.6"></path><path stroke="white" stroke-width="1.7677669529663689" stroke-linecap="butt" fill="none" d="M674 213 C 677.8 227.2, 681.7 230.3, 685.9 233.9"></path><path stroke="white" stroke-width="1.7677669529663689" stroke-linecap="butt" fill="none" d="M691.5 203.5 C 689.5 215.5, 690.2 219.2, 693.6 226.2"></path><path stroke="none" stroke-width="2" stroke-linecap="butt" fill="black" d="M700 125 C 722 125, 735 125, 750 125 C 756.6 107.19999999999999, 758.4 93, 759.6 71.80000000000001 C 778.6 57.599999999999994, 787.6 45.80000000000001, 800 25 C 795.8 41.599999999999994, 794.4 52, 796.8 68.60000000000002 C 786.8 79.80000000000001, 780.6 87.80000000000001, 775 100 C 791 116, 796 121, 800 125 C 807.5 132.5, 812.5 137.5, 825 150 C 819.4 162.2, 813.2 170.2, 803.2 181.4 C 805.6 198, 804.2 208.39999999999998, 800 225 C 779.2 212.6, 767.4 203.6, 753.2 184.6 C 732 183.4, 717.8 181.60000000000002, 700 175 C 700 155, 700 135, 700 125 Z"></path><path stroke="white" stroke-width="1.7677669529663689" stroke-linecap="butt" fill="white" d="M780.4 204.6 C 781.2 198.2, 776.4 187.8, 775.9 186.1 C 770.5 186.5, 762.7 185.7, 758.4 185 C 766.8 195.2, 775.8 203.2, 780.4 204.6 Z"></path><path stroke="white" stroke-width="1.7677669529663689" stroke-linecap="butt" fill="white" d="M796.5 202.5 C 800 193, 799 184, 798.7 182.7 C 792.5 184.5, 788 185, 783 185 C 787 193, 792 199, 796.5 202.5 Z"></path><path stroke="none" stroke-width="2" stroke-linecap="butt" fill="black" d="M773.8 195.2 C 774.6 192, 773.7 188.10000000000002, 773.1 186.7 C 768.7 186.7, 763.2 186.2, 762.6 186 C 769 193, 771 194, 773.8 195.2 Z"></path><path stroke="none" stroke-width="2" stroke-linecap="butt" fill="black" d="M793.8 193.2 C 795.5 190.5, 795.7 185.9, 795.9 183.9 C 791 185.2, 787.9 185.1, 786.8 185.39999999999998 C 788.6 188.4, 791.7 192.3, 793.8 193.2 Z"></path><path stroke="white" stroke-width="1.7677669529663689" stroke-linecap="butt" fill="none" d="M791 48 C 747 102, 764 161, 792.5 212.5"></path><path stroke="white" stroke-width="1.7677669529663689" stroke-linecap="butt" fill="none" d="M750.5 178.5 C 744 161, 742 143, 747 130"></path><path stroke="white" stroke-width="1.7677669529663689" stroke-linecap="butt" fill="none" d="M774.5 104.5 C 767 128, 794 151, 801 178"></path><path stroke="white" stroke-width="1.7677669529663689" stroke-linecap="butt" fill="none" d="M775.4 125 C 782 125, 792 125, 799 125"></path><path stroke="white" stroke-width="1.7677669529663689" stroke-linecap="butt" fill="none" d="M759.5 98.5 C 765.5 94.5, 771 98, 772 99"></path><path stroke="white" stroke-width="1.7677669529663689" stroke-linecap="butt" fill="none" d="M763 97.6 C 764 87, 765 82, 768 73"></path><path stroke="white" stroke-width="1.7677669529663689" stroke-linecap="butt" fill="none" d="M769.7 98.30000000000001 C 772 93, 776 81, 789 66"></path><path stroke="white" stroke-width="1.7677669529663689" stroke-linecap="butt" fill="none" d="M706.7 165.7 C 723 173, 734 172, 749 172"></path><path stroke="white" stroke-width="1.7677669529663689" stroke-linecap="butt" fill="none" d="M706.5 153.5 C 719 156, 727 158, 744.5 153.5"></path><path stroke="white" stroke-width="1.7677669529663689" stroke-linecap="butt" fill="none" d="M707 141 C 719 142, 729 142, 745 136"></path><path stroke="white" stroke-width="1.7677669529663689" stroke-linecap="butt" fill="none" d="M797 168 C 806 163, 813.6 153.4, 816.6 146.79999999999998"></path><path stroke="white" stroke-width="1.7677669529663689" stroke-linecap="butt" fill="none" d="M788 151 C 802.2 147.2, 805.3 143.3, 808.9 139.1"></path><path stroke="white" stroke-width="1.7677669529663689" stroke-linecap="butt" fill="none" d="M778.5 133.5 C 790.5 135.5, 794.2 134.8, 801.2 131.4"></path></svg>