<svg version="1.1" xmlns="http://www.w3.org/2000/svg" viewBox="0 0 340 310" x="-3px" y="0px" width="343" height="313" style="background-color:white"><path stroke="Black" stroke-width="0.7579737856377817" fill="None" d="M91.545 80.91499999999999 C 73.6375 89.4625, 70.16 88.38999999999999, 48.5475 78.47749999999999"></path><path stroke="Black" stroke-width="0.7579737856377817" fill="None" d="M55.21 88.13 C 50.595 81.95500000000001, 46.76 79.03, 40 75"></path><path stroke="Black" stroke-width="0.7579737856377817" fill="None" d="M72.5 91.25 C 66.715 89.10499999999999, 62.099999999999994 88.52000000000001, 55.21 88.13"></path><path stroke="Black" stroke-width="0.7579737856377817" fill="None" d="M72.5 107.5 C 72.5 100.35, 72.5 96.125, 72.5 91.25"></path><path stroke="Black" stroke-width="0.7579737856377817" fill="None" d="M88.75 107.5 C 82.25 107.5, 78.35 107.5, 72.5 107.5"></path><path stroke="Black" stroke-width="0.7579737856377817" fill="None" d="M88.75 107.5 C 90.895 101.715, 91.48 97.1, 91.87 90.21000000000001"></path><path stroke="Black" stroke-width="0.7579737856377817" fill="None" d="M91.87 90.21000000000001 C 82.25 94.17500000000001, 80.625 94.17500000000001, 72.5 91.25"></path><path stroke="Black" stroke-width="0.7579737856377817" fill="None" d="M91.87 90.21000000000001 C 98.045 85.595, 100.97 81.75999999999999, 105 75"></path><path stroke="Black" stroke-width="0.7579737856377817" fill="None" d="M105 75 C 99.605 73.63499999999999, 96.225 73.18, 90.83 73.95999999999998"></path><path stroke="Black" stroke-width="0.7579737856377817" fill="None" d="M90.83 73.95999999999998 C 81.665 74.41499999999999, 82.51 82.41, 72.5 82.995"></path><path stroke="Black" stroke-width="0.7579737856377817" fill="None" d="M72.5 82.995 C 70.875 83.125, 67.625 83.125, 64.375 83.125"></path><path stroke="Black" stroke-width="0.7579737856377817" fill="None" d="M64.375 83.125 C 60.410000000000004 81.305, 57.81 79.28999999999999, 54.17 76.03999999999999"></path><path stroke="Black" stroke-width="0.7579737856377817" fill="None" d="M54.17 76.03999999999999 C 48.775 76.82, 45.394999999999996 76.36500000000001, 40 75"></path><path stroke="Black" stroke-width="0.7579737856377817" fill="None" d="M90.83 73.95999999999998 C 87.19 70.70999999999998, 84.59 68.695, 80.625 66.875"></path><path stroke="Black" stroke-width="0.7579737856377817" fill="None" d="M80.625 66.875 C 76.5625 70.9375, 74.9375 72.5625, 72.5 75"></path><path stroke="Black" stroke-width="0.7579737856377817" fill="None" d="M72.5 75 C 72.5 77.6, 72.5 80.85, 72.5 82.995"></path><path stroke="Black" stroke-width="0.7579737856377817" fill="None" d="M85.3375 74.1875 C 84.005 71.42500000000001, 82.25 70.06, 79.1625 69.1825"></path><path stroke="Black" stroke-width="0.7579737856377817" fill="None" d="M81.1125 76.7875 C 80.36500000000001 73.63499999999999, 79.39 72.33500000000001, 76.9525 71.26249999999999"></path><path stroke="Black" stroke-width="0.7579737856377817" fill="None" d="M77.505 79.875 C 77.83 76.17000000000002, 77.245 75.32499999999999, 74.905 73.31"></path><path stroke="Black" stroke-width="0.7579737856377817" fill="None" d="M71.4275 79.2575 C 70.3875 79.38749999999999, 69.4125 79.38749999999999, 68.9575 79.1925"></path><path stroke="Black" stroke-width="0.7579737856377817" fill="None" d="M71.42750000000001 81.20750000000001 C 69.575 81.82499999999999, 68.6 81.82499999999999, 67.0725 80.94749999999999"></path><path stroke="Black" stroke-width="0.7579737856377817" fill="None" d="M85.72749999999999 105.32249999999999 C 88.1 100.025, 87.775 96.44999999999999, 86.605 93.26499999999999"></path><path stroke="Black" stroke-width="0.7579737856377817" fill="None" d="M82.5425 105.32249999999999 C 84.2 99.69999999999999, 84.2 97.75, 83.3875 94.01249999999999"></path><path stroke="Black" stroke-width="0.7579737856377817" fill="None" d="M78.4475 105.32249999999999 C 80.625 100.025, 80.625 97.42500000000001, 79.6825 93.8175"></path><path stroke="Black" stroke-width="0.7579737856377817" fill="None" d="M75.2625 106.16749999999999 C 77.05 99.05000000000001, 77.05 96.44999999999999, 76.465 93.13499999999999"></path><path stroke="Black" stroke-width="0.7579737856377817" fill="None" d="M92.1625 84.39249999999998 C 92.065 83.06, 92.065 82.41, 92.065 81.565"></path><path stroke="Black" stroke-width="0.7579737856377817" fill="None" d="M92.1625 84.39249999999998 C 94.21000000000001 83.06, 95.83500000000001 81.435, 97.395 79.16"></path><path stroke="Black" stroke-width="0.7579737856377817" fill="None" d="M97.395 79.16 C 96.1275 78.3475, 93.95 80.07, 92.065 81.565"></path><path stroke="Black" stroke-width="0.7579737856377817" fill="None" d="M91.61 79.94 C 91.35 78.9, 91.025 77.6, 90.8625 76.98249999999999"></path><path stroke="Black" stroke-width="0.7579737856377817" fill="None" d="M91.61 79.94 C 94.7625 78.0875, 95.25 77.6, 96.32249999999999 76.39750000000001"></path><path stroke="Black" stroke-width="0.7579737856377817" fill="None" d="M96.32249999999999 76.39750000000001 C 93.7875 76.4625, 92.26 76.56, 90.8625 76.98249999999999"></path><path stroke="Black" stroke-width="0.7579737856377817" fill="None" d="M45.915000000000006 88.45500000000001 C 54.4625 106.36250000000001, 53.39 109.84, 43.477500000000006 131.4525"></path><path stroke="Black" stroke-width="0.7579737856377817" fill="None" d="M53.13 124.78999999999999 C 46.955 129.405, 44.03 133.24, 40 140"></path><path stroke="Black" stroke-width="0.7579737856377817" fill="None" d="M56.25 107.5 C 54.105000000000004 113.285, 53.519999999999996 117.9, 53.13 124.78999999999999"></path><path stroke="Black" stroke-width="0.7579737856377817" fill="None" d="M72.5 107.5 C 65.35 107.5, 61.125 107.5, 56.25 107.5"></path><path stroke="Black" stroke-width="0.7579737856377817" fill="None" d="M72.5 91.25 C 72.5 97.75, 72.5 101.65, 72.5 107.5"></path><path stroke="Black" stroke-width="0.7579737856377817" fill="None" d="M72.5 91.25 C 66.715 89.10499999999999, 62.099999999999994 88.52000000000001, 55.21 88.13"></path><path stroke="Black" stroke-width="0.7579737856377817" fill="None" d="M55.21 88.13 C 59.175 97.75, 59.175 99.375, 56.25 107.5"></path><path stroke="Black" stroke-width="0.7579737856377817" fill="None" d="M55.21 88.13 C 50.595 81.95500000000001, 46.76 79.03, 40 75"></path><path stroke="Black" stroke-width="0.7579737856377817" fill="None" d="M40 75 C 38.635 80.39500000000001, 38.18 83.775, 38.959999999999994 89.16999999999999"></path><path stroke="Black" stroke-width="0.7579737856377817" fill="None" d="M38.959999999999994 89.16999999999999 C 39.415 98.33500000000001, 47.41 97.49000000000001, 47.995000000000005 107.5"></path><path stroke="Black" stroke-width="0.7579737856377817" fill="None" d="M47.995000000000005 107.5 C 48.125 109.125, 48.125 112.375, 48.125 115.625"></path><path stroke="Black" stroke-width="0.7579737856377817" fill="None" d="M48.125 115.625 C 46.305 119.59, 44.29 122.19, 41.04 125.82999999999998"></path><path stroke="Black" stroke-width="0.7579737856377817" fill="None" d="M41.04 125.82999999999998 C 41.82 131.225, 41.364999999999995 134.605, 40 140"></path><path stroke="Black" stroke-width="0.7579737856377817" fill="None" d="M38.959999999999994 89.16999999999999 C 35.709999999999994 92.81, 33.695 95.41, 31.875 99.375"></path><path stroke="Black" stroke-width="0.7579737856377817" fill="None" d="M31.875 99.375 C 35.9375 103.4375, 37.5625 105.0625, 40 107.5"></path><path stroke="Black" stroke-width="0.7579737856377817" fill="None" d="M40 107.5 C 42.599999999999994 107.5, 45.85 107.5, 47.995000000000005 107.5"></path><path stroke="Black" stroke-width="0.7579737856377817" fill="None" d="M39.1875 94.6625 C 36.425 95.995, 35.06 97.75, 34.182500000000005 100.8375"></path><path stroke="Black" stroke-width="0.7579737856377817" fill="None" d="M41.7875 98.88749999999999 C 38.635 99.63499999999999, 37.335 100.61000000000001, 36.2625 103.04750000000001"></path><path stroke="Black" stroke-width="0.7579737856377817" fill="None" d="M44.875 102.495 C 41.17 102.17000000000002, 40.325 102.755, 38.31 105.095"></path><path stroke="Black" stroke-width="0.7579737856377817" fill="None" d="M44.2575 108.57249999999999 C 44.3875 109.61250000000001, 44.3875 110.5875, 44.1925 111.04249999999999"></path><path stroke="Black" stroke-width="0.7579737856377817" fill="None" d="M46.207499999999996 108.57249999999999 C 46.825 110.42500000000001, 46.825 111.4, 45.9475 112.92750000000001"></path><path stroke="Black" stroke-width="0.7579737856377817" fill="None" d="M70.3225 94.27250000000001 C 65.025 91.9, 61.45 92.225, 58.265 93.39500000000001"></path><path stroke="Black" stroke-width="0.7579737856377817" fill="None" d="M70.3225 97.45750000000001 C 64.7 95.80000000000001, 62.75 95.80000000000001, 59.0125 96.61250000000001"></path><path stroke="Black" stroke-width="0.7579737856377817" fill="None" d="M70.3225 101.55250000000001 C 65.025 99.375, 62.425 99.375, 58.817499999999995 100.3175"></path><path stroke="Black" stroke-width="0.7579737856377817" fill="None" d="M71.1675 104.73750000000001 C 64.05 102.94999999999999, 61.45 102.94999999999999, 58.135000000000005 103.535"></path><path stroke="Black" stroke-width="0.7579737856377817" fill="None" d="M49.3925 87.8375 C 48.06 87.935, 47.41 87.935, 46.565 87.935"></path><path stroke="Black" stroke-width="0.7579737856377817" fill="None" d="M49.3925 87.8375 C 48.06 85.78999999999999, 46.435 84.16499999999999, 44.16 82.60499999999999"></path><path stroke="Black" stroke-width="0.7579737856377817" fill="None" d="M44.16 82.60499999999999 C 43.3475 83.8725, 45.07 86.05000000000001, 46.565 87.935"></path><path stroke="Black" stroke-width="0.7579737856377817" fill="None" d="M44.94 88.38999999999999 C 43.900000000000006 88.65, 42.6 88.975, 41.9825 89.13749999999999"></path><path stroke="Black" stroke-width="0.7579737856377817" fill="None" d="M44.94 88.38999999999999 C 43.0875 85.23750000000001, 42.599999999999994 84.75, 41.3975 83.67750000000001"></path><path stroke="Black" stroke-width="0.7579737856377817" fill="None" d="M41.3975 83.67750000000001 C 41.4625 86.2125, 41.56 87.74000000000001, 41.9825 89.13749999999999"></path><path stroke="Black" stroke-width="0.9013878188659973" fill="None" d="M59.370000000000005 132.46 C 85.825 123.1, 88.23 118.55000000000001, 99.93 87.025"></path><path stroke="Black" stroke-width="0.9013878188659973" fill="None" d="M102.92 103.34 C 101.36 92.55000000000001, 102.27 85.78999999999999, 105 75"></path><path stroke="Black" stroke-width="0.9013878188659973" fill="None" d="M88.75 123.75 C 92.39 115.82, 96.42 110.62, 102.92 103.34"></path><path stroke="Black" stroke-width="0.9013878188659973" fill="None" d="M105 140 C 97.85 132.85, 93.625 128.625, 88.75 123.75"></path><path stroke="Black" stroke-width="0.9013878188659973" fill="None" d="M88.75 156.25 C 95.25 149.75, 99.15 145.85, 105 140"></path><path stroke="Black" stroke-width="0.9013878188659973" fill="None" d="M88.75 156.25 C 80.82 152.61, 75.62 148.58, 68.34 142.08"></path><path stroke="Black" stroke-width="0.9013878188659973" fill="None" d="M68.34 142.08 C 81.925 136.425, 83.55 134.8, 88.75 123.75"></path><path stroke="Black" stroke-width="0.9013878188659973" fill="None" d="M68.34 142.08 C 57.550000000000004 143.64, 50.79 142.73, 40 140"></path><path stroke="Black" stroke-width="0.9013878188659973" fill="None" d="M40 140 C 44.03 133.24, 46.955 129.405, 53.129999999999995 124.78999999999999"></path><path stroke="Black" stroke-width="0.9013878188659973" fill="None" d="M53.129999999999995 124.78999999999999 C 62.75 116.08000000000001, 69.9 124.91999999999999, 80.495 115.495"></path><path stroke="Black" stroke-width="0.9013878188659973" fill="None" d="M80.495 115.495 C 82.25 114, 85.5 110.75, 88.75 107.5"></path><path stroke="Black" stroke-width="0.9013878188659973" fill="None" d="M88.75 107.5 C 90.895 101.715, 91.48 97.1, 91.87 90.21000000000001"></path><path stroke="Black" stroke-width="0.9013878188659973" fill="None" d="M91.87 90.21000000000001 C 98.045 85.595, 100.97 81.75999999999999, 105 75"></path><path stroke="Black" stroke-width="0.9013878188659973" fill="None" d="M53.129999999999995 124.78999999999999 C 53.519999999999996 117.9, 54.105 113.285, 56.25 107.5"></path><path stroke="Black" stroke-width="0.9013878188659973" fill="None" d="M56.25 107.5 C 64.375 107.5, 67.625 107.5, 72.5 107.5"></path><path stroke="Black" stroke-width="0.9013878188659973" fill="None" d="M72.5 107.5 C 75.1 110.1, 78.35 113.35, 80.495 115.495"></path><path stroke="Black" stroke-width="0.9013878188659973" fill="None" d="M58.85 119.525 C 57.42 115.43, 57.81 112.31, 60.02 108.345"></path><path stroke="Black" stroke-width="0.9013878188659973" fill="None" d="M65.67500000000001 117.9 C 63.269999999999996 114, 62.945 111.725, 64.31 108.215"></path><path stroke="Black" stroke-width="0.9013878188659973" fill="None" d="M72.37 117.38 C 68.34 114, 68.08000000000001 112.57, 68.405 108.215"></path><path stroke="Black" stroke-width="0.9013878188659973" fill="None" d="M77.83 110.685 C 79 109.775, 79.975 108.80000000000001, 80.235 108.15"></path><path stroke="Black" stroke-width="0.9013878188659973" fill="None" d="M79.78 112.63499999999999 C 82.25 111.4, 83.225 110.42500000000001, 83.875 108.02000000000001"></path><path stroke="Black" stroke-width="0.9013878188659973" fill="None" d="M89.595 151.05 C 81.925 148.125, 78.675 144.225, 76.66 139.87"></path><path stroke="Black" stroke-width="0.9013878188659973" fill="None" d="M92.78 147.865 C 85.5 143.9, 83.55 141.95, 80.625 137.4"></path><path stroke="Black" stroke-width="0.9013878188659973" fill="None" d="M96.875 143.77 C 89.4 140.65, 86.8 138.05, 84.13499999999999 133.5"></path><path stroke="Black" stroke-width="0.9013878188659973" fill="None" d="M100.905 141.43 C 92 136.1, 89.4 133.5, 86.67 129.6"></path><path stroke="Black" stroke-width="0.9013878188659973" fill="None" d="M62.23 136.555 C 60.995 135.125, 60.345 134.475, 59.5 133.63"></path><path stroke="Black" stroke-width="0.9013878188659973" fill="None" d="M62.23 136.555 C 58.85 137.27, 55.6 137.27, 51.765 136.555"></path><path stroke="Black" stroke-width="0.9013878188659973" fill="None" d="M51.765 136.555 C 52.22 134.475, 56.12 134.02, 59.5 133.63"></path><path stroke="Black" stroke-width="0.9013878188659973" fill="None" d="M58.33 131.55 C 57.550000000000004 130.25, 56.575 128.625, 56.12 127.845"></path><path stroke="Black" stroke-width="0.9013878188659973" fill="None" d="M58.33 131.55 C 53.324999999999996 132.85, 52.349999999999994 132.85, 50.075 132.72"></path><path stroke="Black" stroke-width="0.9013878188659973" fill="None" d="M50.075 132.72 C 52.675 130.25, 54.3 128.82, 56.12 127.845"></path><path stroke="Black" stroke-width="0.7579737856377817" fill="None" d="M164.085 126.54499999999999 C 155.5375 108.63749999999999, 156.61 105.16, 166.5225 83.54750000000001"></path><path stroke="Black" stroke-width="0.7579737856377817" fill="None" d="M156.87 90.21000000000001 C 163.045 85.595, 165.97 81.75999999999999, 170 75"></path><path stroke="Black" stroke-width="0.7579737856377817" fill="None" d="M153.75 107.5 C 155.895 101.715, 156.48 97.1, 156.87 90.21000000000001"></path><path stroke="Black" stroke-width="0.7579737856377817" fill="None" d="M137.5 107.5 C 144.65 107.5, 148.875 107.5, 153.75 107.5"></path><path stroke="Black" stroke-width="0.7579737856377817" fill="None" d="M137.5 123.75 C 137.5 117.25, 137.5 113.35, 137.5 107.5"></path><path stroke="Black" stroke-width="0.7579737856377817" fill="None" d="M137.5 123.75 C 143.285 125.89500000000001, 147.9 126.47999999999999, 154.79 126.87"></path><path stroke="Black" stroke-width="0.7579737856377817" fill="None" d="M154.79 126.87 C 150.825 117.25, 150.825 115.625, 153.75 107.5"></path><path stroke="Black" stroke-width="0.7579737856377817" fill="None" d="M154.79 126.87 C 159.405 133.045, 163.24 135.97, 170 140"></path><path stroke="Black" stroke-width="0.7579737856377817" fill="None" d="M170 140 C 171.365 134.605, 171.82 131.225, 171.04000000000002 125.83000000000001"></path><path stroke="Black" stroke-width="0.7579737856377817" fill="None" d="M171.04000000000002 125.83000000000001 C 170.585 116.66499999999999, 162.59 117.50999999999999, 162.005 107.5"></path><path stroke="Black" stroke-width="0.7579737856377817" fill="None" d="M162.005 107.5 C 161.875 105.875, 161.875 102.625, 161.875 99.375"></path><path stroke="Black" stroke-width="0.7579737856377817" fill="None" d="M161.875 99.375 C 163.695 95.41, 165.71 92.81, 168.96 89.17000000000002"></path><path stroke="Black" stroke-width="0.7579737856377817" fill="None" d="M168.96 89.17000000000002 C 168.18 83.775, 168.635 80.39500000000001, 170 75"></path><path stroke="Black" stroke-width="0.7579737856377817" fill="None" d="M171.04000000000002 125.83000000000001 C 174.29000000000002 122.19, 176.305 119.59, 178.125 115.625"></path><path stroke="Black" stroke-width="0.7579737856377817" fill="None" d="M178.125 115.625 C 174.0625 111.5625, 172.4375 109.9375, 170 107.5"></path><path stroke="Black" stroke-width="0.7579737856377817" fill="None" d="M170 107.5 C 167.4 107.5, 164.15 107.5, 162.005 107.5"></path><path stroke="Black" stroke-width="0.7579737856377817" fill="None" d="M170.8125 120.3375 C 173.575 119.005, 174.94 117.25, 175.8175 114.1625"></path><path stroke="Black" stroke-width="0.7579737856377817" fill="None" d="M168.2125 116.11250000000001 C 171.365 115.36500000000001, 172.665 114.38999999999999, 173.7375 111.95249999999999"></path><path stroke="Black" stroke-width="0.7579737856377817" fill="None" d="M165.125 112.505 C 168.82999999999998 112.82999999999998, 169.675 112.245, 171.69 109.905"></path><path stroke="Black" stroke-width="0.7579737856377817" fill="None" d="M165.7425 106.42750000000001 C 165.6125 105.38749999999999, 165.6125 104.4125, 165.8075 103.95750000000001"></path><path stroke="Black" stroke-width="0.7579737856377817" fill="None" d="M163.7925 106.42750000000001 C 163.175 104.57499999999999, 163.175 103.6, 164.0525 102.07249999999999"></path><path stroke="Black" stroke-width="0.7579737856377817" fill="None" d="M139.6775 120.72749999999999 C 144.975 123.1, 148.55 122.775, 151.735 121.60499999999999"></path><path stroke="Black" stroke-width="0.7579737856377817" fill="None" d="M139.6775 117.54249999999999 C 145.3 119.19999999999999, 147.25 119.19999999999999, 150.9875 118.38749999999999"></path><path stroke="Black" stroke-width="0.7579737856377817" fill="None" d="M139.6775 113.44749999999999 C 144.975 115.625, 147.575 115.625, 151.1825 114.6825"></path><path stroke="Black" stroke-width="0.7579737856377817" fill="None" d="M138.8325 110.26249999999999 C 145.95 112.05000000000001, 148.55 112.05000000000001, 151.865 111.465"></path><path stroke="Black" stroke-width="0.7579737856377817" fill="None" d="M160.60750000000002 127.1625 C 161.94 127.065, 162.59 127.065, 163.435 127.065"></path><path stroke="Black" stroke-width="0.7579737856377817" fill="None" d="M160.60750000000002 127.1625 C 161.94 129.21, 163.565 130.835, 165.84 132.395"></path><path stroke="Black" stroke-width="0.7579737856377817" fill="None" d="M165.84 132.395 C 166.6525 131.1275, 164.93 128.95, 163.435 127.065"></path><path stroke="Black" stroke-width="0.7579737856377817" fill="None" d="M165.06 126.61000000000001 C 166.1 126.35, 167.4 126.025, 168.0175 125.86250000000001"></path><path stroke="Black" stroke-width="0.7579737856377817" fill="None" d="M165.06 126.61000000000001 C 166.9125 129.7625, 167.4 130.25, 168.6025 131.3225"></path><path stroke="Black" stroke-width="0.7579737856377817" fill="None" d="M168.6025 131.3225 C 168.5375 128.7875, 168.44 127.25999999999999, 168.0175 125.86250000000001"></path><path stroke="Black" stroke-width="0.7579737856377817" fill="None" d="M156.545 80.91499999999999 C 138.6375 89.4625, 135.16 88.38999999999999, 113.5475 78.47749999999999"></path><path stroke="Black" stroke-width="0.7579737856377817" fill="None" d="M120.21000000000001 88.13 C 115.595 81.95500000000001, 111.75999999999999 79.03, 105 75"></path><path stroke="Black" stroke-width="0.7579737856377817" fill="None" d="M137.5 91.25 C 131.715 89.10499999999999, 127.1 88.52000000000001, 120.21000000000001 88.13"></path><path stroke="Black" stroke-width="0.7579737856377817" fill="None" d="M137.5 107.5 C 137.5 100.35, 137.5 96.125, 137.5 91.25"></path><path stroke="Black" stroke-width="0.7579737856377817" fill="None" d="M153.75 107.5 C 147.25 107.5, 143.35 107.5, 137.5 107.5"></path><path stroke="Black" stroke-width="0.7579737856377817" fill="None" d="M153.75 107.5 C 155.895 101.715, 156.48 97.1, 156.87 90.21000000000001"></path><path stroke="Black" stroke-width="0.7579737856377817" fill="None" d="M156.87 90.21000000000001 C 147.25 94.17500000000001, 145.625 94.17500000000001, 137.5 91.25"></path><path stroke="Black" stroke-width="0.7579737856377817" fill="None" d="M156.87 90.21000000000001 C 163.045 85.595, 165.97 81.75999999999999, 170 75"></path><path stroke="Black" stroke-width="0.7579737856377817" fill="None" d="M170 75 C 164.605 73.63499999999999, 161.225 73.18, 155.83 73.95999999999998"></path><path stroke="Black" stroke-width="0.7579737856377817" fill="None" d="M155.83 73.95999999999998 C 146.665 74.41499999999999, 147.51 82.41, 137.5 82.995"></path><path stroke="Black" stroke-width="0.7579737856377817" fill="None" d="M137.5 82.995 C 135.875 83.125, 132.625 83.125, 129.375 83.125"></path><path stroke="Black" stroke-width="0.7579737856377817" fill="None" d="M129.375 83.125 C 125.41 81.305, 122.81 79.28999999999999, 119.17 76.03999999999999"></path><path stroke="Black" stroke-width="0.7579737856377817" fill="None" d="M119.17 76.03999999999999 C 113.775 76.82, 110.395 76.36500000000001, 105 75"></path><path stroke="Black" stroke-width="0.7579737856377817" fill="None" d="M155.83 73.95999999999998 C 152.19 70.70999999999998, 149.59 68.695, 145.625 66.875"></path><path stroke="Black" stroke-width="0.7579737856377817" fill="None" d="M145.625 66.875 C 141.5625 70.9375, 139.9375 72.5625, 137.5 75"></path><path stroke="Black" stroke-width="0.7579737856377817" fill="None" d="M137.5 75 C 137.5 77.6, 137.5 80.85, 137.5 82.995"></path><path stroke="Black" stroke-width="0.7579737856377817" fill="None" d="M150.3375 74.1875 C 149.005 71.42500000000001, 147.25 70.06, 144.1625 69.1825"></path><path stroke="Black" stroke-width="0.7579737856377817" fill="None" d="M146.1125 76.7875 C 145.365 73.63499999999999, 144.39 72.33500000000001, 141.9525 71.26249999999999"></path><path stroke="Black" stroke-width="0.7579737856377817" fill="None" d="M142.505 79.875 C 142.82999999999998 76.17000000000002, 142.245 75.32499999999999, 139.905 73.31"></path><path stroke="Black" stroke-width="0.7579737856377817" fill="None" d="M136.4275 79.2575 C 135.3875 79.38749999999999, 134.4125 79.38749999999999, 133.9575 79.1925"></path><path stroke="Black" stroke-width="0.7579737856377817" fill="None" d="M136.4275 81.20750000000001 C 134.575 81.82499999999999, 133.6 81.82499999999999, 132.0725 80.94749999999999"></path><path stroke="Black" stroke-width="0.7579737856377817" fill="None" d="M150.7275 105.32249999999999 C 153.1 100.025, 152.775 96.44999999999999, 151.605 93.26499999999999"></path><path stroke="Black" stroke-width="0.7579737856377817" fill="None" d="M147.5425 105.32249999999999 C 149.2 99.69999999999999, 149.2 97.75, 148.3875 94.01249999999999"></path><path stroke="Black" stroke-width="0.7579737856377817" fill="None" d="M143.4475 105.32249999999999 C 145.625 100.025, 145.625 97.42500000000001, 144.6825 93.8175"></path><path stroke="Black" stroke-width="0.7579737856377817" fill="None" d="M140.2625 106.16749999999999 C 142.05 99.05000000000001, 142.05 96.44999999999999, 141.465 93.13499999999999"></path><path stroke="Black" stroke-width="0.7579737856377817" fill="None" d="M157.1625 84.39249999999998 C 157.065 83.06, 157.065 82.41, 157.065 81.565"></path><path stroke="Black" stroke-width="0.7579737856377817" fill="None" d="M157.1625 84.39249999999998 C 159.21 83.06, 160.835 81.435, 162.395 79.16"></path><path stroke="Black" stroke-width="0.7579737856377817" fill="None" d="M162.395 79.16 C 161.1275 78.3475, 158.95 80.07, 157.065 81.565"></path><path stroke="Black" stroke-width="0.7579737856377817" fill="None" d="M156.61 79.94 C 156.35 78.9, 156.025 77.6, 155.8625 76.98249999999999"></path><path stroke="Black" stroke-width="0.7579737856377817" fill="None" d="M156.61 79.94 C 159.7625 78.0875, 160.25 77.6, 161.3225 76.39750000000001"></path><path stroke="Black" stroke-width="0.7579737856377817" fill="None" d="M161.3225 76.39750000000001 C 158.7875 76.4625, 157.26 76.56, 155.8625 76.98249999999999"></path><path stroke="Black" stroke-width="0.9013878188659973" fill="None" d="M112.54 94.37 C 121.9 120.82499999999999, 126.45 123.22999999999999, 157.975 134.93"></path><path stroke="Black" stroke-width="0.9013878188659973" fill="None" d="M141.66 137.92 C 152.45 136.36, 159.21 137.27, 170 140"></path><path stroke="Black" stroke-width="0.9013878188659973" fill="None" d="M121.25 123.75 C 129.18 127.38999999999999, 134.38 131.42, 141.66 137.92"></path><path stroke="Black" stroke-width="0.9013878188659973" fill="None" d="M105 140 C 112.15 132.85, 116.375 128.625, 121.25 123.75"></path><path stroke="Black" stroke-width="0.9013878188659973" fill="None" d="M88.75 123.75 C 95.25 130.25, 99.15 134.15, 105 140"></path><path stroke="Black" stroke-width="0.9013878188659973" fill="None" d="M88.75 123.75 C 92.39 115.82, 96.42 110.62, 102.92 103.34"></path><path stroke="Black" stroke-width="0.9013878188659973" fill="None" d="M102.92 103.34 C 108.575 116.92500000000001, 110.2 118.55000000000001, 121.25 123.75"></path><path stroke="Black" stroke-width="0.9013878188659973" fill="None" d="M102.92 103.34 C 101.36 92.55000000000001, 102.27 85.78999999999999, 105 75"></path><path stroke="Black" stroke-width="0.9013878188659973" fill="None" d="M105 75 C 111.76 79.03, 115.595 81.95499999999998, 120.21000000000001 88.13"></path><path stroke="Black" stroke-width="0.9013878188659973" fill="None" d="M120.21000000000001 88.13 C 128.92 97.75, 120.08 104.9, 129.505 115.495"></path><path stroke="Black" stroke-width="0.9013878188659973" fill="None" d="M129.505 115.495 C 131 117.25, 134.25 120.5, 137.5 123.75"></path><path stroke="Black" stroke-width="0.9013878188659973" fill="None" d="M137.5 123.75 C 143.285 125.89500000000001, 147.9 126.47999999999999, 154.79 126.87"></path><path stroke="Black" stroke-width="0.9013878188659973" fill="None" d="M154.79 126.87 C 159.405 133.045, 163.24 135.97, 170 140"></path><path stroke="Black" stroke-width="0.9013878188659973" fill="None" d="M120.21000000000001 88.13 C 127.1 88.51999999999998, 131.715 89.10499999999999, 137.5 91.25"></path><path stroke="Black" stroke-width="0.9013878188659973" fill="None" d="M137.5 91.25 C 137.5 99.375, 137.5 102.625, 137.5 107.5"></path><path stroke="Black" stroke-width="0.9013878188659973" fill="None" d="M137.5 107.5 C 134.9 110.1, 131.65 113.35, 129.505 115.495"></path><path stroke="Black" stroke-width="0.9013878188659973" fill="None" d="M125.475 93.85 C 129.57 92.42000000000002, 132.69 92.81, 136.655 95.02000000000001"></path><path stroke="Black" stroke-width="0.9013878188659973" fill="None" d="M127.1 100.67500000000001 C 131 98.26999999999998, 133.275 97.945, 136.785 99.31"></path><path stroke="Black" stroke-width="0.9013878188659973" fill="None" d="M127.62 107.37 C 131 103.34, 132.43 103.08000000000001, 136.785 103.405"></path><path stroke="Black" stroke-width="0.9013878188659973" fill="None" d="M134.315 112.83000000000001 C 135.225 114, 136.2 114.975, 136.85 115.23500000000001"></path><path stroke="Black" stroke-width="0.9013878188659973" fill="None" d="M132.365 114.78 C 133.6 117.25, 134.575 118.225, 136.98 118.875"></path><path stroke="Black" stroke-width="0.9013878188659973" fill="None" d="M93.95 124.595 C 96.875 116.92500000000001, 100.775 113.67500000000001, 105.13 111.66"></path><path stroke="Black" stroke-width="0.9013878188659973" fill="None" d="M97.135 127.78 C 101.1 120.5, 103.05 118.55000000000001, 107.6 115.625"></path><path stroke="Black" stroke-width="0.9013878188659973" fill="None" d="M101.23 131.875 C 104.35 124.4, 106.95 121.80000000000001, 111.5 119.13499999999999"></path><path stroke="Black" stroke-width="0.9013878188659973" fill="None" d="M103.57 135.905 C 108.9 127, 111.5 124.4, 115.4 121.67000000000002"></path><path stroke="Black" stroke-width="0.9013878188659973" fill="None" d="M108.445 97.22999999999999 C 109.875 95.995, 110.525 95.345, 111.37 94.5"></path><path stroke="Black" stroke-width="0.9013878188659973" fill="None" d="M108.445 97.22999999999999 C 107.73 93.85, 107.73 90.6, 108.445 86.76499999999999"></path><path stroke="Black" stroke-width="0.9013878188659973" fill="None" d="M108.445 86.76499999999999 C 110.525 87.22, 110.98 91.12, 111.37 94.5"></path><path stroke="Black" stroke-width="0.9013878188659973" fill="None" d="M113.45 93.32999999999998 C 114.75 92.55000000000001, 116.375 91.57499999999999, 117.155 91.12"></path><path stroke="Black" stroke-width="0.9013878188659973" fill="None" d="M113.45 93.32999999999998 C 112.15 88.32499999999999, 112.15 87.35, 112.28 85.07499999999999"></path><path stroke="Black" stroke-width="0.9013878188659973" fill="None" d="M112.28 85.07499999999999 C 114.75 87.67500000000001, 116.18 89.30000000000001, 117.155 91.12"></path><path stroke="Black" stroke-width="0.7579737856377817" fill="None" d="M221.545 80.91499999999999 C 203.6375 89.4625, 200.16 88.38999999999999, 178.5475 78.47749999999999"></path><path stroke="Black" stroke-width="0.7579737856377817" fill="None" d="M185.21 88.13 C 180.595 81.95500000000001, 176.76 79.03, 170 75"></path><path stroke="Black" stroke-width="0.7579737856377817" fill="None" d="M202.5 91.25 C 196.715 89.10499999999999, 192.1 88.52000000000001, 185.21 88.13"></path><path stroke="Black" stroke-width="0.7579737856377817" fill="None" d="M202.5 107.5 C 202.5 100.35, 202.5 96.125, 202.5 91.25"></path><path stroke="Black" stroke-width="0.7579737856377817" fill="None" d="M218.75 107.5 C 212.25 107.5, 208.35 107.5, 202.5 107.5"></path><path stroke="Black" stroke-width="0.7579737856377817" fill="None" d="M218.75 107.5 C 220.895 101.715, 221.48 97.1, 221.87 90.21000000000001"></path><path stroke="Black" stroke-width="0.7579737856377817" fill="None" d="M221.87 90.21000000000001 C 212.25 94.17500000000001, 210.625 94.17500000000001, 202.5 91.25"></path><path stroke="Black" stroke-width="0.7579737856377817" fill="None" d="M221.87 90.21000000000001 C 228.045 85.595, 230.97 81.75999999999999, 235 75"></path><path stroke="Black" stroke-width="0.7579737856377817" fill="None" d="M235 75 C 229.605 73.63499999999999, 226.225 73.18, 220.83 73.95999999999998"></path><path stroke="Black" stroke-width="0.7579737856377817" fill="None" d="M220.83 73.95999999999998 C 211.665 74.41499999999999, 212.51 82.41, 202.5 82.995"></path><path stroke="Black" stroke-width="0.7579737856377817" fill="None" d="M202.5 82.995 C 200.875 83.125, 197.625 83.125, 194.375 83.125"></path><path stroke="Black" stroke-width="0.7579737856377817" fill="None" d="M194.375 83.125 C 190.41 81.305, 187.81 79.28999999999999, 184.17000000000002 76.03999999999999"></path><path stroke="Black" stroke-width="0.7579737856377817" fill="None" d="M184.17000000000002 76.03999999999999 C 178.775 76.82, 175.395 76.36500000000001, 170 75"></path><path stroke="Black" stroke-width="0.7579737856377817" fill="None" d="M220.83 73.95999999999998 C 217.19 70.70999999999998, 214.59 68.695, 210.625 66.875"></path><path stroke="Black" stroke-width="0.7579737856377817" fill="None" d="M210.625 66.875 C 206.5625 70.9375, 204.9375 72.5625, 202.5 75"></path><path stroke="Black" stroke-width="0.7579737856377817" fill="None" d="M202.5 75 C 202.5 77.6, 202.5 80.85, 202.5 82.995"></path><path stroke="Black" stroke-width="0.7579737856377817" fill="None" d="M215.3375 74.1875 C 214.005 71.42500000000001, 212.25 70.06, 209.1625 69.1825"></path><path stroke="Black" stroke-width="0.7579737856377817" fill="None" d="M211.1125 76.7875 C 210.365 73.63499999999999, 209.39 72.33500000000001, 206.9525 71.26249999999999"></path><path stroke="Black" stroke-width="0.7579737856377817" fill="None" d="M207.505 79.875 C 207.82999999999998 76.17000000000002, 207.245 75.32499999999999, 204.905 73.31"></path><path stroke="Black" stroke-width="0.7579737856377817" fill="None" d="M201.4275 79.2575 C 200.3875 79.38749999999999, 199.4125 79.38749999999999, 198.9575 79.1925"></path><path stroke="Black" stroke-width="0.7579737856377817" fill="None" d="M201.4275 81.20750000000001 C 199.575 81.82499999999999, 198.6 81.82499999999999, 197.0725 80.94749999999999"></path><path stroke="Black" stroke-width="0.7579737856377817" fill="None" d="M215.7275 105.32249999999999 C 218.1 100.025, 217.775 96.44999999999999, 216.605 93.26499999999999"></path><path stroke="Black" stroke-width="0.7579737856377817" fill="None" d="M212.5425 105.32249999999999 C 214.2 99.69999999999999, 214.2 97.75, 213.3875 94.01249999999999"></path><path stroke="Black" stroke-width="0.7579737856377817" fill="None" d="M208.4475 105.32249999999999 C 210.625 100.025, 210.625 97.42500000000001, 209.6825 93.8175"></path><path stroke="Black" stroke-width="0.7579737856377817" fill="None" d="M205.2625 106.16749999999999 C 207.05 99.05000000000001, 207.05 96.44999999999999, 206.465 93.13499999999999"></path><path stroke="Black" stroke-width="0.7579737856377817" fill="None" d="M222.1625 84.39249999999998 C 222.065 83.06, 222.065 82.41, 222.065 81.565"></path><path stroke="Black" stroke-width="0.7579737856377817" fill="None" d="M222.1625 84.39249999999998 C 224.21 83.06, 225.835 81.435, 227.395 79.16"></path><path stroke="Black" stroke-width="0.7579737856377817" fill="None" d="M227.395 79.16 C 226.1275 78.3475, 223.95 80.07, 222.065 81.565"></path><path stroke="Black" stroke-width="0.7579737856377817" fill="None" d="M221.61 79.94 C 221.35 78.9, 221.025 77.6, 220.8625 76.98249999999999"></path><path stroke="Black" stroke-width="0.7579737856377817" fill="None" d="M221.61 79.94 C 224.7625 78.0875, 225.25 77.6, 226.3225 76.39750000000001"></path><path stroke="Black" stroke-width="0.7579737856377817" fill="None" d="M226.3225 76.39750000000001 C 223.7875 76.4625, 222.26 76.56, 220.8625 76.98249999999999"></path><path stroke="Black" stroke-width="0.7579737856377817" fill="None" d="M175.915 88.45500000000001 C 184.4625 106.36250000000001, 183.39 109.84, 173.4775 131.4525"></path><path stroke="Black" stroke-width="0.7579737856377817" fill="None" d="M183.13 124.78999999999999 C 176.955 129.405, 174.03 133.24, 170 140"></path><path stroke="Black" stroke-width="0.7579737856377817" fill="None" d="M186.25 107.5 C 184.105 113.285, 183.52 117.9, 183.13 124.78999999999999"></path><path stroke="Black" stroke-width="0.7579737856377817" fill="None" d="M202.5 107.5 C 195.35 107.5, 191.125 107.5, 186.25 107.5"></path><path stroke="Black" stroke-width="0.7579737856377817" fill="None" d="M202.5 91.25 C 202.5 97.75, 202.5 101.65, 202.5 107.5"></path><path stroke="Black" stroke-width="0.7579737856377817" fill="None" d="M202.5 91.25 C 196.715 89.10499999999999, 192.1 88.52000000000001, 185.21 88.13"></path><path stroke="Black" stroke-width="0.7579737856377817" fill="None" d="M185.21 88.13 C 189.175 97.75, 189.175 99.375, 186.25 107.5"></path><path stroke="Black" stroke-width="0.7579737856377817" fill="None" d="M185.21 88.13 C 180.595 81.95500000000001, 176.76 79.03, 170 75"></path><path stroke="Black" stroke-width="0.7579737856377817" fill="None" d="M170 75 C 168.635 80.39500000000001, 168.18 83.775, 168.95999999999998 89.16999999999999"></path><path stroke="Black" stroke-width="0.7579737856377817" fill="None" d="M168.95999999999998 89.16999999999999 C 169.415 98.33500000000001, 177.41 97.49000000000001, 177.995 107.5"></path><path stroke="Black" stroke-width="0.7579737856377817" fill="None" d="M177.995 107.5 C 178.125 109.125, 178.125 112.375, 178.125 115.625"></path><path stroke="Black" stroke-width="0.7579737856377817" fill="None" d="M178.125 115.625 C 176.305 119.59, 174.29 122.19, 171.04 125.82999999999998"></path><path stroke="Black" stroke-width="0.7579737856377817" fill="None" d="M171.04 125.82999999999998 C 171.82 131.225, 171.365 134.605, 170 140"></path><path stroke="Black" stroke-width="0.7579737856377817" fill="None" d="M168.95999999999998 89.16999999999999 C 165.70999999999998 92.81, 163.695 95.41, 161.875 99.375"></path><path stroke="Black" stroke-width="0.7579737856377817" fill="None" d="M161.875 99.375 C 165.9375 103.4375, 167.5625 105.0625, 170 107.5"></path><path stroke="Black" stroke-width="0.7579737856377817" fill="None" d="M170 107.5 C 172.6 107.5, 175.85 107.5, 177.995 107.5"></path><path stroke="Black" stroke-width="0.7579737856377817" fill="None" d="M169.1875 94.6625 C 166.425 95.995, 165.06 97.75, 164.1825 100.8375"></path><path stroke="Black" stroke-width="0.7579737856377817" fill="None" d="M171.7875 98.88749999999999 C 168.635 99.63499999999999, 167.335 100.61000000000001, 166.2625 103.04750000000001"></path><path stroke="Black" stroke-width="0.7579737856377817" fill="None" d="M174.875 102.495 C 171.17000000000002 102.17000000000002, 170.325 102.755, 168.31 105.095"></path><path stroke="Black" stroke-width="0.7579737856377817" fill="None" d="M174.2575 108.57249999999999 C 174.3875 109.61250000000001, 174.3875 110.5875, 174.1925 111.04249999999999"></path><path stroke="Black" stroke-width="0.7579737856377817" fill="None" d="M176.2075 108.57249999999999 C 176.825 110.42500000000001, 176.825 111.4, 175.9475 112.92750000000001"></path><path stroke="Black" stroke-width="0.7579737856377817" fill="None" d="M200.3225 94.27250000000001 C 195.025 91.9, 191.45 92.225, 188.265 93.39500000000001"></path><path stroke="Black" stroke-width="0.7579737856377817" fill="None" d="M200.3225 97.45750000000001 C 194.7 95.80000000000001, 192.75 95.80000000000001, 189.0125 96.61250000000001"></path><path stroke="Black" stroke-width="0.7579737856377817" fill="None" d="M200.3225 101.55250000000001 C 195.025 99.375, 192.425 99.375, 188.8175 100.3175"></path><path stroke="Black" stroke-width="0.7579737856377817" fill="None" d="M201.1675 104.73750000000001 C 194.05 102.94999999999999, 191.45 102.94999999999999, 188.135 103.535"></path><path stroke="Black" stroke-width="0.7579737856377817" fill="None" d="M179.39249999999998 87.8375 C 178.06 87.935, 177.41 87.935, 176.565 87.935"></path><path stroke="Black" stroke-width="0.7579737856377817" fill="None" d="M179.39249999999998 87.8375 C 178.06 85.78999999999999, 176.435 84.16499999999999, 174.16 82.60499999999999"></path><path stroke="Black" stroke-width="0.7579737856377817" fill="None" d="M174.16 82.60499999999999 C 173.3475 83.8725, 175.07 86.05000000000001, 176.565 87.935"></path><path stroke="Black" stroke-width="0.7579737856377817" fill="None" d="M174.94 88.38999999999999 C 173.9 88.65, 172.6 88.975, 171.9825 89.13749999999999"></path><path stroke="Black" stroke-width="0.7579737856377817" fill="None" d="M174.94 88.38999999999999 C 173.0875 85.23750000000001, 172.6 84.75, 171.3975 83.67750000000001"></path><path stroke="Black" stroke-width="0.7579737856377817" fill="None" d="M171.3975 83.67750000000001 C 171.4625 86.2125, 171.56 87.74000000000001, 171.9825 89.13749999999999"></path><path stroke="Black" stroke-width="0.9013878188659973" fill="None" d="M189.37 132.46 C 215.825 123.1, 218.23 118.55000000000001, 229.93 87.025"></path><path stroke="Black" stroke-width="0.9013878188659973" fill="None" d="M232.92 103.34 C 231.36 92.55000000000001, 232.27 85.78999999999999, 235 75"></path><path stroke="Black" stroke-width="0.9013878188659973" fill="None" d="M218.75 123.75 C 222.39 115.82, 226.42 110.62, 232.92 103.34"></path><path stroke="Black" stroke-width="0.9013878188659973" fill="None" d="M235 140 C 227.85 132.85, 223.625 128.625, 218.75 123.75"></path><path stroke="Black" stroke-width="0.9013878188659973" fill="None" d="M218.75 156.25 C 225.25 149.75, 229.15 145.85, 235 140"></path><path stroke="Black" stroke-width="0.9013878188659973" fill="None" d="M218.75 156.25 C 210.82 152.61, 205.62 148.58, 198.34 142.08"></path><path stroke="Black" stroke-width="0.9013878188659973" fill="None" d="M198.34 142.08 C 211.925 136.425, 213.55 134.8, 218.75 123.75"></path><path stroke="Black" stroke-width="0.9013878188659973" fill="None" d="M198.34 142.08 C 187.55 143.64, 180.79 142.73, 170 140"></path><path stroke="Black" stroke-width="0.9013878188659973" fill="None" d="M170 140 C 174.03 133.24, 176.95499999999998 129.405, 183.13 124.78999999999999"></path><path stroke="Black" stroke-width="0.9013878188659973" fill="None" d="M183.13 124.78999999999999 C 192.75 116.08000000000001, 199.9 124.91999999999999, 210.495 115.495"></path><path stroke="Black" stroke-width="0.9013878188659973" fill="None" d="M210.495 115.495 C 212.25 114, 215.5 110.75, 218.75 107.5"></path><path stroke="Black" stroke-width="0.9013878188659973" fill="None" d="M218.75 107.5 C 220.895 101.715, 221.48 97.1, 221.87 90.21000000000001"></path><path stroke="Black" stroke-width="0.9013878188659973" fill="None" d="M221.87 90.21000000000001 C 228.045 85.595, 230.97 81.75999999999999, 235 75"></path><path stroke="Black" stroke-width="0.9013878188659973" fill="None" d="M183.13 124.78999999999999 C 183.51999999999998 117.9, 184.105 113.285, 186.25 107.5"></path><path stroke="Black" stroke-width="0.9013878188659973" fill="None" d="M186.25 107.5 C 194.375 107.5, 197.625 107.5, 202.5 107.5"></path><path stroke="Black" stroke-width="0.9013878188659973" fill="None" d="M202.5 107.5 C 205.1 110.1, 208.35 113.35, 210.495 115.495"></path><path stroke="Black" stroke-width="0.9013878188659973" fill="None" d="M188.85 119.525 C 187.42000000000002 115.43, 187.81 112.31, 190.02 108.345"></path><path stroke="Black" stroke-width="0.9013878188659973" fill="None" d="M195.675 117.9 C 193.26999999999998 114, 192.945 111.725, 194.31 108.215"></path><path stroke="Black" stroke-width="0.9013878188659973" fill="None" d="M202.37 117.38 C 198.34 114, 198.08 112.57, 198.405 108.215"></path><path stroke="Black" stroke-width="0.9013878188659973" fill="None" d="M207.83 110.685 C 209 109.775, 209.975 108.80000000000001, 210.235 108.15"></path><path stroke="Black" stroke-width="0.9013878188659973" fill="None" d="M209.78 112.63499999999999 C 212.25 111.4, 213.225 110.42500000000001, 213.875 108.02000000000001"></path><path stroke="Black" stroke-width="0.9013878188659973" fill="None" d="M219.595 151.05 C 211.925 148.125, 208.675 144.225, 206.66 139.87"></path><path stroke="Black" stroke-width="0.9013878188659973" fill="None" d="M222.78 147.865 C 215.5 143.9, 213.55 141.95, 210.625 137.4"></path><path stroke="Black" stroke-width="0.9013878188659973" fill="None" d="M226.875 143.77 C 219.4 140.65, 216.8 138.05, 214.135 133.5"></path><path stroke="Black" stroke-width="0.9013878188659973" fill="None" d="M230.905 141.43 C 222 136.1, 219.4 133.5, 216.67000000000002 129.6"></path><path stroke="Black" stroke-width="0.9013878188659973" fill="None" d="M192.23 136.555 C 190.995 135.125, 190.345 134.475, 189.5 133.63"></path><path stroke="Black" stroke-width="0.9013878188659973" fill="None" d="M192.23 136.555 C 188.85 137.27, 185.6 137.27, 181.765 136.555"></path><path stroke="Black" stroke-width="0.9013878188659973" fill="None" d="M181.765 136.555 C 182.22 134.475, 186.12 134.02, 189.5 133.63"></path><path stroke="Black" stroke-width="0.9013878188659973" fill="None" d="M188.32999999999998 131.55 C 187.55 130.25, 186.575 128.625, 186.12 127.845"></path><path stroke="Black" stroke-width="0.9013878188659973" fill="None" d="M188.32999999999998 131.55 C 183.325 132.85, 182.35 132.85, 180.075 132.72"></path><path stroke="Black" stroke-width="0.9013878188659973" fill="None" d="M180.075 132.72 C 182.675 130.25, 184.3 128.82, 186.12 127.845"></path><path stroke="Black" stroke-width="0.7579737856377817" fill="None" d="M294.085 126.54499999999999 C 285.5375 108.63749999999999, 286.61 105.16, 296.5225 83.54750000000001"></path><path stroke="Black" stroke-width="0.7579737856377817" fill="None" d="M286.87 90.21000000000001 C 293.045 85.595, 295.97 81.75999999999999, 300 75"></path><path stroke="Black" stroke-width="0.7579737856377817" fill="None" d="M283.75 107.5 C 285.895 101.715, 286.48 97.1, 286.87 90.21000000000001"></path><path stroke="Black" stroke-width="0.7579737856377817" fill="None" d="M267.5 107.5 C 274.65 107.5, 278.875 107.5, 283.75 107.5"></path><path stroke="Black" stroke-width="0.7579737856377817" fill="None" d="M267.5 123.75 C 267.5 117.25, 267.5 113.35, 267.5 107.5"></path><path stroke="Black" stroke-width="0.7579737856377817" fill="None" d="M267.5 123.75 C 273.285 125.89500000000001, 277.9 126.47999999999999, 284.79 126.87"></path><path stroke="Black" stroke-width="0.7579737856377817" fill="None" d="M284.79 126.87 C 280.825 117.25, 280.825 115.625, 283.75 107.5"></path><path stroke="Black" stroke-width="0.7579737856377817" fill="None" d="M284.79 126.87 C 289.405 133.045, 293.24 135.97, 300 140"></path><path stroke="Black" stroke-width="0.7579737856377817" fill="None" d="M300 140 C 301.365 134.605, 301.82 131.225, 301.04 125.83000000000001"></path><path stroke="Black" stroke-width="0.7579737856377817" fill="None" d="M301.04 125.83000000000001 C 300.585 116.66499999999999, 292.59 117.50999999999999, 292.005 107.5"></path><path stroke="Black" stroke-width="0.7579737856377817" fill="None" d="M292.005 107.5 C 291.875 105.875, 291.875 102.625, 291.875 99.375"></path><path stroke="Black" stroke-width="0.7579737856377817" fill="None" d="M291.875 99.375 C 293.695 95.41, 295.71 92.81, 298.96 89.17000000000002"></path><path stroke="Black" stroke-width="0.7579737856377817" fill="None" d="M298.96 89.17000000000002 C 298.18 83.775, 298.635 80.39500000000001, 300 75"></path><path stroke="Black" stroke-width="0.7579737856377817" fill="None" d="M301.04 125.83000000000001 C 304.29 122.19, 306.305 119.59, 308.125 115.625"></path><path stroke="Black" stroke-width="0.7579737856377817" fill="None" d="M308.125 115.625 C 304.0625 111.5625, 302.4375 109.9375, 300 107.5"></path><path stroke="Black" stroke-width="0.7579737856377817" fill="None" d="M300 107.5 C 297.4 107.5, 294.15 107.5, 292.005 107.5"></path><path stroke="Black" stroke-width="0.7579737856377817" fill="None" d="M300.8125 120.3375 C 303.575 119.005, 304.94 117.25, 305.8175 114.1625"></path><path stroke="Black" stroke-width="0.7579737856377817" fill="None" d="M298.2125 116.11250000000001 C 301.365 115.36500000000001, 302.665 114.38999999999999, 303.7375 111.95249999999999"></path><path stroke="Black" stroke-width="0.7579737856377817" fill="None" d="M295.125 112.505 C 298.83 112.82999999999998, 299.675 112.245, 301.69 109.905"></path><path stroke="Black" stroke-width="0.7579737856377817" fill="None" d="M295.7425 106.42750000000001 C 295.6125 105.38749999999999, 295.6125 104.4125, 295.8075 103.95750000000001"></path><path stroke="Black" stroke-width="0.7579737856377817" fill="None" d="M293.7925 106.42750000000001 C 293.175 104.57499999999999, 293.175 103.6, 294.0525 102.07249999999999"></path><path stroke="Black" stroke-width="0.7579737856377817" fill="None" d="M269.6775 120.72749999999999 C 274.975 123.1, 278.55 122.775, 281.735 121.60499999999999"></path><path stroke="Black" stroke-width="0.7579737856377817" fill="None" d="M269.6775 117.54249999999999 C 275.3 119.19999999999999, 277.25 119.19999999999999, 280.9875 118.38749999999999"></path><path stroke="Black" stroke-width="0.7579737856377817" fill="None" d="M269.6775 113.44749999999999 C 274.975 115.625, 277.575 115.625, 281.1825 114.6825"></path><path stroke="Black" stroke-width="0.7579737856377817" fill="None" d="M268.8325 110.26249999999999 C 275.95 112.05000000000001, 278.55 112.05000000000001, 281.865 111.465"></path><path stroke="Black" stroke-width="0.7579737856377817" fill="None" d="M290.6075 127.1625 C 291.94 127.065, 292.59 127.065, 293.435 127.065"></path><path stroke="Black" stroke-width="0.7579737856377817" fill="None" d="M290.6075 127.1625 C 291.94 129.21, 293.565 130.835, 295.84 132.395"></path><path stroke="Black" stroke-width="0.7579737856377817" fill="None" d="M295.84 132.395 C 296.6525 131.1275, 294.93 128.95, 293.435 127.065"></path><path stroke="Black" stroke-width="0.7579737856377817" fill="None" d="M295.06 126.61000000000001 C 296.1 126.35, 297.4 126.025, 298.0175 125.86250000000001"></path><path stroke="Black" stroke-width="0.7579737856377817" fill="None" d="M295.06 126.61000000000001 C 296.9125 129.7625, 297.4 130.25, 298.6025 131.3225"></path><path stroke="Black" stroke-width="0.7579737856377817" fill="None" d="M298.6025 131.3225 C 298.5375 128.7875, 298.44 127.25999999999999, 298.0175 125.86250000000001"></path><path stroke="Black" stroke-width="0.7579737856377817" fill="None" d="M286.545 80.91499999999999 C 268.6375 89.4625, 265.16 88.38999999999999, 243.5475 78.47749999999999"></path><path stroke="Black" stroke-width="0.7579737856377817" fill="None" d="M250.21 88.13 C 245.595 81.95500000000001, 241.76 79.03, 235 75"></path><path stroke="Black" stroke-width="0.7579737856377817" fill="None" d="M267.5 91.25 C 261.715 89.10499999999999, 257.1 88.52000000000001, 250.21 88.13"></path><path stroke="Black" stroke-width="0.7579737856377817" fill="None" d="M267.5 107.5 C 267.5 100.35, 267.5 96.125, 267.5 91.25"></path><path stroke="Black" stroke-width="0.7579737856377817" fill="None" d="M283.75 107.5 C 277.25 107.5, 273.35 107.5, 267.5 107.5"></path><path stroke="Black" stroke-width="0.7579737856377817" fill="None" d="M283.75 107.5 C 285.895 101.715, 286.48 97.1, 286.87 90.21000000000001"></path><path stroke="Black" stroke-width="0.7579737856377817" fill="None" d="M286.87 90.21000000000001 C 277.25 94.17500000000001, 275.625 94.17500000000001, 267.5 91.25"></path><path stroke="Black" stroke-width="0.7579737856377817" fill="None" d="M286.87 90.21000000000001 C 293.045 85.595, 295.97 81.75999999999999, 300 75"></path><path stroke="Black" stroke-width="0.7579737856377817" fill="None" d="M300 75 C 294.605 73.63499999999999, 291.225 73.18, 285.83 73.95999999999998"></path><path stroke="Black" stroke-width="0.7579737856377817" fill="None" d="M285.83 73.95999999999998 C 276.665 74.41499999999999, 277.51 82.41, 267.5 82.995"></path><path stroke="Black" stroke-width="0.7579737856377817" fill="None" d="M267.5 82.995 C 265.875 83.125, 262.625 83.125, 259.375 83.125"></path><path stroke="Black" stroke-width="0.7579737856377817" fill="None" d="M259.375 83.125 C 255.41 81.305, 252.81 79.28999999999999, 249.17000000000002 76.03999999999999"></path><path stroke="Black" stroke-width="0.7579737856377817" fill="None" d="M249.17000000000002 76.03999999999999 C 243.775 76.82, 240.395 76.36500000000001, 235 75"></path><path stroke="Black" stroke-width="0.7579737856377817" fill="None" d="M285.83 73.95999999999998 C 282.19 70.70999999999998, 279.59 68.695, 275.625 66.875"></path><path stroke="Black" stroke-width="0.7579737856377817" fill="None" d="M275.625 66.875 C 271.5625 70.9375, 269.9375 72.5625, 267.5 75"></path><path stroke="Black" stroke-width="0.7579737856377817" fill="None" d="M267.5 75 C 267.5 77.6, 267.5 80.85, 267.5 82.995"></path><path stroke="Black" stroke-width="0.7579737856377817" fill="None" d="M280.3375 74.1875 C 279.005 71.42500000000001, 277.25 70.06, 274.1625 69.1825"></path><path stroke="Black" stroke-width="0.7579737856377817" fill="None" d="M276.1125 76.7875 C 275.365 73.63499999999999, 274.39 72.33500000000001, 271.9525 71.26249999999999"></path><path stroke="Black" stroke-width="0.7579737856377817" fill="None" d="M272.505 79.875 C 272.83 76.17000000000002, 272.245 75.32499999999999, 269.905 73.31"></path><path stroke="Black" stroke-width="0.7579737856377817" fill="None" d="M266.4275 79.2575 C 265.3875 79.38749999999999, 264.4125 79.38749999999999, 263.9575 79.1925"></path><path stroke="Black" stroke-width="0.7579737856377817" fill="None" d="M266.4275 81.20750000000001 C 264.575 81.82499999999999, 263.6 81.82499999999999, 262.0725 80.94749999999999"></path><path stroke="Black" stroke-width="0.7579737856377817" fill="None" d="M280.7275 105.32249999999999 C 283.1 100.025, 282.775 96.44999999999999, 281.605 93.26499999999999"></path><path stroke="Black" stroke-width="0.7579737856377817" fill="None" d="M277.5425 105.32249999999999 C 279.2 99.69999999999999, 279.2 97.75, 278.3875 94.01249999999999"></path><path stroke="Black" stroke-width="0.7579737856377817" fill="None" d="M273.4475 105.32249999999999 C 275.625 100.025, 275.625 97.42500000000001, 274.6825 93.8175"></path><path stroke="Black" stroke-width="0.7579737856377817" fill="None" d="M270.2625 106.16749999999999 C 272.05 99.05000000000001, 272.05 96.44999999999999, 271.465 93.13499999999999"></path><path stroke="Black" stroke-width="0.7579737856377817" fill="None" d="M287.1625 84.39249999999998 C 287.065 83.06, 287.065 82.41, 287.065 81.565"></path><path stroke="Black" stroke-width="0.7579737856377817" fill="None" d="M287.1625 84.39249999999998 C 289.21 83.06, 290.835 81.435, 292.395 79.16"></path><path stroke="Black" stroke-width="0.7579737856377817" fill="None" d="M292.395 79.16 C 291.1275 78.3475, 288.95 80.07, 287.065 81.565"></path><path stroke="Black" stroke-width="0.7579737856377817" fill="None" d="M286.61 79.94 C 286.35 78.9, 286.025 77.6, 285.8625 76.98249999999999"></path><path stroke="Black" stroke-width="0.7579737856377817" fill="None" d="M286.61 79.94 C 289.7625 78.0875, 290.25 77.6, 291.3225 76.39750000000001"></path><path stroke="Black" stroke-width="0.7579737856377817" fill="None" d="M291.3225 76.39750000000001 C 288.7875 76.4625, 287.26 76.56, 285.8625 76.98249999999999"></path><path stroke="Black" stroke-width="0.9013878188659973" fill="None" d="M242.54 94.37 C 251.9 120.82499999999999, 256.45 123.22999999999999, 287.975 134.93"></path><path stroke="Black" stroke-width="0.9013878188659973" fill="None" d="M271.65999999999997 137.92 C 282.45 136.36, 289.21 137.27, 300 140"></path><path stroke="Black" stroke-width="0.9013878188659973" fill="None" d="M251.25 123.75 C 259.18 127.38999999999999, 264.38 131.42, 271.65999999999997 137.92"></path><path stroke="Black" stroke-width="0.9013878188659973" fill="None" d="M235 140 C 242.15 132.85, 246.375 128.625, 251.25 123.75"></path><path stroke="Black" stroke-width="0.9013878188659973" fill="None" d="M218.75 123.75 C 225.25 130.25, 229.15 134.15, 235 140"></path><path stroke="Black" stroke-width="0.9013878188659973" fill="None" d="M218.75 123.75 C 222.39 115.82, 226.42 110.62, 232.92 103.34"></path><path stroke="Black" stroke-width="0.9013878188659973" fill="None" d="M232.92 103.34 C 238.575 116.92500000000001, 240.2 118.55000000000001, 251.25 123.75"></path><path stroke="Black" stroke-width="0.9013878188659973" fill="None" d="M232.92 103.34 C 231.36 92.55000000000001, 232.27 85.78999999999999, 235 75"></path><path stroke="Black" stroke-width="0.9013878188659973" fill="None" d="M235 75 C 241.76 79.03, 245.595 81.95499999999998, 250.21 88.13"></path><path stroke="Black" stroke-width="0.9013878188659973" fill="None" d="M250.21 88.13 C 258.92 97.75, 250.08 104.9, 259.505 115.495"></path><path stroke="Black" stroke-width="0.9013878188659973" fill="None" d="M259.505 115.495 C 261 117.25, 264.25 120.5, 267.5 123.75"></path><path stroke="Black" stroke-width="0.9013878188659973" fill="None" d="M267.5 123.75 C 273.28499999999997 125.89500000000001, 277.9 126.47999999999999, 284.79 126.87"></path><path stroke="Black" stroke-width="0.9013878188659973" fill="None" d="M284.79 126.87 C 289.405 133.045, 293.24 135.97, 300 140"></path><path stroke="Black" stroke-width="0.9013878188659973" fill="None" d="M250.21 88.13 C 257.1 88.51999999999998, 261.715 89.10499999999999, 267.5 91.25"></path><path stroke="Black" stroke-width="0.9013878188659973" fill="None" d="M267.5 91.25 C 267.5 99.375, 267.5 102.625, 267.5 107.5"></path><path stroke="Black" stroke-width="0.9013878188659973" fill="None" d="M267.5 107.5 C 264.9 110.1, 261.65 113.35, 259.505 115.495"></path><path stroke="Black" stroke-width="0.9013878188659973" fill="None" d="M255.475 93.85 C 259.57 92.42000000000002, 262.69 92.81, 266.655 95.02000000000001"></path><path stroke="Black" stroke-width="0.9013878188659973" fill="None" d="M257.1 100.67500000000001 C 261 98.26999999999998, 263.275 97.945, 266.785 99.31"></path><path stroke="Black" stroke-width="0.9013878188659973" fill="None" d="M257.62 107.37 C 261 103.34, 262.43 103.08000000000001, 266.785 103.405"></path><path stroke="Black" stroke-width="0.9013878188659973" fill="None" d="M264.315 112.83000000000001 C 265.225 114, 266.2 114.975, 266.85 115.23500000000001"></path><path stroke="Black" stroke-width="0.9013878188659973" fill="None" d="M262.365 114.78 C 263.6 117.25, 264.575 118.225, 266.98 118.875"></path><path stroke="Black" stroke-width="0.9013878188659973" fill="None" d="M223.95 124.595 C 226.875 116.92500000000001, 230.775 113.67500000000001, 235.13 111.66"></path><path stroke="Black" stroke-width="0.9013878188659973" fill="None" d="M227.135 127.78 C 231.1 120.5, 233.05 118.55000000000001, 237.6 115.625"></path><path stroke="Black" stroke-width="0.9013878188659973" fill="None" d="M231.23 131.875 C 234.35 124.4, 236.95 121.80000000000001, 241.5 119.13499999999999"></path><path stroke="Black" stroke-width="0.9013878188659973" fill="None" d="M233.57 135.905 C 238.9 127, 241.5 124.4, 245.4 121.67000000000002"></path><path stroke="Black" stroke-width="0.9013878188659973" fill="None" d="M238.445 97.22999999999999 C 239.875 95.995, 240.525 95.345, 241.37 94.5"></path><path stroke="Black" stroke-width="0.9013878188659973" fill="None" d="M238.445 97.22999999999999 C 237.73 93.85, 237.73 90.6, 238.445 86.76499999999999"></path><path stroke="Black" stroke-width="0.9013878188659973" fill="None" d="M238.445 86.76499999999999 C 240.525 87.22, 240.98 91.12, 241.37 94.5"></path><path stroke="Black" stroke-width="0.9013878188659973" fill="None" d="M243.45 93.32999999999998 C 244.75 92.55000000000001, 246.375 91.57499999999999, 247.155 91.12"></path><path stroke="Black" stroke-width="0.9013878188659973" fill="None" d="M243.45 93.32999999999998 C 242.15 88.32499999999999, 242.15 87.35, 242.28 85.07499999999999"></path><path stroke="Black" stroke-width="0.9013878188659973" fill="None" d="M242.28 85.07499999999999 C 244.75 87.67500000000001, 246.18 89.30000000000001, 247.155 91.12"></path><path stroke="Black" stroke-width="1.071936807572228" fill="None" d="M143.09 151.83 C 107.275 168.925, 100.32 166.78, 57.095000000000006 146.955"></path><path stroke="Black" stroke-width="1.071936807572228" fill="None" d="M70.42 166.26 C 61.190000000000005 153.91, 53.519999999999996 148.06, 40 140"></path><path stroke="Black" stroke-width="1.071936807572228" fill="None" d="M105 172.5 C 93.43 168.21, 84.19999999999999 167.04, 70.42 166.26"></path><path stroke="Black" stroke-width="1.071936807572228" fill="None" d="M105 205 C 105 190.7, 105 182.25, 105 172.5"></path><path stroke="Black" stroke-width="1.071936807572228" fill="None" d="M137.5 205 C 124.5 205, 116.7 205, 105 205"></path><path stroke="Black" stroke-width="1.071936807572228" fill="None" d="M137.5 205 C 141.79 193.43, 142.96 184.2, 143.74 170.42000000000002"></path><path stroke="Black" stroke-width="1.071936807572228" fill="None" d="M143.74 170.42000000000002 C 124.5 178.35, 121.25 178.35, 105 172.5"></path><path stroke="Black" stroke-width="1.071936807572228" fill="None" d="M143.74 170.42000000000002 C 156.09 161.19, 161.94 153.51999999999998, 170 140"></path><path stroke="Black" stroke-width="1.071936807572228" fill="None" d="M170 140 C 159.21 137.26999999999998, 152.45 136.36, 141.66 137.92"></path><path stroke="Black" stroke-width="1.071936807572228" fill="None" d="M141.66 137.92 C 123.33 138.82999999999998, 125.02000000000001 154.82, 105 155.99"></path><path stroke="Black" stroke-width="1.071936807572228" fill="None" d="M105 155.99 C 101.75 156.25, 95.25 156.25, 88.75 156.25"></path><path stroke="Black" stroke-width="1.071936807572228" fill="None" d="M88.75 156.25 C 80.82000000000001 152.61, 75.62 148.57999999999998, 68.34 142.07999999999998"></path><path stroke="Black" stroke-width="1.071936807572228" fill="None" d="M68.34 142.07999999999998 C 57.55 143.64, 50.79 142.73, 40 140"></path><path stroke="Black" stroke-width="1.071936807572228" fill="None" d="M141.66 137.92 C 134.38 131.42, 129.18 127.38999999999999, 121.25 123.75"></path><path stroke="Black" stroke-width="1.071936807572228" fill="None" d="M121.25 123.75 C 113.125 131.875, 109.875 135.125, 105 140"></path><path stroke="Black" stroke-width="1.071936807572228" fill="None" d="M105 140 C 105 145.2, 105 151.7, 105 155.99"></path><path stroke="Black" stroke-width="1.071936807572228" fill="None" d="M130.675 138.375 C 128.01 132.85, 124.5 130.12, 118.325 128.365"></path><path stroke="Black" stroke-width="1.071936807572228" fill="None" d="M122.225 143.575 C 120.73 137.26999999999998, 118.78 134.67000000000002, 113.905 132.525"></path><path stroke="Black" stroke-width="1.071936807572228" fill="None" d="M115.01 149.75 C 115.66 142.34, 114.49 140.65, 109.81 136.62"></path><path stroke="Black" stroke-width="1.071936807572228" fill="None" d="M102.85499999999999 148.515 C 100.775 148.775, 98.825 148.775, 97.915 148.385"></path><path stroke="Black" stroke-width="1.071936807572228" fill="None" d="M102.855 152.415 C 99.15 153.65, 97.2 153.65, 94.145 151.89499999999998"></path><path stroke="Black" stroke-width="1.071936807572228" fill="None" d="M131.45499999999998 200.64499999999998 C 136.2 190.05, 135.55 182.9, 133.21 176.53"></path><path stroke="Black" stroke-width="1.071936807572228" fill="None" d="M125.08500000000001 200.64499999999998 C 128.4 189.4, 128.4 185.5, 126.775 178.025"></path><path stroke="Black" stroke-width="1.071936807572228" fill="None" d="M116.895 200.64499999999998 C 121.25 190.05, 121.25 184.85, 119.36500000000001 177.635"></path><path stroke="Black" stroke-width="1.071936807572228" fill="None" d="M110.525 202.33499999999998 C 114.1 188.1, 114.1 182.9, 112.92999999999999 176.27"></path><path stroke="Black" stroke-width="1.071936807572228" fill="None" d="M144.325 158.785 C 144.13 156.12, 144.13 154.82, 144.13 153.13"></path><path stroke="Black" stroke-width="1.071936807572228" fill="None" d="M144.325 158.785 C 148.42000000000002 156.12, 151.67000000000002 152.87, 154.79 148.32"></path><path stroke="Black" stroke-width="1.071936807572228" fill="None" d="M154.79 148.32 C 152.255 146.695, 147.9 150.14, 144.13 153.13"></path><path stroke="Black" stroke-width="1.071936807572228" fill="None" d="M143.22 149.88 C 142.7 147.8, 142.05 145.2, 141.725 143.965"></path><path stroke="Black" stroke-width="1.071936807572228" fill="None" d="M143.22 149.88 C 149.525 146.175, 150.5 145.2, 152.64499999999998 142.79500000000002"></path><path stroke="Black" stroke-width="1.071936807572228" fill="None" d="M152.64499999999998 142.79500000000002 C 147.575 142.925, 144.52 143.12, 141.725 143.965"></path><path stroke="Black" stroke-width="1.071936807572228" fill="None" d="M51.830000000000005 166.91 C 68.925 202.725, 66.78 209.68, 46.955000000000005 252.905"></path><path stroke="Black" stroke-width="1.071936807572228" fill="None" d="M66.26 239.57999999999998 C 53.910000000000004 248.81, 48.06 256.48, 40 270"></path><path stroke="Black" stroke-width="1.071936807572228" fill="None" d="M72.5 205 C 68.21000000000001 216.57, 67.03999999999999 225.8, 66.26 239.57999999999998"></path><path stroke="Black" stroke-width="1.071936807572228" fill="None" d="M105 205 C 90.7 205, 82.25 205, 72.5 205"></path><path stroke="Black" stroke-width="1.071936807572228" fill="None" d="M105 172.5 C 105 185.5, 105 193.3, 105 205"></path><path stroke="Black" stroke-width="1.071936807572228" fill="None" d="M105 172.5 C 93.43 168.21, 84.19999999999999 167.04, 70.42 166.26"></path><path stroke="Black" stroke-width="1.071936807572228" fill="None" d="M70.42 166.26 C 78.35 185.5, 78.35 188.75, 72.5 205"></path><path stroke="Black" stroke-width="1.071936807572228" fill="None" d="M70.42 166.26 C 61.190000000000005 153.91, 53.519999999999996 148.06, 40 140"></path><path stroke="Black" stroke-width="1.071936807572228" fill="None" d="M40 140 C 37.269999999999996 150.79, 36.36 157.55, 37.91999999999999 168.34"></path><path stroke="Black" stroke-width="1.071936807572228" fill="None" d="M37.91999999999999 168.34 C 38.83 186.67000000000002, 54.82 184.98, 55.99 205"></path><path stroke="Black" stroke-width="1.071936807572228" fill="None" d="M55.99 205 C 56.25 208.25, 56.25 214.75, 56.25 221.25"></path><path stroke="Black" stroke-width="1.071936807572228" fill="None" d="M56.25 221.25 C 52.61 229.18, 48.58 234.38, 42.08 241.66"></path><path stroke="Black" stroke-width="1.071936807572228" fill="None" d="M42.08 241.66 C 43.64 252.45, 42.73 259.21, 40 270"></path><path stroke="Black" stroke-width="1.071936807572228" fill="None" d="M37.91999999999999 168.34 C 31.419999999999987 175.62, 27.39 180.82, 23.75 188.75"></path><path stroke="Black" stroke-width="1.071936807572228" fill="None" d="M23.75 188.75 C 31.875 196.875, 35.125 200.125, 40 205"></path><path stroke="Black" stroke-width="1.071936807572228" fill="None" d="M40 205 C 45.199999999999996 205, 51.7 205, 55.99 205"></path><path stroke="Black" stroke-width="1.071936807572228" fill="None" d="M38.375 179.325 C 32.849999999999994 181.99, 30.120000000000005 185.5, 28.36500000000001 191.675"></path><path stroke="Black" stroke-width="1.071936807572228" fill="None" d="M43.575 187.775 C 37.269999999999996 189.26999999999998, 34.67 191.22, 32.525000000000006 196.095"></path><path stroke="Black" stroke-width="1.071936807572228" fill="None" d="M49.75 194.99 C 42.34 194.34, 40.650000000000006 195.51, 36.620000000000005 200.19"></path><path stroke="Black" stroke-width="1.071936807572228" fill="None" d="M48.515 207.145 C 48.775 209.225, 48.775 211.175, 48.385000000000005 212.08499999999998"></path><path stroke="Black" stroke-width="1.071936807572228" fill="None" d="M52.415 207.14499999999998 C 53.65 210.85, 53.65 212.8, 51.894999999999996 215.85500000000002"></path><path stroke="Black" stroke-width="1.071936807572228" fill="None" d="M100.645 178.54500000000002 C 90.05 173.8, 82.9 174.45, 76.53 176.79"></path><path stroke="Black" stroke-width="1.071936807572228" fill="None" d="M100.645 184.915 C 89.4 181.6, 85.5 181.6, 78.025 183.225"></path><path stroke="Black" stroke-width="1.071936807572228" fill="None" d="M100.645 193.10500000000002 C 90.05 188.75, 84.85 188.75, 77.63499999999999 190.635"></path><path stroke="Black" stroke-width="1.071936807572228" fill="None" d="M102.335 199.475 C 88.1 195.9, 82.9 195.9, 76.27000000000001 197.07"></path><path stroke="Black" stroke-width="1.071936807572228" fill="None" d="M58.785 165.675 C 56.12 165.87, 54.82 165.87, 53.13 165.87"></path><path stroke="Black" stroke-width="1.071936807572228" fill="None" d="M58.785 165.675 C 56.120000000000005 161.57999999999998, 52.870000000000005 158.32999999999998, 48.32 155.21"></path><path stroke="Black" stroke-width="1.071936807572228" fill="None" d="M48.32 155.21 C 46.695 157.745, 50.14 162.1, 53.13 165.87"></path><path stroke="Black" stroke-width="1.071936807572228" fill="None" d="M49.879999999999995 166.78 C 47.800000000000004 167.3, 45.2 167.95, 43.964999999999996 168.275"></path><path stroke="Black" stroke-width="1.071936807572228" fill="None" d="M49.879999999999995 166.78 C 46.175 160.475, 45.199999999999996 159.5, 42.795 157.35500000000002"></path><path stroke="Black" stroke-width="1.071936807572228" fill="None" d="M42.795 157.35500000000002 C 42.925 162.425, 43.12 165.48, 43.964999999999996 168.275"></path><path stroke="Black" stroke-width="1.2747548783981961" fill="None" d="M78.74000000000001 254.92000000000002 C 131.65 236.2, 136.46 227.1, 159.86 164.05"></path><path stroke="Black" stroke-width="1.2747548783981961" fill="None" d="M165.84 196.68 C 162.72 175.10000000000002, 164.54 161.57999999999998, 170 140"></path><path stroke="Black" stroke-width="1.2747548783981961" fill="None" d="M137.5 237.5 C 144.78 221.64, 152.84 211.24, 165.84 196.68"></path><path stroke="Black" stroke-width="1.2747548783981961" fill="None" d="M170 270 C 155.7 255.7, 147.25 247.25, 137.5 237.5"></path><path stroke="Black" stroke-width="1.2747548783981961" fill="None" d="M137.5 302.5 C 150.5 289.5, 158.3 281.7, 170 270"></path><path stroke="Black" stroke-width="1.2747548783981961" fill="None" d="M137.5 302.5 C 121.64 295.22, 111.24 287.16, 96.68 274.15999999999997"></path><path stroke="Black" stroke-width="1.2747548783981961" fill="None" d="M96.68 274.15999999999997 C 123.85 262.85, 127.1 259.6, 137.5 237.5"></path><path stroke="Black" stroke-width="1.2747548783981961" fill="None" d="M96.68 274.15999999999997 C 75.10000000000001 277.28, 61.58 275.46, 40 270"></path><path stroke="Black" stroke-width="1.2747548783981961" fill="None" d="M40 270 C 48.06 256.48, 53.91 248.81, 66.25999999999999 239.57999999999998"></path><path stroke="Black" stroke-width="1.2747548783981961" fill="None" d="M66.25999999999999 239.57999999999998 C 85.5 222.16, 99.8 239.84, 120.99000000000001 220.99"></path><path stroke="Black" stroke-width="1.2747548783981961" fill="None" d="M120.99000000000001 220.99 C 124.5 218, 131 211.5, 137.5 205"></path><path stroke="Black" stroke-width="1.2747548783981961" fill="None" d="M137.5 205 C 141.79 193.43, 142.96 184.2, 143.74 170.42000000000002"></path><path stroke="Black" stroke-width="1.2747548783981961" fill="None" d="M143.74 170.42000000000002 C 156.09 161.19, 161.94 153.51999999999998, 170 140"></path><path stroke="Black" stroke-width="1.2747548783981961" fill="None" d="M66.25999999999999 239.57999999999998 C 67.03999999999999 225.8, 68.21 216.57, 72.5 205"></path><path stroke="Black" stroke-width="1.2747548783981961" fill="None" d="M72.5 205 C 88.75 205, 95.25 205, 105 205"></path><path stroke="Black" stroke-width="1.2747548783981961" fill="None" d="M105 205 C 110.19999999999999 210.2, 116.7 216.7, 120.99000000000001 220.99"></path><path stroke="Black" stroke-width="1.2747548783981961" fill="None" d="M77.7 229.05 C 74.84 220.86, 75.62 214.62, 80.04 206.69"></path><path stroke="Black" stroke-width="1.2747548783981961" fill="None" d="M91.35000000000001 225.8 C 86.53999999999999 218, 85.89 213.45, 88.62 206.43"></path><path stroke="Black" stroke-width="1.2747548783981961" fill="None" d="M104.74 224.76 C 96.68 218, 96.16000000000001 215.14, 96.81 206.43"></path><path stroke="Black" stroke-width="1.2747548783981961" fill="None" d="M115.66 211.37 C 118 209.55, 119.94999999999999 207.6, 120.47 206.3"></path><path stroke="Black" stroke-width="1.2747548783981961" fill="None" d="M119.56 215.27 C 124.5 212.8, 126.44999999999999 210.85, 127.75 206.04"></path><path stroke="Black" stroke-width="1.2747548783981961" fill="None" d="M139.19 292.1 C 123.85 286.25, 117.35 278.45, 113.32 269.74"></path><path stroke="Black" stroke-width="1.2747548783981961" fill="None" d="M145.56 285.73 C 131 277.8, 127.1 273.9, 121.25 264.8"></path><path stroke="Black" stroke-width="1.2747548783981961" fill="None" d="M153.75 277.54 C 138.8 271.3, 133.6 266.1, 128.26999999999998 257"></path><path stroke="Black" stroke-width="1.2747548783981961" fill="None" d="M161.81 272.86 C 144 262.2, 138.8 257, 133.34 249.2"></path><path stroke="Black" stroke-width="1.2747548783981961" fill="None" d="M84.46 263.11 C 81.99 260.25, 80.69 258.95, 79 257.26"></path><path stroke="Black" stroke-width="1.2747548783981961" fill="None" d="M84.46 263.11 C 77.7 264.54, 71.2 264.54, 63.53 263.11"></path><path stroke="Black" stroke-width="1.2747548783981961" fill="None" d="M63.53 263.11 C 64.44 258.95, 72.24 258.04, 79 257.26"></path><path stroke="Black" stroke-width="1.2747548783981961" fill="None" d="M76.66 253.1 C 75.10000000000001 250.5, 73.15 247.25, 72.24 245.69"></path><path stroke="Black" stroke-width="1.2747548783981961" fill="None" d="M76.66 253.1 C 66.64999999999999 255.7, 64.69999999999999 255.7, 60.150000000000006 255.44"></path><path stroke="Black" stroke-width="1.2747548783981961" fill="None" d="M60.150000000000006 255.44 C 65.35 250.5, 68.6 247.64, 72.24 245.69"></path><path stroke="Black" stroke-width="1.071936807572228" fill="None" d="M288.17 243.09 C 271.075 207.275, 273.22 200.32, 293.045 157.095"></path><path stroke="Black" stroke-width="1.071936807572228" fill="None" d="M273.74 170.42000000000002 C 286.09 161.19, 291.94 153.51999999999998, 300 140"></path><path stroke="Black" stroke-width="1.071936807572228" fill="None" d="M267.5 205 C 271.79 193.43, 272.96 184.2, 273.74 170.42000000000002"></path><path stroke="Black" stroke-width="1.071936807572228" fill="None" d="M235 205 C 249.3 205, 257.75 205, 267.5 205"></path><path stroke="Black" stroke-width="1.071936807572228" fill="None" d="M235 237.5 C 235 224.5, 235 216.7, 235 205"></path><path stroke="Black" stroke-width="1.071936807572228" fill="None" d="M235 237.5 C 246.57 241.79, 255.8 242.96, 269.58 243.74"></path><path stroke="Black" stroke-width="1.071936807572228" fill="None" d="M269.58 243.74 C 261.65 224.5, 261.65 221.25, 267.5 205"></path><path stroke="Black" stroke-width="1.071936807572228" fill="None" d="M269.58 243.74 C 278.81 256.09, 286.48 261.94, 300 270"></path><path stroke="Black" stroke-width="1.071936807572228" fill="None" d="M300 270 C 302.73 259.21, 303.64 252.45, 302.08000000000004 241.66"></path><path stroke="Black" stroke-width="1.071936807572228" fill="None" d="M302.08000000000004 241.66 C 301.17 223.32999999999998, 285.18 225.02, 284.01 205"></path><path stroke="Black" stroke-width="1.071936807572228" fill="None" d="M284.01 205 C 283.75 201.75, 283.75 195.25, 283.75 188.75"></path><path stroke="Black" stroke-width="1.071936807572228" fill="None" d="M283.75 188.75 C 287.39 180.82, 291.42 175.62, 297.92 168.34"></path><path stroke="Black" stroke-width="1.071936807572228" fill="None" d="M297.92 168.34 C 296.36 157.55, 297.27 150.79, 300 140"></path><path stroke="Black" stroke-width="1.071936807572228" fill="None" d="M302.08000000000004 241.66 C 308.58000000000004 234.38, 312.61 229.18, 316.25 221.25"></path><path stroke="Black" stroke-width="1.071936807572228" fill="None" d="M316.25 221.25 C 308.125 213.125, 304.875 209.875, 300 205"></path><path stroke="Black" stroke-width="1.071936807572228" fill="None" d="M300 205 C 294.8 205, 288.3 205, 284.01 205"></path><path stroke="Black" stroke-width="1.071936807572228" fill="None" d="M301.625 230.675 C 307.15 228.01, 309.88 224.5, 311.635 218.325"></path><path stroke="Black" stroke-width="1.071936807572228" fill="None" d="M296.425 222.225 C 302.73 220.73000000000002, 305.33 218.78, 307.475 213.905"></path><path stroke="Black" stroke-width="1.071936807572228" fill="None" d="M290.25 215.01 C 297.65999999999997 215.66, 299.35 214.49, 303.38 209.81"></path><path stroke="Black" stroke-width="1.071936807572228" fill="None" d="M291.485 202.855 C 291.225 200.775, 291.225 198.825, 291.615 197.91500000000002"></path><path stroke="Black" stroke-width="1.071936807572228" fill="None" d="M287.585 202.85500000000002 C 286.35 199.15, 286.35 197.2, 288.105 194.14499999999998"></path><path stroke="Black" stroke-width="1.071936807572228" fill="None" d="M239.355 231.45499999999998 C 249.95 236.2, 257.1 235.55, 263.47 233.21"></path><path stroke="Black" stroke-width="1.071936807572228" fill="None" d="M239.355 225.085 C 250.6 228.4, 254.5 228.4, 261.975 226.775"></path><path stroke="Black" stroke-width="1.071936807572228" fill="None" d="M239.355 216.89499999999998 C 249.95 221.25, 255.15 221.25, 262.365 219.365"></path><path stroke="Black" stroke-width="1.071936807572228" fill="None" d="M237.665 210.525 C 251.9 214.1, 257.1 214.1, 263.73 212.93"></path><path stroke="Black" stroke-width="1.071936807572228" fill="None" d="M281.21500000000003 244.325 C 283.88 244.13, 285.18 244.13, 286.87 244.13"></path><path stroke="Black" stroke-width="1.071936807572228" fill="None" d="M281.21500000000003 244.325 C 283.88 248.42000000000002, 287.13 251.67000000000002, 291.68 254.79"></path><path stroke="Black" stroke-width="1.071936807572228" fill="None" d="M291.68 254.79 C 293.305 252.255, 289.86 247.9, 286.87 244.13"></path><path stroke="Black" stroke-width="1.071936807572228" fill="None" d="M290.12 243.22 C 292.2 242.7, 294.8 242.05, 296.035 241.725"></path><path stroke="Black" stroke-width="1.071936807572228" fill="None" d="M290.12 243.22 C 293.825 249.525, 294.8 250.5, 297.205 252.64499999999998"></path><path stroke="Black" stroke-width="1.071936807572228" fill="None" d="M297.205 252.64499999999998 C 297.075 247.575, 296.88 244.52, 296.035 241.725"></path><path stroke="Black" stroke-width="1.071936807572228" fill="None" d="M273.09 151.83 C 237.275 168.925, 230.32 166.78, 187.095 146.955"></path><path stroke="Black" stroke-width="1.071936807572228" fill="None" d="M200.42000000000002 166.26 C 191.19 153.91, 183.51999999999998 148.06, 170 140"></path><path stroke="Black" stroke-width="1.071936807572228" fill="None" d="M235 172.5 C 223.43 168.21, 214.2 167.04, 200.42000000000002 166.26"></path><path stroke="Black" stroke-width="1.071936807572228" fill="None" d="M235 205 C 235 190.7, 235 182.25, 235 172.5"></path><path stroke="Black" stroke-width="1.071936807572228" fill="None" d="M267.5 205 C 254.5 205, 246.7 205, 235 205"></path><path stroke="Black" stroke-width="1.071936807572228" fill="None" d="M267.5 205 C 271.79 193.43, 272.96 184.2, 273.74 170.42000000000002"></path><path stroke="Black" stroke-width="1.071936807572228" fill="None" d="M273.74 170.42000000000002 C 254.5 178.35, 251.25 178.35, 235 172.5"></path><path stroke="Black" stroke-width="1.071936807572228" fill="None" d="M273.74 170.42000000000002 C 286.09 161.19, 291.94 153.51999999999998, 300 140"></path><path stroke="Black" stroke-width="1.071936807572228" fill="None" d="M300 140 C 289.21 137.26999999999998, 282.45 136.36, 271.66 137.92"></path><path stroke="Black" stroke-width="1.071936807572228" fill="None" d="M271.66 137.92 C 253.33 138.82999999999998, 255.02 154.82, 235 155.99"></path><path stroke="Black" stroke-width="1.071936807572228" fill="None" d="M235 155.99 C 231.75 156.25, 225.25 156.25, 218.75 156.25"></path><path stroke="Black" stroke-width="1.071936807572228" fill="None" d="M218.75 156.25 C 210.82 152.61, 205.62 148.57999999999998, 198.34 142.07999999999998"></path><path stroke="Black" stroke-width="1.071936807572228" fill="None" d="M198.34 142.07999999999998 C 187.55 143.64, 180.79 142.73, 170 140"></path><path stroke="Black" stroke-width="1.071936807572228" fill="None" d="M271.66 137.92 C 264.38 131.42, 259.18 127.38999999999999, 251.25 123.75"></path><path stroke="Black" stroke-width="1.071936807572228" fill="None" d="M251.25 123.75 C 243.125 131.875, 239.875 135.125, 235 140"></path><path stroke="Black" stroke-width="1.071936807572228" fill="None" d="M235 140 C 235 145.2, 235 151.7, 235 155.99"></path><path stroke="Black" stroke-width="1.071936807572228" fill="None" d="M260.675 138.375 C 258.01 132.85, 254.5 130.12, 248.325 128.365"></path><path stroke="Black" stroke-width="1.071936807572228" fill="None" d="M252.225 143.575 C 250.73000000000002 137.26999999999998, 248.78 134.67000000000002, 243.905 132.525"></path><path stroke="Black" stroke-width="1.071936807572228" fill="None" d="M245.01 149.75 C 245.66 142.34, 244.49 140.65, 239.81 136.62"></path><path stroke="Black" stroke-width="1.071936807572228" fill="None" d="M232.855 148.515 C 230.775 148.775, 228.825 148.775, 227.915 148.385"></path><path stroke="Black" stroke-width="1.071936807572228" fill="None" d="M232.85500000000002 152.415 C 229.15 153.65, 227.2 153.65, 224.145 151.89499999999998"></path><path stroke="Black" stroke-width="1.071936807572228" fill="None" d="M261.455 200.64499999999998 C 266.2 190.05, 265.55 182.9, 263.21 176.53"></path><path stroke="Black" stroke-width="1.071936807572228" fill="None" d="M255.085 200.64499999999998 C 258.4 189.4, 258.4 185.5, 256.775 178.025"></path><path stroke="Black" stroke-width="1.071936807572228" fill="None" d="M246.895 200.64499999999998 C 251.25 190.05, 251.25 184.85, 249.365 177.635"></path><path stroke="Black" stroke-width="1.071936807572228" fill="None" d="M240.525 202.33499999999998 C 244.1 188.1, 244.1 182.9, 242.93 176.27"></path><path stroke="Black" stroke-width="1.071936807572228" fill="None" d="M274.325 158.785 C 274.13 156.12, 274.13 154.82, 274.13 153.13"></path><path stroke="Black" stroke-width="1.071936807572228" fill="None" d="M274.325 158.785 C 278.42 156.12, 281.67 152.87, 284.79 148.32"></path><path stroke="Black" stroke-width="1.071936807572228" fill="None" d="M284.79 148.32 C 282.255 146.695, 277.9 150.14, 274.13 153.13"></path><path stroke="Black" stroke-width="1.071936807572228" fill="None" d="M273.22 149.88 C 272.7 147.8, 272.05 145.2, 271.725 143.965"></path><path stroke="Black" stroke-width="1.071936807572228" fill="None" d="M273.22 149.88 C 279.525 146.175, 280.5 145.2, 282.645 142.79500000000002"></path><path stroke="Black" stroke-width="1.071936807572228" fill="None" d="M282.645 142.79500000000002 C 277.575 142.925, 274.52 143.12, 271.725 143.965"></path><path stroke="Black" stroke-width="1.2747548783981961" fill="None" d="M185.08 178.74 C 203.8 231.65, 212.9 236.46, 275.95 259.86"></path><path stroke="Black" stroke-width="1.2747548783981961" fill="None" d="M243.32 265.84000000000003 C 264.9 262.72, 278.42 264.54, 300 270"></path><path stroke="Black" stroke-width="1.2747548783981961" fill="None" d="M202.5 237.5 C 218.36 244.78, 228.76 252.84, 243.32 265.84000000000003"></path><path stroke="Black" stroke-width="1.2747548783981961" fill="None" d="M170 270 C 184.3 255.7, 192.75 247.25, 202.5 237.5"></path><path stroke="Black" stroke-width="1.2747548783981961" fill="None" d="M137.5 237.5 C 150.5 250.5, 158.3 258.3, 170 270"></path><path stroke="Black" stroke-width="1.2747548783981961" fill="None" d="M137.5 237.5 C 144.78 221.64, 152.84 211.24, 165.84 196.68"></path><path stroke="Black" stroke-width="1.2747548783981961" fill="None" d="M165.84 196.68 C 177.15 223.85, 180.4 227.1, 202.5 237.5"></path><path stroke="Black" stroke-width="1.2747548783981961" fill="None" d="M165.84 196.68 C 162.72 175.10000000000002, 164.54 161.57999999999998, 170 140"></path><path stroke="Black" stroke-width="1.2747548783981961" fill="None" d="M170 140 C 183.52 148.06, 191.19 153.91, 200.42000000000002 166.26"></path><path stroke="Black" stroke-width="1.2747548783981961" fill="None" d="M200.42000000000002 166.26 C 217.84 185.5, 200.16 199.8, 219.01 220.99"></path><path stroke="Black" stroke-width="1.2747548783981961" fill="None" d="M219.01 220.99 C 222 224.5, 228.5 231, 235 237.5"></path><path stroke="Black" stroke-width="1.2747548783981961" fill="None" d="M235 237.5 C 246.57 241.79, 255.8 242.96, 269.58 243.74"></path><path stroke="Black" stroke-width="1.2747548783981961" fill="None" d="M269.58 243.74 C 278.81 256.09000000000003, 286.48 261.94, 300 270"></path><path stroke="Black" stroke-width="1.2747548783981961" fill="None" d="M200.42000000000002 166.26 C 214.2 167.04, 223.43 168.20999999999998, 235 172.5"></path><path stroke="Black" stroke-width="1.2747548783981961" fill="None" d="M235 172.5 C 235 188.75, 235 195.25, 235 205"></path><path stroke="Black" stroke-width="1.2747548783981961" fill="None" d="M235 205 C 229.8 210.2, 223.3 216.7, 219.01 220.99"></path><path stroke="Black" stroke-width="1.2747548783981961" fill="None" d="M210.95 177.7 C 219.14 174.84, 225.38 175.62, 233.31 180.04000000000002"></path><path stroke="Black" stroke-width="1.2747548783981961" fill="None" d="M214.2 191.35000000000002 C 222 186.54, 226.55 185.89, 233.57 188.62"></path><path stroke="Black" stroke-width="1.2747548783981961" fill="None" d="M215.24 204.74 C 222 196.68, 224.86 196.16000000000003, 233.57 196.81"></path><path stroke="Black" stroke-width="1.2747548783981961" fill="None" d="M228.63 215.66 C 230.45 218, 232.4 219.95, 233.7 220.47"></path><path stroke="Black" stroke-width="1.2747548783981961" fill="None" d="M224.73 219.56 C 227.2 224.5, 229.15 226.45, 233.96 227.75"></path><path stroke="Black" stroke-width="1.2747548783981961" fill="None" d="M147.9 239.19 C 153.75 223.85, 161.55 217.35, 170.26 213.32"></path><path stroke="Black" stroke-width="1.2747548783981961" fill="None" d="M154.27 245.56 C 162.2 231, 166.1 227.1, 175.2 221.25"></path><path stroke="Black" stroke-width="1.2747548783981961" fill="None" d="M162.46 253.75 C 168.7 238.8, 173.9 233.6, 183 228.26999999999998"></path><path stroke="Black" stroke-width="1.2747548783981961" fill="None" d="M167.14 261.81 C 177.8 244, 183 238.8, 190.8 233.34"></path><path stroke="Black" stroke-width="1.2747548783981961" fill="None" d="M176.89 184.45999999999998 C 179.75 181.99, 181.05 180.69, 182.74 179"></path><path stroke="Black" stroke-width="1.2747548783981961" fill="None" d="M176.89 184.45999999999998 C 175.46 177.7, 175.46 171.2, 176.89 163.53"></path><path stroke="Black" stroke-width="1.2747548783981961" fill="None" d="M176.89 163.53 C 181.05 164.44, 181.96 172.24, 182.74 179"></path><path stroke="Black" stroke-width="1.2747548783981961" fill="None" d="M186.9 176.66 C 189.5 175.10000000000002, 192.75 173.15, 194.31 172.24"></path><path stroke="Black" stroke-width="1.2747548783981961" fill="None" d="M186.9 176.66 C 184.3 166.64999999999998, 184.3 164.7, 184.56 160.15"></path><path stroke="Black" stroke-width="1.2747548783981961" fill="None" d="M184.56 160.15 C 189.5 165.35, 192.36 168.6, 194.31 172.24"></path><polyline stroke="red" stroke-width="1" fill="None" points="40,75 105,75 105,10 40,10 40,75"></polyline><polyline stroke="red" stroke-width="1" fill="None" points="105,75 170,75 170,10 105,10 105,75"></polyline><polyline stroke="red" stroke-width="1" fill="None" points="40,140 105,140 105,75 40,75 40,140"></polyline><polyline stroke="red" stroke-width="1" fill="None" points="105,140 170,140 170,75 105,75 105,140"></polyline><polyline stroke="red" stroke-width="1" fill="None" points="170,75 235,75 235,10 170,10 170,75"></polyline><polyline stroke="red" stroke-width="1" fill="None" points="235,75 300,75 300,10 235,10 235,75"></polyline><polyline stroke="red" stroke-width="1" fill="None" points="170,140 235,140 235,75 170,75 170,140"></polyline><polyline stroke="red" stroke-width="1" fill="None" points="235,140 300,140 300,75 235,75 235,140"></polyline><polyline stroke="red" stroke-width="1" fill="None" points="40,270 170,270 170,140 40,140 40,270"></polyline><polyline stroke="red" stroke-width="1" fill="None" points="170,270 300,270 300,140 170,140 170,270"></polyline></svg>