<svg version="1.1" xmlns="http://www.w3.org/2000/svg" viewBox="0 0 340 290" x="-3px" y="0px" width="343" height="293" style="background-color:white"><path stroke="Black" stroke-width="0.7579737856377817" fill="None" d="M164.085 126.54499999999999 C 155.5375 108.63749999999999, 156.61 105.16, 166.5225 83.54750000000001"></path><path stroke="Black" stroke-width="0.7579737856377817" fill="None" d="M156.87 90.21000000000001 C 163.045 85.595, 165.97 81.75999999999999, 170 75"></path><path stroke="Black" stroke-width="0.7579737856377817" fill="None" d="M153.75 107.5 C 155.895 101.715, 156.48 97.1, 156.87 90.21000000000001"></path><path stroke="Black" stroke-width="0.7579737856377817" fill="None" d="M137.5 107.5 C 144.65 107.5, 148.875 107.5, 153.75 107.5"></path><path stroke="Black" stroke-width="0.7579737856377817" fill="None" d="M137.5 123.75 C 137.5 117.25, 137.5 113.35, 137.5 107.5"></path><path stroke="Black" stroke-width="0.7579737856377817" fill="None" d="M137.5 123.75 C 143.285 125.89500000000001, 147.9 126.47999999999999, 154.79 126.87"></path><path stroke="Black" stroke-width="0.7579737856377817" fill="None" d="M154.79 126.87 C 150.825 117.25, 150.825 115.625, 153.75 107.5"></path><path stroke="Black" stroke-width="0.7579737856377817" fill="None" d="M154.79 126.87 C 159.405 133.045, 163.24 135.97, 170 140"></path><path stroke="Black" stroke-width="0.7579737856377817" fill="None" d="M170 140 C 171.365 134.605, 171.82 131.225, 171.04000000000002 125.83000000000001"></path><path stroke="Black" stroke-width="0.7579737856377817" fill="None" d="M171.04000000000002 125.83000000000001 C 170.585 116.66499999999999, 162.59 117.50999999999999, 162.005 107.5"></path><path stroke="Black" stroke-width="0.7579737856377817" fill="None" d="M162.005 107.5 C 161.875 105.875, 161.875 102.625, 161.875 99.375"></path><path stroke="Black" stroke-width="0.7579737856377817" fill="None" d="M161.875 99.375 C 163.695 95.41, 165.71 92.81, 168.96 89.17000000000002"></path><path stroke="Black" stroke-width="0.7579737856377817" fill="None" d="M168.96 89.17000000000002 C 168.18 83.775, 168.635 80.39500000000001, 170 75"></path><path stroke="Black" stroke-width="0.7579737856377817" fill="None" d="M171.04000000000002 125.83000000000001 C 174.29000000000002 122.19, 176.305 119.59, 178.125 115.625"></path><path stroke="Black" stroke-width="0.7579737856377817" fill="None" d="M178.125 115.625 C 174.0625 111.5625, 172.4375 109.9375, 170 107.5"></path><path stroke="Black" stroke-width="0.7579737856377817" fill="None" d="M170 107.5 C 167.4 107.5, 164.15 107.5, 162.005 107.5"></path><path stroke="Black" stroke-width="0.7579737856377817" fill="None" d="M170.8125 120.3375 C 173.575 119.005, 174.94 117.25, 175.8175 114.1625"></path><path stroke="Black" stroke-width="0.7579737856377817" fill="None" d="M168.2125 116.11250000000001 C 171.365 115.36500000000001, 172.665 114.38999999999999, 173.7375 111.95249999999999"></path><path stroke="Black" stroke-width="0.7579737856377817" fill="None" d="M165.125 112.505 C 168.82999999999998 112.82999999999998, 169.675 112.245, 171.69 109.905"></path><path stroke="Black" stroke-width="0.7579737856377817" fill="None" d="M165.7425 106.42750000000001 C 165.6125 105.38749999999999, 165.6125 104.4125, 165.8075 103.95750000000001"></path><path stroke="Black" stroke-width="0.7579737856377817" fill="None" d="M163.7925 106.42750000000001 C 163.175 104.57499999999999, 163.175 103.6, 164.0525 102.07249999999999"></path><path stroke="Black" stroke-width="0.7579737856377817" fill="None" d="M139.6775 120.72749999999999 C 144.975 123.1, 148.55 122.775, 151.735 121.60499999999999"></path><path stroke="Black" stroke-width="0.7579737856377817" fill="None" d="M139.6775 117.54249999999999 C 145.3 119.19999999999999, 147.25 119.19999999999999, 150.9875 118.38749999999999"></path><path stroke="Black" stroke-width="0.7579737856377817" fill="None" d="M139.6775 113.44749999999999 C 144.975 115.625, 147.575 115.625, 151.1825 114.6825"></path><path stroke="Black" stroke-width="0.7579737856377817" fill="None" d="M138.8325 110.26249999999999 C 145.95 112.05000000000001, 148.55 112.05000000000001, 151.865 111.465"></path><path stroke="Black" stroke-width="0.7579737856377817" fill="None" d="M160.60750000000002 127.1625 C 161.94 127.065, 162.59 127.065, 163.435 127.065"></path><path stroke="Black" stroke-width="0.7579737856377817" fill="None" d="M160.60750000000002 127.1625 C 161.94 129.21, 163.565 130.835, 165.84 132.395"></path><path stroke="Black" stroke-width="0.7579737856377817" fill="None" d="M165.84 132.395 C 166.6525 131.1275, 164.93 128.95, 163.435 127.065"></path><path stroke="Black" stroke-width="0.7579737856377817" fill="None" d="M165.06 126.61000000000001 C 166.1 126.35, 167.4 126.025, 168.0175 125.86250000000001"></path><path stroke="Black" stroke-width="0.7579737856377817" fill="None" d="M165.06 126.61000000000001 C 166.9125 129.7625, 167.4 130.25, 168.6025 131.3225"></path><path stroke="Black" stroke-width="0.7579737856377817" fill="None" d="M168.6025 131.3225 C 168.5375 128.7875, 168.44 127.25999999999999, 168.0175 125.86250000000001"></path><path stroke="Black" stroke-width="0.7579737856377817" fill="None" d="M118.455 134.085 C 136.3625 125.5375, 139.84 126.61000000000001, 161.4525 136.5225"></path><path stroke="Black" stroke-width="0.7579737856377817" fill="None" d="M154.79 126.87 C 159.405 133.045, 163.24 135.97, 170 140"></path><path stroke="Black" stroke-width="0.7579737856377817" fill="None" d="M137.5 123.75 C 143.285 125.89500000000001, 147.9 126.47999999999999, 154.79 126.87"></path><path stroke="Black" stroke-width="0.7579737856377817" fill="None" d="M137.5 107.5 C 137.5 114.65, 137.5 118.875, 137.5 123.75"></path><path stroke="Black" stroke-width="0.7579737856377817" fill="None" d="M121.25 107.5 C 127.75 107.5, 131.65 107.5, 137.5 107.5"></path><path stroke="Black" stroke-width="0.7579737856377817" fill="None" d="M121.25 107.5 C 119.105 113.285, 118.52 117.9, 118.13 124.78999999999999"></path><path stroke="Black" stroke-width="0.7579737856377817" fill="None" d="M118.13 124.78999999999999 C 127.75 120.82499999999999, 129.375 120.82499999999999, 137.5 123.75"></path><path stroke="Black" stroke-width="0.7579737856377817" fill="None" d="M118.13 124.78999999999999 C 111.955 129.405, 109.03 133.24, 105 140"></path><path stroke="Black" stroke-width="0.7579737856377817" fill="None" d="M105 140 C 110.395 141.365, 113.775 141.82, 119.17 141.04000000000002"></path><path stroke="Black" stroke-width="0.7579737856377817" fill="None" d="M119.17 141.04000000000002 C 128.335 140.585, 127.49 132.59, 137.5 132.005"></path><path stroke="Black" stroke-width="0.7579737856377817" fill="None" d="M137.5 132.005 C 139.125 131.875, 142.375 131.875, 145.625 131.875"></path><path stroke="Black" stroke-width="0.7579737856377817" fill="None" d="M145.625 131.875 C 149.59 133.695, 152.19 135.71, 155.82999999999998 138.96"></path><path stroke="Black" stroke-width="0.7579737856377817" fill="None" d="M155.82999999999998 138.96 C 161.225 138.18, 164.605 138.635, 170 140"></path><path stroke="Black" stroke-width="0.7579737856377817" fill="None" d="M119.17 141.04000000000002 C 122.81 144.29000000000002, 125.41 146.305, 129.375 148.125"></path><path stroke="Black" stroke-width="0.7579737856377817" fill="None" d="M129.375 148.125 C 133.4375 144.0625, 135.0625 142.4375, 137.5 140"></path><path stroke="Black" stroke-width="0.7579737856377817" fill="None" d="M137.5 140 C 137.5 137.4, 137.5 134.15, 137.5 132.005"></path><path stroke="Black" stroke-width="0.7579737856377817" fill="None" d="M124.6625 140.8125 C 125.995 143.575, 127.75 144.94, 130.8375 145.8175"></path><path stroke="Black" stroke-width="0.7579737856377817" fill="None" d="M128.8875 138.2125 C 129.635 141.365, 130.61 142.665, 133.0475 143.7375"></path><path stroke="Black" stroke-width="0.7579737856377817" fill="None" d="M132.495 135.125 C 132.17000000000002 138.82999999999998, 132.755 139.675, 135.095 141.69"></path><path stroke="Black" stroke-width="0.7579737856377817" fill="None" d="M138.5725 135.7425 C 139.6125 135.6125, 140.5875 135.6125, 141.0425 135.8075"></path><path stroke="Black" stroke-width="0.7579737856377817" fill="None" d="M138.5725 133.7925 C 140.425 133.175, 141.4 133.175, 142.9275 134.0525"></path><path stroke="Black" stroke-width="0.7579737856377817" fill="None" d="M124.27250000000001 109.67750000000001 C 121.9 114.975, 122.225 118.55000000000001, 123.395 121.73500000000001"></path><path stroke="Black" stroke-width="0.7579737856377817" fill="None" d="M127.4575 109.67750000000001 C 125.8 115.30000000000001, 125.8 117.25, 126.6125 120.98750000000001"></path><path stroke="Black" stroke-width="0.7579737856377817" fill="None" d="M131.5525 109.67750000000001 C 129.375 114.975, 129.375 117.57499999999999, 130.3175 121.1825"></path><path stroke="Black" stroke-width="0.7579737856377817" fill="None" d="M134.7375 108.83250000000001 C 132.95 115.94999999999999, 132.95 118.55000000000001, 133.535 121.86500000000001"></path><path stroke="Black" stroke-width="0.7579737856377817" fill="None" d="M117.8375 130.60750000000002 C 117.935 131.94, 117.935 132.59, 117.935 133.435"></path><path stroke="Black" stroke-width="0.7579737856377817" fill="None" d="M117.8375 130.60750000000002 C 115.78999999999999 131.94, 114.16499999999999 133.565, 112.605 135.84"></path><path stroke="Black" stroke-width="0.7579737856377817" fill="None" d="M112.605 135.84 C 113.8725 136.6525, 116.05 134.93, 117.935 133.435"></path><path stroke="Black" stroke-width="0.7579737856377817" fill="None" d="M118.39 135.06 C 118.65 136.1, 118.975 137.4, 119.1375 138.0175"></path><path stroke="Black" stroke-width="0.7579737856377817" fill="None" d="M118.39 135.06 C 115.2375 136.9125, 114.75 137.4, 113.67750000000001 138.6025"></path><path stroke="Black" stroke-width="0.7579737856377817" fill="None" d="M113.67750000000001 138.6025 C 116.2125 138.5375, 117.74 138.44, 119.1375 138.0175"></path><path stroke="Black" stroke-width="0.7579737856377817" fill="None" d="M110.915 88.45500000000001 C 119.4625 106.36250000000001, 118.39 109.84, 108.4775 131.4525"></path><path stroke="Black" stroke-width="0.7579737856377817" fill="None" d="M118.13 124.78999999999999 C 111.955 129.405, 109.03 133.24, 105 140"></path><path stroke="Black" stroke-width="0.7579737856377817" fill="None" d="M121.25 107.5 C 119.105 113.285, 118.52 117.9, 118.13 124.78999999999999"></path><path stroke="Black" stroke-width="0.7579737856377817" fill="None" d="M137.5 107.5 C 130.35 107.5, 126.125 107.5, 121.25 107.5"></path><path stroke="Black" stroke-width="0.7579737856377817" fill="None" d="M137.5 91.25 C 137.5 97.75, 137.5 101.65, 137.5 107.5"></path><path stroke="Black" stroke-width="0.7579737856377817" fill="None" d="M137.5 91.25 C 131.715 89.10499999999999, 127.1 88.52000000000001, 120.21000000000001 88.13"></path><path stroke="Black" stroke-width="0.7579737856377817" fill="None" d="M120.21000000000001 88.13 C 124.175 97.75, 124.175 99.375, 121.25 107.5"></path><path stroke="Black" stroke-width="0.7579737856377817" fill="None" d="M120.21000000000001 88.13 C 115.595 81.95500000000001, 111.75999999999999 79.03, 105 75"></path><path stroke="Black" stroke-width="0.7579737856377817" fill="None" d="M105 75 C 103.63499999999999 80.39500000000001, 103.18 83.775, 103.96 89.16999999999999"></path><path stroke="Black" stroke-width="0.7579737856377817" fill="None" d="M103.96 89.16999999999999 C 104.41499999999999 98.33500000000001, 112.41 97.49000000000001, 112.995 107.5"></path><path stroke="Black" stroke-width="0.7579737856377817" fill="None" d="M112.995 107.5 C 113.125 109.125, 113.125 112.375, 113.125 115.625"></path><path stroke="Black" stroke-width="0.7579737856377817" fill="None" d="M113.125 115.625 C 111.305 119.59, 109.28999999999999 122.19, 106.03999999999999 125.82999999999998"></path><path stroke="Black" stroke-width="0.7579737856377817" fill="None" d="M106.03999999999999 125.82999999999998 C 106.82 131.225, 106.365 134.605, 105 140"></path><path stroke="Black" stroke-width="0.7579737856377817" fill="None" d="M103.96 89.16999999999999 C 100.71 92.81, 98.695 95.41, 96.875 99.375"></path><path stroke="Black" stroke-width="0.7579737856377817" fill="None" d="M96.875 99.375 C 100.9375 103.4375, 102.5625 105.0625, 105 107.5"></path><path stroke="Black" stroke-width="0.7579737856377817" fill="None" d="M105 107.5 C 107.6 107.5, 110.85 107.5, 112.995 107.5"></path><path stroke="Black" stroke-width="0.7579737856377817" fill="None" d="M104.1875 94.6625 C 101.425 95.995, 100.06 97.75, 99.1825 100.8375"></path><path stroke="Black" stroke-width="0.7579737856377817" fill="None" d="M106.7875 98.88749999999999 C 103.63499999999999 99.63499999999999, 102.33500000000001 100.61000000000001, 101.2625 103.04750000000001"></path><path stroke="Black" stroke-width="0.7579737856377817" fill="None" d="M109.875 102.495 C 106.17 102.17000000000002, 105.325 102.755, 103.31 105.095"></path><path stroke="Black" stroke-width="0.7579737856377817" fill="None" d="M109.2575 108.57249999999999 C 109.3875 109.61250000000001, 109.3875 110.5875, 109.1925 111.04249999999999"></path><path stroke="Black" stroke-width="0.7579737856377817" fill="None" d="M111.2075 108.57249999999999 C 111.825 110.42500000000001, 111.825 111.4, 110.94749999999999 112.92750000000001"></path><path stroke="Black" stroke-width="0.7579737856377817" fill="None" d="M135.3225 94.27250000000001 C 130.025 91.9, 126.45 92.225, 123.265 93.39500000000001"></path><path stroke="Black" stroke-width="0.7579737856377817" fill="None" d="M135.3225 97.45750000000001 C 129.7 95.80000000000001, 127.75 95.80000000000001, 124.0125 96.61250000000001"></path><path stroke="Black" stroke-width="0.7579737856377817" fill="None" d="M135.3225 101.55250000000001 C 130.025 99.375, 127.425 99.375, 123.8175 100.3175"></path><path stroke="Black" stroke-width="0.7579737856377817" fill="None" d="M136.1675 104.73750000000001 C 129.05 102.94999999999999, 126.45 102.94999999999999, 123.135 103.535"></path><path stroke="Black" stroke-width="0.7579737856377817" fill="None" d="M114.3925 87.8375 C 113.06 87.935, 112.41 87.935, 111.565 87.935"></path><path stroke="Black" stroke-width="0.7579737856377817" fill="None" d="M114.3925 87.8375 C 113.06 85.78999999999999, 111.435 84.16499999999999, 109.16 82.60499999999999"></path><path stroke="Black" stroke-width="0.7579737856377817" fill="None" d="M109.16 82.60499999999999 C 108.3475 83.8725, 110.07 86.05000000000001, 111.565 87.935"></path><path stroke="Black" stroke-width="0.7579737856377817" fill="None" d="M109.94 88.38999999999999 C 108.9 88.65, 107.6 88.975, 106.9825 89.13749999999999"></path><path stroke="Black" stroke-width="0.7579737856377817" fill="None" d="M109.94 88.38999999999999 C 108.0875 85.23750000000001, 107.6 84.75, 106.39750000000001 83.67750000000001"></path><path stroke="Black" stroke-width="0.7579737856377817" fill="None" d="M106.39750000000001 83.67750000000001 C 106.4625 86.2125, 106.56 87.74000000000001, 106.9825 89.13749999999999"></path><path stroke="Black" stroke-width="0.7579737856377817" fill="None" d="M156.545 80.91499999999999 C 138.6375 89.4625, 135.16 88.38999999999999, 113.5475 78.47749999999999"></path><path stroke="Black" stroke-width="0.7579737856377817" fill="None" d="M120.21000000000001 88.13 C 115.595 81.95500000000001, 111.75999999999999 79.03, 105 75"></path><path stroke="Black" stroke-width="0.7579737856377817" fill="None" d="M137.5 91.25 C 131.715 89.10499999999999, 127.1 88.52000000000001, 120.21000000000001 88.13"></path><path stroke="Black" stroke-width="0.7579737856377817" fill="None" d="M137.5 107.5 C 137.5 100.35, 137.5 96.125, 137.5 91.25"></path><path stroke="Black" stroke-width="0.7579737856377817" fill="None" d="M153.75 107.5 C 147.25 107.5, 143.35 107.5, 137.5 107.5"></path><path stroke="Black" stroke-width="0.7579737856377817" fill="None" d="M153.75 107.5 C 155.895 101.715, 156.48 97.1, 156.87 90.21000000000001"></path><path stroke="Black" stroke-width="0.7579737856377817" fill="None" d="M156.87 90.21000000000001 C 147.25 94.17500000000001, 145.625 94.17500000000001, 137.5 91.25"></path><path stroke="Black" stroke-width="0.7579737856377817" fill="None" d="M156.87 90.21000000000001 C 163.045 85.595, 165.97 81.75999999999999, 170 75"></path><path stroke="Black" stroke-width="0.7579737856377817" fill="None" d="M170 75 C 164.605 73.63499999999999, 161.225 73.18, 155.83 73.95999999999998"></path><path stroke="Black" stroke-width="0.7579737856377817" fill="None" d="M155.83 73.95999999999998 C 146.665 74.41499999999999, 147.51 82.41, 137.5 82.995"></path><path stroke="Black" stroke-width="0.7579737856377817" fill="None" d="M137.5 82.995 C 135.875 83.125, 132.625 83.125, 129.375 83.125"></path><path stroke="Black" stroke-width="0.7579737856377817" fill="None" d="M129.375 83.125 C 125.41 81.305, 122.81 79.28999999999999, 119.17 76.03999999999999"></path><path stroke="Black" stroke-width="0.7579737856377817" fill="None" d="M119.17 76.03999999999999 C 113.775 76.82, 110.395 76.36500000000001, 105 75"></path><path stroke="Black" stroke-width="0.7579737856377817" fill="None" d="M155.83 73.95999999999998 C 152.19 70.70999999999998, 149.59 68.695, 145.625 66.875"></path><path stroke="Black" stroke-width="0.7579737856377817" fill="None" d="M145.625 66.875 C 141.5625 70.9375, 139.9375 72.5625, 137.5 75"></path><path stroke="Black" stroke-width="0.7579737856377817" fill="None" d="M137.5 75 C 137.5 77.6, 137.5 80.85, 137.5 82.995"></path><path stroke="Black" stroke-width="0.7579737856377817" fill="None" d="M150.3375 74.1875 C 149.005 71.42500000000001, 147.25 70.06, 144.1625 69.1825"></path><path stroke="Black" stroke-width="0.7579737856377817" fill="None" d="M146.1125 76.7875 C 145.365 73.63499999999999, 144.39 72.33500000000001, 141.9525 71.26249999999999"></path><path stroke="Black" stroke-width="0.7579737856377817" fill="None" d="M142.505 79.875 C 142.82999999999998 76.17000000000002, 142.245 75.32499999999999, 139.905 73.31"></path><path stroke="Black" stroke-width="0.7579737856377817" fill="None" d="M136.4275 79.2575 C 135.3875 79.38749999999999, 134.4125 79.38749999999999, 133.9575 79.1925"></path><path stroke="Black" stroke-width="0.7579737856377817" fill="None" d="M136.4275 81.20750000000001 C 134.575 81.82499999999999, 133.6 81.82499999999999, 132.0725 80.94749999999999"></path><path stroke="Black" stroke-width="0.7579737856377817" fill="None" d="M150.7275 105.32249999999999 C 153.1 100.025, 152.775 96.44999999999999, 151.605 93.26499999999999"></path><path stroke="Black" stroke-width="0.7579737856377817" fill="None" d="M147.5425 105.32249999999999 C 149.2 99.69999999999999, 149.2 97.75, 148.3875 94.01249999999999"></path><path stroke="Black" stroke-width="0.7579737856377817" fill="None" d="M143.4475 105.32249999999999 C 145.625 100.025, 145.625 97.42500000000001, 144.6825 93.8175"></path><path stroke="Black" stroke-width="0.7579737856377817" fill="None" d="M140.2625 106.16749999999999 C 142.05 99.05000000000001, 142.05 96.44999999999999, 141.465 93.13499999999999"></path><path stroke="Black" stroke-width="0.7579737856377817" fill="None" d="M157.1625 84.39249999999998 C 157.065 83.06, 157.065 82.41, 157.065 81.565"></path><path stroke="Black" stroke-width="0.7579737856377817" fill="None" d="M157.1625 84.39249999999998 C 159.21 83.06, 160.835 81.435, 162.395 79.16"></path><path stroke="Black" stroke-width="0.7579737856377817" fill="None" d="M162.395 79.16 C 161.1275 78.3475, 158.95 80.07, 157.065 81.565"></path><path stroke="Black" stroke-width="0.7579737856377817" fill="None" d="M156.61 79.94 C 156.35 78.9, 156.025 77.6, 155.8625 76.98249999999999"></path><path stroke="Black" stroke-width="0.7579737856377817" fill="None" d="M156.61 79.94 C 159.7625 78.0875, 160.25 77.6, 161.3225 76.39750000000001"></path><path stroke="Black" stroke-width="0.7579737856377817" fill="None" d="M161.3225 76.39750000000001 C 158.7875 76.4625, 157.26 76.56, 155.8625 76.98249999999999"></path><path stroke="Black" stroke-width="0.7579737856377817" fill="None" d="M221.545 80.91499999999999 C 203.6375 89.4625, 200.16 88.38999999999999, 178.5475 78.47749999999999"></path><path stroke="Black" stroke-width="0.7579737856377817" fill="None" d="M185.21 88.13 C 180.595 81.95500000000001, 176.76 79.03, 170 75"></path><path stroke="Black" stroke-width="0.7579737856377817" fill="None" d="M202.5 91.25 C 196.715 89.10499999999999, 192.1 88.52000000000001, 185.21 88.13"></path><path stroke="Black" stroke-width="0.7579737856377817" fill="None" d="M202.5 107.5 C 202.5 100.35, 202.5 96.125, 202.5 91.25"></path><path stroke="Black" stroke-width="0.7579737856377817" fill="None" d="M218.75 107.5 C 212.25 107.5, 208.35 107.5, 202.5 107.5"></path><path stroke="Black" stroke-width="0.7579737856377817" fill="None" d="M218.75 107.5 C 220.895 101.715, 221.48 97.1, 221.87 90.21000000000001"></path><path stroke="Black" stroke-width="0.7579737856377817" fill="None" d="M221.87 90.21000000000001 C 212.25 94.17500000000001, 210.625 94.17500000000001, 202.5 91.25"></path><path stroke="Black" stroke-width="0.7579737856377817" fill="None" d="M221.87 90.21000000000001 C 228.045 85.595, 230.97 81.75999999999999, 235 75"></path><path stroke="Black" stroke-width="0.7579737856377817" fill="None" d="M235 75 C 229.605 73.63499999999999, 226.225 73.18, 220.83 73.95999999999998"></path><path stroke="Black" stroke-width="0.7579737856377817" fill="None" d="M220.83 73.95999999999998 C 211.665 74.41499999999999, 212.51 82.41, 202.5 82.995"></path><path stroke="Black" stroke-width="0.7579737856377817" fill="None" d="M202.5 82.995 C 200.875 83.125, 197.625 83.125, 194.375 83.125"></path><path stroke="Black" stroke-width="0.7579737856377817" fill="None" d="M194.375 83.125 C 190.41 81.305, 187.81 79.28999999999999, 184.17000000000002 76.03999999999999"></path><path stroke="Black" stroke-width="0.7579737856377817" fill="None" d="M184.17000000000002 76.03999999999999 C 178.775 76.82, 175.395 76.36500000000001, 170 75"></path><path stroke="Black" stroke-width="0.7579737856377817" fill="None" d="M220.83 73.95999999999998 C 217.19 70.70999999999998, 214.59 68.695, 210.625 66.875"></path><path stroke="Black" stroke-width="0.7579737856377817" fill="None" d="M210.625 66.875 C 206.5625 70.9375, 204.9375 72.5625, 202.5 75"></path><path stroke="Black" stroke-width="0.7579737856377817" fill="None" d="M202.5 75 C 202.5 77.6, 202.5 80.85, 202.5 82.995"></path><path stroke="Black" stroke-width="0.7579737856377817" fill="None" d="M215.3375 74.1875 C 214.005 71.42500000000001, 212.25 70.06, 209.1625 69.1825"></path><path stroke="Black" stroke-width="0.7579737856377817" fill="None" d="M211.1125 76.7875 C 210.365 73.63499999999999, 209.39 72.33500000000001, 206.9525 71.26249999999999"></path><path stroke="Black" stroke-width="0.7579737856377817" fill="None" d="M207.505 79.875 C 207.82999999999998 76.17000000000002, 207.245 75.32499999999999, 204.905 73.31"></path><path stroke="Black" stroke-width="0.7579737856377817" fill="None" d="M201.4275 79.2575 C 200.3875 79.38749999999999, 199.4125 79.38749999999999, 198.9575 79.1925"></path><path stroke="Black" stroke-width="0.7579737856377817" fill="None" d="M201.4275 81.20750000000001 C 199.575 81.82499999999999, 198.6 81.82499999999999, 197.0725 80.94749999999999"></path><path stroke="Black" stroke-width="0.7579737856377817" fill="None" d="M215.7275 105.32249999999999 C 218.1 100.025, 217.775 96.44999999999999, 216.605 93.26499999999999"></path><path stroke="Black" stroke-width="0.7579737856377817" fill="None" d="M212.5425 105.32249999999999 C 214.2 99.69999999999999, 214.2 97.75, 213.3875 94.01249999999999"></path><path stroke="Black" stroke-width="0.7579737856377817" fill="None" d="M208.4475 105.32249999999999 C 210.625 100.025, 210.625 97.42500000000001, 209.6825 93.8175"></path><path stroke="Black" stroke-width="0.7579737856377817" fill="None" d="M205.2625 106.16749999999999 C 207.05 99.05000000000001, 207.05 96.44999999999999, 206.465 93.13499999999999"></path><path stroke="Black" stroke-width="0.7579737856377817" fill="None" d="M222.1625 84.39249999999998 C 222.065 83.06, 222.065 82.41, 222.065 81.565"></path><path stroke="Black" stroke-width="0.7579737856377817" fill="None" d="M222.1625 84.39249999999998 C 224.21 83.06, 225.835 81.435, 227.395 79.16"></path><path stroke="Black" stroke-width="0.7579737856377817" fill="None" d="M227.395 79.16 C 226.1275 78.3475, 223.95 80.07, 222.065 81.565"></path><path stroke="Black" stroke-width="0.7579737856377817" fill="None" d="M221.61 79.94 C 221.35 78.9, 221.025 77.6, 220.8625 76.98249999999999"></path><path stroke="Black" stroke-width="0.7579737856377817" fill="None" d="M221.61 79.94 C 224.7625 78.0875, 225.25 77.6, 226.3225 76.39750000000001"></path><path stroke="Black" stroke-width="0.7579737856377817" fill="None" d="M226.3225 76.39750000000001 C 223.7875 76.4625, 222.26 76.56, 220.8625 76.98249999999999"></path><path stroke="Black" stroke-width="0.7579737856377817" fill="None" d="M175.915 88.45500000000001 C 184.4625 106.36250000000001, 183.39 109.84, 173.4775 131.4525"></path><path stroke="Black" stroke-width="0.7579737856377817" fill="None" d="M183.13 124.78999999999999 C 176.955 129.405, 174.03 133.24, 170 140"></path><path stroke="Black" stroke-width="0.7579737856377817" fill="None" d="M186.25 107.5 C 184.105 113.285, 183.52 117.9, 183.13 124.78999999999999"></path><path stroke="Black" stroke-width="0.7579737856377817" fill="None" d="M202.5 107.5 C 195.35 107.5, 191.125 107.5, 186.25 107.5"></path><path stroke="Black" stroke-width="0.7579737856377817" fill="None" d="M202.5 91.25 C 202.5 97.75, 202.5 101.65, 202.5 107.5"></path><path stroke="Black" stroke-width="0.7579737856377817" fill="None" d="M202.5 91.25 C 196.715 89.10499999999999, 192.1 88.52000000000001, 185.21 88.13"></path><path stroke="Black" stroke-width="0.7579737856377817" fill="None" d="M185.21 88.13 C 189.175 97.75, 189.175 99.375, 186.25 107.5"></path><path stroke="Black" stroke-width="0.7579737856377817" fill="None" d="M185.21 88.13 C 180.595 81.95500000000001, 176.76 79.03, 170 75"></path><path stroke="Black" stroke-width="0.7579737856377817" fill="None" d="M170 75 C 168.635 80.39500000000001, 168.18 83.775, 168.95999999999998 89.16999999999999"></path><path stroke="Black" stroke-width="0.7579737856377817" fill="None" d="M168.95999999999998 89.16999999999999 C 169.415 98.33500000000001, 177.41 97.49000000000001, 177.995 107.5"></path><path stroke="Black" stroke-width="0.7579737856377817" fill="None" d="M177.995 107.5 C 178.125 109.125, 178.125 112.375, 178.125 115.625"></path><path stroke="Black" stroke-width="0.7579737856377817" fill="None" d="M178.125 115.625 C 176.305 119.59, 174.29 122.19, 171.04 125.82999999999998"></path><path stroke="Black" stroke-width="0.7579737856377817" fill="None" d="M171.04 125.82999999999998 C 171.82 131.225, 171.365 134.605, 170 140"></path><path stroke="Black" stroke-width="0.7579737856377817" fill="None" d="M168.95999999999998 89.16999999999999 C 165.70999999999998 92.81, 163.695 95.41, 161.875 99.375"></path><path stroke="Black" stroke-width="0.7579737856377817" fill="None" d="M161.875 99.375 C 165.9375 103.4375, 167.5625 105.0625, 170 107.5"></path><path stroke="Black" stroke-width="0.7579737856377817" fill="None" d="M170 107.5 C 172.6 107.5, 175.85 107.5, 177.995 107.5"></path><path stroke="Black" stroke-width="0.7579737856377817" fill="None" d="M169.1875 94.6625 C 166.425 95.995, 165.06 97.75, 164.1825 100.8375"></path><path stroke="Black" stroke-width="0.7579737856377817" fill="None" d="M171.7875 98.88749999999999 C 168.635 99.63499999999999, 167.335 100.61000000000001, 166.2625 103.04750000000001"></path><path stroke="Black" stroke-width="0.7579737856377817" fill="None" d="M174.875 102.495 C 171.17000000000002 102.17000000000002, 170.325 102.755, 168.31 105.095"></path><path stroke="Black" stroke-width="0.7579737856377817" fill="None" d="M174.2575 108.57249999999999 C 174.3875 109.61250000000001, 174.3875 110.5875, 174.1925 111.04249999999999"></path><path stroke="Black" stroke-width="0.7579737856377817" fill="None" d="M176.2075 108.57249999999999 C 176.825 110.42500000000001, 176.825 111.4, 175.9475 112.92750000000001"></path><path stroke="Black" stroke-width="0.7579737856377817" fill="None" d="M200.3225 94.27250000000001 C 195.025 91.9, 191.45 92.225, 188.265 93.39500000000001"></path><path stroke="Black" stroke-width="0.7579737856377817" fill="None" d="M200.3225 97.45750000000001 C 194.7 95.80000000000001, 192.75 95.80000000000001, 189.0125 96.61250000000001"></path><path stroke="Black" stroke-width="0.7579737856377817" fill="None" d="M200.3225 101.55250000000001 C 195.025 99.375, 192.425 99.375, 188.8175 100.3175"></path><path stroke="Black" stroke-width="0.7579737856377817" fill="None" d="M201.1675 104.73750000000001 C 194.05 102.94999999999999, 191.45 102.94999999999999, 188.135 103.535"></path><path stroke="Black" stroke-width="0.7579737856377817" fill="None" d="M179.39249999999998 87.8375 C 178.06 87.935, 177.41 87.935, 176.565 87.935"></path><path stroke="Black" stroke-width="0.7579737856377817" fill="None" d="M179.39249999999998 87.8375 C 178.06 85.78999999999999, 176.435 84.16499999999999, 174.16 82.60499999999999"></path><path stroke="Black" stroke-width="0.7579737856377817" fill="None" d="M174.16 82.60499999999999 C 173.3475 83.8725, 175.07 86.05000000000001, 176.565 87.935"></path><path stroke="Black" stroke-width="0.7579737856377817" fill="None" d="M174.94 88.38999999999999 C 173.9 88.65, 172.6 88.975, 171.9825 89.13749999999999"></path><path stroke="Black" stroke-width="0.7579737856377817" fill="None" d="M174.94 88.38999999999999 C 173.0875 85.23750000000001, 172.6 84.75, 171.3975 83.67750000000001"></path><path stroke="Black" stroke-width="0.7579737856377817" fill="None" d="M171.3975 83.67750000000001 C 171.4625 86.2125, 171.56 87.74000000000001, 171.9825 89.13749999999999"></path><path stroke="Black" stroke-width="0.9013878188659973" fill="None" d="M189.37 132.46 C 215.825 123.1, 218.23 118.55000000000001, 229.93 87.025"></path><path stroke="Black" stroke-width="0.9013878188659973" fill="None" d="M232.92 103.34 C 231.36 92.55000000000001, 232.27 85.78999999999999, 235 75"></path><path stroke="Black" stroke-width="0.9013878188659973" fill="None" d="M218.75 123.75 C 222.39 115.82, 226.42 110.62, 232.92 103.34"></path><path stroke="Black" stroke-width="0.9013878188659973" fill="None" d="M235 140 C 227.85 132.85, 223.625 128.625, 218.75 123.75"></path><path stroke="Black" stroke-width="0.9013878188659973" fill="None" d="M218.75 156.25 C 225.25 149.75, 229.15 145.85, 235 140"></path><path stroke="Black" stroke-width="0.9013878188659973" fill="None" d="M218.75 156.25 C 210.82 152.61, 205.62 148.58, 198.34 142.08"></path><path stroke="Black" stroke-width="0.9013878188659973" fill="None" d="M198.34 142.08 C 211.925 136.425, 213.55 134.8, 218.75 123.75"></path><path stroke="Black" stroke-width="0.9013878188659973" fill="None" d="M198.34 142.08 C 187.55 143.64, 180.79 142.73, 170 140"></path><path stroke="Black" stroke-width="0.9013878188659973" fill="None" d="M170 140 C 174.03 133.24, 176.95499999999998 129.405, 183.13 124.78999999999999"></path><path stroke="Black" stroke-width="0.9013878188659973" fill="None" d="M183.13 124.78999999999999 C 192.75 116.08000000000001, 199.9 124.91999999999999, 210.495 115.495"></path><path stroke="Black" stroke-width="0.9013878188659973" fill="None" d="M210.495 115.495 C 212.25 114, 215.5 110.75, 218.75 107.5"></path><path stroke="Black" stroke-width="0.9013878188659973" fill="None" d="M218.75 107.5 C 220.895 101.715, 221.48 97.1, 221.87 90.21000000000001"></path><path stroke="Black" stroke-width="0.9013878188659973" fill="None" d="M221.87 90.21000000000001 C 228.045 85.595, 230.97 81.75999999999999, 235 75"></path><path stroke="Black" stroke-width="0.9013878188659973" fill="None" d="M183.13 124.78999999999999 C 183.51999999999998 117.9, 184.105 113.285, 186.25 107.5"></path><path stroke="Black" stroke-width="0.9013878188659973" fill="None" d="M186.25 107.5 C 194.375 107.5, 197.625 107.5, 202.5 107.5"></path><path stroke="Black" stroke-width="0.9013878188659973" fill="None" d="M202.5 107.5 C 205.1 110.1, 208.35 113.35, 210.495 115.495"></path><path stroke="Black" stroke-width="0.9013878188659973" fill="None" d="M188.85 119.525 C 187.42000000000002 115.43, 187.81 112.31, 190.02 108.345"></path><path stroke="Black" stroke-width="0.9013878188659973" fill="None" d="M195.675 117.9 C 193.26999999999998 114, 192.945 111.725, 194.31 108.215"></path><path stroke="Black" stroke-width="0.9013878188659973" fill="None" d="M202.37 117.38 C 198.34 114, 198.08 112.57, 198.405 108.215"></path><path stroke="Black" stroke-width="0.9013878188659973" fill="None" d="M207.83 110.685 C 209 109.775, 209.975 108.80000000000001, 210.235 108.15"></path><path stroke="Black" stroke-width="0.9013878188659973" fill="None" d="M209.78 112.63499999999999 C 212.25 111.4, 213.225 110.42500000000001, 213.875 108.02000000000001"></path><path stroke="Black" stroke-width="0.9013878188659973" fill="None" d="M219.595 151.05 C 211.925 148.125, 208.675 144.225, 206.66 139.87"></path><path stroke="Black" stroke-width="0.9013878188659973" fill="None" d="M222.78 147.865 C 215.5 143.9, 213.55 141.95, 210.625 137.4"></path><path stroke="Black" stroke-width="0.9013878188659973" fill="None" d="M226.875 143.77 C 219.4 140.65, 216.8 138.05, 214.135 133.5"></path><path stroke="Black" stroke-width="0.9013878188659973" fill="None" d="M230.905 141.43 C 222 136.1, 219.4 133.5, 216.67000000000002 129.6"></path><path stroke="Black" stroke-width="0.9013878188659973" fill="None" d="M192.23 136.555 C 190.995 135.125, 190.345 134.475, 189.5 133.63"></path><path stroke="Black" stroke-width="0.9013878188659973" fill="None" d="M192.23 136.555 C 188.85 137.27, 185.6 137.27, 181.765 136.555"></path><path stroke="Black" stroke-width="0.9013878188659973" fill="None" d="M181.765 136.555 C 182.22 134.475, 186.12 134.02, 189.5 133.63"></path><path stroke="Black" stroke-width="0.9013878188659973" fill="None" d="M188.32999999999998 131.55 C 187.55 130.25, 186.575 128.625, 186.12 127.845"></path><path stroke="Black" stroke-width="0.9013878188659973" fill="None" d="M188.32999999999998 131.55 C 183.325 132.85, 182.35 132.85, 180.075 132.72"></path><path stroke="Black" stroke-width="0.9013878188659973" fill="None" d="M180.075 132.72 C 182.675 130.25, 184.3 128.82, 186.12 127.845"></path><path stroke="Black" stroke-width="0.7579737856377817" fill="None" d="M294.085 126.54499999999999 C 285.5375 108.63749999999999, 286.61 105.16, 296.5225 83.54750000000001"></path><path stroke="Black" stroke-width="0.7579737856377817" fill="None" d="M286.87 90.21000000000001 C 293.045 85.595, 295.97 81.75999999999999, 300 75"></path><path stroke="Black" stroke-width="0.7579737856377817" fill="None" d="M283.75 107.5 C 285.895 101.715, 286.48 97.1, 286.87 90.21000000000001"></path><path stroke="Black" stroke-width="0.7579737856377817" fill="None" d="M267.5 107.5 C 274.65 107.5, 278.875 107.5, 283.75 107.5"></path><path stroke="Black" stroke-width="0.7579737856377817" fill="None" d="M267.5 123.75 C 267.5 117.25, 267.5 113.35, 267.5 107.5"></path><path stroke="Black" stroke-width="0.7579737856377817" fill="None" d="M267.5 123.75 C 273.285 125.89500000000001, 277.9 126.47999999999999, 284.79 126.87"></path><path stroke="Black" stroke-width="0.7579737856377817" fill="None" d="M284.79 126.87 C 280.825 117.25, 280.825 115.625, 283.75 107.5"></path><path stroke="Black" stroke-width="0.7579737856377817" fill="None" d="M284.79 126.87 C 289.405 133.045, 293.24 135.97, 300 140"></path><path stroke="Black" stroke-width="0.7579737856377817" fill="None" d="M300 140 C 301.365 134.605, 301.82 131.225, 301.04 125.83000000000001"></path><path stroke="Black" stroke-width="0.7579737856377817" fill="None" d="M301.04 125.83000000000001 C 300.585 116.66499999999999, 292.59 117.50999999999999, 292.005 107.5"></path><path stroke="Black" stroke-width="0.7579737856377817" fill="None" d="M292.005 107.5 C 291.875 105.875, 291.875 102.625, 291.875 99.375"></path><path stroke="Black" stroke-width="0.7579737856377817" fill="None" d="M291.875 99.375 C 293.695 95.41, 295.71 92.81, 298.96 89.17000000000002"></path><path stroke="Black" stroke-width="0.7579737856377817" fill="None" d="M298.96 89.17000000000002 C 298.18 83.775, 298.635 80.39500000000001, 300 75"></path><path stroke="Black" stroke-width="0.7579737856377817" fill="None" d="M301.04 125.83000000000001 C 304.29 122.19, 306.305 119.59, 308.125 115.625"></path><path stroke="Black" stroke-width="0.7579737856377817" fill="None" d="M308.125 115.625 C 304.0625 111.5625, 302.4375 109.9375, 300 107.5"></path><path stroke="Black" stroke-width="0.7579737856377817" fill="None" d="M300 107.5 C 297.4 107.5, 294.15 107.5, 292.005 107.5"></path><path stroke="Black" stroke-width="0.7579737856377817" fill="None" d="M300.8125 120.3375 C 303.575 119.005, 304.94 117.25, 305.8175 114.1625"></path><path stroke="Black" stroke-width="0.7579737856377817" fill="None" d="M298.2125 116.11250000000001 C 301.365 115.36500000000001, 302.665 114.38999999999999, 303.7375 111.95249999999999"></path><path stroke="Black" stroke-width="0.7579737856377817" fill="None" d="M295.125 112.505 C 298.83 112.82999999999998, 299.675 112.245, 301.69 109.905"></path><path stroke="Black" stroke-width="0.7579737856377817" fill="None" d="M295.7425 106.42750000000001 C 295.6125 105.38749999999999, 295.6125 104.4125, 295.8075 103.95750000000001"></path><path stroke="Black" stroke-width="0.7579737856377817" fill="None" d="M293.7925 106.42750000000001 C 293.175 104.57499999999999, 293.175 103.6, 294.0525 102.07249999999999"></path><path stroke="Black" stroke-width="0.7579737856377817" fill="None" d="M269.6775 120.72749999999999 C 274.975 123.1, 278.55 122.775, 281.735 121.60499999999999"></path><path stroke="Black" stroke-width="0.7579737856377817" fill="None" d="M269.6775 117.54249999999999 C 275.3 119.19999999999999, 277.25 119.19999999999999, 280.9875 118.38749999999999"></path><path stroke="Black" stroke-width="0.7579737856377817" fill="None" d="M269.6775 113.44749999999999 C 274.975 115.625, 277.575 115.625, 281.1825 114.6825"></path><path stroke="Black" stroke-width="0.7579737856377817" fill="None" d="M268.8325 110.26249999999999 C 275.95 112.05000000000001, 278.55 112.05000000000001, 281.865 111.465"></path><path stroke="Black" stroke-width="0.7579737856377817" fill="None" d="M290.6075 127.1625 C 291.94 127.065, 292.59 127.065, 293.435 127.065"></path><path stroke="Black" stroke-width="0.7579737856377817" fill="None" d="M290.6075 127.1625 C 291.94 129.21, 293.565 130.835, 295.84 132.395"></path><path stroke="Black" stroke-width="0.7579737856377817" fill="None" d="M295.84 132.395 C 296.6525 131.1275, 294.93 128.95, 293.435 127.065"></path><path stroke="Black" stroke-width="0.7579737856377817" fill="None" d="M295.06 126.61000000000001 C 296.1 126.35, 297.4 126.025, 298.0175 125.86250000000001"></path><path stroke="Black" stroke-width="0.7579737856377817" fill="None" d="M295.06 126.61000000000001 C 296.9125 129.7625, 297.4 130.25, 298.6025 131.3225"></path><path stroke="Black" stroke-width="0.7579737856377817" fill="None" d="M298.6025 131.3225 C 298.5375 128.7875, 298.44 127.25999999999999, 298.0175 125.86250000000001"></path><path stroke="Black" stroke-width="0.7579737856377817" fill="None" d="M286.545 80.91499999999999 C 268.6375 89.4625, 265.16 88.38999999999999, 243.5475 78.47749999999999"></path><path stroke="Black" stroke-width="0.7579737856377817" fill="None" d="M250.21 88.13 C 245.595 81.95500000000001, 241.76 79.03, 235 75"></path><path stroke="Black" stroke-width="0.7579737856377817" fill="None" d="M267.5 91.25 C 261.715 89.10499999999999, 257.1 88.52000000000001, 250.21 88.13"></path><path stroke="Black" stroke-width="0.7579737856377817" fill="None" d="M267.5 107.5 C 267.5 100.35, 267.5 96.125, 267.5 91.25"></path><path stroke="Black" stroke-width="0.7579737856377817" fill="None" d="M283.75 107.5 C 277.25 107.5, 273.35 107.5, 267.5 107.5"></path><path stroke="Black" stroke-width="0.7579737856377817" fill="None" d="M283.75 107.5 C 285.895 101.715, 286.48 97.1, 286.87 90.21000000000001"></path><path stroke="Black" stroke-width="0.7579737856377817" fill="None" d="M286.87 90.21000000000001 C 277.25 94.17500000000001, 275.625 94.17500000000001, 267.5 91.25"></path><path stroke="Black" stroke-width="0.7579737856377817" fill="None" d="M286.87 90.21000000000001 C 293.045 85.595, 295.97 81.75999999999999, 300 75"></path><path stroke="Black" stroke-width="0.7579737856377817" fill="None" d="M300 75 C 294.605 73.63499999999999, 291.225 73.18, 285.83 73.95999999999998"></path><path stroke="Black" stroke-width="0.7579737856377817" fill="None" d="M285.83 73.95999999999998 C 276.665 74.41499999999999, 277.51 82.41, 267.5 82.995"></path><path stroke="Black" stroke-width="0.7579737856377817" fill="None" d="M267.5 82.995 C 265.875 83.125, 262.625 83.125, 259.375 83.125"></path><path stroke="Black" stroke-width="0.7579737856377817" fill="None" d="M259.375 83.125 C 255.41 81.305, 252.81 79.28999999999999, 249.17000000000002 76.03999999999999"></path><path stroke="Black" stroke-width="0.7579737856377817" fill="None" d="M249.17000000000002 76.03999999999999 C 243.775 76.82, 240.395 76.36500000000001, 235 75"></path><path stroke="Black" stroke-width="0.7579737856377817" fill="None" d="M285.83 73.95999999999998 C 282.19 70.70999999999998, 279.59 68.695, 275.625 66.875"></path><path stroke="Black" stroke-width="0.7579737856377817" fill="None" d="M275.625 66.875 C 271.5625 70.9375, 269.9375 72.5625, 267.5 75"></path><path stroke="Black" stroke-width="0.7579737856377817" fill="None" d="M267.5 75 C 267.5 77.6, 267.5 80.85, 267.5 82.995"></path><path stroke="Black" stroke-width="0.7579737856377817" fill="None" d="M280.3375 74.1875 C 279.005 71.42500000000001, 277.25 70.06, 274.1625 69.1825"></path><path stroke="Black" stroke-width="0.7579737856377817" fill="None" d="M276.1125 76.7875 C 275.365 73.63499999999999, 274.39 72.33500000000001, 271.9525 71.26249999999999"></path><path stroke="Black" stroke-width="0.7579737856377817" fill="None" d="M272.505 79.875 C 272.83 76.17000000000002, 272.245 75.32499999999999, 269.905 73.31"></path><path stroke="Black" stroke-width="0.7579737856377817" fill="None" d="M266.4275 79.2575 C 265.3875 79.38749999999999, 264.4125 79.38749999999999, 263.9575 79.1925"></path><path stroke="Black" stroke-width="0.7579737856377817" fill="None" d="M266.4275 81.20750000000001 C 264.575 81.82499999999999, 263.6 81.82499999999999, 262.0725 80.94749999999999"></path><path stroke="Black" stroke-width="0.7579737856377817" fill="None" d="M280.7275 105.32249999999999 C 283.1 100.025, 282.775 96.44999999999999, 281.605 93.26499999999999"></path><path stroke="Black" stroke-width="0.7579737856377817" fill="None" d="M277.5425 105.32249999999999 C 279.2 99.69999999999999, 279.2 97.75, 278.3875 94.01249999999999"></path><path stroke="Black" stroke-width="0.7579737856377817" fill="None" d="M273.4475 105.32249999999999 C 275.625 100.025, 275.625 97.42500000000001, 274.6825 93.8175"></path><path stroke="Black" stroke-width="0.7579737856377817" fill="None" d="M270.2625 106.16749999999999 C 272.05 99.05000000000001, 272.05 96.44999999999999, 271.465 93.13499999999999"></path><path stroke="Black" stroke-width="0.7579737856377817" fill="None" d="M287.1625 84.39249999999998 C 287.065 83.06, 287.065 82.41, 287.065 81.565"></path><path stroke="Black" stroke-width="0.7579737856377817" fill="None" d="M287.1625 84.39249999999998 C 289.21 83.06, 290.835 81.435, 292.395 79.16"></path><path stroke="Black" stroke-width="0.7579737856377817" fill="None" d="M292.395 79.16 C 291.1275 78.3475, 288.95 80.07, 287.065 81.565"></path><path stroke="Black" stroke-width="0.7579737856377817" fill="None" d="M286.61 79.94 C 286.35 78.9, 286.025 77.6, 285.8625 76.98249999999999"></path><path stroke="Black" stroke-width="0.7579737856377817" fill="None" d="M286.61 79.94 C 289.7625 78.0875, 290.25 77.6, 291.3225 76.39750000000001"></path><path stroke="Black" stroke-width="0.7579737856377817" fill="None" d="M291.3225 76.39750000000001 C 288.7875 76.4625, 287.26 76.56, 285.8625 76.98249999999999"></path><path stroke="Black" stroke-width="0.9013878188659973" fill="None" d="M242.54 94.37 C 251.9 120.82499999999999, 256.45 123.22999999999999, 287.975 134.93"></path><path stroke="Black" stroke-width="0.9013878188659973" fill="None" d="M271.65999999999997 137.92 C 282.45 136.36, 289.21 137.27, 300 140"></path><path stroke="Black" stroke-width="0.9013878188659973" fill="None" d="M251.25 123.75 C 259.18 127.38999999999999, 264.38 131.42, 271.65999999999997 137.92"></path><path stroke="Black" stroke-width="0.9013878188659973" fill="None" d="M235 140 C 242.15 132.85, 246.375 128.625, 251.25 123.75"></path><path stroke="Black" stroke-width="0.9013878188659973" fill="None" d="M218.75 123.75 C 225.25 130.25, 229.15 134.15, 235 140"></path><path stroke="Black" stroke-width="0.9013878188659973" fill="None" d="M218.75 123.75 C 222.39 115.82, 226.42 110.62, 232.92 103.34"></path><path stroke="Black" stroke-width="0.9013878188659973" fill="None" d="M232.92 103.34 C 238.575 116.92500000000001, 240.2 118.55000000000001, 251.25 123.75"></path><path stroke="Black" stroke-width="0.9013878188659973" fill="None" d="M232.92 103.34 C 231.36 92.55000000000001, 232.27 85.78999999999999, 235 75"></path><path stroke="Black" stroke-width="0.9013878188659973" fill="None" d="M235 75 C 241.76 79.03, 245.595 81.95499999999998, 250.21 88.13"></path><path stroke="Black" stroke-width="0.9013878188659973" fill="None" d="M250.21 88.13 C 258.92 97.75, 250.08 104.9, 259.505 115.495"></path><path stroke="Black" stroke-width="0.9013878188659973" fill="None" d="M259.505 115.495 C 261 117.25, 264.25 120.5, 267.5 123.75"></path><path stroke="Black" stroke-width="0.9013878188659973" fill="None" d="M267.5 123.75 C 273.28499999999997 125.89500000000001, 277.9 126.47999999999999, 284.79 126.87"></path><path stroke="Black" stroke-width="0.9013878188659973" fill="None" d="M284.79 126.87 C 289.405 133.045, 293.24 135.97, 300 140"></path><path stroke="Black" stroke-width="0.9013878188659973" fill="None" d="M250.21 88.13 C 257.1 88.51999999999998, 261.715 89.10499999999999, 267.5 91.25"></path><path stroke="Black" stroke-width="0.9013878188659973" fill="None" d="M267.5 91.25 C 267.5 99.375, 267.5 102.625, 267.5 107.5"></path><path stroke="Black" stroke-width="0.9013878188659973" fill="None" d="M267.5 107.5 C 264.9 110.1, 261.65 113.35, 259.505 115.495"></path><path stroke="Black" stroke-width="0.9013878188659973" fill="None" d="M255.475 93.85 C 259.57 92.42000000000002, 262.69 92.81, 266.655 95.02000000000001"></path><path stroke="Black" stroke-width="0.9013878188659973" fill="None" d="M257.1 100.67500000000001 C 261 98.26999999999998, 263.275 97.945, 266.785 99.31"></path><path stroke="Black" stroke-width="0.9013878188659973" fill="None" d="M257.62 107.37 C 261 103.34, 262.43 103.08000000000001, 266.785 103.405"></path><path stroke="Black" stroke-width="0.9013878188659973" fill="None" d="M264.315 112.83000000000001 C 265.225 114, 266.2 114.975, 266.85 115.23500000000001"></path><path stroke="Black" stroke-width="0.9013878188659973" fill="None" d="M262.365 114.78 C 263.6 117.25, 264.575 118.225, 266.98 118.875"></path><path stroke="Black" stroke-width="0.9013878188659973" fill="None" d="M223.95 124.595 C 226.875 116.92500000000001, 230.775 113.67500000000001, 235.13 111.66"></path><path stroke="Black" stroke-width="0.9013878188659973" fill="None" d="M227.135 127.78 C 231.1 120.5, 233.05 118.55000000000001, 237.6 115.625"></path><path stroke="Black" stroke-width="0.9013878188659973" fill="None" d="M231.23 131.875 C 234.35 124.4, 236.95 121.80000000000001, 241.5 119.13499999999999"></path><path stroke="Black" stroke-width="0.9013878188659973" fill="None" d="M233.57 135.905 C 238.9 127, 241.5 124.4, 245.4 121.67000000000002"></path><path stroke="Black" stroke-width="0.9013878188659973" fill="None" d="M238.445 97.22999999999999 C 239.875 95.995, 240.525 95.345, 241.37 94.5"></path><path stroke="Black" stroke-width="0.9013878188659973" fill="None" d="M238.445 97.22999999999999 C 237.73 93.85, 237.73 90.6, 238.445 86.76499999999999"></path><path stroke="Black" stroke-width="0.9013878188659973" fill="None" d="M238.445 86.76499999999999 C 240.525 87.22, 240.98 91.12, 241.37 94.5"></path><path stroke="Black" stroke-width="0.9013878188659973" fill="None" d="M243.45 93.32999999999998 C 244.75 92.55000000000001, 246.375 91.57499999999999, 247.155 91.12"></path><path stroke="Black" stroke-width="0.9013878188659973" fill="None" d="M243.45 93.32999999999998 C 242.15 88.32499999999999, 242.15 87.35, 242.28 85.07499999999999"></path><path stroke="Black" stroke-width="0.9013878188659973" fill="None" d="M242.28 85.07499999999999 C 244.75 87.67500000000001, 246.18 89.30000000000001, 247.155 91.12"></path><path stroke="Black" stroke-width="0.7579737856377817" fill="None" d="M110.915 218.45499999999998 C 119.4625 236.3625, 118.39 239.84, 108.4775 261.4525"></path><path stroke="Black" stroke-width="0.7579737856377817" fill="None" d="M118.13 254.79 C 111.955 259.405, 109.03 263.24, 105 270"></path><path stroke="Black" stroke-width="0.7579737856377817" fill="None" d="M121.25 237.5 C 119.105 243.285, 118.52 247.9, 118.13 254.79"></path><path stroke="Black" stroke-width="0.7579737856377817" fill="None" d="M137.5 237.5 C 130.35 237.5, 126.125 237.5, 121.25 237.5"></path><path stroke="Black" stroke-width="0.7579737856377817" fill="None" d="M137.5 221.25 C 137.5 227.75, 137.5 231.65, 137.5 237.5"></path><path stroke="Black" stroke-width="0.7579737856377817" fill="None" d="M137.5 221.25 C 131.715 219.10500000000002, 127.1 218.51999999999998, 120.21000000000001 218.13"></path><path stroke="Black" stroke-width="0.7579737856377817" fill="None" d="M120.21000000000001 218.13 C 124.175 227.75, 124.175 229.375, 121.25 237.5"></path><path stroke="Black" stroke-width="0.7579737856377817" fill="None" d="M120.21000000000001 218.13 C 115.595 211.95499999999998, 111.75999999999999 209.03, 105 205"></path><path stroke="Black" stroke-width="0.7579737856377817" fill="None" d="M105 205 C 103.63499999999999 210.39499999999998, 103.18 213.775, 103.96 219.17000000000002"></path><path stroke="Black" stroke-width="0.7579737856377817" fill="None" d="M103.96 219.17000000000002 C 104.41499999999999 228.335, 112.41 227.49, 112.995 237.5"></path><path stroke="Black" stroke-width="0.7579737856377817" fill="None" d="M112.995 237.5 C 113.125 239.125, 113.125 242.375, 113.125 245.625"></path><path stroke="Black" stroke-width="0.7579737856377817" fill="None" d="M113.125 245.625 C 111.305 249.59, 109.28999999999999 252.19, 106.03999999999999 255.82999999999998"></path><path stroke="Black" stroke-width="0.7579737856377817" fill="None" d="M106.03999999999999 255.82999999999998 C 106.82 261.225, 106.365 264.605, 105 270"></path><path stroke="Black" stroke-width="0.7579737856377817" fill="None" d="M103.96 219.17000000000002 C 100.71 222.81, 98.695 225.41, 96.875 229.375"></path><path stroke="Black" stroke-width="0.7579737856377817" fill="None" d="M96.875 229.375 C 100.9375 233.4375, 102.5625 235.0625, 105 237.5"></path><path stroke="Black" stroke-width="0.7579737856377817" fill="None" d="M105 237.5 C 107.6 237.5, 110.85 237.5, 112.995 237.5"></path><path stroke="Black" stroke-width="0.7579737856377817" fill="None" d="M104.1875 224.6625 C 101.425 225.995, 100.06 227.75, 99.1825 230.8375"></path><path stroke="Black" stroke-width="0.7579737856377817" fill="None" d="M106.7875 228.8875 C 103.63499999999999 229.635, 102.33500000000001 230.61, 101.2625 233.0475"></path><path stroke="Black" stroke-width="0.7579737856377817" fill="None" d="M109.875 232.495 C 106.17 232.17000000000002, 105.325 232.755, 103.31 235.095"></path><path stroke="Black" stroke-width="0.7579737856377817" fill="None" d="M109.2575 238.5725 C 109.3875 239.6125, 109.3875 240.5875, 109.1925 241.0425"></path><path stroke="Black" stroke-width="0.7579737856377817" fill="None" d="M111.2075 238.5725 C 111.825 240.425, 111.825 241.4, 110.94749999999999 242.9275"></path><path stroke="Black" stroke-width="0.7579737856377817" fill="None" d="M135.3225 224.2725 C 130.025 221.9, 126.45 222.225, 123.265 223.39499999999998"></path><path stroke="Black" stroke-width="0.7579737856377817" fill="None" d="M135.3225 227.45749999999998 C 129.7 225.8, 127.75 225.8, 124.0125 226.6125"></path><path stroke="Black" stroke-width="0.7579737856377817" fill="None" d="M135.3225 231.5525 C 130.025 229.375, 127.425 229.375, 123.8175 230.3175"></path><path stroke="Black" stroke-width="0.7579737856377817" fill="None" d="M136.1675 234.7375 C 129.05 232.95, 126.45 232.95, 123.135 233.535"></path><path stroke="Black" stroke-width="0.7579737856377817" fill="None" d="M114.3925 217.8375 C 113.06 217.935, 112.41 217.935, 111.565 217.935"></path><path stroke="Black" stroke-width="0.7579737856377817" fill="None" d="M114.3925 217.8375 C 113.06 215.79, 111.435 214.165, 109.16 212.60500000000002"></path><path stroke="Black" stroke-width="0.7579737856377817" fill="None" d="M109.16 212.60500000000002 C 108.3475 213.8725, 110.07 216.05, 111.565 217.935"></path><path stroke="Black" stroke-width="0.7579737856377817" fill="None" d="M109.94 218.39 C 108.9 218.65, 107.6 218.975, 106.9825 219.1375"></path><path stroke="Black" stroke-width="0.7579737856377817" fill="None" d="M109.94 218.39 C 108.0875 215.2375, 107.6 214.75, 106.39750000000001 213.6775"></path><path stroke="Black" stroke-width="0.7579737856377817" fill="None" d="M106.39750000000001 213.6775 C 106.4625 216.2125, 106.56 217.74, 106.9825 219.1375"></path><path stroke="Black" stroke-width="0.7579737856377817" fill="None" d="M118.455 264.085 C 136.3625 255.5375, 139.84 256.61, 161.4525 266.5225"></path><path stroke="Black" stroke-width="0.7579737856377817" fill="None" d="M154.79 256.87 C 159.405 263.045, 163.24 265.97, 170 270"></path><path stroke="Black" stroke-width="0.7579737856377817" fill="None" d="M137.5 253.75 C 143.285 255.89499999999998, 147.9 256.48, 154.79 256.87"></path><path stroke="Black" stroke-width="0.7579737856377817" fill="None" d="M137.5 237.5 C 137.5 244.65, 137.5 248.875, 137.5 253.75"></path><path stroke="Black" stroke-width="0.7579737856377817" fill="None" d="M121.25 237.5 C 127.75 237.5, 131.65 237.5, 137.5 237.5"></path><path stroke="Black" stroke-width="0.7579737856377817" fill="None" d="M121.25 237.5 C 119.105 243.285, 118.52 247.9, 118.13 254.79"></path><path stroke="Black" stroke-width="0.7579737856377817" fill="None" d="M118.13 254.79 C 127.75 250.825, 129.375 250.825, 137.5 253.75"></path><path stroke="Black" stroke-width="0.7579737856377817" fill="None" d="M118.13 254.79 C 111.955 259.405, 109.03 263.24, 105 270"></path><path stroke="Black" stroke-width="0.7579737856377817" fill="None" d="M105 270 C 110.395 271.365, 113.775 271.82, 119.17 271.04"></path><path stroke="Black" stroke-width="0.7579737856377817" fill="None" d="M119.17 271.04 C 128.335 270.585, 127.49 262.59, 137.5 262.005"></path><path stroke="Black" stroke-width="0.7579737856377817" fill="None" d="M137.5 262.005 C 139.125 261.875, 142.375 261.875, 145.625 261.875"></path><path stroke="Black" stroke-width="0.7579737856377817" fill="None" d="M145.625 261.875 C 149.59 263.695, 152.19 265.71, 155.82999999999998 268.96"></path><path stroke="Black" stroke-width="0.7579737856377817" fill="None" d="M155.82999999999998 268.96 C 161.225 268.18, 164.605 268.635, 170 270"></path><path stroke="Black" stroke-width="0.7579737856377817" fill="None" d="M119.17 271.04 C 122.81 274.29, 125.41 276.305, 129.375 278.125"></path><path stroke="Black" stroke-width="0.7579737856377817" fill="None" d="M129.375 278.125 C 133.4375 274.0625, 135.0625 272.4375, 137.5 270"></path><path stroke="Black" stroke-width="0.7579737856377817" fill="None" d="M137.5 270 C 137.5 267.4, 137.5 264.15, 137.5 262.005"></path><path stroke="Black" stroke-width="0.7579737856377817" fill="None" d="M124.6625 270.8125 C 125.995 273.575, 127.75 274.94, 130.8375 275.8175"></path><path stroke="Black" stroke-width="0.7579737856377817" fill="None" d="M128.8875 268.2125 C 129.635 271.365, 130.61 272.665, 133.0475 273.7375"></path><path stroke="Black" stroke-width="0.7579737856377817" fill="None" d="M132.495 265.125 C 132.17000000000002 268.83, 132.755 269.675, 135.095 271.69"></path><path stroke="Black" stroke-width="0.7579737856377817" fill="None" d="M138.5725 265.7425 C 139.6125 265.6125, 140.5875 265.6125, 141.0425 265.8075"></path><path stroke="Black" stroke-width="0.7579737856377817" fill="None" d="M138.5725 263.7925 C 140.425 263.175, 141.4 263.175, 142.9275 264.0525"></path><path stroke="Black" stroke-width="0.7579737856377817" fill="None" d="M124.27250000000001 239.6775 C 121.9 244.975, 122.225 248.55, 123.395 251.735"></path><path stroke="Black" stroke-width="0.7579737856377817" fill="None" d="M127.4575 239.6775 C 125.8 245.3, 125.8 247.25, 126.6125 250.9875"></path><path stroke="Black" stroke-width="0.7579737856377817" fill="None" d="M131.5525 239.6775 C 129.375 244.975, 129.375 247.575, 130.3175 251.1825"></path><path stroke="Black" stroke-width="0.7579737856377817" fill="None" d="M134.7375 238.8325 C 132.95 245.95, 132.95 248.55, 133.535 251.865"></path><path stroke="Black" stroke-width="0.7579737856377817" fill="None" d="M117.8375 260.6075 C 117.935 261.94, 117.935 262.59, 117.935 263.435"></path><path stroke="Black" stroke-width="0.7579737856377817" fill="None" d="M117.8375 260.6075 C 115.78999999999999 261.94, 114.16499999999999 263.565, 112.605 265.84"></path><path stroke="Black" stroke-width="0.7579737856377817" fill="None" d="M112.605 265.84 C 113.8725 266.6525, 116.05 264.93, 117.935 263.435"></path><path stroke="Black" stroke-width="0.7579737856377817" fill="None" d="M118.39 265.06 C 118.65 266.1, 118.975 267.4, 119.1375 268.0175"></path><path stroke="Black" stroke-width="0.7579737856377817" fill="None" d="M118.39 265.06 C 115.2375 266.9125, 114.75 267.4, 113.67750000000001 268.6025"></path><path stroke="Black" stroke-width="0.7579737856377817" fill="None" d="M113.67750000000001 268.6025 C 116.2125 268.5375, 117.74 268.44, 119.1375 268.0175"></path><path stroke="Black" stroke-width="0.9013878188659973" fill="None" d="M162.46 250.63 C 153.1 224.175, 148.55 221.76999999999998, 117.025 210.07"></path><path stroke="Black" stroke-width="0.9013878188659973" fill="None" d="M133.34 207.07999999999998 C 122.55000000000001 208.64, 115.78999999999999 207.73000000000002, 105 205"></path><path stroke="Black" stroke-width="0.9013878188659973" fill="None" d="M153.75 221.25 C 145.82 217.61, 140.62 213.57999999999998, 133.34 207.07999999999998"></path><path stroke="Black" stroke-width="0.9013878188659973" fill="None" d="M170 205 C 162.85 212.15, 158.625 216.375, 153.75 221.25"></path><path stroke="Black" stroke-width="0.9013878188659973" fill="None" d="M186.25 221.25 C 179.75 214.75, 175.85 210.85, 170 205"></path><path stroke="Black" stroke-width="0.9013878188659973" fill="None" d="M186.25 221.25 C 182.61 229.18, 178.58 234.38, 172.08 241.66"></path><path stroke="Black" stroke-width="0.9013878188659973" fill="None" d="M172.08 241.66 C 166.425 228.075, 164.8 226.45, 153.75 221.25"></path><path stroke="Black" stroke-width="0.9013878188659973" fill="None" d="M172.08 241.66 C 173.64 252.45, 172.73 259.21, 170 270"></path><path stroke="Black" stroke-width="0.9013878188659973" fill="None" d="M170 270 C 163.24 265.97, 159.405 263.045, 154.79 256.87"></path><path stroke="Black" stroke-width="0.9013878188659973" fill="None" d="M154.79 256.87 C 146.08 247.25, 154.92 240.1, 145.495 229.505"></path><path stroke="Black" stroke-width="0.9013878188659973" fill="None" d="M145.495 229.505 C 144 227.75, 140.75 224.5, 137.5 221.25"></path><path stroke="Black" stroke-width="0.9013878188659973" fill="None" d="M137.5 221.25 C 131.715 219.10500000000002, 127.1 218.51999999999998, 120.21000000000001 218.13"></path><path stroke="Black" stroke-width="0.9013878188659973" fill="None" d="M120.21000000000001 218.13 C 115.595 211.95499999999998, 111.75999999999999 209.03, 105 205"></path><path stroke="Black" stroke-width="0.9013878188659973" fill="None" d="M154.79 256.87 C 147.9 256.48, 143.285 255.895, 137.5 253.75"></path><path stroke="Black" stroke-width="0.9013878188659973" fill="None" d="M137.5 253.75 C 137.5 245.625, 137.5 242.375, 137.5 237.5"></path><path stroke="Black" stroke-width="0.9013878188659973" fill="None" d="M137.5 237.5 C 140.1 234.9, 143.35 231.65, 145.495 229.505"></path><path stroke="Black" stroke-width="0.9013878188659973" fill="None" d="M149.525 251.15 C 145.43 252.57999999999998, 142.31 252.19, 138.345 249.98"></path><path stroke="Black" stroke-width="0.9013878188659973" fill="None" d="M147.9 244.325 C 144 246.73000000000002, 141.725 247.055, 138.215 245.69"></path><path stroke="Black" stroke-width="0.9013878188659973" fill="None" d="M147.38 237.63 C 144 241.66, 142.57 241.92, 138.215 241.595"></path><path stroke="Black" stroke-width="0.9013878188659973" fill="None" d="M140.685 232.17000000000002 C 139.775 231, 138.8 230.025, 138.15 229.765"></path><path stroke="Black" stroke-width="0.9013878188659973" fill="None" d="M142.635 230.22 C 141.4 227.75, 140.425 226.775, 138.02 226.125"></path><path stroke="Black" stroke-width="0.9013878188659973" fill="None" d="M181.05 220.405 C 178.125 228.075, 174.225 231.325, 169.87 233.34"></path><path stroke="Black" stroke-width="0.9013878188659973" fill="None" d="M177.865 217.22 C 173.9 224.5, 171.95 226.45, 167.4 229.375"></path><path stroke="Black" stroke-width="0.9013878188659973" fill="None" d="M173.77 213.125 C 170.65 220.6, 168.05 223.2, 163.5 225.865"></path><path stroke="Black" stroke-width="0.9013878188659973" fill="None" d="M171.43 209.095 C 166.1 218, 163.5 220.6, 159.6 223.32999999999998"></path><path stroke="Black" stroke-width="0.9013878188659973" fill="None" d="M166.555 247.77 C 165.125 249.005, 164.475 249.655, 163.63 250.5"></path><path stroke="Black" stroke-width="0.9013878188659973" fill="None" d="M166.555 247.77 C 167.27 251.15, 167.27 254.4, 166.555 258.235"></path><path stroke="Black" stroke-width="0.9013878188659973" fill="None" d="M166.555 258.235 C 164.475 257.78, 164.02 253.88, 163.63 250.5"></path><path stroke="Black" stroke-width="0.9013878188659973" fill="None" d="M161.55 251.67000000000002 C 160.25 252.45, 158.625 253.425, 157.845 253.88"></path><path stroke="Black" stroke-width="0.9013878188659973" fill="None" d="M161.55 251.67000000000002 C 162.85 256.675, 162.85 257.65, 162.72 259.925"></path><path stroke="Black" stroke-width="0.9013878188659973" fill="None" d="M162.72 259.925 C 160.25 257.325, 158.82 255.7, 157.845 253.88"></path><path stroke="Black" stroke-width="0.7579737856377817" fill="None" d="M156.545 145.915 C 138.6375 154.4625, 135.16 153.39, 113.5475 143.4775"></path><path stroke="Black" stroke-width="0.7579737856377817" fill="None" d="M120.21000000000001 153.13 C 115.595 146.955, 111.75999999999999 144.03, 105 140"></path><path stroke="Black" stroke-width="0.7579737856377817" fill="None" d="M137.5 156.25 C 131.715 154.105, 127.1 153.52, 120.21000000000001 153.13"></path><path stroke="Black" stroke-width="0.7579737856377817" fill="None" d="M137.5 172.5 C 137.5 165.35, 137.5 161.125, 137.5 156.25"></path><path stroke="Black" stroke-width="0.7579737856377817" fill="None" d="M153.75 172.5 C 147.25 172.5, 143.35 172.5, 137.5 172.5"></path><path stroke="Black" stroke-width="0.7579737856377817" fill="None" d="M153.75 172.5 C 155.895 166.715, 156.48 162.1, 156.87 155.21"></path><path stroke="Black" stroke-width="0.7579737856377817" fill="None" d="M156.87 155.21 C 147.25 159.175, 145.625 159.175, 137.5 156.25"></path><path stroke="Black" stroke-width="0.7579737856377817" fill="None" d="M156.87 155.21 C 163.045 150.595, 165.97 146.76, 170 140"></path><path stroke="Black" stroke-width="0.7579737856377817" fill="None" d="M170 140 C 164.605 138.635, 161.225 138.18, 155.83 138.95999999999998"></path><path stroke="Black" stroke-width="0.7579737856377817" fill="None" d="M155.83 138.95999999999998 C 146.665 139.415, 147.51 147.41, 137.5 147.995"></path><path stroke="Black" stroke-width="0.7579737856377817" fill="None" d="M137.5 147.995 C 135.875 148.125, 132.625 148.125, 129.375 148.125"></path><path stroke="Black" stroke-width="0.7579737856377817" fill="None" d="M129.375 148.125 C 125.41 146.305, 122.81 144.29, 119.17 141.04"></path><path stroke="Black" stroke-width="0.7579737856377817" fill="None" d="M119.17 141.04 C 113.775 141.82, 110.395 141.365, 105 140"></path><path stroke="Black" stroke-width="0.7579737856377817" fill="None" d="M155.83 138.95999999999998 C 152.19 135.70999999999998, 149.59 133.695, 145.625 131.875"></path><path stroke="Black" stroke-width="0.7579737856377817" fill="None" d="M145.625 131.875 C 141.5625 135.9375, 139.9375 137.5625, 137.5 140"></path><path stroke="Black" stroke-width="0.7579737856377817" fill="None" d="M137.5 140 C 137.5 142.6, 137.5 145.85, 137.5 147.995"></path><path stroke="Black" stroke-width="0.7579737856377817" fill="None" d="M150.3375 139.1875 C 149.005 136.425, 147.25 135.06, 144.1625 134.1825"></path><path stroke="Black" stroke-width="0.7579737856377817" fill="None" d="M146.1125 141.7875 C 145.365 138.635, 144.39 137.335, 141.9525 136.2625"></path><path stroke="Black" stroke-width="0.7579737856377817" fill="None" d="M142.505 144.875 C 142.82999999999998 141.17000000000002, 142.245 140.325, 139.905 138.31"></path><path stroke="Black" stroke-width="0.7579737856377817" fill="None" d="M136.4275 144.2575 C 135.3875 144.3875, 134.4125 144.3875, 133.9575 144.1925"></path><path stroke="Black" stroke-width="0.7579737856377817" fill="None" d="M136.4275 146.2075 C 134.575 146.825, 133.6 146.825, 132.0725 145.9475"></path><path stroke="Black" stroke-width="0.7579737856377817" fill="None" d="M150.7275 170.3225 C 153.1 165.025, 152.775 161.45, 151.605 158.265"></path><path stroke="Black" stroke-width="0.7579737856377817" fill="None" d="M147.5425 170.3225 C 149.2 164.7, 149.2 162.75, 148.3875 159.0125"></path><path stroke="Black" stroke-width="0.7579737856377817" fill="None" d="M143.4475 170.3225 C 145.625 165.025, 145.625 162.425, 144.6825 158.8175"></path><path stroke="Black" stroke-width="0.7579737856377817" fill="None" d="M140.2625 171.16750000000002 C 142.05 164.05, 142.05 161.45, 141.465 158.135"></path><path stroke="Black" stroke-width="0.7579737856377817" fill="None" d="M157.1625 149.39249999999998 C 157.065 148.06, 157.065 147.41, 157.065 146.565"></path><path stroke="Black" stroke-width="0.7579737856377817" fill="None" d="M157.1625 149.39249999999998 C 159.21 148.06, 160.835 146.435, 162.395 144.16"></path><path stroke="Black" stroke-width="0.7579737856377817" fill="None" d="M162.395 144.16 C 161.1275 143.3475, 158.95 145.07, 157.065 146.565"></path><path stroke="Black" stroke-width="0.7579737856377817" fill="None" d="M156.61 144.94 C 156.35 143.9, 156.025 142.6, 155.8625 141.9825"></path><path stroke="Black" stroke-width="0.7579737856377817" fill="None" d="M156.61 144.94 C 159.7625 143.0875, 160.25 142.6, 161.3225 141.3975"></path><path stroke="Black" stroke-width="0.7579737856377817" fill="None" d="M161.3225 141.3975 C 158.7875 141.4625, 157.26 141.56, 155.8625 141.9825"></path><path stroke="Black" stroke-width="0.7579737856377817" fill="None" d="M110.915 153.455 C 119.4625 171.3625, 118.39 174.84, 108.4775 196.4525"></path><path stroke="Black" stroke-width="0.7579737856377817" fill="None" d="M118.13 189.79 C 111.955 194.405, 109.03 198.24, 105 205"></path><path stroke="Black" stroke-width="0.7579737856377817" fill="None" d="M121.25 172.5 C 119.105 178.285, 118.52 182.9, 118.13 189.79"></path><path stroke="Black" stroke-width="0.7579737856377817" fill="None" d="M137.5 172.5 C 130.35 172.5, 126.125 172.5, 121.25 172.5"></path><path stroke="Black" stroke-width="0.7579737856377817" fill="None" d="M137.5 156.25 C 137.5 162.75, 137.5 166.65, 137.5 172.5"></path><path stroke="Black" stroke-width="0.7579737856377817" fill="None" d="M137.5 156.25 C 131.715 154.105, 127.1 153.52, 120.21000000000001 153.13"></path><path stroke="Black" stroke-width="0.7579737856377817" fill="None" d="M120.21000000000001 153.13 C 124.175 162.75, 124.175 164.375, 121.25 172.5"></path><path stroke="Black" stroke-width="0.7579737856377817" fill="None" d="M120.21000000000001 153.13 C 115.595 146.955, 111.75999999999999 144.03, 105 140"></path><path stroke="Black" stroke-width="0.7579737856377817" fill="None" d="M105 140 C 103.63499999999999 145.395, 103.18 148.775, 103.96 154.17"></path><path stroke="Black" stroke-width="0.7579737856377817" fill="None" d="M103.96 154.17 C 104.41499999999999 163.33499999999998, 112.41 162.49, 112.995 172.5"></path><path stroke="Black" stroke-width="0.7579737856377817" fill="None" d="M112.995 172.5 C 113.125 174.125, 113.125 177.375, 113.125 180.625"></path><path stroke="Black" stroke-width="0.7579737856377817" fill="None" d="M113.125 180.625 C 111.305 184.59, 109.28999999999999 187.19, 106.03999999999999 190.82999999999998"></path><path stroke="Black" stroke-width="0.7579737856377817" fill="None" d="M106.03999999999999 190.82999999999998 C 106.82 196.225, 106.365 199.60500000000002, 105 205"></path><path stroke="Black" stroke-width="0.7579737856377817" fill="None" d="M103.96 154.17 C 100.71 157.81, 98.695 160.41, 96.875 164.375"></path><path stroke="Black" stroke-width="0.7579737856377817" fill="None" d="M96.875 164.375 C 100.9375 168.4375, 102.5625 170.0625, 105 172.5"></path><path stroke="Black" stroke-width="0.7579737856377817" fill="None" d="M105 172.5 C 107.6 172.5, 110.85 172.5, 112.995 172.5"></path><path stroke="Black" stroke-width="0.7579737856377817" fill="None" d="M104.1875 159.6625 C 101.425 160.995, 100.06 162.75, 99.1825 165.8375"></path><path stroke="Black" stroke-width="0.7579737856377817" fill="None" d="M106.7875 163.8875 C 103.63499999999999 164.635, 102.33500000000001 165.61, 101.2625 168.0475"></path><path stroke="Black" stroke-width="0.7579737856377817" fill="None" d="M109.875 167.495 C 106.17 167.17000000000002, 105.325 167.755, 103.31 170.095"></path><path stroke="Black" stroke-width="0.7579737856377817" fill="None" d="M109.2575 173.5725 C 109.3875 174.6125, 109.3875 175.5875, 109.1925 176.04250000000002"></path><path stroke="Black" stroke-width="0.7579737856377817" fill="None" d="M111.2075 173.5725 C 111.825 175.425, 111.825 176.4, 110.94749999999999 177.9275"></path><path stroke="Black" stroke-width="0.7579737856377817" fill="None" d="M135.3225 159.2725 C 130.025 156.9, 126.45 157.225, 123.265 158.395"></path><path stroke="Black" stroke-width="0.7579737856377817" fill="None" d="M135.3225 162.45749999999998 C 129.7 160.8, 127.75 160.8, 124.0125 161.6125"></path><path stroke="Black" stroke-width="0.7579737856377817" fill="None" d="M135.3225 166.5525 C 130.025 164.375, 127.425 164.375, 123.8175 165.3175"></path><path stroke="Black" stroke-width="0.7579737856377817" fill="None" d="M136.1675 169.7375 C 129.05 167.95, 126.45 167.95, 123.135 168.535"></path><path stroke="Black" stroke-width="0.7579737856377817" fill="None" d="M114.3925 152.8375 C 113.06 152.935, 112.41 152.935, 111.565 152.935"></path><path stroke="Black" stroke-width="0.7579737856377817" fill="None" d="M114.3925 152.8375 C 113.06 150.79, 111.435 149.165, 109.16 147.605"></path><path stroke="Black" stroke-width="0.7579737856377817" fill="None" d="M109.16 147.605 C 108.3475 148.8725, 110.07 151.05, 111.565 152.935"></path><path stroke="Black" stroke-width="0.7579737856377817" fill="None" d="M109.94 153.39 C 108.9 153.65, 107.6 153.975, 106.9825 154.1375"></path><path stroke="Black" stroke-width="0.7579737856377817" fill="None" d="M109.94 153.39 C 108.0875 150.2375, 107.6 149.75, 106.39750000000001 148.6775"></path><path stroke="Black" stroke-width="0.7579737856377817" fill="None" d="M106.39750000000001 148.6775 C 106.4625 151.2125, 106.56 152.74, 106.9825 154.1375"></path><path stroke="Black" stroke-width="0.9013878188659973" fill="None" d="M124.37 197.45999999999998 C 150.825 188.1, 153.23 183.55, 164.93 152.025"></path><path stroke="Black" stroke-width="0.9013878188659973" fill="None" d="M167.92 168.34 C 166.36 157.55, 167.27 150.79, 170 140"></path><path stroke="Black" stroke-width="0.9013878188659973" fill="None" d="M153.75 188.75 C 157.39 180.82, 161.42 175.62, 167.92 168.34"></path><path stroke="Black" stroke-width="0.9013878188659973" fill="None" d="M170 205 C 162.85 197.85, 158.625 193.625, 153.75 188.75"></path><path stroke="Black" stroke-width="0.9013878188659973" fill="None" d="M153.75 221.25 C 160.25 214.75, 164.15 210.85, 170 205"></path><path stroke="Black" stroke-width="0.9013878188659973" fill="None" d="M153.75 221.25 C 145.82 217.61, 140.62 213.57999999999998, 133.34 207.07999999999998"></path><path stroke="Black" stroke-width="0.9013878188659973" fill="None" d="M133.34 207.07999999999998 C 146.925 201.425, 148.55 199.8, 153.75 188.75"></path><path stroke="Black" stroke-width="0.9013878188659973" fill="None" d="M133.34 207.07999999999998 C 122.55000000000001 208.64, 115.78999999999999 207.73000000000002, 105 205"></path><path stroke="Black" stroke-width="0.9013878188659973" fill="None" d="M105 205 C 109.03 198.24, 111.955 194.405, 118.13 189.79"></path><path stroke="Black" stroke-width="0.9013878188659973" fill="None" d="M118.13 189.79 C 127.75 181.07999999999998, 134.9 189.92000000000002, 145.495 180.495"></path><path stroke="Black" stroke-width="0.9013878188659973" fill="None" d="M145.495 180.495 C 147.25 179, 150.5 175.75, 153.75 172.5"></path><path stroke="Black" stroke-width="0.9013878188659973" fill="None" d="M153.75 172.5 C 155.895 166.715, 156.48 162.1, 156.87 155.21"></path><path stroke="Black" stroke-width="0.9013878188659973" fill="None" d="M156.87 155.21 C 163.045 150.595, 165.97 146.76, 170 140"></path><path stroke="Black" stroke-width="0.9013878188659973" fill="None" d="M118.13 189.79 C 118.52 182.9, 119.10499999999999 178.285, 121.25 172.5"></path><path stroke="Black" stroke-width="0.9013878188659973" fill="None" d="M121.25 172.5 C 129.375 172.5, 132.625 172.5, 137.5 172.5"></path><path stroke="Black" stroke-width="0.9013878188659973" fill="None" d="M137.5 172.5 C 140.1 175.1, 143.35 178.35, 145.495 180.495"></path><path stroke="Black" stroke-width="0.9013878188659973" fill="None" d="M123.85 184.525 C 122.42 180.43, 122.81 177.31, 125.02000000000001 173.345"></path><path stroke="Black" stroke-width="0.9013878188659973" fill="None" d="M130.675 182.9 C 128.26999999999998 179, 127.945 176.725, 129.31 173.215"></path><path stroke="Black" stroke-width="0.9013878188659973" fill="None" d="M137.37 182.38 C 133.34 179, 133.08 177.57, 133.405 173.215"></path><path stroke="Black" stroke-width="0.9013878188659973" fill="None" d="M142.83 175.685 C 144 174.775, 144.975 173.8, 145.235 173.15"></path><path stroke="Black" stroke-width="0.9013878188659973" fill="None" d="M144.78 177.635 C 147.25 176.4, 148.225 175.425, 148.875 173.01999999999998"></path><path stroke="Black" stroke-width="0.9013878188659973" fill="None" d="M154.595 216.05 C 146.925 213.125, 143.675 209.225, 141.66 204.87"></path><path stroke="Black" stroke-width="0.9013878188659973" fill="None" d="M157.78 212.865 C 150.5 208.9, 148.55 206.95, 145.625 202.4"></path><path stroke="Black" stroke-width="0.9013878188659973" fill="None" d="M161.875 208.76999999999998 C 154.4 205.65, 151.8 203.05, 149.135 198.5"></path><path stroke="Black" stroke-width="0.9013878188659973" fill="None" d="M165.905 206.43 C 157 201.1, 154.4 198.5, 151.67000000000002 194.6"></path><path stroke="Black" stroke-width="0.9013878188659973" fill="None" d="M127.22999999999999 201.555 C 125.995 200.125, 125.345 199.475, 124.5 198.63"></path><path stroke="Black" stroke-width="0.9013878188659973" fill="None" d="M127.22999999999999 201.555 C 123.85 202.26999999999998, 120.6 202.26999999999998, 116.765 201.555"></path><path stroke="Black" stroke-width="0.9013878188659973" fill="None" d="M116.765 201.555 C 117.22 199.475, 121.12 199.01999999999998, 124.5 198.63"></path><path stroke="Black" stroke-width="0.9013878188659973" fill="None" d="M123.33 196.55 C 122.55000000000001 195.25, 121.575 193.625, 121.12 192.845"></path><path stroke="Black" stroke-width="0.9013878188659973" fill="None" d="M123.33 196.55 C 118.32499999999999 197.85, 117.35 197.85, 115.075 197.72"></path><path stroke="Black" stroke-width="0.9013878188659973" fill="None" d="M115.075 197.72 C 117.675 195.25, 119.3 193.82, 121.12 192.845"></path><path stroke="Black" stroke-width="1.071936807572228" fill="None" d="M288.17 243.09 C 271.075 207.275, 273.22 200.32, 293.045 157.095"></path><path stroke="Black" stroke-width="1.071936807572228" fill="None" d="M273.74 170.42000000000002 C 286.09 161.19, 291.94 153.51999999999998, 300 140"></path><path stroke="Black" stroke-width="1.071936807572228" fill="None" d="M267.5 205 C 271.79 193.43, 272.96 184.2, 273.74 170.42000000000002"></path><path stroke="Black" stroke-width="1.071936807572228" fill="None" d="M235 205 C 249.3 205, 257.75 205, 267.5 205"></path><path stroke="Black" stroke-width="1.071936807572228" fill="None" d="M235 237.5 C 235 224.5, 235 216.7, 235 205"></path><path stroke="Black" stroke-width="1.071936807572228" fill="None" d="M235 237.5 C 246.57 241.79, 255.8 242.96, 269.58 243.74"></path><path stroke="Black" stroke-width="1.071936807572228" fill="None" d="M269.58 243.74 C 261.65 224.5, 261.65 221.25, 267.5 205"></path><path stroke="Black" stroke-width="1.071936807572228" fill="None" d="M269.58 243.74 C 278.81 256.09, 286.48 261.94, 300 270"></path><path stroke="Black" stroke-width="1.071936807572228" fill="None" d="M300 270 C 302.73 259.21, 303.64 252.45, 302.08000000000004 241.66"></path><path stroke="Black" stroke-width="1.071936807572228" fill="None" d="M302.08000000000004 241.66 C 301.17 223.32999999999998, 285.18 225.02, 284.01 205"></path><path stroke="Black" stroke-width="1.071936807572228" fill="None" d="M284.01 205 C 283.75 201.75, 283.75 195.25, 283.75 188.75"></path><path stroke="Black" stroke-width="1.071936807572228" fill="None" d="M283.75 188.75 C 287.39 180.82, 291.42 175.62, 297.92 168.34"></path><path stroke="Black" stroke-width="1.071936807572228" fill="None" d="M297.92 168.34 C 296.36 157.55, 297.27 150.79, 300 140"></path><path stroke="Black" stroke-width="1.071936807572228" fill="None" d="M302.08000000000004 241.66 C 308.58000000000004 234.38, 312.61 229.18, 316.25 221.25"></path><path stroke="Black" stroke-width="1.071936807572228" fill="None" d="M316.25 221.25 C 308.125 213.125, 304.875 209.875, 300 205"></path><path stroke="Black" stroke-width="1.071936807572228" fill="None" d="M300 205 C 294.8 205, 288.3 205, 284.01 205"></path><path stroke="Black" stroke-width="1.071936807572228" fill="None" d="M301.625 230.675 C 307.15 228.01, 309.88 224.5, 311.635 218.325"></path><path stroke="Black" stroke-width="1.071936807572228" fill="None" d="M296.425 222.225 C 302.73 220.73000000000002, 305.33 218.78, 307.475 213.905"></path><path stroke="Black" stroke-width="1.071936807572228" fill="None" d="M290.25 215.01 C 297.65999999999997 215.66, 299.35 214.49, 303.38 209.81"></path><path stroke="Black" stroke-width="1.071936807572228" fill="None" d="M291.485 202.855 C 291.225 200.775, 291.225 198.825, 291.615 197.91500000000002"></path><path stroke="Black" stroke-width="1.071936807572228" fill="None" d="M287.585 202.85500000000002 C 286.35 199.15, 286.35 197.2, 288.105 194.14499999999998"></path><path stroke="Black" stroke-width="1.071936807572228" fill="None" d="M239.355 231.45499999999998 C 249.95 236.2, 257.1 235.55, 263.47 233.21"></path><path stroke="Black" stroke-width="1.071936807572228" fill="None" d="M239.355 225.085 C 250.6 228.4, 254.5 228.4, 261.975 226.775"></path><path stroke="Black" stroke-width="1.071936807572228" fill="None" d="M239.355 216.89499999999998 C 249.95 221.25, 255.15 221.25, 262.365 219.365"></path><path stroke="Black" stroke-width="1.071936807572228" fill="None" d="M237.665 210.525 C 251.9 214.1, 257.1 214.1, 263.73 212.93"></path><path stroke="Black" stroke-width="1.071936807572228" fill="None" d="M281.21500000000003 244.325 C 283.88 244.13, 285.18 244.13, 286.87 244.13"></path><path stroke="Black" stroke-width="1.071936807572228" fill="None" d="M281.21500000000003 244.325 C 283.88 248.42000000000002, 287.13 251.67000000000002, 291.68 254.79"></path><path stroke="Black" stroke-width="1.071936807572228" fill="None" d="M291.68 254.79 C 293.305 252.255, 289.86 247.9, 286.87 244.13"></path><path stroke="Black" stroke-width="1.071936807572228" fill="None" d="M290.12 243.22 C 292.2 242.7, 294.8 242.05, 296.035 241.725"></path><path stroke="Black" stroke-width="1.071936807572228" fill="None" d="M290.12 243.22 C 293.825 249.525, 294.8 250.5, 297.205 252.64499999999998"></path><path stroke="Black" stroke-width="1.071936807572228" fill="None" d="M297.205 252.64499999999998 C 297.075 247.575, 296.88 244.52, 296.035 241.725"></path><path stroke="Black" stroke-width="1.071936807572228" fill="None" d="M196.91 258.17 C 232.725 241.075, 239.68 243.22, 282.905 263.045"></path><path stroke="Black" stroke-width="1.071936807572228" fill="None" d="M269.58 243.74 C 278.81 256.09, 286.48 261.94, 300 270"></path><path stroke="Black" stroke-width="1.071936807572228" fill="None" d="M235 237.5 C 246.57 241.79, 255.8 242.96, 269.58 243.74"></path><path stroke="Black" stroke-width="1.071936807572228" fill="None" d="M235 205 C 235 219.3, 235 227.75, 235 237.5"></path><path stroke="Black" stroke-width="1.071936807572228" fill="None" d="M202.5 205 C 215.5 205, 223.3 205, 235 205"></path><path stroke="Black" stroke-width="1.071936807572228" fill="None" d="M202.5 205 C 198.21 216.57, 197.04 225.8, 196.26 239.57999999999998"></path><path stroke="Black" stroke-width="1.071936807572228" fill="None" d="M196.26 239.57999999999998 C 215.5 231.65, 218.75 231.65, 235 237.5"></path><path stroke="Black" stroke-width="1.071936807572228" fill="None" d="M196.26 239.57999999999998 C 183.91 248.81, 178.06 256.48, 170 270"></path><path stroke="Black" stroke-width="1.071936807572228" fill="None" d="M170 270 C 180.79 272.73, 187.55 273.64, 198.34 272.08000000000004"></path><path stroke="Black" stroke-width="1.071936807572228" fill="None" d="M198.34 272.08000000000004 C 216.67 271.17, 214.98 255.18, 235 254.01"></path><path stroke="Black" stroke-width="1.071936807572228" fill="None" d="M235 254.01 C 238.25 253.75, 244.75 253.75, 251.25 253.75"></path><path stroke="Black" stroke-width="1.071936807572228" fill="None" d="M251.25 253.75 C 259.18 257.39, 264.38 261.42, 271.65999999999997 267.92"></path><path stroke="Black" stroke-width="1.071936807572228" fill="None" d="M271.65999999999997 267.92 C 282.45 266.36, 289.21 267.27, 300 270"></path><path stroke="Black" stroke-width="1.071936807572228" fill="None" d="M198.34 272.08000000000004 C 205.62 278.58000000000004, 210.82 282.61, 218.75 286.25"></path><path stroke="Black" stroke-width="1.071936807572228" fill="None" d="M218.75 286.25 C 226.875 278.125, 230.125 274.875, 235 270"></path><path stroke="Black" stroke-width="1.071936807572228" fill="None" d="M235 270 C 235 264.8, 235 258.3, 235 254.01"></path><path stroke="Black" stroke-width="1.071936807572228" fill="None" d="M209.325 271.625 C 211.99 277.15, 215.5 279.88, 221.675 281.635"></path><path stroke="Black" stroke-width="1.071936807572228" fill="None" d="M217.775 266.425 C 219.26999999999998 272.73, 221.22 275.33, 226.095 277.475"></path><path stroke="Black" stroke-width="1.071936807572228" fill="None" d="M224.99 260.25 C 224.34 267.65999999999997, 225.51 269.35, 230.19 273.38"></path><path stroke="Black" stroke-width="1.071936807572228" fill="None" d="M237.145 261.485 C 239.225 261.225, 241.175 261.225, 242.085 261.615"></path><path stroke="Black" stroke-width="1.071936807572228" fill="None" d="M237.14499999999998 257.585 C 240.85 256.35, 242.8 256.35, 245.855 258.105"></path><path stroke="Black" stroke-width="1.071936807572228" fill="None" d="M208.54500000000002 209.35500000000002 C 203.8 219.95, 204.45 227.1, 206.79 233.47"></path><path stroke="Black" stroke-width="1.071936807572228" fill="None" d="M214.915 209.35500000000002 C 211.6 220.6, 211.6 224.5, 213.225 231.975"></path><path stroke="Black" stroke-width="1.071936807572228" fill="None" d="M223.105 209.35500000000002 C 218.75 219.95, 218.75 225.15, 220.635 232.365"></path><path stroke="Black" stroke-width="1.071936807572228" fill="None" d="M229.475 207.66500000000002 C 225.9 221.9, 225.9 227.1, 227.07 233.73"></path><path stroke="Black" stroke-width="1.071936807572228" fill="None" d="M195.675 251.215 C 195.87 253.88, 195.87 255.18, 195.87 256.87"></path><path stroke="Black" stroke-width="1.071936807572228" fill="None" d="M195.675 251.215 C 191.57999999999998 253.88, 188.32999999999998 257.13, 185.21 261.68"></path><path stroke="Black" stroke-width="1.071936807572228" fill="None" d="M185.21 261.68 C 187.745 263.305, 192.1 259.86, 195.87 256.87"></path><path stroke="Black" stroke-width="1.071936807572228" fill="None" d="M196.78 260.12 C 197.3 262.2, 197.95 264.8, 198.275 266.035"></path><path stroke="Black" stroke-width="1.071936807572228" fill="None" d="M196.78 260.12 C 190.475 263.825, 189.5 264.8, 187.35500000000002 267.205"></path><path stroke="Black" stroke-width="1.071936807572228" fill="None" d="M187.35500000000002 267.205 C 192.425 267.075, 195.48 266.88, 198.275 266.035"></path><path stroke="Black" stroke-width="1.071936807572228" fill="None" d="M181.83 166.91 C 198.925 202.725, 196.78 209.68, 176.955 252.905"></path><path stroke="Black" stroke-width="1.071936807572228" fill="None" d="M196.26 239.57999999999998 C 183.91 248.81, 178.06 256.48, 170 270"></path><path stroke="Black" stroke-width="1.071936807572228" fill="None" d="M202.5 205 C 198.21 216.57, 197.04 225.8, 196.26 239.57999999999998"></path><path stroke="Black" stroke-width="1.071936807572228" fill="None" d="M235 205 C 220.7 205, 212.25 205, 202.5 205"></path><path stroke="Black" stroke-width="1.071936807572228" fill="None" d="M235 172.5 C 235 185.5, 235 193.3, 235 205"></path><path stroke="Black" stroke-width="1.071936807572228" fill="None" d="M235 172.5 C 223.43 168.21, 214.2 167.04, 200.42000000000002 166.26"></path><path stroke="Black" stroke-width="1.071936807572228" fill="None" d="M200.42000000000002 166.26 C 208.35 185.5, 208.35 188.75, 202.5 205"></path><path stroke="Black" stroke-width="1.071936807572228" fill="None" d="M200.42000000000002 166.26 C 191.19 153.91, 183.51999999999998 148.06, 170 140"></path><path stroke="Black" stroke-width="1.071936807572228" fill="None" d="M170 140 C 167.26999999999998 150.79, 166.36 157.55, 167.92 168.34"></path><path stroke="Black" stroke-width="1.071936807572228" fill="None" d="M167.92 168.34 C 168.82999999999998 186.67000000000002, 184.82 184.98, 185.99 205"></path><path stroke="Black" stroke-width="1.071936807572228" fill="None" d="M185.99 205 C 186.25 208.25, 186.25 214.75, 186.25 221.25"></path><path stroke="Black" stroke-width="1.071936807572228" fill="None" d="M186.25 221.25 C 182.61 229.18, 178.57999999999998 234.38, 172.07999999999998 241.66"></path><path stroke="Black" stroke-width="1.071936807572228" fill="None" d="M172.07999999999998 241.66 C 173.64 252.45, 172.73 259.21, 170 270"></path><path stroke="Black" stroke-width="1.071936807572228" fill="None" d="M167.92 168.34 C 161.42 175.62, 157.39 180.82, 153.75 188.75"></path><path stroke="Black" stroke-width="1.071936807572228" fill="None" d="M153.75 188.75 C 161.875 196.875, 165.125 200.125, 170 205"></path><path stroke="Black" stroke-width="1.071936807572228" fill="None" d="M170 205 C 175.2 205, 181.7 205, 185.99 205"></path><path stroke="Black" stroke-width="1.071936807572228" fill="None" d="M168.375 179.325 C 162.85 181.99, 160.12 185.5, 158.365 191.675"></path><path stroke="Black" stroke-width="1.071936807572228" fill="None" d="M173.575 187.775 C 167.26999999999998 189.26999999999998, 164.67000000000002 191.22, 162.525 196.095"></path><path stroke="Black" stroke-width="1.071936807572228" fill="None" d="M179.75 194.99 C 172.34 194.34, 170.65 195.51, 166.62 200.19"></path><path stroke="Black" stroke-width="1.071936807572228" fill="None" d="M178.515 207.145 C 178.775 209.225, 178.775 211.175, 178.385 212.08499999999998"></path><path stroke="Black" stroke-width="1.071936807572228" fill="None" d="M182.415 207.14499999999998 C 183.65 210.85, 183.65 212.8, 181.89499999999998 215.85500000000002"></path><path stroke="Black" stroke-width="1.071936807572228" fill="None" d="M230.645 178.54500000000002 C 220.05 173.8, 212.9 174.45, 206.53 176.79"></path><path stroke="Black" stroke-width="1.071936807572228" fill="None" d="M230.645 184.915 C 219.4 181.6, 215.5 181.6, 208.025 183.225"></path><path stroke="Black" stroke-width="1.071936807572228" fill="None" d="M230.645 193.10500000000002 C 220.05 188.75, 214.85 188.75, 207.635 190.635"></path><path stroke="Black" stroke-width="1.071936807572228" fill="None" d="M232.335 199.475 C 218.1 195.9, 212.9 195.9, 206.27 197.07"></path><path stroke="Black" stroke-width="1.071936807572228" fill="None" d="M188.785 165.675 C 186.12 165.87, 184.82 165.87, 183.13 165.87"></path><path stroke="Black" stroke-width="1.071936807572228" fill="None" d="M188.785 165.675 C 186.12 161.57999999999998, 182.87 158.32999999999998, 178.32 155.21"></path><path stroke="Black" stroke-width="1.071936807572228" fill="None" d="M178.32 155.21 C 176.695 157.745, 180.14 162.1, 183.13 165.87"></path><path stroke="Black" stroke-width="1.071936807572228" fill="None" d="M179.88 166.78 C 177.8 167.3, 175.2 167.95, 173.965 168.275"></path><path stroke="Black" stroke-width="1.071936807572228" fill="None" d="M179.88 166.78 C 176.175 160.475, 175.2 159.5, 172.79500000000002 157.35500000000002"></path><path stroke="Black" stroke-width="1.071936807572228" fill="None" d="M172.79500000000002 157.35500000000002 C 172.925 162.425, 173.12 165.48, 173.965 168.275"></path><path stroke="Black" stroke-width="1.071936807572228" fill="None" d="M273.09 151.83 C 237.275 168.925, 230.32 166.78, 187.095 146.955"></path><path stroke="Black" stroke-width="1.071936807572228" fill="None" d="M200.42000000000002 166.26 C 191.19 153.91, 183.51999999999998 148.06, 170 140"></path><path stroke="Black" stroke-width="1.071936807572228" fill="None" d="M235 172.5 C 223.43 168.21, 214.2 167.04, 200.42000000000002 166.26"></path><path stroke="Black" stroke-width="1.071936807572228" fill="None" d="M235 205 C 235 190.7, 235 182.25, 235 172.5"></path><path stroke="Black" stroke-width="1.071936807572228" fill="None" d="M267.5 205 C 254.5 205, 246.7 205, 235 205"></path><path stroke="Black" stroke-width="1.071936807572228" fill="None" d="M267.5 205 C 271.79 193.43, 272.96 184.2, 273.74 170.42000000000002"></path><path stroke="Black" stroke-width="1.071936807572228" fill="None" d="M273.74 170.42000000000002 C 254.5 178.35, 251.25 178.35, 235 172.5"></path><path stroke="Black" stroke-width="1.071936807572228" fill="None" d="M273.74 170.42000000000002 C 286.09 161.19, 291.94 153.51999999999998, 300 140"></path><path stroke="Black" stroke-width="1.071936807572228" fill="None" d="M300 140 C 289.21 137.26999999999998, 282.45 136.36, 271.66 137.92"></path><path stroke="Black" stroke-width="1.071936807572228" fill="None" d="M271.66 137.92 C 253.33 138.82999999999998, 255.02 154.82, 235 155.99"></path><path stroke="Black" stroke-width="1.071936807572228" fill="None" d="M235 155.99 C 231.75 156.25, 225.25 156.25, 218.75 156.25"></path><path stroke="Black" stroke-width="1.071936807572228" fill="None" d="M218.75 156.25 C 210.82 152.61, 205.62 148.57999999999998, 198.34 142.07999999999998"></path><path stroke="Black" stroke-width="1.071936807572228" fill="None" d="M198.34 142.07999999999998 C 187.55 143.64, 180.79 142.73, 170 140"></path><path stroke="Black" stroke-width="1.071936807572228" fill="None" d="M271.66 137.92 C 264.38 131.42, 259.18 127.38999999999999, 251.25 123.75"></path><path stroke="Black" stroke-width="1.071936807572228" fill="None" d="M251.25 123.75 C 243.125 131.875, 239.875 135.125, 235 140"></path><path stroke="Black" stroke-width="1.071936807572228" fill="None" d="M235 140 C 235 145.2, 235 151.7, 235 155.99"></path><path stroke="Black" stroke-width="1.071936807572228" fill="None" d="M260.675 138.375 C 258.01 132.85, 254.5 130.12, 248.325 128.365"></path><path stroke="Black" stroke-width="1.071936807572228" fill="None" d="M252.225 143.575 C 250.73000000000002 137.26999999999998, 248.78 134.67000000000002, 243.905 132.525"></path><path stroke="Black" stroke-width="1.071936807572228" fill="None" d="M245.01 149.75 C 245.66 142.34, 244.49 140.65, 239.81 136.62"></path><path stroke="Black" stroke-width="1.071936807572228" fill="None" d="M232.855 148.515 C 230.775 148.775, 228.825 148.775, 227.915 148.385"></path><path stroke="Black" stroke-width="1.071936807572228" fill="None" d="M232.85500000000002 152.415 C 229.15 153.65, 227.2 153.65, 224.145 151.89499999999998"></path><path stroke="Black" stroke-width="1.071936807572228" fill="None" d="M261.455 200.64499999999998 C 266.2 190.05, 265.55 182.9, 263.21 176.53"></path><path stroke="Black" stroke-width="1.071936807572228" fill="None" d="M255.085 200.64499999999998 C 258.4 189.4, 258.4 185.5, 256.775 178.025"></path><path stroke="Black" stroke-width="1.071936807572228" fill="None" d="M246.895 200.64499999999998 C 251.25 190.05, 251.25 184.85, 249.365 177.635"></path><path stroke="Black" stroke-width="1.071936807572228" fill="None" d="M240.525 202.33499999999998 C 244.1 188.1, 244.1 182.9, 242.93 176.27"></path><path stroke="Black" stroke-width="1.071936807572228" fill="None" d="M274.325 158.785 C 274.13 156.12, 274.13 154.82, 274.13 153.13"></path><path stroke="Black" stroke-width="1.071936807572228" fill="None" d="M274.325 158.785 C 278.42 156.12, 281.67 152.87, 284.79 148.32"></path><path stroke="Black" stroke-width="1.071936807572228" fill="None" d="M284.79 148.32 C 282.255 146.695, 277.9 150.14, 274.13 153.13"></path><path stroke="Black" stroke-width="1.071936807572228" fill="None" d="M273.22 149.88 C 272.7 147.8, 272.05 145.2, 271.725 143.965"></path><path stroke="Black" stroke-width="1.071936807572228" fill="None" d="M273.22 149.88 C 279.525 146.175, 280.5 145.2, 282.645 142.79500000000002"></path><path stroke="Black" stroke-width="1.071936807572228" fill="None" d="M282.645 142.79500000000002 C 277.575 142.925, 274.52 143.12, 271.725 143.965"></path><polyline stroke="red" stroke-width="1" fill="None" points="40,75 105,75 105,10 40,10 40,75"></polyline><polyline stroke="red" stroke-width="1" fill="None" points="105,75 170,75 170,10 105,10 105,75"></polyline><polyline stroke="red" stroke-width="1" fill="None" points="40,140 105,140 105,75 40,75 40,140"></polyline><polyline stroke="red" stroke-width="1" fill="None" points="105,140 170,140 170,75 105,75 105,140"></polyline><polyline stroke="red" stroke-width="1" fill="None" points="170,75 235,75 235,10 170,10 170,75"></polyline><polyline stroke="red" stroke-width="1" fill="None" points="235,75 300,75 300,10 235,10 235,75"></polyline><polyline stroke="red" stroke-width="1" fill="None" points="170,140 235,140 235,75 170,75 170,140"></polyline><polyline stroke="red" stroke-width="1" fill="None" points="235,140 300,140 300,75 235,75 235,140"></polyline><polyline stroke="red" stroke-width="1" fill="None" points="40,205 105,205 105,140 40,140 40,205"></polyline><polyline stroke="red" stroke-width="1" fill="None" points="40,270 105,270 105,205 40,205 40,270"></polyline><polyline stroke="red" stroke-width="1" fill="None" points="105,205 170,205 170,140 105,140 105,205"></polyline><polyline stroke="red" stroke-width="1" fill="None" points="105,270 170,270 170,205 105,205 105,270"></polyline><polyline stroke="red" stroke-width="1" fill="None" points="170,270 300,270 300,140 170,140 170,270"></polyline></svg>