<svg version="1.1" xmlns="http://www.w3.org/2000/svg" viewBox="50 0 550 225" x="0" y="0" width="550" height="225" style="background-color:lightgrey"><path stroke="none" stroke-width="2" stroke-linecap="butt" fill="black" d="M100 225 C 122 203, 135 190, 150 175 C 174.4 186.2, 190.4 198.6, 212.79999999999998 218.6 C 246 213.8, 266.79999999999995 216.6, 300 225 C 279.20000000000005 212.6, 267.4 203.6, 253.2 184.6 C 232 183.4, 217.8 181.6, 200 175 C 200 143, 200 133, 200 125 C 200 110.00000000000001, 200 100, 200 75 C 182.2 68.4, 168 66.6, 146.8 65.39999999999998 C 132.6 46.400000000000006, 120.8 37.400000000000006, 100 25 C 91.6 58.20000000000002, 88.8 79, 93.6 112.20000000000002 C 73.6 134.6, 61.199999999999996 150.6, 50 175 C 70 195, 90 215, 100 225 Z"></path><path stroke="white" stroke-width="2.5" stroke-linecap="butt" fill="white" d="M100.8 65 C 108 70.6, 113.6 85.80000000000001, 114.8 88 C 109 93, 102 101.6, 98.4 106.60000000000001 C 96.6 88, 97.6 71, 100.8 65 Z"></path><path stroke="white" stroke-width="2.5" stroke-linecap="butt" fill="white" d="M119 51 C 132 57, 140 67, 141 68.6 C 133 73, 128 77, 123 82 C 119 70, 118 59, 119 51 Z"></path><path stroke="none" stroke-width="2" stroke-linecap="butt" fill="black" d="M103.6 81 C 107.6 83.4, 110.6 88.19999999999999, 111.4 90.19999999999999 C 107 94.6, 102 100.6, 101.6 101.4 C 101 88, 102 85, 103.6 81 Z"></path><path stroke="none" stroke-width="2" stroke-linecap="butt" fill="black" d="M125.6 63 C 130 64, 134.8 68.4, 137 70.19999999999999 C 130.8 73.80000000000001, 127.80000000000001 77, 126.4 77.80000000000001 C 125.2 73, 124.4 66, 125.6 63 Z"></path><path stroke="white" stroke-width="2.5" stroke-linecap="butt" fill="none" d="M268 211 C 170 201, 128 125, 105 45"></path><path stroke="white" stroke-width="2.5" stroke-linecap="butt" fill="none" d="M97 121 C 108 145, 124 165, 142 173"></path><path stroke="white" stroke-width="2.5" stroke-linecap="butt" fill="none" d="M195 171 C 164 155, 168 105, 148 71"></path><path stroke="white" stroke-width="2.5" stroke-linecap="butt" fill="none" d="M175.4 149.6 C 182 143, 192 133, 199 126"></path><path stroke="white" stroke-width="2.5" stroke-linecap="butt" fill="none" d="M186 192 C 196 190, 198 181, 198 179"></path><path stroke="white" stroke-width="2.5" stroke-linecap="butt" fill="none" d="M190.4 189.4 C 202 199, 208 203, 220 209"></path><path stroke="white" stroke-width="2.5" stroke-linecap="butt" fill="none" d="M196.39999999999998 182 C 204 185, 220 193, 248 195"></path><path stroke="white" stroke-width="2.5" stroke-linecap="butt" fill="none" d="M66 177.6 C 75 154, 87 144, 102 129"></path><path stroke="white" stroke-width="2.5" stroke-linecap="butt" fill="none" d="M78 190 C 88 175, 94 165, 116 152"></path><path stroke="white" stroke-width="2.5" stroke-linecap="butt" fill="none" d="M91 202 C 102 189, 112 179, 134 169"></path><path stroke="white" stroke-width="2.5" stroke-linecap="butt" fill="none" d="M154 85 C 168 81, 185.2 83, 194.8 86.60000000000002"></path><path stroke="white" stroke-width="2.5" stroke-linecap="butt" fill="none" d="M162 111.00000000000001 C 180 100.6, 187 101.4, 194.8 102"></path><path stroke="white" stroke-width="2.5" stroke-linecap="butt" fill="none" d="M170 138 C 180 124, 184.39999999999998 121, 194.8 117.39999999999999"></path><path stroke="none" stroke-width="2" stroke-linecap="butt" fill="grey" d="M200 125 C 200 103, 200 90, 200 75 C 182.2 68.39999999999998, 168 66.6, 146.8 65.4 C 132.6 46.400000000000006, 120.80000000000001 37.400000000000006, 100 25 C 116.6 29.19999999999999, 127 30.599999999999994, 143.60000000000002 28.19999999999999 C 154.8 38.19999999999999, 162.8 44.400000000000006, 175 50 C 191 34, 196 29, 200 25 C 207.5 17.5, 212.5 12.5, 225 0 C 237.2 5.600000000000023, 245.2 11.800000000000011, 256.4 21.799999999999983 C 273 19.400000000000006, 283.4 20.80000000000001, 300 25 C 287.6 45.80000000000001, 278.6 57.599999999999994, 259.6 71.80000000000001 C 258.4 93, 256.6 107.2, 250 125 C 230 125, 210 125, 200 125 Z"></path><path stroke="white" stroke-width="1.7677669529663689" stroke-linecap="butt" fill="white" d="M279.6 44.599999999999994 C 273.2 43.80000000000001, 262.8 48.60000000000002, 261.1 49.099999999999994 C 261.5 54.5, 260.7 62.30000000000001, 260 66.6 C 270.2 58.19999999999999, 278.2 49.19999999999999, 279.6 44.599999999999994 Z"></path><path stroke="white" stroke-width="1.7677669529663689" stroke-linecap="butt" fill="white" d="M277.5 28.5 C 268 25, 259 26, 257.7 26.30000000000001 C 259.5 32.5, 260 37, 260 42 C 268 38, 274 33, 277.5 28.5 Z"></path><path stroke="none" stroke-width="2" stroke-linecap="butt" fill="grey" d="M270.2 51.19999999999999 C 267 50.400000000000006, 263.1 51.30000000000001, 261.7 51.89999999999998 C 261.7 56.30000000000001, 261.2 61.80000000000001, 261 62.400000000000006 C 268 56, 269 54, 270.2 51.19999999999999 Z"></path><path stroke="none" stroke-width="2" stroke-linecap="butt" fill="grey" d="M268.2 31.19999999999999 C 265.5 29.5, 260.9 29.30000000000001, 258.9 29.099999999999994 C 260.2 34, 260.1 37.099999999999994, 260.4 38.19999999999999 C 263.4 36.400000000000006, 267.3 33.30000000000001, 268.2 31.19999999999999 Z"></path><path stroke="white" stroke-width="1.7677669529663689" stroke-linecap="butt" fill="none" d="M123 34 C 177 78, 236 61, 287.5 32.5"></path><path stroke="white" stroke-width="1.7677669529663689" stroke-linecap="butt" fill="none" d="M253.5 74.5 C 236 81, 218 83, 205 78"></path><path stroke="white" stroke-width="1.7677669529663689" stroke-linecap="butt" fill="none" d="M179.5 50.5 C 203 58, 226 31, 253 24"></path><path stroke="white" stroke-width="1.7677669529663689" stroke-linecap="butt" fill="none" d="M200 49.599999999999994 C 200 43, 200 33, 200 26"></path><path stroke="white" stroke-width="1.7677669529663689" stroke-linecap="butt" fill="none" d="M173.5 65.5 C 169.5 59.5, 173 54, 174 53"></path><path stroke="white" stroke-width="1.7677669529663689" stroke-linecap="butt" fill="none" d="M172.6 62 C 162 61, 157 60, 148 57"></path><path stroke="white" stroke-width="1.7677669529663689" stroke-linecap="butt" fill="none" d="M173.3 55.30000000000001 C 168 53, 156 49, 141 36"></path><path stroke="white" stroke-width="1.7677669529663689" stroke-linecap="butt" fill="none" d="M240.7 118.3 C 248 102, 247 91, 247 76"></path><path stroke="white" stroke-width="1.7677669529663689" stroke-linecap="butt" fill="none" d="M228.5 118.5 C 231 106, 233 98, 228.5 80.5"></path><path stroke="white" stroke-width="1.7677669529663689" stroke-linecap="butt" fill="none" d="M216 118 C 217 106, 217 96, 211 80"></path><path stroke="white" stroke-width="1.7677669529663689" stroke-linecap="butt" fill="none" d="M243 28 C 238 19, 228.4 11.400000000000006, 221.79999999999998 8.400000000000006"></path><path stroke="white" stroke-width="1.7677669529663689" stroke-linecap="butt" fill="none" d="M226 37 C 222.2 22.80000000000001, 218.3 19.69999999999999, 214.1 16.099999999999994"></path><path stroke="white" stroke-width="1.7677669529663689" stroke-linecap="butt" fill="none" d="M208.5 46.5 C 210.5 34.5, 209.8 30.80000000000001, 206.4 23.80000000000001"></path><path stroke="none" stroke-width="2" stroke-linecap="butt" fill="white" d="M200 125 C 222 125, 235 125, 250 125 C 256.6 107.2, 258.4 93, 259.6 71.80000000000001 C 278.6 57.599999999999994, 287.6 45.80000000000001, 300 25 C 295.8 41.599999999999994, 294.4 52, 296.8 68.60000000000002 C 286.8 79.80000000000001, 280.6 87.80000000000001, 275 100 C 291 116, 296 121, 300 125 C 307.5 132.5, 312.5 137.5, 325 150 C 319.4 162.2, 313.2 170.2, 303.20000000000005 181.4 C 305.6 198, 304.2 208.39999999999998, 300 225 C 279.2 212.6, 267.4 203.6, 253.2 184.6 C 232 183.4, 217.8 181.60000000000002, 200 175 C 200 155, 200 135, 200 125 Z"></path><path stroke="black" stroke-width="1.7677669529663689" stroke-linecap="butt" fill="white" d="M280.4 204.6 C 281.2 198.2, 276.4 187.8, 275.9 186.1 C 270.5 186.5, 262.7 185.7, 258.4 185 C 266.8 195.2, 275.8 203.2, 280.4 204.6 Z"></path><path stroke="black" stroke-width="1.7677669529663689" stroke-linecap="butt" fill="white" d="M296.5 202.5 C 300 193, 299 184, 298.7 182.7 C 292.5 184.5, 288 185, 283 185 C 287 193, 292 199, 296.5 202.5 Z"></path><path stroke="none" stroke-width="2" stroke-linecap="butt" fill="black" d="M273.8 195.2 C 274.6 192, 273.7 188.10000000000002, 273.1 186.7 C 268.7 186.7, 263.2 186.2, 262.6 186 C 269 193, 271 194, 273.8 195.2 Z"></path><path stroke="none" stroke-width="2" stroke-linecap="butt" fill="black" d="M293.8 193.2 C 295.5 190.5, 295.7 185.9, 295.9 183.9 C 291 185.2, 287.9 185.1, 286.8 185.39999999999998 C 288.6 188.4, 291.7 192.3, 293.8 193.2 Z"></path><path stroke="black" stroke-width="1.7677669529663689" stroke-linecap="butt" fill="none" d="M291 48 C 247 102, 264 161, 292.5 212.5"></path><path stroke="black" stroke-width="1.7677669529663689" stroke-linecap="butt" fill="none" d="M250.5 178.5 C 244 161, 242 143, 247 130"></path><path stroke="black" stroke-width="1.7677669529663689" stroke-linecap="butt" fill="none" d="M274.5 104.5 C 267 128, 294 151, 301 178"></path><path stroke="black" stroke-width="1.7677669529663689" stroke-linecap="butt" fill="none" d="M275.4 125 C 282 125, 292 125, 299 125"></path><path stroke="black" stroke-width="1.7677669529663689" stroke-linecap="butt" fill="none" d="M259.5 98.5 C 265.5 94.5, 271 98, 272 99"></path><path stroke="black" stroke-width="1.7677669529663689" stroke-linecap="butt" fill="none" d="M263 97.6 C 264 87, 265 82, 268 73"></path><path stroke="black" stroke-width="1.7677669529663689" stroke-linecap="butt" fill="none" d="M269.7 98.30000000000001 C 272 93, 276 81, 289 66"></path><path stroke="black" stroke-width="1.7677669529663689" stroke-linecap="butt" fill="none" d="M206.7 165.7 C 223 173, 234 172, 249 172"></path><path stroke="black" stroke-width="1.7677669529663689" stroke-linecap="butt" fill="none" d="M206.5 153.5 C 219 156, 227 158, 244.5 153.5"></path><path stroke="black" stroke-width="1.7677669529663689" stroke-linecap="butt" fill="none" d="M207 141 C 219 142, 229 142, 245 136"></path><path stroke="black" stroke-width="1.7677669529663689" stroke-linecap="butt" fill="none" d="M297 168 C 306 163, 313.6 153.4, 316.6 146.79999999999998"></path><path stroke="black" stroke-width="1.7677669529663689" stroke-linecap="butt" fill="none" d="M288 151 C 302.2 147.2, 305.3 143.3, 308.9 139.1"></path><path stroke="black" stroke-width="1.7677669529663689" stroke-linecap="butt" fill="none" d="M278.5 133.5 C 290.5 135.5, 294.2 134.8, 301.2 131.4"></path><path stroke="none" stroke-width="2" stroke-linecap="butt" fill="black" d="M375 225 C 397 203, 410 190, 425 175 C 449.4 186.2, 465.4 198.6, 487.79999999999995 218.6 C 521 213.8, 541.8 216.6, 575 225 C 554.2 212.6, 542.4 203.6, 528.2 184.6 C 507 183.4, 492.8 181.6, 475 175 C 475 143, 475 133, 475 125 C 475 110.00000000000001, 475 100, 475 75 C 457.2 68.4, 443 66.6, 421.8 65.39999999999998 C 407.6 46.400000000000006, 395.8 37.400000000000006, 375 25 C 366.6 58.20000000000002, 363.8 79, 368.6 112.20000000000002 C 348.6 134.6, 336.2 150.6, 325 175 C 345 195, 365 215, 375 225 Z"></path><path stroke="white" stroke-width="2.5" stroke-linecap="butt" fill="white" d="M375.8 65 C 383 70.6, 388.6 85.80000000000001, 389.8 88 C 384 93, 377 101.6, 373.4 106.60000000000001 C 371.6 88, 372.6 71, 375.8 65 Z"></path><path stroke="white" stroke-width="2.5" stroke-linecap="butt" fill="white" d="M394 51 C 407 57, 415 67, 416 68.6 C 408 73, 403 77, 398 82 C 394 70, 393 59, 394 51 Z"></path><path stroke="none" stroke-width="2" stroke-linecap="butt" fill="black" d="M378.6 81 C 382.6 83.4, 385.6 88.19999999999999, 386.4 90.19999999999999 C 382 94.6, 377 100.6, 376.6 101.4 C 376 88, 377 85, 378.6 81 Z"></path><path stroke="none" stroke-width="2" stroke-linecap="butt" fill="black" d="M400.6 63 C 405 64, 409.8 68.4, 412 70.19999999999999 C 405.8 73.80000000000001, 402.8 77, 401.4 77.80000000000001 C 400.2 73, 399.4 66, 400.6 63 Z"></path><path stroke="white" stroke-width="2.5" stroke-linecap="butt" fill="none" d="M543 211 C 445 201, 403 125, 380 45"></path><path stroke="white" stroke-width="2.5" stroke-linecap="butt" fill="none" d="M372 121 C 383 145, 399 165, 417 173"></path><path stroke="white" stroke-width="2.5" stroke-linecap="butt" fill="none" d="M470 171 C 439 155, 443 105, 423 71"></path><path stroke="white" stroke-width="2.5" stroke-linecap="butt" fill="none" d="M450.4 149.6 C 457 143, 467 133, 474 126"></path><path stroke="white" stroke-width="2.5" stroke-linecap="butt" fill="none" d="M461 192 C 471 190, 473 181, 473 179"></path><path stroke="white" stroke-width="2.5" stroke-linecap="butt" fill="none" d="M465.4 189.4 C 477 199, 483 203, 495 209"></path><path stroke="white" stroke-width="2.5" stroke-linecap="butt" fill="none" d="M471.4 182 C 479 185, 495 193, 523 195"></path><path stroke="white" stroke-width="2.5" stroke-linecap="butt" fill="none" d="M341 177.6 C 350 154, 362 144, 377 129"></path><path stroke="white" stroke-width="2.5" stroke-linecap="butt" fill="none" d="M353 190 C 363 175, 369 165, 391 152"></path><path stroke="white" stroke-width="2.5" stroke-linecap="butt" fill="none" d="M366 202 C 377 189, 387 179, 409 169"></path><path stroke="white" stroke-width="2.5" stroke-linecap="butt" fill="none" d="M429 85 C 443 81, 460.2 83, 469.8 86.60000000000002"></path><path stroke="white" stroke-width="2.5" stroke-linecap="butt" fill="none" d="M437 111.00000000000001 C 455 100.6, 462 101.4, 469.8 102"></path><path stroke="white" stroke-width="2.5" stroke-linecap="butt" fill="none" d="M445 138 C 455 124, 459.4 121, 469.8 117.39999999999999"></path><path stroke="none" stroke-width="2" stroke-linecap="butt" fill="white" d="M475 125 C 475 103, 475 90, 475 75 C 457.2 68.39999999999998, 443 66.6, 421.8 65.4 C 407.6 46.400000000000006, 395.8 37.400000000000006, 375 25 C 391.6 29.19999999999999, 402 30.599999999999994, 418.6 28.19999999999999 C 429.8 38.19999999999999, 437.8 44.400000000000006, 450 50 C 466 34, 471 29, 475 25 C 482.5 17.5, 487.5 12.5, 500 0 C 512.2 5.600000000000023, 520.2 11.800000000000011, 531.4 21.799999999999983 C 548 19.400000000000006, 558.4 20.80000000000001, 575 25 C 562.6 45.80000000000001, 553.6 57.599999999999994, 534.6 71.80000000000001 C 533.4 93, 531.6 107.2, 525 125 C 505 125, 485 125, 475 125 Z"></path><path stroke="black" stroke-width="1.7677669529663689" stroke-linecap="butt" fill="white" d="M554.6 44.599999999999994 C 548.2 43.80000000000001, 537.8 48.60000000000002, 536.1 49.099999999999994 C 536.5 54.5, 535.7 62.30000000000001, 535 66.6 C 545.2 58.19999999999999, 553.2 49.19999999999999, 554.6 44.599999999999994 Z"></path><path stroke="black" stroke-width="1.7677669529663689" stroke-linecap="butt" fill="white" d="M552.5 28.5 C 543 25, 534 26, 532.7 26.30000000000001 C 534.5 32.5, 535 37, 535 42 C 543 38, 549 33, 552.5 28.5 Z"></path><path stroke="none" stroke-width="2" stroke-linecap="butt" fill="black" d="M545.2 51.19999999999999 C 542 50.400000000000006, 538.1 51.30000000000001, 536.7 51.89999999999998 C 536.7 56.30000000000001, 536.2 61.80000000000001, 536 62.400000000000006 C 543 56, 544 54, 545.2 51.19999999999999 Z"></path><path stroke="none" stroke-width="2" stroke-linecap="butt" fill="black" d="M543.2 31.19999999999999 C 540.5 29.5, 535.9 29.30000000000001, 533.9 29.099999999999994 C 535.2 34, 535.1 37.099999999999994, 535.4 38.19999999999999 C 538.4 36.400000000000006, 542.3 33.30000000000001, 543.2 31.19999999999999 Z"></path><path stroke="black" stroke-width="1.7677669529663689" stroke-linecap="butt" fill="none" d="M398 34 C 452 78, 511 61, 562.5 32.5"></path><path stroke="black" stroke-width="1.7677669529663689" stroke-linecap="butt" fill="none" d="M528.5 74.5 C 511 81, 493 83, 480 78"></path><path stroke="black" stroke-width="1.7677669529663689" stroke-linecap="butt" fill="none" d="M454.5 50.5 C 478 58, 501 31, 528 24"></path><path stroke="black" stroke-width="1.7677669529663689" stroke-linecap="butt" fill="none" d="M475 49.599999999999994 C 475 43, 475 33, 475 26"></path><path stroke="black" stroke-width="1.7677669529663689" stroke-linecap="butt" fill="none" d="M448.5 65.5 C 444.5 59.5, 448 54, 449 53"></path><path stroke="black" stroke-width="1.7677669529663689" stroke-linecap="butt" fill="none" d="M447.6 62 C 437 61, 432 60, 423 57"></path><path stroke="black" stroke-width="1.7677669529663689" stroke-linecap="butt" fill="none" d="M448.3 55.30000000000001 C 443 53, 431 49, 416 36"></path><path stroke="black" stroke-width="1.7677669529663689" stroke-linecap="butt" fill="none" d="M515.7 118.3 C 523 102, 522 91, 522 76"></path><path stroke="black" stroke-width="1.7677669529663689" stroke-linecap="butt" fill="none" d="M503.5 118.5 C 506 106, 508 98, 503.5 80.5"></path><path stroke="black" stroke-width="1.7677669529663689" stroke-linecap="butt" fill="none" d="M491 118 C 492 106, 492 96, 486 80"></path><path stroke="black" stroke-width="1.7677669529663689" stroke-linecap="butt" fill="none" d="M518 28 C 513 19, 503.4 11.400000000000006, 496.8 8.400000000000006"></path><path stroke="black" stroke-width="1.7677669529663689" stroke-linecap="butt" fill="none" d="M501 37 C 497.2 22.80000000000001, 493.3 19.69999999999999, 489.1 16.099999999999994"></path><path stroke="black" stroke-width="1.7677669529663689" stroke-linecap="butt" fill="none" d="M483.5 46.5 C 485.5 34.5, 484.8 30.80000000000001, 481.4 23.80000000000001"></path><path stroke="none" stroke-width="2" stroke-linecap="butt" fill="grey" d="M475 125 C 497 125, 510 125, 525 125 C 531.6 107.2, 533.4 93, 534.6 71.80000000000001 C 553.6 57.599999999999994, 562.6 45.80000000000001, 575 25 C 570.8 41.599999999999994, 569.4 52, 571.8 68.60000000000002 C 561.8 79.80000000000001, 555.6 87.80000000000001, 550 100 C 566 116, 571 121, 575 125 C 582.5 132.5, 587.5 137.5, 600 150 C 594.4 162.2, 588.2 170.2, 578.2 181.4 C 580.6 198, 579.2 208.39999999999998, 575 225 C 554.2 212.6, 542.4 203.6, 528.2 184.6 C 507 183.4, 492.8 181.60000000000002, 475 175 C 475 155, 475 135, 475 125 Z"></path><path stroke="white" stroke-width="1.7677669529663689" stroke-linecap="butt" fill="white" d="M555.4 204.6 C 556.2 198.2, 551.4 187.8, 550.9 186.1 C 545.5 186.5, 537.7 185.7, 533.4 185 C 541.8 195.2, 550.8 203.2, 555.4 204.6 Z"></path><path stroke="white" stroke-width="1.7677669529663689" stroke-linecap="butt" fill="white" d="M571.5 202.5 C 575 193, 574 184, 573.7 182.7 C 567.5 184.5, 563 185, 558 185 C 562 193, 567 199, 571.5 202.5 Z"></path><path stroke="none" stroke-width="2" stroke-linecap="butt" fill="grey" d="M548.8 195.2 C 549.6 192, 548.7 188.10000000000002, 548.1 186.7 C 543.7 186.7, 538.2 186.2, 537.6 186 C 544 193, 546 194, 548.8 195.2 Z"></path><path stroke="none" stroke-width="2" stroke-linecap="butt" fill="grey" d="M568.8 193.2 C 570.5 190.5, 570.7 185.9, 570.9 183.9 C 566 185.2, 562.9 185.1, 561.8 185.39999999999998 C 563.6 188.4, 566.7 192.3, 568.8 193.2 Z"></path><path stroke="white" stroke-width="1.7677669529663689" stroke-linecap="butt" fill="none" d="M566 48 C 522 102, 539 161, 567.5 212.5"></path><path stroke="white" stroke-width="1.7677669529663689" stroke-linecap="butt" fill="none" d="M525.5 178.5 C 519 161, 517 143, 522 130"></path><path stroke="white" stroke-width="1.7677669529663689" stroke-linecap="butt" fill="none" d="M549.5 104.5 C 542 128, 569 151, 576 178"></path><path stroke="white" stroke-width="1.7677669529663689" stroke-linecap="butt" fill="none" d="M550.4 125 C 557 125, 567 125, 574 125"></path><path stroke="white" stroke-width="1.7677669529663689" stroke-linecap="butt" fill="none" d="M534.5 98.5 C 540.5 94.5, 546 98, 547 99"></path><path stroke="white" stroke-width="1.7677669529663689" stroke-linecap="butt" fill="none" d="M538 97.6 C 539 87, 540 82, 543 73"></path><path stroke="white" stroke-width="1.7677669529663689" stroke-linecap="butt" fill="none" d="M544.7 98.30000000000001 C 547 93, 551 81, 564 66"></path><path stroke="white" stroke-width="1.7677669529663689" stroke-linecap="butt" fill="none" d="M481.7 165.7 C 498 173, 509 172, 524 172"></path><path stroke="white" stroke-width="1.7677669529663689" stroke-linecap="butt" fill="none" d="M481.5 153.5 C 494 156, 502 158, 519.5 153.5"></path><path stroke="white" stroke-width="1.7677669529663689" stroke-linecap="butt" fill="none" d="M482 141 C 494 142, 504 142, 520 136"></path><path stroke="white" stroke-width="1.7677669529663689" stroke-linecap="butt" fill="none" d="M572 168 C 581 163, 588.6 153.4, 591.6 146.79999999999998"></path><path stroke="white" stroke-width="1.7677669529663689" stroke-linecap="butt" fill="none" d="M563 151 C 577.2 147.2, 580.3 143.3, 583.9 139.1"></path><path stroke="white" stroke-width="1.7677669529663689" stroke-linecap="butt" fill="none" d="M553.5 133.5 C 565.5 135.5, 569.2 134.8, 576.2 131.4"></path></svg>