<svg version="1.1" xmlns="http://www.w3.org/2000/svg" viewBox="0 0 340 310" x="-3px" y="0px" width="343" height="313" style="background-color:white"><path stroke="Black" stroke-width="1.071936807572228" fill="None" d="M143.09 151.83 C 107.275 168.925, 100.32 166.78, 57.095000000000006 146.955"></path><path stroke="Black" stroke-width="1.071936807572228" fill="None" d="M70.42 166.26 C 61.190000000000005 153.91, 53.519999999999996 148.06, 40 140"></path><path stroke="Black" stroke-width="1.071936807572228" fill="None" d="M105 172.5 C 93.43 168.21, 84.19999999999999 167.04, 70.42 166.26"></path><path stroke="Black" stroke-width="1.071936807572228" fill="None" d="M105 205 C 105 190.7, 105 182.25, 105 172.5"></path><path stroke="Black" stroke-width="1.071936807572228" fill="None" d="M137.5 205 C 124.5 205, 116.7 205, 105 205"></path><path stroke="Black" stroke-width="1.071936807572228" fill="None" d="M137.5 205 C 141.79 193.43, 142.96 184.2, 143.74 170.42000000000002"></path><path stroke="Black" stroke-width="1.071936807572228" fill="None" d="M143.74 170.42000000000002 C 124.5 178.35, 121.25 178.35, 105 172.5"></path><path stroke="Black" stroke-width="1.071936807572228" fill="None" d="M143.74 170.42000000000002 C 156.09 161.19, 161.94 153.51999999999998, 170 140"></path><path stroke="Black" stroke-width="1.071936807572228" fill="None" d="M170 140 C 159.21 137.26999999999998, 152.45 136.36, 141.66 137.92"></path><path stroke="Black" stroke-width="1.071936807572228" fill="None" d="M141.66 137.92 C 123.33 138.82999999999998, 125.02000000000001 154.82, 105 155.99"></path><path stroke="Black" stroke-width="1.071936807572228" fill="None" d="M105 155.99 C 101.75 156.25, 95.25 156.25, 88.75 156.25"></path><path stroke="Black" stroke-width="1.071936807572228" fill="None" d="M88.75 156.25 C 80.82000000000001 152.61, 75.62 148.57999999999998, 68.34 142.07999999999998"></path><path stroke="Black" stroke-width="1.071936807572228" fill="None" d="M68.34 142.07999999999998 C 57.55 143.64, 50.79 142.73, 40 140"></path><path stroke="Black" stroke-width="1.071936807572228" fill="None" d="M141.66 137.92 C 134.38 131.42, 129.18 127.38999999999999, 121.25 123.75"></path><path stroke="Black" stroke-width="1.071936807572228" fill="None" d="M121.25 123.75 C 113.125 131.875, 109.875 135.125, 105 140"></path><path stroke="Black" stroke-width="1.071936807572228" fill="None" d="M105 140 C 105 145.2, 105 151.7, 105 155.99"></path><path stroke="Black" stroke-width="1.071936807572228" fill="None" d="M130.675 138.375 C 128.01 132.85, 124.5 130.12, 118.325 128.365"></path><path stroke="Black" stroke-width="1.071936807572228" fill="None" d="M122.225 143.575 C 120.73 137.26999999999998, 118.78 134.67000000000002, 113.905 132.525"></path><path stroke="Black" stroke-width="1.071936807572228" fill="None" d="M115.01 149.75 C 115.66 142.34, 114.49 140.65, 109.81 136.62"></path><path stroke="Black" stroke-width="1.071936807572228" fill="None" d="M102.85499999999999 148.515 C 100.775 148.775, 98.825 148.775, 97.915 148.385"></path><path stroke="Black" stroke-width="1.071936807572228" fill="None" d="M102.855 152.415 C 99.15 153.65, 97.2 153.65, 94.145 151.89499999999998"></path><path stroke="Black" stroke-width="1.071936807572228" fill="None" d="M131.45499999999998 200.64499999999998 C 136.2 190.05, 135.55 182.9, 133.21 176.53"></path><path stroke="Black" stroke-width="1.071936807572228" fill="None" d="M125.08500000000001 200.64499999999998 C 128.4 189.4, 128.4 185.5, 126.775 178.025"></path><path stroke="Black" stroke-width="1.071936807572228" fill="None" d="M116.895 200.64499999999998 C 121.25 190.05, 121.25 184.85, 119.36500000000001 177.635"></path><path stroke="Black" stroke-width="1.071936807572228" fill="None" d="M110.525 202.33499999999998 C 114.1 188.1, 114.1 182.9, 112.92999999999999 176.27"></path><path stroke="Black" stroke-width="1.071936807572228" fill="None" d="M144.325 158.785 C 144.13 156.12, 144.13 154.82, 144.13 153.13"></path><path stroke="Black" stroke-width="1.071936807572228" fill="None" d="M144.325 158.785 C 148.42000000000002 156.12, 151.67000000000002 152.87, 154.79 148.32"></path><path stroke="Black" stroke-width="1.071936807572228" fill="None" d="M154.79 148.32 C 152.255 146.695, 147.9 150.14, 144.13 153.13"></path><path stroke="Black" stroke-width="1.071936807572228" fill="None" d="M143.22 149.88 C 142.7 147.8, 142.05 145.2, 141.725 143.965"></path><path stroke="Black" stroke-width="1.071936807572228" fill="None" d="M143.22 149.88 C 149.525 146.175, 150.5 145.2, 152.64499999999998 142.79500000000002"></path><path stroke="Black" stroke-width="1.071936807572228" fill="None" d="M152.64499999999998 142.79500000000002 C 147.575 142.925, 144.52 143.12, 141.725 143.965"></path><path stroke="Black" stroke-width="1.071936807572228" fill="None" d="M51.830000000000005 166.91 C 68.925 202.725, 66.78 209.68, 46.955000000000005 252.905"></path><path stroke="Black" stroke-width="1.071936807572228" fill="None" d="M66.26 239.57999999999998 C 53.910000000000004 248.81, 48.06 256.48, 40 270"></path><path stroke="Black" stroke-width="1.071936807572228" fill="None" d="M72.5 205 C 68.21000000000001 216.57, 67.03999999999999 225.8, 66.26 239.57999999999998"></path><path stroke="Black" stroke-width="1.071936807572228" fill="None" d="M105 205 C 90.7 205, 82.25 205, 72.5 205"></path><path stroke="Black" stroke-width="1.071936807572228" fill="None" d="M105 172.5 C 105 185.5, 105 193.3, 105 205"></path><path stroke="Black" stroke-width="1.071936807572228" fill="None" d="M105 172.5 C 93.43 168.21, 84.19999999999999 167.04, 70.42 166.26"></path><path stroke="Black" stroke-width="1.071936807572228" fill="None" d="M70.42 166.26 C 78.35 185.5, 78.35 188.75, 72.5 205"></path><path stroke="Black" stroke-width="1.071936807572228" fill="None" d="M70.42 166.26 C 61.190000000000005 153.91, 53.519999999999996 148.06, 40 140"></path><path stroke="Black" stroke-width="1.071936807572228" fill="None" d="M40 140 C 37.269999999999996 150.79, 36.36 157.55, 37.91999999999999 168.34"></path><path stroke="Black" stroke-width="1.071936807572228" fill="None" d="M37.91999999999999 168.34 C 38.83 186.67000000000002, 54.82 184.98, 55.99 205"></path><path stroke="Black" stroke-width="1.071936807572228" fill="None" d="M55.99 205 C 56.25 208.25, 56.25 214.75, 56.25 221.25"></path><path stroke="Black" stroke-width="1.071936807572228" fill="None" d="M56.25 221.25 C 52.61 229.18, 48.58 234.38, 42.08 241.66"></path><path stroke="Black" stroke-width="1.071936807572228" fill="None" d="M42.08 241.66 C 43.64 252.45, 42.73 259.21, 40 270"></path><path stroke="Black" stroke-width="1.071936807572228" fill="None" d="M37.91999999999999 168.34 C 31.419999999999987 175.62, 27.39 180.82, 23.75 188.75"></path><path stroke="Black" stroke-width="1.071936807572228" fill="None" d="M23.75 188.75 C 31.875 196.875, 35.125 200.125, 40 205"></path><path stroke="Black" stroke-width="1.071936807572228" fill="None" d="M40 205 C 45.199999999999996 205, 51.7 205, 55.99 205"></path><path stroke="Black" stroke-width="1.071936807572228" fill="None" d="M38.375 179.325 C 32.849999999999994 181.99, 30.120000000000005 185.5, 28.36500000000001 191.675"></path><path stroke="Black" stroke-width="1.071936807572228" fill="None" d="M43.575 187.775 C 37.269999999999996 189.26999999999998, 34.67 191.22, 32.525000000000006 196.095"></path><path stroke="Black" stroke-width="1.071936807572228" fill="None" d="M49.75 194.99 C 42.34 194.34, 40.650000000000006 195.51, 36.620000000000005 200.19"></path><path stroke="Black" stroke-width="1.071936807572228" fill="None" d="M48.515 207.145 C 48.775 209.225, 48.775 211.175, 48.385000000000005 212.08499999999998"></path><path stroke="Black" stroke-width="1.071936807572228" fill="None" d="M52.415 207.14499999999998 C 53.65 210.85, 53.65 212.8, 51.894999999999996 215.85500000000002"></path><path stroke="Black" stroke-width="1.071936807572228" fill="None" d="M100.645 178.54500000000002 C 90.05 173.8, 82.9 174.45, 76.53 176.79"></path><path stroke="Black" stroke-width="1.071936807572228" fill="None" d="M100.645 184.915 C 89.4 181.6, 85.5 181.6, 78.025 183.225"></path><path stroke="Black" stroke-width="1.071936807572228" fill="None" d="M100.645 193.10500000000002 C 90.05 188.75, 84.85 188.75, 77.63499999999999 190.635"></path><path stroke="Black" stroke-width="1.071936807572228" fill="None" d="M102.335 199.475 C 88.1 195.9, 82.9 195.9, 76.27000000000001 197.07"></path><path stroke="Black" stroke-width="1.071936807572228" fill="None" d="M58.785 165.675 C 56.12 165.87, 54.82 165.87, 53.13 165.87"></path><path stroke="Black" stroke-width="1.071936807572228" fill="None" d="M58.785 165.675 C 56.120000000000005 161.57999999999998, 52.870000000000005 158.32999999999998, 48.32 155.21"></path><path stroke="Black" stroke-width="1.071936807572228" fill="None" d="M48.32 155.21 C 46.695 157.745, 50.14 162.1, 53.13 165.87"></path><path stroke="Black" stroke-width="1.071936807572228" fill="None" d="M49.879999999999995 166.78 C 47.800000000000004 167.3, 45.2 167.95, 43.964999999999996 168.275"></path><path stroke="Black" stroke-width="1.071936807572228" fill="None" d="M49.879999999999995 166.78 C 46.175 160.475, 45.199999999999996 159.5, 42.795 157.35500000000002"></path><path stroke="Black" stroke-width="1.071936807572228" fill="None" d="M42.795 157.35500000000002 C 42.925 162.425, 43.12 165.48, 43.964999999999996 168.275"></path><path stroke="Black" stroke-width="1.2747548783981961" fill="None" d="M78.74000000000001 254.92000000000002 C 131.65 236.2, 136.46 227.1, 159.86 164.05"></path><path stroke="Black" stroke-width="1.2747548783981961" fill="None" d="M165.84 196.68 C 162.72 175.10000000000002, 164.54 161.57999999999998, 170 140"></path><path stroke="Black" stroke-width="1.2747548783981961" fill="None" d="M137.5 237.5 C 144.78 221.64, 152.84 211.24, 165.84 196.68"></path><path stroke="Black" stroke-width="1.2747548783981961" fill="None" d="M170 270 C 155.7 255.7, 147.25 247.25, 137.5 237.5"></path><path stroke="Black" stroke-width="1.2747548783981961" fill="None" d="M137.5 302.5 C 150.5 289.5, 158.3 281.7, 170 270"></path><path stroke="Black" stroke-width="1.2747548783981961" fill="None" d="M137.5 302.5 C 121.64 295.22, 111.24 287.16, 96.68 274.15999999999997"></path><path stroke="Black" stroke-width="1.2747548783981961" fill="None" d="M96.68 274.15999999999997 C 123.85 262.85, 127.1 259.6, 137.5 237.5"></path><path stroke="Black" stroke-width="1.2747548783981961" fill="None" d="M96.68 274.15999999999997 C 75.10000000000001 277.28, 61.58 275.46, 40 270"></path><path stroke="Black" stroke-width="1.2747548783981961" fill="None" d="M40 270 C 48.06 256.48, 53.91 248.81, 66.25999999999999 239.57999999999998"></path><path stroke="Black" stroke-width="1.2747548783981961" fill="None" d="M66.25999999999999 239.57999999999998 C 85.5 222.16, 99.8 239.84, 120.99000000000001 220.99"></path><path stroke="Black" stroke-width="1.2747548783981961" fill="None" d="M120.99000000000001 220.99 C 124.5 218, 131 211.5, 137.5 205"></path><path stroke="Black" stroke-width="1.2747548783981961" fill="None" d="M137.5 205 C 141.79 193.43, 142.96 184.2, 143.74 170.42000000000002"></path><path stroke="Black" stroke-width="1.2747548783981961" fill="None" d="M143.74 170.42000000000002 C 156.09 161.19, 161.94 153.51999999999998, 170 140"></path><path stroke="Black" stroke-width="1.2747548783981961" fill="None" d="M66.25999999999999 239.57999999999998 C 67.03999999999999 225.8, 68.21 216.57, 72.5 205"></path><path stroke="Black" stroke-width="1.2747548783981961" fill="None" d="M72.5 205 C 88.75 205, 95.25 205, 105 205"></path><path stroke="Black" stroke-width="1.2747548783981961" fill="None" d="M105 205 C 110.19999999999999 210.2, 116.7 216.7, 120.99000000000001 220.99"></path><path stroke="Black" stroke-width="1.2747548783981961" fill="None" d="M77.7 229.05 C 74.84 220.86, 75.62 214.62, 80.04 206.69"></path><path stroke="Black" stroke-width="1.2747548783981961" fill="None" d="M91.35000000000001 225.8 C 86.53999999999999 218, 85.89 213.45, 88.62 206.43"></path><path stroke="Black" stroke-width="1.2747548783981961" fill="None" d="M104.74 224.76 C 96.68 218, 96.16000000000001 215.14, 96.81 206.43"></path><path stroke="Black" stroke-width="1.2747548783981961" fill="None" d="M115.66 211.37 C 118 209.55, 119.94999999999999 207.6, 120.47 206.3"></path><path stroke="Black" stroke-width="1.2747548783981961" fill="None" d="M119.56 215.27 C 124.5 212.8, 126.44999999999999 210.85, 127.75 206.04"></path><path stroke="Black" stroke-width="1.2747548783981961" fill="None" d="M139.19 292.1 C 123.85 286.25, 117.35 278.45, 113.32 269.74"></path><path stroke="Black" stroke-width="1.2747548783981961" fill="None" d="M145.56 285.73 C 131 277.8, 127.1 273.9, 121.25 264.8"></path><path stroke="Black" stroke-width="1.2747548783981961" fill="None" d="M153.75 277.54 C 138.8 271.3, 133.6 266.1, 128.26999999999998 257"></path><path stroke="Black" stroke-width="1.2747548783981961" fill="None" d="M161.81 272.86 C 144 262.2, 138.8 257, 133.34 249.2"></path><path stroke="Black" stroke-width="1.2747548783981961" fill="None" d="M84.46 263.11 C 81.99 260.25, 80.69 258.95, 79 257.26"></path><path stroke="Black" stroke-width="1.2747548783981961" fill="None" d="M84.46 263.11 C 77.7 264.54, 71.2 264.54, 63.53 263.11"></path><path stroke="Black" stroke-width="1.2747548783981961" fill="None" d="M63.53 263.11 C 64.44 258.95, 72.24 258.04, 79 257.26"></path><path stroke="Black" stroke-width="1.2747548783981961" fill="None" d="M76.66 253.1 C 75.10000000000001 250.5, 73.15 247.25, 72.24 245.69"></path><path stroke="Black" stroke-width="1.2747548783981961" fill="None" d="M76.66 253.1 C 66.64999999999999 255.7, 64.69999999999999 255.7, 60.150000000000006 255.44"></path><path stroke="Black" stroke-width="1.2747548783981961" fill="None" d="M60.150000000000006 255.44 C 65.35 250.5, 68.6 247.64, 72.24 245.69"></path><path stroke="Black" stroke-width="1.071936807572228" fill="None" d="M288.17 243.09 C 271.075 207.275, 273.22 200.32, 293.045 157.095"></path><path stroke="Black" stroke-width="1.071936807572228" fill="None" d="M273.74 170.42000000000002 C 286.09 161.19, 291.94 153.51999999999998, 300 140"></path><path stroke="Black" stroke-width="1.071936807572228" fill="None" d="M267.5 205 C 271.79 193.43, 272.96 184.2, 273.74 170.42000000000002"></path><path stroke="Black" stroke-width="1.071936807572228" fill="None" d="M235 205 C 249.3 205, 257.75 205, 267.5 205"></path><path stroke="Black" stroke-width="1.071936807572228" fill="None" d="M235 237.5 C 235 224.5, 235 216.7, 235 205"></path><path stroke="Black" stroke-width="1.071936807572228" fill="None" d="M235 237.5 C 246.57 241.79, 255.8 242.96, 269.58 243.74"></path><path stroke="Black" stroke-width="1.071936807572228" fill="None" d="M269.58 243.74 C 261.65 224.5, 261.65 221.25, 267.5 205"></path><path stroke="Black" stroke-width="1.071936807572228" fill="None" d="M269.58 243.74 C 278.81 256.09, 286.48 261.94, 300 270"></path><path stroke="Black" stroke-width="1.071936807572228" fill="None" d="M300 270 C 302.73 259.21, 303.64 252.45, 302.08000000000004 241.66"></path><path stroke="Black" stroke-width="1.071936807572228" fill="None" d="M302.08000000000004 241.66 C 301.17 223.32999999999998, 285.18 225.02, 284.01 205"></path><path stroke="Black" stroke-width="1.071936807572228" fill="None" d="M284.01 205 C 283.75 201.75, 283.75 195.25, 283.75 188.75"></path><path stroke="Black" stroke-width="1.071936807572228" fill="None" d="M283.75 188.75 C 287.39 180.82, 291.42 175.62, 297.92 168.34"></path><path stroke="Black" stroke-width="1.071936807572228" fill="None" d="M297.92 168.34 C 296.36 157.55, 297.27 150.79, 300 140"></path><path stroke="Black" stroke-width="1.071936807572228" fill="None" d="M302.08000000000004 241.66 C 308.58000000000004 234.38, 312.61 229.18, 316.25 221.25"></path><path stroke="Black" stroke-width="1.071936807572228" fill="None" d="M316.25 221.25 C 308.125 213.125, 304.875 209.875, 300 205"></path><path stroke="Black" stroke-width="1.071936807572228" fill="None" d="M300 205 C 294.8 205, 288.3 205, 284.01 205"></path><path stroke="Black" stroke-width="1.071936807572228" fill="None" d="M301.625 230.675 C 307.15 228.01, 309.88 224.5, 311.635 218.325"></path><path stroke="Black" stroke-width="1.071936807572228" fill="None" d="M296.425 222.225 C 302.73 220.73000000000002, 305.33 218.78, 307.475 213.905"></path><path stroke="Black" stroke-width="1.071936807572228" fill="None" d="M290.25 215.01 C 297.65999999999997 215.66, 299.35 214.49, 303.38 209.81"></path><path stroke="Black" stroke-width="1.071936807572228" fill="None" d="M291.485 202.855 C 291.225 200.775, 291.225 198.825, 291.615 197.91500000000002"></path><path stroke="Black" stroke-width="1.071936807572228" fill="None" d="M287.585 202.85500000000002 C 286.35 199.15, 286.35 197.2, 288.105 194.14499999999998"></path><path stroke="Black" stroke-width="1.071936807572228" fill="None" d="M239.355 231.45499999999998 C 249.95 236.2, 257.1 235.55, 263.47 233.21"></path><path stroke="Black" stroke-width="1.071936807572228" fill="None" d="M239.355 225.085 C 250.6 228.4, 254.5 228.4, 261.975 226.775"></path><path stroke="Black" stroke-width="1.071936807572228" fill="None" d="M239.355 216.89499999999998 C 249.95 221.25, 255.15 221.25, 262.365 219.365"></path><path stroke="Black" stroke-width="1.071936807572228" fill="None" d="M237.665 210.525 C 251.9 214.1, 257.1 214.1, 263.73 212.93"></path><path stroke="Black" stroke-width="1.071936807572228" fill="None" d="M281.21500000000003 244.325 C 283.88 244.13, 285.18 244.13, 286.87 244.13"></path><path stroke="Black" stroke-width="1.071936807572228" fill="None" d="M281.21500000000003 244.325 C 283.88 248.42000000000002, 287.13 251.67000000000002, 291.68 254.79"></path><path stroke="Black" stroke-width="1.071936807572228" fill="None" d="M291.68 254.79 C 293.305 252.255, 289.86 247.9, 286.87 244.13"></path><path stroke="Black" stroke-width="1.071936807572228" fill="None" d="M290.12 243.22 C 292.2 242.7, 294.8 242.05, 296.035 241.725"></path><path stroke="Black" stroke-width="1.071936807572228" fill="None" d="M290.12 243.22 C 293.825 249.525, 294.8 250.5, 297.205 252.64499999999998"></path><path stroke="Black" stroke-width="1.071936807572228" fill="None" d="M297.205 252.64499999999998 C 297.075 247.575, 296.88 244.52, 296.035 241.725"></path><path stroke="Black" stroke-width="1.071936807572228" fill="None" d="M273.09 151.83 C 237.275 168.925, 230.32 166.78, 187.095 146.955"></path><path stroke="Black" stroke-width="1.071936807572228" fill="None" d="M200.42000000000002 166.26 C 191.19 153.91, 183.51999999999998 148.06, 170 140"></path><path stroke="Black" stroke-width="1.071936807572228" fill="None" d="M235 172.5 C 223.43 168.21, 214.2 167.04, 200.42000000000002 166.26"></path><path stroke="Black" stroke-width="1.071936807572228" fill="None" d="M235 205 C 235 190.7, 235 182.25, 235 172.5"></path><path stroke="Black" stroke-width="1.071936807572228" fill="None" d="M267.5 205 C 254.5 205, 246.7 205, 235 205"></path><path stroke="Black" stroke-width="1.071936807572228" fill="None" d="M267.5 205 C 271.79 193.43, 272.96 184.2, 273.74 170.42000000000002"></path><path stroke="Black" stroke-width="1.071936807572228" fill="None" d="M273.74 170.42000000000002 C 254.5 178.35, 251.25 178.35, 235 172.5"></path><path stroke="Black" stroke-width="1.071936807572228" fill="None" d="M273.74 170.42000000000002 C 286.09 161.19, 291.94 153.51999999999998, 300 140"></path><path stroke="Black" stroke-width="1.071936807572228" fill="None" d="M300 140 C 289.21 137.26999999999998, 282.45 136.36, 271.66 137.92"></path><path stroke="Black" stroke-width="1.071936807572228" fill="None" d="M271.66 137.92 C 253.33 138.82999999999998, 255.02 154.82, 235 155.99"></path><path stroke="Black" stroke-width="1.071936807572228" fill="None" d="M235 155.99 C 231.75 156.25, 225.25 156.25, 218.75 156.25"></path><path stroke="Black" stroke-width="1.071936807572228" fill="None" d="M218.75 156.25 C 210.82 152.61, 205.62 148.57999999999998, 198.34 142.07999999999998"></path><path stroke="Black" stroke-width="1.071936807572228" fill="None" d="M198.34 142.07999999999998 C 187.55 143.64, 180.79 142.73, 170 140"></path><path stroke="Black" stroke-width="1.071936807572228" fill="None" d="M271.66 137.92 C 264.38 131.42, 259.18 127.38999999999999, 251.25 123.75"></path><path stroke="Black" stroke-width="1.071936807572228" fill="None" d="M251.25 123.75 C 243.125 131.875, 239.875 135.125, 235 140"></path><path stroke="Black" stroke-width="1.071936807572228" fill="None" d="M235 140 C 235 145.2, 235 151.7, 235 155.99"></path><path stroke="Black" stroke-width="1.071936807572228" fill="None" d="M260.675 138.375 C 258.01 132.85, 254.5 130.12, 248.325 128.365"></path><path stroke="Black" stroke-width="1.071936807572228" fill="None" d="M252.225 143.575 C 250.73000000000002 137.26999999999998, 248.78 134.67000000000002, 243.905 132.525"></path><path stroke="Black" stroke-width="1.071936807572228" fill="None" d="M245.01 149.75 C 245.66 142.34, 244.49 140.65, 239.81 136.62"></path><path stroke="Black" stroke-width="1.071936807572228" fill="None" d="M232.855 148.515 C 230.775 148.775, 228.825 148.775, 227.915 148.385"></path><path stroke="Black" stroke-width="1.071936807572228" fill="None" d="M232.85500000000002 152.415 C 229.15 153.65, 227.2 153.65, 224.145 151.89499999999998"></path><path stroke="Black" stroke-width="1.071936807572228" fill="None" d="M261.455 200.64499999999998 C 266.2 190.05, 265.55 182.9, 263.21 176.53"></path><path stroke="Black" stroke-width="1.071936807572228" fill="None" d="M255.085 200.64499999999998 C 258.4 189.4, 258.4 185.5, 256.775 178.025"></path><path stroke="Black" stroke-width="1.071936807572228" fill="None" d="M246.895 200.64499999999998 C 251.25 190.05, 251.25 184.85, 249.365 177.635"></path><path stroke="Black" stroke-width="1.071936807572228" fill="None" d="M240.525 202.33499999999998 C 244.1 188.1, 244.1 182.9, 242.93 176.27"></path><path stroke="Black" stroke-width="1.071936807572228" fill="None" d="M274.325 158.785 C 274.13 156.12, 274.13 154.82, 274.13 153.13"></path><path stroke="Black" stroke-width="1.071936807572228" fill="None" d="M274.325 158.785 C 278.42 156.12, 281.67 152.87, 284.79 148.32"></path><path stroke="Black" stroke-width="1.071936807572228" fill="None" d="M284.79 148.32 C 282.255 146.695, 277.9 150.14, 274.13 153.13"></path><path stroke="Black" stroke-width="1.071936807572228" fill="None" d="M273.22 149.88 C 272.7 147.8, 272.05 145.2, 271.725 143.965"></path><path stroke="Black" stroke-width="1.071936807572228" fill="None" d="M273.22 149.88 C 279.525 146.175, 280.5 145.2, 282.645 142.79500000000002"></path><path stroke="Black" stroke-width="1.071936807572228" fill="None" d="M282.645 142.79500000000002 C 277.575 142.925, 274.52 143.12, 271.725 143.965"></path><path stroke="Black" stroke-width="1.2747548783981961" fill="None" d="M185.08 178.74 C 203.8 231.65, 212.9 236.46, 275.95 259.86"></path><path stroke="Black" stroke-width="1.2747548783981961" fill="None" d="M243.32 265.84000000000003 C 264.9 262.72, 278.42 264.54, 300 270"></path><path stroke="Black" stroke-width="1.2747548783981961" fill="None" d="M202.5 237.5 C 218.36 244.78, 228.76 252.84, 243.32 265.84000000000003"></path><path stroke="Black" stroke-width="1.2747548783981961" fill="None" d="M170 270 C 184.3 255.7, 192.75 247.25, 202.5 237.5"></path><path stroke="Black" stroke-width="1.2747548783981961" fill="None" d="M137.5 237.5 C 150.5 250.5, 158.3 258.3, 170 270"></path><path stroke="Black" stroke-width="1.2747548783981961" fill="None" d="M137.5 237.5 C 144.78 221.64, 152.84 211.24, 165.84 196.68"></path><path stroke="Black" stroke-width="1.2747548783981961" fill="None" d="M165.84 196.68 C 177.15 223.85, 180.4 227.1, 202.5 237.5"></path><path stroke="Black" stroke-width="1.2747548783981961" fill="None" d="M165.84 196.68 C 162.72 175.10000000000002, 164.54 161.57999999999998, 170 140"></path><path stroke="Black" stroke-width="1.2747548783981961" fill="None" d="M170 140 C 183.52 148.06, 191.19 153.91, 200.42000000000002 166.26"></path><path stroke="Black" stroke-width="1.2747548783981961" fill="None" d="M200.42000000000002 166.26 C 217.84 185.5, 200.16 199.8, 219.01 220.99"></path><path stroke="Black" stroke-width="1.2747548783981961" fill="None" d="M219.01 220.99 C 222 224.5, 228.5 231, 235 237.5"></path><path stroke="Black" stroke-width="1.2747548783981961" fill="None" d="M235 237.5 C 246.57 241.79, 255.8 242.96, 269.58 243.74"></path><path stroke="Black" stroke-width="1.2747548783981961" fill="None" d="M269.58 243.74 C 278.81 256.09000000000003, 286.48 261.94, 300 270"></path><path stroke="Black" stroke-width="1.2747548783981961" fill="None" d="M200.42000000000002 166.26 C 214.2 167.04, 223.43 168.20999999999998, 235 172.5"></path><path stroke="Black" stroke-width="1.2747548783981961" fill="None" d="M235 172.5 C 235 188.75, 235 195.25, 235 205"></path><path stroke="Black" stroke-width="1.2747548783981961" fill="None" d="M235 205 C 229.8 210.2, 223.3 216.7, 219.01 220.99"></path><path stroke="Black" stroke-width="1.2747548783981961" fill="None" d="M210.95 177.7 C 219.14 174.84, 225.38 175.62, 233.31 180.04000000000002"></path><path stroke="Black" stroke-width="1.2747548783981961" fill="None" d="M214.2 191.35000000000002 C 222 186.54, 226.55 185.89, 233.57 188.62"></path><path stroke="Black" stroke-width="1.2747548783981961" fill="None" d="M215.24 204.74 C 222 196.68, 224.86 196.16000000000003, 233.57 196.81"></path><path stroke="Black" stroke-width="1.2747548783981961" fill="None" d="M228.63 215.66 C 230.45 218, 232.4 219.95, 233.7 220.47"></path><path stroke="Black" stroke-width="1.2747548783981961" fill="None" d="M224.73 219.56 C 227.2 224.5, 229.15 226.45, 233.96 227.75"></path><path stroke="Black" stroke-width="1.2747548783981961" fill="None" d="M147.9 239.19 C 153.75 223.85, 161.55 217.35, 170.26 213.32"></path><path stroke="Black" stroke-width="1.2747548783981961" fill="None" d="M154.27 245.56 C 162.2 231, 166.1 227.1, 175.2 221.25"></path><path stroke="Black" stroke-width="1.2747548783981961" fill="None" d="M162.46 253.75 C 168.7 238.8, 173.9 233.6, 183 228.26999999999998"></path><path stroke="Black" stroke-width="1.2747548783981961" fill="None" d="M167.14 261.81 C 177.8 244, 183 238.8, 190.8 233.34"></path><path stroke="Black" stroke-width="1.2747548783981961" fill="None" d="M176.89 184.45999999999998 C 179.75 181.99, 181.05 180.69, 182.74 179"></path><path stroke="Black" stroke-width="1.2747548783981961" fill="None" d="M176.89 184.45999999999998 C 175.46 177.7, 175.46 171.2, 176.89 163.53"></path><path stroke="Black" stroke-width="1.2747548783981961" fill="None" d="M176.89 163.53 C 181.05 164.44, 181.96 172.24, 182.74 179"></path><path stroke="Black" stroke-width="1.2747548783981961" fill="None" d="M186.9 176.66 C 189.5 175.10000000000002, 192.75 173.15, 194.31 172.24"></path><path stroke="Black" stroke-width="1.2747548783981961" fill="None" d="M186.9 176.66 C 184.3 166.64999999999998, 184.3 164.7, 184.56 160.15"></path><path stroke="Black" stroke-width="1.2747548783981961" fill="None" d="M184.56 160.15 C 189.5 165.35, 192.36 168.6, 194.31 172.24"></path><polyline stroke="red" stroke-width="1" fill="None" points="40,140 170,140 170,10 40,10 40,140"></polyline><polyline stroke="red" stroke-width="1" fill="None" points="170,140 300,140 300,10 170,10 170,140"></polyline><polyline stroke="red" stroke-width="1" fill="None" points="40,270 170,270 170,140 40,140 40,270"></polyline><polyline stroke="red" stroke-width="1" fill="None" points="170,270 300,270 300,140 170,140 170,270"></polyline></svg>