<svg version="1.1" xmlns="http://www.w3.org/2000/svg" viewBox="-20 20 400 380" x="-3px" y="0px" width="403" height="383" style="background-color:white"><path stroke="Black" stroke-width="1.2613446228805718" fill="None" d="M243.62 262.74 C 219.95 213.15, 222.92000000000002 203.51999999999998, 250.37 143.67000000000002"></path><path stroke="Black" stroke-width="1.2613446228805718" fill="None" d="M223.64 162.12 C 240.74 149.34, 248.84 138.72, 260 120"></path><path stroke="Black" stroke-width="1.2613446228805718" fill="None" d="M215 210 C 220.94 193.98000000000002, 222.56 181.2, 223.64 162.12"></path><path stroke="Black" stroke-width="1.2613446228805718" fill="None" d="M170 210 C 189.8 210, 201.5 210, 215 210"></path><path stroke="Black" stroke-width="1.2613446228805718" fill="None" d="M170 255 C 170 237, 170 226.2, 170 210"></path><path stroke="Black" stroke-width="1.2613446228805718" fill="None" d="M170 255 C 186.01999999999998 260.94, 198.8 262.56, 217.88 263.64"></path><path stroke="Black" stroke-width="1.2613446228805718" fill="None" d="M217.88 263.64 C 206.9 237, 206.9 232.5, 215 210"></path><path stroke="Black" stroke-width="1.2613446228805718" fill="None" d="M217.88 263.64 C 230.66 280.74, 241.28 288.84000000000003, 260 300"></path><path stroke="Black" stroke-width="1.2613446228805718" fill="None" d="M260 300 C 263.78 285.06, 265.04 275.7, 262.88 260.76"></path><path stroke="Black" stroke-width="1.2613446228805718" fill="None" d="M262.88 260.76 C 261.62 235.38, 239.48000000000002 237.72, 237.86 210"></path><path stroke="Black" stroke-width="1.2613446228805718" fill="None" d="M237.86 210 C 237.5 205.5, 237.5 196.5, 237.5 187.5"></path><path stroke="Black" stroke-width="1.2613446228805718" fill="None" d="M237.5 187.5 C 242.54 176.52, 248.12 169.32, 257.12 159.24"></path><path stroke="Black" stroke-width="1.2613446228805718" fill="None" d="M257.12 159.24 C 254.95999999999998 144.3, 256.22 134.94, 260 120"></path><path stroke="Black" stroke-width="1.2613446228805718" fill="None" d="M262.88 260.76 C 271.88 250.68, 277.46 243.48000000000002, 282.5 232.5"></path><path stroke="Black" stroke-width="1.2613446228805718" fill="None" d="M282.5 232.5 C 271.25 221.25, 266.75 216.75, 260 210"></path><path stroke="Black" stroke-width="1.2613446228805718" fill="None" d="M260 210 C 252.8 210, 243.8 210, 237.86 210"></path><path stroke="Black" stroke-width="1.2613446228805718" fill="None" d="M262.25 245.55 C 269.9 241.85999999999999, 273.68 237, 276.11 228.45"></path><path stroke="Black" stroke-width="1.2613446228805718" fill="None" d="M255.05 233.85 C 263.78 231.78, 267.38 229.08, 270.35 222.33"></path><path stroke="Black" stroke-width="1.2613446228805718" fill="None" d="M246.5 223.86 C 256.76 224.76, 259.1 223.14, 264.68 216.66"></path><path stroke="Black" stroke-width="1.2613446228805718" fill="None" d="M248.21 207.03 C 247.85 204.15, 247.85 201.45, 248.39 200.19"></path><path stroke="Black" stroke-width="1.2613446228805718" fill="None" d="M242.81 207.03 C 241.1 201.9, 241.10000000000002 199.2, 243.53 194.97"></path><path stroke="Black" stroke-width="1.2613446228805718" fill="None" d="M176.03 246.63 C 190.7 253.2, 200.6 252.3, 209.42000000000002 249.06"></path><path stroke="Black" stroke-width="1.2613446228805718" fill="None" d="M176.03 237.81 C 191.6 242.4, 197 242.4, 207.35 240.15"></path><path stroke="Black" stroke-width="1.2613446228805718" fill="None" d="M176.03 226.47 C 190.7 232.5, 197.9 232.5, 207.89 229.89"></path><path stroke="Black" stroke-width="1.2613446228805718" fill="None" d="M173.69 217.65 C 193.4 222.6, 200.6 222.6, 209.78 220.98"></path><path stroke="Black" stroke-width="1.2613446228805718" fill="None" d="M233.99 264.45 C 237.68 264.18, 239.48000000000002 264.18, 241.82 264.18"></path><path stroke="Black" stroke-width="1.2613446228805718" fill="None" d="M233.99 264.45 C 237.68 270.12, 242.18 274.62, 248.48 278.94"></path><path stroke="Black" stroke-width="1.2613446228805718" fill="None" d="M248.48 278.94 C 250.73000000000002 275.43, 245.96 269.4, 241.82 264.18"></path><path stroke="Black" stroke-width="1.2613446228805718" fill="None" d="M246.32 262.92 C 249.2 262.2, 252.8 261.3, 254.51 260.85"></path><path stroke="Black" stroke-width="1.2613446228805718" fill="None" d="M246.32 262.92 C 251.45 271.65, 252.8 273, 256.13 275.97"></path><path stroke="Black" stroke-width="1.2613446228805718" fill="None" d="M256.13 275.97 C 255.95 268.95, 255.68 264.72, 254.51 260.85"></path><path stroke="Black" stroke-width="1.2613446228805718" fill="None" d="M117.26 283.62 C 166.85 259.95, 176.48000000000002 262.92, 236.32999999999998 290.37"></path><path stroke="Black" stroke-width="1.2613446228805718" fill="None" d="M217.88 263.64 C 230.66 280.74, 241.28 288.84000000000003, 260 300"></path><path stroke="Black" stroke-width="1.2613446228805718" fill="None" d="M170 255 C 186.01999999999998 260.94, 198.8 262.56, 217.88 263.64"></path><path stroke="Black" stroke-width="1.2613446228805718" fill="None" d="M170 210 C 170 229.8, 170 241.5, 170 255"></path><path stroke="Black" stroke-width="1.2613446228805718" fill="None" d="M125 210 C 143 210, 153.8 210, 170 210"></path><path stroke="Black" stroke-width="1.2613446228805718" fill="None" d="M125 210 C 119.06 226.01999999999998, 117.44 238.8, 116.36 257.88"></path><path stroke="Black" stroke-width="1.2613446228805718" fill="None" d="M116.36 257.88 C 143 246.9, 147.5 246.9, 170 255"></path><path stroke="Black" stroke-width="1.2613446228805718" fill="None" d="M116.36 257.88 C 99.25999999999999 270.65999999999997, 91.16 281.28, 80 300"></path><path stroke="Black" stroke-width="1.2613446228805718" fill="None" d="M80 300 C 94.94 303.78, 104.3 305.04, 119.24 302.88"></path><path stroke="Black" stroke-width="1.2613446228805718" fill="None" d="M119.24 302.88 C 144.62 301.62, 142.28 279.48, 170 277.86"></path><path stroke="Black" stroke-width="1.2613446228805718" fill="None" d="M170 277.86 C 174.5 277.5, 183.5 277.5, 192.5 277.5"></path><path stroke="Black" stroke-width="1.2613446228805718" fill="None" d="M192.5 277.5 C 203.48 282.53999999999996, 210.68 288.12, 220.76 297.12"></path><path stroke="Black" stroke-width="1.2613446228805718" fill="None" d="M220.76 297.12 C 235.7 294.96, 245.06 296.22, 260 300"></path><path stroke="Black" stroke-width="1.2613446228805718" fill="None" d="M119.24 302.88 C 129.32 311.88, 136.51999999999998 317.46, 147.5 322.5"></path><path stroke="Black" stroke-width="1.2613446228805718" fill="None" d="M147.5 322.5 C 158.75 311.25, 163.25 306.75, 170 300"></path><path stroke="Black" stroke-width="1.2613446228805718" fill="None" d="M170 300 C 170 292.8, 170 283.8, 170 277.86"></path><path stroke="Black" stroke-width="1.2613446228805718" fill="None" d="M134.45 302.25 C 138.14000000000001 309.9, 143 313.68, 151.55 316.11"></path><path stroke="Black" stroke-width="1.2613446228805718" fill="None" d="M146.15 295.05 C 148.22 303.78, 150.92 307.38, 157.67 310.35"></path><path stroke="Black" stroke-width="1.2613446228805718" fill="None" d="M156.14 286.5 C 155.24 296.76, 156.86 299.1, 163.34 304.68"></path><path stroke="Black" stroke-width="1.2613446228805718" fill="None" d="M172.97 288.21000000000004 C 175.85 287.85, 178.55 287.85, 179.81 288.39"></path><path stroke="Black" stroke-width="1.2613446228805718" fill="None" d="M172.97 282.81 C 178.1 281.1, 180.8 281.1, 185.03 283.53"></path><path stroke="Black" stroke-width="1.2613446228805718" fill="None" d="M133.37 216.03 C 126.8 230.7, 127.69999999999999 240.6, 130.94 249.42000000000002"></path><path stroke="Black" stroke-width="1.2613446228805718" fill="None" d="M142.19 216.03 C 137.6 231.6, 137.6 237, 139.85 247.35"></path><path stroke="Black" stroke-width="1.2613446228805718" fill="None" d="M153.53 216.03 C 147.5 230.7, 147.5 237.9, 150.11 247.89"></path><path stroke="Black" stroke-width="1.2613446228805718" fill="None" d="M162.35 213.69 C 157.4 233.4, 157.4 240.6, 159.02 249.78"></path><path stroke="Black" stroke-width="1.2613446228805718" fill="None" d="M115.55 273.99 C 115.82 277.68, 115.82 279.48, 115.82000000000001 281.82"></path><path stroke="Black" stroke-width="1.2613446228805718" fill="None" d="M115.55 273.99 C 109.88 277.68, 105.38 282.18, 101.06 288.48"></path><path stroke="Black" stroke-width="1.2613446228805718" fill="None" d="M101.06 288.48 C 104.57000000000001 290.73, 110.6 285.96000000000004, 115.82000000000001 281.82"></path><path stroke="Black" stroke-width="1.2613446228805718" fill="None" d="M117.08 286.32 C 117.8 289.2, 118.7 292.8, 119.14999999999999 294.51"></path><path stroke="Black" stroke-width="1.2613446228805718" fill="None" d="M117.08 286.32 C 108.35 291.45, 107 292.8, 104.03 296.13"></path><path stroke="Black" stroke-width="1.2613446228805718" fill="None" d="M104.03 296.13 C 111.05 295.95, 115.28 295.68, 119.14999999999999 294.51"></path><path stroke="Black" stroke-width="1.2613446228805718" fill="None" d="M96.38000000000001 157.26 C 120.05 206.85, 117.08 216.48000000000002, 89.63000000000001 276.33"></path><path stroke="Black" stroke-width="1.2613446228805718" fill="None" d="M116.36 257.88 C 99.25999999999999 270.65999999999997, 91.16 281.28, 80 300"></path><path stroke="Black" stroke-width="1.2613446228805718" fill="None" d="M125 210 C 119.06 226.01999999999998, 117.44 238.8, 116.36 257.88"></path><path stroke="Black" stroke-width="1.2613446228805718" fill="None" d="M170 210 C 150.2 210, 138.5 210, 125 210"></path><path stroke="Black" stroke-width="1.2613446228805718" fill="None" d="M170 165 C 170 183, 170 193.8, 170 210"></path><path stroke="Black" stroke-width="1.2613446228805718" fill="None" d="M170 165 C 153.98000000000002 159.06, 141.2 157.44, 122.12 156.36"></path><path stroke="Black" stroke-width="1.2613446228805718" fill="None" d="M122.12 156.36 C 133.1 183, 133.1 187.5, 125 210"></path><path stroke="Black" stroke-width="1.2613446228805718" fill="None" d="M122.12 156.36 C 109.34 139.26, 98.72 131.16, 80 120"></path><path stroke="Black" stroke-width="1.2613446228805718" fill="None" d="M80 120 C 76.22 134.94, 74.96 144.3, 77.11999999999999 159.24"></path><path stroke="Black" stroke-width="1.2613446228805718" fill="None" d="M77.11999999999999 159.24 C 78.38 184.62, 100.52 182.28, 102.14 210"></path><path stroke="Black" stroke-width="1.2613446228805718" fill="None" d="M102.14 210 C 102.5 214.5, 102.5 223.5, 102.5 232.5"></path><path stroke="Black" stroke-width="1.2613446228805718" fill="None" d="M102.5 232.5 C 97.46000000000001 243.48, 91.88 250.68, 82.88 260.76"></path><path stroke="Black" stroke-width="1.2613446228805718" fill="None" d="M82.88 260.76 C 85.04 275.7, 83.78 285.06, 80 300"></path><path stroke="Black" stroke-width="1.2613446228805718" fill="None" d="M77.11999999999999 159.24 C 68.12 169.32, 62.540000000000006 176.51999999999998, 57.5 187.5"></path><path stroke="Black" stroke-width="1.2613446228805718" fill="None" d="M57.5 187.5 C 68.75 198.75, 73.25 203.25, 80 210"></path><path stroke="Black" stroke-width="1.2613446228805718" fill="None" d="M80 210 C 87.2 210, 96.2 210, 102.14 210"></path><path stroke="Black" stroke-width="1.2613446228805718" fill="None" d="M77.75 174.45 C 70.1 178.14000000000001, 66.32 183, 63.890000000000015 191.55"></path><path stroke="Black" stroke-width="1.2613446228805718" fill="None" d="M84.95 186.15 C 76.22 188.22, 72.62 190.92, 69.65 197.67"></path><path stroke="Black" stroke-width="1.2613446228805718" fill="None" d="M93.5 196.14 C 83.24000000000001 195.24, 80.9 196.86, 75.32000000000001 203.34"></path><path stroke="Black" stroke-width="1.2613446228805718" fill="None" d="M91.78999999999999 212.97 C 92.15 215.85, 92.15 218.55, 91.61 219.81"></path><path stroke="Black" stroke-width="1.2613446228805718" fill="None" d="M97.19 212.97 C 98.9 218.1, 98.89999999999999 220.8, 96.47 225.03"></path><path stroke="Black" stroke-width="1.2613446228805718" fill="None" d="M163.97 173.37 C 149.3 166.8, 139.4 167.7, 130.57999999999998 170.94"></path><path stroke="Black" stroke-width="1.2613446228805718" fill="None" d="M163.97 182.19 C 148.4 177.6, 143 177.6, 132.65 179.85"></path><path stroke="Black" stroke-width="1.2613446228805718" fill="None" d="M163.97 193.53 C 149.3 187.5, 142.1 187.5, 132.11 190.11"></path><path stroke="Black" stroke-width="1.2613446228805718" fill="None" d="M166.31 202.35 C 146.6 197.4, 139.4 197.4, 130.22 199.02"></path><path stroke="Black" stroke-width="1.2613446228805718" fill="None" d="M106.00999999999999 155.55 C 102.32 155.82, 100.52 155.82, 98.18 155.82"></path><path stroke="Black" stroke-width="1.2613446228805718" fill="None" d="M106.00999999999999 155.55 C 102.32000000000001 149.88, 97.82 145.38, 91.52000000000001 141.06"></path><path stroke="Black" stroke-width="1.2613446228805718" fill="None" d="M91.52000000000001 141.06 C 89.27 144.57, 94.03999999999999 150.6, 98.18 155.82"></path><path stroke="Black" stroke-width="1.2613446228805718" fill="None" d="M93.67999999999999 157.07999999999998 C 90.8 157.8, 87.2 158.7, 85.49 159.14999999999998"></path><path stroke="Black" stroke-width="1.2613446228805718" fill="None" d="M93.67999999999999 157.07999999999998 C 88.55 148.35, 87.19999999999999 147, 83.87 144.03"></path><path stroke="Black" stroke-width="1.2613446228805718" fill="None" d="M83.87 144.03 C 84.05 151.05, 84.32 155.28, 85.49 159.14999999999998"></path><path stroke="Black" stroke-width="1.2613446228805718" fill="None" d="M222.74 136.38 C 173.15 160.05, 163.51999999999998 157.07999999999998, 103.67 129.63"></path><path stroke="Black" stroke-width="1.2613446228805718" fill="None" d="M122.12 156.36 C 109.34 139.26, 98.72 131.16, 80 120"></path><path stroke="Black" stroke-width="1.2613446228805718" fill="None" d="M170 165 C 153.98000000000002 159.06, 141.2 157.44, 122.12 156.36"></path><path stroke="Black" stroke-width="1.2613446228805718" fill="None" d="M170 210 C 170 190.2, 170 178.5, 170 165"></path><path stroke="Black" stroke-width="1.2613446228805718" fill="None" d="M215 210 C 197 210, 186.2 210, 170 210"></path><path stroke="Black" stroke-width="1.2613446228805718" fill="None" d="M215 210 C 220.94 193.98000000000002, 222.56 181.2, 223.64 162.12"></path><path stroke="Black" stroke-width="1.2613446228805718" fill="None" d="M223.64 162.12 C 197 173.1, 192.5 173.1, 170 165"></path><path stroke="Black" stroke-width="1.2613446228805718" fill="None" d="M223.64 162.12 C 240.74 149.34, 248.84 138.72, 260 120"></path><path stroke="Black" stroke-width="1.2613446228805718" fill="None" d="M260 120 C 245.06 116.22000000000003, 235.7 114.95999999999998, 220.76 117.12"></path><path stroke="Black" stroke-width="1.2613446228805718" fill="None" d="M220.76 117.12 C 195.38 118.38, 197.72 140.51999999999998, 170 142.14"></path><path stroke="Black" stroke-width="1.2613446228805718" fill="None" d="M170 142.14 C 165.5 142.5, 156.5 142.5, 147.5 142.5"></path><path stroke="Black" stroke-width="1.2613446228805718" fill="None" d="M147.5 142.5 C 136.52 137.46, 129.32 131.88, 119.24000000000001 122.88"></path><path stroke="Black" stroke-width="1.2613446228805718" fill="None" d="M119.24000000000001 122.88 C 104.3 125.04000000000002, 94.94 123.77999999999997, 80 120"></path><path stroke="Black" stroke-width="1.2613446228805718" fill="None" d="M220.76 117.12 C 210.68 108.12, 203.48000000000002 102.54000000000002, 192.5 97.5"></path><path stroke="Black" stroke-width="1.2613446228805718" fill="None" d="M192.5 97.5 C 181.25 108.75, 176.75 113.25, 170 120"></path><path stroke="Black" stroke-width="1.2613446228805718" fill="None" d="M170 120 C 170 127.19999999999999, 170 136.2, 170 142.14"></path><path stroke="Black" stroke-width="1.2613446228805718" fill="None" d="M205.55 117.75 C 201.85999999999999 110.10000000000002, 197 106.32, 188.45 103.88999999999999"></path><path stroke="Black" stroke-width="1.2613446228805718" fill="None" d="M193.85 124.94999999999999 C 191.78 116.22000000000003, 189.08 112.62, 182.33 109.64999999999998"></path><path stroke="Black" stroke-width="1.2613446228805718" fill="None" d="M183.86 133.5 C 184.76 123.24000000000001, 183.14 120.89999999999998, 176.66 115.32"></path><path stroke="Black" stroke-width="1.2613446228805718" fill="None" d="M167.03 131.79 C 164.15 132.15, 161.45 132.15, 160.19 131.61"></path><path stroke="Black" stroke-width="1.2613446228805718" fill="None" d="M167.03 137.19 C 161.9 138.9, 159.2 138.89999999999998, 154.97 136.47"></path><path stroke="Black" stroke-width="1.2613446228805718" fill="None" d="M206.63 203.97 C 213.2 189.3, 212.3 179.4, 209.06 170.57999999999998"></path><path stroke="Black" stroke-width="1.2613446228805718" fill="None" d="M197.81 203.97 C 202.4 188.4, 202.4 183, 200.15 172.65"></path><path stroke="Black" stroke-width="1.2613446228805718" fill="None" d="M186.47 203.97 C 192.5 189.3, 192.5 182.1, 189.89 172.11"></path><path stroke="Black" stroke-width="1.2613446228805718" fill="None" d="M177.65 206.31 C 182.6 186.6, 182.6 179.4, 180.98 170.22"></path><path stroke="Black" stroke-width="1.2613446228805718" fill="None" d="M224.45 146.01 C 224.18 142.32, 224.18 140.51999999999998, 224.18 138.18"></path><path stroke="Black" stroke-width="1.2613446228805718" fill="None" d="M224.45 146.01 C 230.12 142.32, 234.62 137.82, 238.94 131.52"></path><path stroke="Black" stroke-width="1.2613446228805718" fill="None" d="M238.94 131.52 C 235.43 129.26999999999998, 229.4 134.04, 224.18 138.18"></path><path stroke="Black" stroke-width="1.2613446228805718" fill="None" d="M222.92000000000002 133.68 C 222.2 130.8, 221.3 127.19999999999999, 220.85000000000002 125.49000000000001"></path><path stroke="Black" stroke-width="1.2613446228805718" fill="None" d="M222.92000000000002 133.68 C 231.65 128.55, 233 127.19999999999999, 235.97 123.87"></path><path stroke="Black" stroke-width="1.2613446228805718" fill="None" d="M235.97 123.87 C 228.95 124.05000000000001, 224.72 124.32, 220.85000000000002 125.49000000000001"></path><polyline stroke="Grey" stroke-width="1" stroke-dasharray="2,2" fill="None" points="170,210 260,120 170,30 80,120 170,210"></polyline><polyline stroke="Grey" stroke-width="1" stroke-dasharray="2,2" fill="None" points="170,210 80,120 -10,210 80,300 170,210"></polyline><polyline stroke="Grey" stroke-width="1" stroke-dasharray="2,2" fill="None" points="170,210 80,300 170,390 260,300 170,210"></polyline><polyline stroke="Grey" stroke-width="1" stroke-dasharray="2,2" fill="None" points="170,210 260,300 350,210 260,120 170,210"></polyline></svg>