<svg version="1.1" xmlns="http://www.w3.org/2000/svg" viewBox="55 -70 300 320" x="-3px" y="0px" width="373" height="323" style="background-color:white"><path stroke="Black" stroke-width="1.3295739742362471" fill="None" d="M261.79999999999995 198.6 C 235.5 143.5, 238.8 132.8, 269.3 66.30000000000001"></path><path stroke="Black" stroke-width="1.3295739742362471" fill="None" d="M239.6 86.80000000000001 C 258.6 72.6, 267.6 60.80000000000001, 280 40"></path><path stroke="Black" stroke-width="1.3295739742362471" fill="None" d="M230 140 C 236.60000000000002 122.19999999999999, 238.4 108, 239.6 86.80000000000001"></path><path stroke="Black" stroke-width="1.3295739742362471" fill="None" d="M180 140 C 202 140, 215 140, 230 140"></path><path stroke="Black" stroke-width="1.3295739742362471" fill="None" d="M180 190 C 180 170, 180 158, 180 140"></path><path stroke="Black" stroke-width="1.3295739742362471" fill="None" d="M180 190 C 197.8 196.60000000000002, 212 198.4, 233.2 199.6"></path><path stroke="Black" stroke-width="1.3295739742362471" fill="None" d="M233.2 199.6 C 221 170, 221 165, 230 140"></path><path stroke="Black" stroke-width="1.3295739742362471" fill="None" d="M233.2 199.6 C 247.4 218.6, 259.2 227.6, 280 240"></path><path stroke="Black" stroke-width="1.3295739742362471" fill="None" d="M280 240 C 284.2 223.39999999999998, 285.6 213, 283.20000000000005 196.4"></path><path stroke="Black" stroke-width="1.3295739742362471" fill="None" d="M283.20000000000005 196.4 C 281.8 168.2, 257.2 170.8, 255.4 140"></path><path stroke="Black" stroke-width="1.3295739742362471" fill="None" d="M255.4 140 C 255 135, 255 125, 255 115"></path><path stroke="Black" stroke-width="1.3295739742362471" fill="None" d="M255 115 C 260.6 102.80000000000001, 266.8 94.80000000000001, 276.8 83.60000000000002"></path><path stroke="Black" stroke-width="1.3295739742362471" fill="None" d="M276.8 83.60000000000002 C 274.4 67, 275.8 56.60000000000002, 280 40"></path><path stroke="Black" stroke-width="1.3295739742362471" fill="None" d="M283.20000000000005 196.4 C 293.2 185.2, 299.4 177.2, 305 165"></path><path stroke="Black" stroke-width="1.3295739742362471" fill="None" d="M305 165 C 292.5 152.5, 287.5 147.5, 280 140"></path><path stroke="Black" stroke-width="1.3295739742362471" fill="None" d="M280 140 C 272 140, 262 140, 255.4 140"></path><path stroke="Black" stroke-width="1.3295739742362471" fill="None" d="M282.5 179.5 C 291 175.4, 295.2 170, 297.9 160.5"></path><path stroke="Black" stroke-width="1.3295739742362471" fill="None" d="M274.5 166.5 C 284.2 164.2, 288.2 161.2, 291.5 153.7"></path><path stroke="Black" stroke-width="1.3295739742362471" fill="None" d="M265 155.4 C 276.4 156.39999999999998, 279 154.6, 285.2 147.4"></path><path stroke="Black" stroke-width="1.3295739742362471" fill="None" d="M266.9 136.7 C 266.5 133.5, 266.5 130.5, 267.1 129.1"></path><path stroke="Black" stroke-width="1.3295739742362471" fill="None" d="M260.9 136.7 C 259 131, 259 128, 261.7 123.30000000000001"></path><path stroke="Black" stroke-width="1.3295739742362471" fill="None" d="M186.7 180.7 C 203 188, 214 187, 223.8 183.4"></path><path stroke="Black" stroke-width="1.3295739742362471" fill="None" d="M186.7 170.9 C 204 176, 210 176, 221.5 173.5"></path><path stroke="Black" stroke-width="1.3295739742362471" fill="None" d="M186.7 158.3 C 203 165, 211 165, 222.1 162.1"></path><path stroke="Black" stroke-width="1.3295739742362471" fill="None" d="M184.1 148.5 C 206 154, 214 154, 224.2 152.2"></path><path stroke="Black" stroke-width="1.3295739742362471" fill="None" d="M251.1 200.5 C 255.2 200.2, 257.2 200.2, 259.8 200.2"></path><path stroke="Black" stroke-width="1.3295739742362471" fill="None" d="M251.1 200.5 C 255.2 206.8, 260.2 211.8, 267.2 216.6"></path><path stroke="Black" stroke-width="1.3295739742362471" fill="None" d="M267.2 216.6 C 269.7 212.7, 264.4 206, 259.8 200.2"></path><path stroke="Black" stroke-width="1.3295739742362471" fill="None" d="M264.8 198.8 C 268 198, 272 197, 273.9 196.5"></path><path stroke="Black" stroke-width="1.3295739742362471" fill="None" d="M264.8 198.8 C 270.5 208.5, 272 210, 275.7 213.3"></path><path stroke="Black" stroke-width="1.3295739742362471" fill="None" d="M275.7 213.3 C 275.5 205.5, 275.2 200.8, 273.9 196.5"></path><path stroke="Black" stroke-width="1.3295739742362471" fill="None" d="M238.6 58.200000000000045 C 183.5 84.5, 172.8 81.19999999999999, 106.3 50.69999999999999"></path><path stroke="Black" stroke-width="1.3295739742362471" fill="None" d="M126.80000000000001 80.4 C 112.6 61.39999999999998, 100.80000000000001 52.39999999999998, 80 40"></path><path stroke="Black" stroke-width="1.3295739742362471" fill="None" d="M180 90 C 162.2 83.39999999999998, 148 81.6, 126.80000000000001 80.4"></path><path stroke="Black" stroke-width="1.3295739742362471" fill="None" d="M180 140 C 180 118, 180 105, 180 90"></path><path stroke="Black" stroke-width="1.3295739742362471" fill="None" d="M230 140 C 210 140, 198 140, 180 140"></path><path stroke="Black" stroke-width="1.3295739742362471" fill="None" d="M230 140 C 236.60000000000002 122.19999999999999, 238.4 108, 239.6 86.80000000000001"></path><path stroke="Black" stroke-width="1.3295739742362471" fill="None" d="M239.6 86.80000000000001 C 210 99, 205 99, 180 90"></path><path stroke="Black" stroke-width="1.3295739742362471" fill="None" d="M239.6 86.80000000000001 C 258.6 72.6, 267.6 60.80000000000001, 280 40"></path><path stroke="Black" stroke-width="1.3295739742362471" fill="None" d="M280 40 C 263.4 35.80000000000001, 253 34.39999999999998, 236.4 36.799999999999955"></path><path stroke="Black" stroke-width="1.3295739742362471" fill="None" d="M236.4 36.799999999999955 C 208.2 38.19999999999999, 210.8 62.80000000000001, 180 64.6"></path><path stroke="Black" stroke-width="1.3295739742362471" fill="None" d="M180 64.6 C 175 65, 165 65, 155 65"></path><path stroke="Black" stroke-width="1.3295739742362471" fill="None" d="M155 65 C 142.8 59.39999999999998, 134.8 53.19999999999999, 123.60000000000001 43.19999999999999"></path><path stroke="Black" stroke-width="1.3295739742362471" fill="None" d="M123.60000000000001 43.19999999999999 C 107 45.60000000000002, 96.6 44.19999999999999, 80 40"></path><path stroke="Black" stroke-width="1.3295739742362471" fill="None" d="M236.4 36.799999999999955 C 225.2 26.80000000000001, 217.2 20.600000000000023, 205 15"></path><path stroke="Black" stroke-width="1.3295739742362471" fill="None" d="M205 15 C 192.5 27.5, 187.5 32.5, 180 40"></path><path stroke="Black" stroke-width="1.3295739742362471" fill="None" d="M180 40 C 180 48, 180 58, 180 64.6"></path><path stroke="Black" stroke-width="1.3295739742362471" fill="None" d="M219.5 37.5 C 215.4 29, 210 24.80000000000001, 200.5 22.100000000000023"></path><path stroke="Black" stroke-width="1.3295739742362471" fill="None" d="M206.5 45.5 C 204.2 35.80000000000001, 201.2 31.80000000000001, 193.7 28.5"></path><path stroke="Black" stroke-width="1.3295739742362471" fill="None" d="M195.4 55 C 196.39999999999998 43.60000000000002, 194.6 41, 187.4 34.80000000000001"></path><path stroke="Black" stroke-width="1.3295739742362471" fill="None" d="M176.7 53.10000000000002 C 173.5 53.5, 170.5 53.5, 169.1 52.89999999999998"></path><path stroke="Black" stroke-width="1.3295739742362471" fill="None" d="M176.7 59.10000000000002 C 171 61, 168 61, 163.3 58.30000000000001"></path><path stroke="Black" stroke-width="1.3295739742362471" fill="None" d="M220.7 133.3 C 228 117, 227 106, 223.4 96.19999999999999"></path><path stroke="Black" stroke-width="1.3295739742362471" fill="None" d="M210.9 133.3 C 216 116, 216 110, 213.5 98.5"></path><path stroke="Black" stroke-width="1.3295739742362471" fill="None" d="M198.3 133.3 C 205 117, 205 109, 202.1 97.9"></path><path stroke="Black" stroke-width="1.3295739742362471" fill="None" d="M188.5 135.9 C 194 114, 194 106, 192.2 95.80000000000001"></path><path stroke="Black" stroke-width="1.3295739742362471" fill="None" d="M240.5 68.9 C 240.2 64.80000000000001, 240.2 62.80000000000001, 240.2 60.19999999999999"></path><path stroke="Black" stroke-width="1.3295739742362471" fill="None" d="M240.5 68.9 C 246.8 64.80000000000001, 251.8 59.80000000000001, 256.6 52.80000000000001"></path><path stroke="Black" stroke-width="1.3295739742362471" fill="None" d="M256.6 52.80000000000001 C 252.7 50.30000000000001, 246 55.60000000000002, 240.2 60.19999999999999"></path><path stroke="Black" stroke-width="1.3295739742362471" fill="None" d="M238.8 55.19999999999999 C 238 52, 237 48, 236.5 46.10000000000002"></path><path stroke="Black" stroke-width="1.3295739742362471" fill="None" d="M238.8 55.19999999999999 C 248.5 49.5, 250 48, 253.3 44.30000000000001"></path><path stroke="Black" stroke-width="1.3295739742362471" fill="None" d="M253.3 44.30000000000001 C 245.5 44.5, 240.8 44.80000000000001, 236.5 46.10000000000002"></path><path stroke="Black" stroke-width="1.5811388300841898" fill="None" d="M103.2 99.60000000000002 C 132 181, 146 188.4, 243 224.4"></path><path stroke="Black" stroke-width="1.5811388300841898" fill="None" d="M192.79999999999998 233.6 C 226 228.8, 246.79999999999998 231.6, 280 240"></path><path stroke="Black" stroke-width="1.5811388300841898" fill="None" d="M130 190 C 154.4 201.2, 170.4 213.6, 192.79999999999998 233.6"></path><path stroke="Black" stroke-width="1.5811388300841898" fill="None" d="M80 240 C 102 218, 115 205, 130 190"></path><path stroke="Black" stroke-width="1.5811388300841898" fill="None" d="M30 190 C 50 210, 62 222, 80 240"></path><path stroke="Black" stroke-width="1.5811388300841898" fill="None" d="M30 190 C 41.199999999999996 165.6, 53.599999999999994 149.6, 73.6 127.20000000000002"></path><path stroke="Black" stroke-width="1.5811388300841898" fill="None" d="M73.6 127.20000000000002 C 91 169, 96 174, 130 190"></path><path stroke="Black" stroke-width="1.5811388300841898" fill="None" d="M73.6 127.20000000000002 C 68.8 94, 71.6 73.20000000000002, 80 40"></path><path stroke="Black" stroke-width="1.5811388300841898" fill="None" d="M80 40 C 100.8 52.39999999999998, 112.6 61.39999999999998, 126.80000000000001 80.39999999999998"></path><path stroke="Black" stroke-width="1.5811388300841898" fill="None" d="M126.80000000000001 80.39999999999998 C 153.6 110, 126.4 132, 155.4 164.6"></path><path stroke="Black" stroke-width="1.5811388300841898" fill="None" d="M155.4 164.6 C 160 170, 170 180, 180 190"></path><path stroke="Black" stroke-width="1.5811388300841898" fill="None" d="M180 190 C 197.8 196.6, 212 198.4, 233.2 199.6"></path><path stroke="Black" stroke-width="1.5811388300841898" fill="None" d="M233.2 199.6 C 247.4 218.6, 259.20000000000005 227.6, 280 240"></path><path stroke="Black" stroke-width="1.5811388300841898" fill="None" d="M126.80000000000001 80.39999999999998 C 148 81.6, 162.2 83.4, 180 90"></path><path stroke="Black" stroke-width="1.5811388300841898" fill="None" d="M180 90 C 180 115, 180 125, 180 140"></path><path stroke="Black" stroke-width="1.5811388300841898" fill="None" d="M180 140 C 172 148, 162 158, 155.4 164.6"></path><path stroke="Black" stroke-width="1.5811388300841898" fill="None" d="M143 98 C 155.6 93.6, 165.2 94.80000000000001, 177.39999999999998 101.60000000000002"></path><path stroke="Black" stroke-width="1.5811388300841898" fill="None" d="M148 119 C 160 111.6, 167 110.6, 177.8 114.80000000000001"></path><path stroke="Black" stroke-width="1.5811388300841898" fill="None" d="M149.6 139.6 C 160 127.20000000000002, 164.39999999999998 126.4, 177.8 127.4"></path><path stroke="Black" stroke-width="1.5811388300841898" fill="None" d="M170.2 156.4 C 173 160, 176 163, 178 163.8"></path><path stroke="Black" stroke-width="1.5811388300841898" fill="None" d="M164.2 162.39999999999998 C 168 170, 171 173, 178.4 175"></path><path stroke="Black" stroke-width="1.5811388300841898" fill="None" d="M46 192.6 C 55 169, 67 159, 80.4 152.8"></path><path stroke="Black" stroke-width="1.5811388300841898" fill="None" d="M55.8 202.4 C 68 180, 74 174, 88 165"></path><path stroke="Black" stroke-width="1.5811388300841898" fill="None" d="M68.4 215 C 78 192, 86 184, 100 175.8"></path><path stroke="Black" stroke-width="1.5811388300841898" fill="None" d="M75.6 227.4 C 92 200, 100 192, 112 183.60000000000002"></path><path stroke="Black" stroke-width="1.5811388300841898" fill="None" d="M90.6 108.4 C 95 104.6, 97 102.6, 99.6 100"></path><path stroke="Black" stroke-width="1.5811388300841898" fill="None" d="M90.6 108.4 C 88.4 98, 88.4 88, 90.6 76.20000000000002"></path><path stroke="Black" stroke-width="1.5811388300841898" fill="None" d="M90.6 76.20000000000002 C 97 77.6, 98.4 89.6, 99.6 100"></path><path stroke="Black" stroke-width="1.5811388300841898" fill="None" d="M106 96.4 C 110 94, 115 91, 117.4 89.6"></path><path stroke="Black" stroke-width="1.5811388300841898" fill="None" d="M106 96.4 C 102 81, 102 78, 102.4 71"></path><path stroke="Black" stroke-width="1.5811388300841898" fill="None" d="M102.4 71 C 110 79, 114.4 84, 117.4 89.6"></path><polyline stroke="Grey" stroke-width="1" stroke-dasharray="2,2" fill="None" points="80,240 280,240 280,40 80,40 80,240"></polyline><polyline stroke="Grey" stroke-width="1" stroke-dasharray="2,2" fill="None" points="180,140 280,40 180,-60 80,40 180,140"></polyline><polyline stroke="Grey" stroke-width="1" stroke-dasharray="2,2" fill="None" points="180,140 280,240 380,140 280,40 180,140"></polyline></svg>