<svg version="1.1" xmlns="http://www.w3.org/2000/svg" viewBox="30 -70 300 220" x="-3px" y="0px" width="323" height="223" style="background-color:white"><path stroke="Black" stroke-width="1.5811388300841898" fill="None" d="M103.2 -0.39999999999997726 C 132 81, 146 88.4, 243 124.4"></path><path stroke="Black" stroke-width="1.5811388300841898" fill="None" d="M192.79999999999998 133.6 C 226 128.8, 246.79999999999998 131.6, 280 140"></path><path stroke="Black" stroke-width="1.5811388300841898" fill="None" d="M130 90 C 154.4 101.19999999999999, 170.4 113.6, 192.79999999999998 133.6"></path><path stroke="Black" stroke-width="1.5811388300841898" fill="None" d="M80 140 C 102 118, 115 105, 130 90"></path><path stroke="Black" stroke-width="1.5811388300841898" fill="None" d="M30 90 C 50 110, 62 122, 80 140"></path><path stroke="Black" stroke-width="1.5811388300841898" fill="None" d="M30 90 C 41.199999999999996 65.6, 53.599999999999994 49.599999999999994, 73.6 27.200000000000017"></path><path stroke="Black" stroke-width="1.5811388300841898" fill="None" d="M73.6 27.200000000000017 C 91 69, 96 74, 130 90"></path><path stroke="Black" stroke-width="1.5811388300841898" fill="None" d="M73.6 27.200000000000017 C 68.8 -6, 71.6 -26.799999999999983, 80 -60"></path><path stroke="Black" stroke-width="1.5811388300841898" fill="None" d="M80 -60 C 100.8 -47.60000000000002, 112.6 -38.60000000000002, 126.80000000000001 -19.600000000000023"></path><path stroke="Black" stroke-width="1.5811388300841898" fill="None" d="M126.80000000000001 -19.600000000000023 C 153.6 10, 126.4 32, 155.4 64.6"></path><path stroke="Black" stroke-width="1.5811388300841898" fill="None" d="M155.4 64.6 C 160 70, 170 80, 180 90"></path><path stroke="Black" stroke-width="1.5811388300841898" fill="None" d="M180 90 C 197.8 96.6, 212 98.4, 233.2 99.6"></path><path stroke="Black" stroke-width="1.5811388300841898" fill="None" d="M233.2 99.6 C 247.4 118.6, 259.20000000000005 127.6, 280 140"></path><path stroke="Black" stroke-width="1.5811388300841898" fill="None" d="M126.80000000000001 -19.600000000000023 C 148 -18.400000000000006, 162.2 -16.599999999999994, 180 -10"></path><path stroke="Black" stroke-width="1.5811388300841898" fill="None" d="M180 -10 C 180 15, 180 25, 180 40"></path><path stroke="Black" stroke-width="1.5811388300841898" fill="None" d="M180 40 C 172 48, 162 58, 155.4 64.6"></path><path stroke="Black" stroke-width="1.5811388300841898" fill="None" d="M143 -2 C 155.6 -6.400000000000006, 165.2 -5.199999999999989, 177.39999999999998 1.6000000000000227"></path><path stroke="Black" stroke-width="1.5811388300841898" fill="None" d="M148 19 C 160 11.599999999999994, 167 10.599999999999994, 177.8 14.800000000000011"></path><path stroke="Black" stroke-width="1.5811388300841898" fill="None" d="M149.6 39.599999999999994 C 160 27.200000000000017, 164.39999999999998 26.400000000000006, 177.8 27.400000000000006"></path><path stroke="Black" stroke-width="1.5811388300841898" fill="None" d="M170.2 56.400000000000006 C 173 60, 176 63, 178 63.80000000000001"></path><path stroke="Black" stroke-width="1.5811388300841898" fill="None" d="M164.2 62.39999999999998 C 168 70, 171 73, 178.4 75"></path><path stroke="Black" stroke-width="1.5811388300841898" fill="None" d="M46 92.6 C 55 69, 67 59, 80.4 52.80000000000001"></path><path stroke="Black" stroke-width="1.5811388300841898" fill="None" d="M55.8 102.4 C 68 80, 74 74, 88 65"></path><path stroke="Black" stroke-width="1.5811388300841898" fill="None" d="M68.4 115 C 78 92, 86 84, 100 75.80000000000001"></path><path stroke="Black" stroke-width="1.5811388300841898" fill="None" d="M75.6 127.4 C 92 100, 100 92, 112 83.60000000000002"></path><path stroke="Black" stroke-width="1.5811388300841898" fill="None" d="M90.6 8.400000000000006 C 95 4.599999999999994, 97 2.5999999999999943, 99.6 0"></path><path stroke="Black" stroke-width="1.5811388300841898" fill="None" d="M90.6 8.400000000000006 C 88.4 -2, 88.4 -12, 90.6 -23.799999999999983"></path><path stroke="Black" stroke-width="1.5811388300841898" fill="None" d="M90.6 -23.799999999999983 C 97 -22.400000000000006, 98.4 -10.400000000000006, 99.6 0"></path><path stroke="Black" stroke-width="1.5811388300841898" fill="None" d="M106 -3.5999999999999943 C 110 -6, 115 -9, 117.4 -10.400000000000006"></path><path stroke="Black" stroke-width="1.5811388300841898" fill="None" d="M106 -3.5999999999999943 C 102 -19, 102 -22, 102.4 -29"></path><path stroke="Black" stroke-width="1.5811388300841898" fill="None" d="M102.4 -29 C 110 -21, 114.4 -16, 117.4 -10.400000000000006"></path><path stroke="Black" stroke-width="1.5811388300841898" fill="None" d="M256.8 80.39999999999998 C 228 -1, 214 -8.400000000000006, 117 -44.39999999999998"></path><path stroke="Black" stroke-width="1.5811388300841898" fill="None" d="M167.20000000000002 -53.60000000000002 C 134 -48.80000000000001, 113.20000000000002 -51.60000000000002, 80 -60"></path><path stroke="Black" stroke-width="1.5811388300841898" fill="None" d="M230 -10 C 205.6 -21.19999999999999, 189.6 -33.599999999999994, 167.20000000000002 -53.60000000000002"></path><path stroke="Black" stroke-width="1.5811388300841898" fill="None" d="M280 -60 C 258 -38, 245 -25, 230 -10"></path><path stroke="Black" stroke-width="1.5811388300841898" fill="None" d="M330 -10 C 310 -30, 298 -42, 280 -60"></path><path stroke="Black" stroke-width="1.5811388300841898" fill="None" d="M330 -10 C 318.8 14.400000000000006, 306.4 30.400000000000006, 286.4 52.79999999999998"></path><path stroke="Black" stroke-width="1.5811388300841898" fill="None" d="M286.4 52.79999999999998 C 269 11, 264 6, 230 -10"></path><path stroke="Black" stroke-width="1.5811388300841898" fill="None" d="M286.4 52.79999999999998 C 291.2 86, 288.4 106.79999999999998, 280 140"></path><path stroke="Black" stroke-width="1.5811388300841898" fill="None" d="M280 140 C 259.2 127.6, 247.4 118.6, 233.2 99.60000000000002"></path><path stroke="Black" stroke-width="1.5811388300841898" fill="None" d="M233.2 99.60000000000002 C 206.4 70, 233.6 48, 204.6 15.400000000000006"></path><path stroke="Black" stroke-width="1.5811388300841898" fill="None" d="M204.6 15.400000000000006 C 200 10, 190 0, 180 -10"></path><path stroke="Black" stroke-width="1.5811388300841898" fill="None" d="M180 -10 C 162.2 -16.599999999999994, 148 -18.400000000000006, 126.80000000000001 -19.599999999999994"></path><path stroke="Black" stroke-width="1.5811388300841898" fill="None" d="M126.80000000000001 -19.599999999999994 C 112.6 -38.60000000000002, 100.79999999999998 -47.60000000000002, 80 -60"></path><path stroke="Black" stroke-width="1.5811388300841898" fill="None" d="M233.2 99.60000000000002 C 212 98.4, 197.8 96.6, 180 90"></path><path stroke="Black" stroke-width="1.5811388300841898" fill="None" d="M180 90 C 180 65, 180 55, 180 40"></path><path stroke="Black" stroke-width="1.5811388300841898" fill="None" d="M180 40 C 188 32, 198 22, 204.6 15.400000000000006"></path><path stroke="Black" stroke-width="1.5811388300841898" fill="None" d="M217 82 C 204.4 86.4, 194.8 85.19999999999999, 182.60000000000002 78.39999999999998"></path><path stroke="Black" stroke-width="1.5811388300841898" fill="None" d="M212 61 C 200 68.4, 193 69.4, 182.2 65.19999999999999"></path><path stroke="Black" stroke-width="1.5811388300841898" fill="None" d="M210.4 40.400000000000006 C 200 52.79999999999998, 195.60000000000002 53.599999999999994, 182.2 52.599999999999994"></path><path stroke="Black" stroke-width="1.5811388300841898" fill="None" d="M189.8 23.599999999999994 C 187 20, 184 17, 182 16.19999999999999"></path><path stroke="Black" stroke-width="1.5811388300841898" fill="None" d="M195.8 17.600000000000023 C 192 10, 189 7, 181.6 5"></path><path stroke="Black" stroke-width="1.5811388300841898" fill="None" d="M314 -12.599999999999994 C 305 11, 293 21, 279.6 27.19999999999999"></path><path stroke="Black" stroke-width="1.5811388300841898" fill="None" d="M304.2 -22.400000000000006 C 292 0, 286 6, 272 15"></path><path stroke="Black" stroke-width="1.5811388300841898" fill="None" d="M291.6 -35 C 282 -12, 274 -4, 260 4.199999999999989"></path><path stroke="Black" stroke-width="1.5811388300841898" fill="None" d="M284.4 -47.39999999999998 C 268 -20, 260 -12, 248 -3.6000000000000227"></path><path stroke="Black" stroke-width="1.5811388300841898" fill="None" d="M269.4 71.6 C 265 75.4, 263 77.4, 260.4 80"></path><path stroke="Black" stroke-width="1.5811388300841898" fill="None" d="M269.4 71.6 C 271.6 82, 271.6 92, 269.4 103.79999999999998"></path><path stroke="Black" stroke-width="1.5811388300841898" fill="None" d="M269.4 103.79999999999998 C 263 102.4, 261.6 90.4, 260.4 80"></path><path stroke="Black" stroke-width="1.5811388300841898" fill="None" d="M254 83.6 C 250 86, 245 89, 242.6 90.4"></path><path stroke="Black" stroke-width="1.5811388300841898" fill="None" d="M254 83.6 C 258 99, 258 102, 257.6 109"></path><path stroke="Black" stroke-width="1.5811388300841898" fill="None" d="M257.6 109 C 250 101, 245.6 96, 242.6 90.4"></path><polyline stroke="Grey" stroke-width="1" stroke-dasharray="2,2" fill="None" points="80,140 280,140 280,-60 80,-60 80,140"></polyline></svg>