<svg version="1.1" xmlns="http://www.w3.org/2000/svg" viewBox="20 -55 300 200" x="-3px" y="0px" width="303" height="228" style="background-color:white"><path stroke="Black" stroke-width="1.5811388300841898" fill="None" d="M103.2 4.600000000000023 C 132 86, 146 93.4, 243 129.4"></path><path stroke="Black" stroke-width="1.5811388300841898" fill="None" d="M192.79999999999998 138.6 C 226 133.8, 246.79999999999998 136.6, 280 145"></path><path stroke="Black" stroke-width="1.5811388300841898" fill="None" d="M130 95 C 154.4 106.19999999999999, 170.4 118.6, 192.79999999999998 138.6"></path><path stroke="Black" stroke-width="1.5811388300841898" fill="None" d="M80 145 C 102 123, 115 110, 130 95"></path><path stroke="Black" stroke-width="1.5811388300841898" fill="None" d="M30 95 C 50 115, 62 127, 80 145"></path><path stroke="Black" stroke-width="1.5811388300841898" fill="None" d="M30 95 C 41.199999999999996 70.6, 53.599999999999994 54.599999999999994, 73.6 32.20000000000002"></path><path stroke="Black" stroke-width="1.5811388300841898" fill="None" d="M73.6 32.20000000000002 C 91 74, 96 79, 130 95"></path><path stroke="Black" stroke-width="1.5811388300841898" fill="None" d="M73.6 32.20000000000002 C 68.8 -1, 71.6 -21.799999999999983, 80 -55"></path><path stroke="Black" stroke-width="1.5811388300841898" fill="None" d="M80 -55 C 100.8 -42.60000000000002, 112.6 -33.60000000000002, 126.80000000000001 -14.600000000000023"></path><path stroke="Black" stroke-width="1.5811388300841898" fill="None" d="M126.80000000000001 -14.600000000000023 C 153.6 15, 126.4 37, 155.4 69.6"></path><path stroke="Black" stroke-width="1.5811388300841898" fill="None" d="M155.4 69.6 C 160 75, 170 85, 180 95"></path><path stroke="Black" stroke-width="1.5811388300841898" fill="None" d="M180 95 C 197.8 101.6, 212 103.4, 233.2 104.6"></path><path stroke="Black" stroke-width="1.5811388300841898" fill="None" d="M233.2 104.6 C 247.4 123.6, 259.20000000000005 132.6, 280 145"></path><path stroke="Black" stroke-width="1.5811388300841898" fill="None" d="M126.80000000000001 -14.600000000000023 C 148 -13.400000000000006, 162.2 -11.599999999999994, 180 -5"></path><path stroke="Black" stroke-width="1.5811388300841898" fill="None" d="M180 -5 C 180 20, 180 30, 180 45"></path><path stroke="Black" stroke-width="1.5811388300841898" fill="None" d="M180 45 C 172 53, 162 63, 155.4 69.6"></path><path stroke="Black" stroke-width="1.5811388300841898" fill="None" d="M143 3 C 155.6 -1.4000000000000057, 165.2 -0.19999999999998863, 177.39999999999998 6.600000000000023"></path><path stroke="Black" stroke-width="1.5811388300841898" fill="None" d="M148 24 C 160 16.599999999999994, 167 15.599999999999994, 177.8 19.80000000000001"></path><path stroke="Black" stroke-width="1.5811388300841898" fill="None" d="M149.6 44.599999999999994 C 160 32.20000000000002, 164.39999999999998 31.400000000000006, 177.8 32.400000000000006"></path><path stroke="Black" stroke-width="1.5811388300841898" fill="None" d="M170.2 61.400000000000006 C 173 65, 176 68, 178 68.80000000000001"></path><path stroke="Black" stroke-width="1.5811388300841898" fill="None" d="M164.2 67.39999999999998 C 168 75, 171 78, 178.4 80"></path><path stroke="Black" stroke-width="1.5811388300841898" fill="None" d="M46 97.6 C 55 74, 67 64, 80.4 57.80000000000001"></path><path stroke="Black" stroke-width="1.5811388300841898" fill="None" d="M55.8 107.4 C 68 85, 74 79, 88 70"></path><path stroke="Black" stroke-width="1.5811388300841898" fill="None" d="M68.4 120 C 78 97, 86 89, 100 80.80000000000001"></path><path stroke="Black" stroke-width="1.5811388300841898" fill="None" d="M75.6 132.4 C 92 105, 100 97, 112 88.60000000000002"></path><path stroke="Black" stroke-width="1.5811388300841898" fill="None" d="M90.6 13.400000000000006 C 95 9.599999999999994, 97 7.599999999999994, 99.6 5"></path><path stroke="Black" stroke-width="1.5811388300841898" fill="None" d="M90.6 13.400000000000006 C 88.4 3, 88.4 -7, 90.6 -18.799999999999983"></path><path stroke="Black" stroke-width="1.5811388300841898" fill="None" d="M90.6 -18.799999999999983 C 97 -17.400000000000006, 98.4 -5.400000000000006, 99.6 5"></path><path stroke="Black" stroke-width="1.5811388300841898" fill="None" d="M106 1.4000000000000057 C 110 -1, 115 -4, 117.4 -5.400000000000006"></path><path stroke="Black" stroke-width="1.5811388300841898" fill="None" d="M106 1.4000000000000057 C 102 -14, 102 -17, 102.4 -24"></path><path stroke="Black" stroke-width="1.5811388300841898" fill="None" d="M102.4 -24 C 110 -16, 114.4 -11, 117.4 -5.400000000000006"></path><polyline stroke="Grey" stroke-width="1" stroke-dasharray="2,2" fill="None" points="80,145 280,145 280,-55 80,-55 80,145"></polyline></svg>