<svg version="1.1" xmlns="http://www.w3.org/2000/svg" viewBox="40 -155 300 200" x="-3px" y="0px" width="303" height="228" style="background-color:white"><path stroke="Black" stroke-width="1.3295739742362471" fill="None" d="M238.6 -36.799999999999955 C 183.5 -10.5, 172.8 -13.800000000000011, 106.3 -44.30000000000001"></path><path stroke="Black" stroke-width="1.3295739742362471" fill="None" d="M126.80000000000001 -14.599999999999994 C 112.6 -33.60000000000002, 100.80000000000001 -42.60000000000002, 80 -55"></path><path stroke="Black" stroke-width="1.3295739742362471" fill="None" d="M180 -5 C 162.2 -11.600000000000023, 148 -13.400000000000006, 126.80000000000001 -14.599999999999994"></path><path stroke="Black" stroke-width="1.3295739742362471" fill="None" d="M180 45 C 180 23, 180 10, 180 -5"></path><path stroke="Black" stroke-width="1.3295739742362471" fill="None" d="M230 45 C 210 45, 198 45, 180 45"></path><path stroke="Black" stroke-width="1.3295739742362471" fill="None" d="M230 45 C 236.60000000000002 27.19999999999999, 238.4 13, 239.6 -8.199999999999989"></path><path stroke="Black" stroke-width="1.3295739742362471" fill="None" d="M239.6 -8.199999999999989 C 210 4, 205 4, 180 -5"></path><path stroke="Black" stroke-width="1.3295739742362471" fill="None" d="M239.6 -8.199999999999989 C 258.6 -22.400000000000006, 267.6 -34.19999999999999, 280 -55"></path><path stroke="Black" stroke-width="1.3295739742362471" fill="None" d="M280 -55 C 263.4 -59.19999999999999, 253 -60.60000000000002, 236.4 -58.200000000000045"></path><path stroke="Black" stroke-width="1.3295739742362471" fill="None" d="M236.4 -58.200000000000045 C 208.2 -56.80000000000001, 210.8 -32.19999999999999, 180 -30.400000000000006"></path><path stroke="Black" stroke-width="1.3295739742362471" fill="None" d="M180 -30.400000000000006 C 175 -30, 165 -30, 155 -30"></path><path stroke="Black" stroke-width="1.3295739742362471" fill="None" d="M155 -30 C 142.8 -35.60000000000002, 134.8 -41.80000000000001, 123.60000000000001 -51.80000000000001"></path><path stroke="Black" stroke-width="1.3295739742362471" fill="None" d="M123.60000000000001 -51.80000000000001 C 107 -49.39999999999998, 96.6 -50.80000000000001, 80 -55"></path><path stroke="Black" stroke-width="1.3295739742362471" fill="None" d="M236.4 -58.200000000000045 C 225.2 -68.19999999999999, 217.2 -74.39999999999998, 205 -80"></path><path stroke="Black" stroke-width="1.3295739742362471" fill="None" d="M205 -80 C 192.5 -67.5, 187.5 -62.5, 180 -55"></path><path stroke="Black" stroke-width="1.3295739742362471" fill="None" d="M180 -55 C 180 -47, 180 -37, 180 -30.400000000000006"></path><path stroke="Black" stroke-width="1.3295739742362471" fill="None" d="M219.5 -57.5 C 215.4 -66, 210 -70.19999999999999, 200.5 -72.89999999999998"></path><path stroke="Black" stroke-width="1.3295739742362471" fill="None" d="M206.5 -49.5 C 204.2 -59.19999999999999, 201.2 -63.19999999999999, 193.7 -66.5"></path><path stroke="Black" stroke-width="1.3295739742362471" fill="None" d="M195.4 -40 C 196.39999999999998 -51.39999999999998, 194.6 -54, 187.4 -60.19999999999999"></path><path stroke="Black" stroke-width="1.3295739742362471" fill="None" d="M176.7 -41.89999999999998 C 173.5 -41.5, 170.5 -41.5, 169.1 -42.10000000000002"></path><path stroke="Black" stroke-width="1.3295739742362471" fill="None" d="M176.7 -35.89999999999998 C 171 -34, 168 -34, 163.3 -36.69999999999999"></path><path stroke="Black" stroke-width="1.3295739742362471" fill="None" d="M220.7 38.30000000000001 C 228 22, 227 11, 223.4 1.1999999999999886"></path><path stroke="Black" stroke-width="1.3295739742362471" fill="None" d="M210.9 38.30000000000001 C 216 21, 216 15, 213.5 3.5"></path><path stroke="Black" stroke-width="1.3295739742362471" fill="None" d="M198.3 38.30000000000001 C 205 22, 205 14, 202.1 2.9000000000000057"></path><path stroke="Black" stroke-width="1.3295739742362471" fill="None" d="M188.5 40.900000000000006 C 194 19, 194 11, 192.2 0.8000000000000114"></path><path stroke="Black" stroke-width="1.3295739742362471" fill="None" d="M240.5 -26.099999999999994 C 240.2 -30.19999999999999, 240.2 -32.19999999999999, 240.2 -34.80000000000001"></path><path stroke="Black" stroke-width="1.3295739742362471" fill="None" d="M240.5 -26.099999999999994 C 246.8 -30.19999999999999, 251.8 -35.19999999999999, 256.6 -42.19999999999999"></path><path stroke="Black" stroke-width="1.3295739742362471" fill="None" d="M256.6 -42.19999999999999 C 252.7 -44.69999999999999, 246 -39.39999999999998, 240.2 -34.80000000000001"></path><path stroke="Black" stroke-width="1.3295739742362471" fill="None" d="M238.8 -39.80000000000001 C 238 -43, 237 -47, 236.5 -48.89999999999998"></path><path stroke="Black" stroke-width="1.3295739742362471" fill="None" d="M238.8 -39.80000000000001 C 248.5 -45.5, 250 -47, 253.3 -50.69999999999999"></path><path stroke="Black" stroke-width="1.3295739742362471" fill="None" d="M253.3 -50.69999999999999 C 245.5 -50.5, 240.8 -50.19999999999999, 236.5 -48.89999999999998"></path><polyline stroke="Grey" stroke-width="1" stroke-dasharray="2,2" fill="None" points="180,45 80,-55 180,-155 280,-55 180,45"></polyline></svg>