<svg version="1.1" xmlns="http://www.w3.org/2000/svg" viewBox="0 0 300 300" x="-3px" y="0px" width="303" height="303" style="background-color:white"><polygon stroke="Black" stroke-width="1.0801234497346432" fill="None" points="38,84.66666666666666 47.333333333333336,84.66666666666666 47.333333333333336,61.333333333333314 66,61.333333333333314 66,84.66666666666666 75.33333333333333,84.66666666666666 75.33333333333333,28.66666666666663 66,28.66666666666663 66,51.99999999999997 47.333333333333336,51.99999999999997 47.333333333333336,28.66666666666663 38,28.66666666666663"></polygon><polygon stroke="Black" stroke-width="1.0801234497346435" fill="None" points="131.33333333333334,84.66666666666666 168.66666666666669,84.66666666666666 168.66666666666669,75.33333333333331 140.66666666666666,75.33333333333331 140.66666666666666,61.333333333333314 159.33333333333334,61.333333333333314 159.33333333333334,51.99999999999997 140.66666666666666,51.99999999999997 140.66666666666666,38 168.66666666666669,38 168.66666666666669,28.66666666666663 131.33333333333334,28.66666666666663"></polygon><polygon stroke="Black" stroke-width="1.0801234497346435" fill="None" points="224.66666666666669,84.66666666666666 234.00000000000003,84.66666666666666 234.00000000000003,47.333333333333314 252.66666666666669,84.66666666666666 262,84.66666666666666 262,28.66666666666663 252.66666666666669,28.66666666666663 252.66666666666669,65.99999999999997 234.00000000000003,28.66666666666663 224.66666666666669,28.66666666666663"></polygon><polygon stroke="Black" stroke-width="1.0801234497346435" fill="None" points="38,178 61.333333333333336,178 75.33333333333333,164 75.33333333333333,136 61.333333333333336,122 38,122"></polygon><polygon stroke="Black" stroke-width="1.0801234497346435" fill="None" points="47.333333333333336,168.66666666666666 58.53333333333333,168.66666666666666 66,161.2 66,138.79999999999998 58.53333333333333,131.33333333333331 47.333333333333336,131.33333333333331"></polygon><polygon stroke="Black" stroke-width="1.0801234497346435" fill="None" points="131.33333333333334,178 168.66666666666669,178 168.66666666666669,168.66666666666666 140.66666666666666,168.66666666666666 140.66666666666666,154.66666666666666 159.33333333333334,154.66666666666666 159.33333333333334,145.33333333333331 140.66666666666666,145.33333333333331 140.66666666666666,131.33333333333331 168.66666666666669,131.33333333333331 168.66666666666669,122 131.33333333333334,122"></polygon><polygon stroke="Black" stroke-width="1.0801234497346435" fill="None" points="224.66666666666669,178 234.00000000000003,178 234.00000000000003,154.66666666666666 238.66666666666669,154.66666666666666 252.66666666666669,178 262,178 248.00000000000003,154.66666666666666 262,154.66666666666666 262,122 224.66666666666669,122"></polygon><polygon stroke="Black" stroke-width="1.0801234497346435" fill="None" points="234.00000000000003,145.33333333333331 252.66666666666669,145.33333333333331 252.66666666666669,131.33333333333331 234.00000000000003,131.33333333333331"></polygon><polygon stroke="Black" stroke-width="1.0801234497346435" fill="None" points="38,271.3333333333333 75.33333333333333,271.3333333333333 75.33333333333333,238.66666666666666 47.333333333333336,238.66666666666666 47.333333333333336,224.66666666666666 75.33333333333333,224.66666666666666 75.33333333333333,215.33333333333331 38,215.33333333333331 38,248 66,248 66,262 38,262"></polygon><polygon stroke="Black" stroke-width="1.0801234497346435" fill="None" points="131.33333333333334,271.3333333333333 168.66666666666669,271.3333333333333 168.66666666666669,215.33333333333331 131.33333333333334,215.33333333333331"></polygon><polygon stroke="Black" stroke-width="1.0801234497346435" fill="None" points="140.66666666666666,262 159.33333333333334,262 159.33333333333334,224.66666666666666 140.66666666666666,224.66666666666666"></polygon><polygon stroke="Black" stroke-width="1.0801234497346435" fill="None" points="224.66666666666669,271.3333333333333 234.00000000000003,271.3333333333333 234.00000000000003,234 252.66666666666669,271.3333333333333 262,271.3333333333333 262,215.33333333333331 252.66666666666669,215.33333333333331 252.66666666666669,252.66666666666666 234.00000000000003,215.33333333333331 224.66666666666669,215.33333333333331"></polygon><polyline stroke="Grey" stroke-width="1" stroke-dasharray="2,2" fill="None" points="10,290 103.33333333333333,290 103.33333333333333,196.66666666666669 10,196.66666666666669 10,290"></polyline><polyline stroke="Grey" stroke-width="1" stroke-dasharray="2,2" fill="None" points="10,196.66666666666669 103.33333333333333,196.66666666666669 103.33333333333333,103.33333333333334 10,103.33333333333334 10,196.66666666666669"></polyline><polyline stroke="Grey" stroke-width="1" stroke-dasharray="2,2" fill="None" points="10,103.33333333333334 103.33333333333333,103.33333333333334 103.33333333333333,10 10,10 10,103.33333333333334"></polyline><polyline stroke="Grey" stroke-width="1" stroke-dasharray="2,2" fill="None" points="103.33333333333333,290 196.66666666666666,290 196.66666666666666,196.66666666666669 103.33333333333333,196.66666666666669 103.33333333333333,290"></polyline><polyline stroke="Grey" stroke-width="1" stroke-dasharray="2,2" fill="None" points="103.33333333333333,196.66666666666669 196.66666666666666,196.66666666666669 196.66666666666666,103.33333333333334 103.33333333333333,103.33333333333334 103.33333333333333,196.66666666666669"></polyline><polyline stroke="Grey" stroke-width="1" stroke-dasharray="2,2" fill="None" points="103.33333333333333,103.33333333333334 196.66666666666666,103.33333333333334 196.66666666666666,10 103.33333333333333,10 103.33333333333333,103.33333333333334"></polyline><polyline stroke="Grey" stroke-width="1" stroke-dasharray="2,2" fill="None" points="196.66666666666666,290 290,290 290,196.66666666666669 196.66666666666666,196.66666666666669 196.66666666666666,290"></polyline><polyline stroke="Grey" stroke-width="1" stroke-dasharray="2,2" fill="None" points="196.66666666666666,196.66666666666669 290,196.66666666666669 290,103.33333333333334 196.66666666666666,103.33333333333334 196.66666666666666,196.66666666666669"></polyline><polyline stroke="Grey" stroke-width="1" stroke-dasharray="2,2" fill="None" points="196.66666666666666,103.33333333333334 290,103.33333333333334 290,10 196.66666666666666,10 196.66666666666666,103.33333333333334"></polyline></svg>