<svg version="1.1" xmlns="http://www.w3.org/2000/svg" viewBox="-3 0 403 403" x="-3px" y="0px" width="403" height="403" style="background-color:white"><defs><marker id="a-arrow" markerWidth="10" markerHeight="10" refX="9" refY="3" orient="auto" markerUnits="strokeWidth"><path d="M0,0 L0,6 L9,3 z" fill="#88499c"></path></marker><marker id="b-arrow" markerWidth="10" markerHeight="10" refX="9" refY="3" orient="auto" markerUnits="strokeWidth"><path d="M0,0 L0,6 L9,3 z" fill="#2381bf"></path></marker><marker id="c-arrow" markerWidth="10" markerHeight="10" refX="9" refY="3" orient="auto" markerUnits="strokeWidth"><path d="M0,0 L0,6 L9,3 z" fill="#27b15b"></path></marker><marker id="axis-arrow" markerWidth="10" markerHeight="10" refX="9" refY="3" orient="auto" markerUnits="strokeWidth"><path d="M0,0 L0,6 L9,3 z" fill="black"></path></marker><marker id="axis-arrow" markerWidth="10" markerHeight="10" refX="9" refY="3" orient="auto" markerUnits="strokeWidth"><path d="M0,0 L0,6 L9,3 z" fill="black"></path></marker></defs><polygon stroke="Black" stroke-width="1.5811388300841898" fill="None" points="220,280 200,280 200,230 160,230 160,210 200,210 200,180 140,180 140,160 220,160"></polygon><polyline stroke="Grey" stroke-width="1" stroke-dasharray="2,2" fill="None" points="280,320 80,320 80,120 280,120 280,320"></polyline><line x1="0" y1="400" x2="280" y2="320" stroke="#88499c" stroke-width="1.5" marker-end="url(#a-arrow)"></line><line x1="280" y1="320" x2="80" y2="320" stroke="#2381bf" stroke-width="1.5" marker-end="url(#b-arrow)"></line><line x1="280" y1="320" x2="280" y2="120" stroke="#27b15b" stroke-width="1.5" marker-end="url(#c-arrow)"></line><line x1="0" y1="400" x2="400" y2="400" stroke="black" stroke-width="1.0" marker-end="url(#axis-arrow)"></line><line x1="0" y1="400" x2="0" y2="0" stroke="black" stroke-width="1.0" marker-end="url(#axis-arrow)"></line><line x1="40" y1="403" x2="40" y2="397" stroke="black" stroke-width="1.0"></line><line x1="80" y1="403" x2="80" y2="397" stroke="black" stroke-width="1.0"></line><line x1="120" y1="403" x2="120" y2="397" stroke="black" stroke-width="1.0"></line><line x1="160" y1="403" x2="160" y2="397" stroke="black" stroke-width="1.0"></line><line x1="200" y1="403" x2="200" y2="397" stroke="black" stroke-width="1.0"></line><line x1="240" y1="403" x2="240" y2="397" stroke="black" stroke-width="1.0"></line><line x1="280" y1="403" x2="280" y2="397" stroke="black" stroke-width="1.0"></line><line x1="320" y1="403" x2="320" y2="397" stroke="black" stroke-width="1.0"></line><line x1="360" y1="403" x2="360" y2="397" stroke="black" stroke-width="1.0"></line><line x1="-3" y1="360" x2="3" y2="360" stroke="black" stroke-width="1.0"></line><line x1="-3" y1="320" x2="3" y2="320" stroke="black" stroke-width="1.0"></line><line x1="-3" y1="280" x2="3" y2="280" stroke="black" stroke-width="1.0"></line><line x1="-3" y1="240" x2="3" y2="240" stroke="black" stroke-width="1.0"></line><line x1="-3" y1="200" x2="3" y2="200" stroke="black" stroke-width="1.0"></line><line x1="-3" y1="160" x2="3" y2="160" stroke="black" stroke-width="1.0"></line><line x1="-3" y1="120" x2="3" y2="120" stroke="black" stroke-width="1.0"></line><line x1="-3" y1="80" x2="3" y2="80" stroke="black" stroke-width="1.0"></line><line x1="-3" y1="40" x2="3" y2="40" stroke="black" stroke-width="1.0"></line></svg>