<svg version="1.1" xmlns="http://www.w3.org/2000/svg" viewBox="-3 0 303 303" x="-3px" y="0px" width="303" height="303" style="background-color:white"><defs><marker id="a-arrow" markerWidth="10" markerHeight="10" refX="9" refY="3" orient="auto" markerUnits="strokeWidth"><path d="M0,0 L0,6 L9,3 z" fill="#88499c"></path></marker><marker id="b-arrow" markerWidth="10" markerHeight="10" refX="9" refY="3" orient="auto" markerUnits="strokeWidth"><path d="M0,0 L0,6 L9,3 z" fill="#2381bf"></path></marker><marker id="c-arrow" markerWidth="10" markerHeight="10" refX="9" refY="3" orient="auto" markerUnits="strokeWidth"><path d="M0,0 L0,6 L9,3 z" fill="#27b15b"></path></marker><marker id="axis-arrow" markerWidth="10" markerHeight="10" refX="9" refY="3" orient="auto" markerUnits="strokeWidth"><path d="M0,0 L0,6 L9,3 z" fill="black"></path></marker><marker id="axis-arrow" markerWidth="10" markerHeight="10" refX="9" refY="3" orient="auto" markerUnits="strokeWidth"><path d="M0,0 L0,6 L9,3 z" fill="black"></path></marker></defs><polygon stroke="Black" stroke-width="1.3693063937629153" fill="None" points="105,150 120,150 120,131.25 150,131.25 150,123.75 120,123.75 120,112.5 165,112.5 165,105 105,105"></polygon><polygon stroke="Black" stroke-width="1.3693063937629153" fill="None" points="180,217.5 180,210 142.5,210 142.5,195 127.5,195 127.5,210 105,210 105,187.5 90,187.5 90,217.5"></polygon><polyline stroke="Grey" stroke-width="1" stroke-dasharray="2,2" fill="None" points="60,165 210,165 210,90 60,90 60,165"></polyline><polyline stroke="Grey" stroke-width="1" stroke-dasharray="2,2" fill="None" points="210,240 210,165 60,165 60,240 210,240"></polyline><line x1="0" y1="300" x2="60" y2="165" stroke="#88499c" stroke-width="1.5" marker-end="url(#a-arrow)"></line><line x1="60" y1="165" x2="210" y2="165" stroke="#2381bf" stroke-width="1.5" marker-end="url(#b-arrow)"></line><line x1="60" y1="165" x2="60" y2="90" stroke="#27b15b" stroke-width="1.5" marker-end="url(#c-arrow)"></line><line x1="0" y1="300" x2="210" y2="240" stroke="#88499c" stroke-width="1.5" marker-end="url(#a-arrow)"></line><line x1="210" y1="240" x2="210" y2="165" stroke="#2381bf" stroke-width="1.5" marker-end="url(#b-arrow)"></line><line x1="210" y1="240" x2="60" y2="240" stroke="#27b15b" stroke-width="1.5" marker-end="url(#c-arrow)"></line><line x1="0" y1="300" x2="300" y2="300" stroke="black" stroke-width="1.0" marker-end="url(#axis-arrow)"></line><line x1="0" y1="300" x2="0" y2="0" stroke="black" stroke-width="1.0" marker-end="url(#axis-arrow)"></line><line x1="40" y1="303" x2="40" y2="297" stroke="black" stroke-width="1.0"></line><line x1="80" y1="303" x2="80" y2="297" stroke="black" stroke-width="1.0"></line><line x1="120" y1="303" x2="120" y2="297" stroke="black" stroke-width="1.0"></line><line x1="160" y1="303" x2="160" y2="297" stroke="black" stroke-width="1.0"></line><line x1="200" y1="303" x2="200" y2="297" stroke="black" stroke-width="1.0"></line><line x1="240" y1="303" x2="240" y2="297" stroke="black" stroke-width="1.0"></line><line x1="280" y1="303" x2="280" y2="297" stroke="black" stroke-width="1.0"></line><line x1="-3" y1="260" x2="3" y2="260" stroke="black" stroke-width="1.0"></line><line x1="-3" y1="220" x2="3" y2="220" stroke="black" stroke-width="1.0"></line><line x1="-3" y1="180" x2="3" y2="180" stroke="black" stroke-width="1.0"></line><line x1="-3" y1="140" x2="3" y2="140" stroke="black" stroke-width="1.0"></line><line x1="-3" y1="100" x2="3" y2="100" stroke="black" stroke-width="1.0"></line><line x1="-3" y1="60" x2="3" y2="60" stroke="black" stroke-width="1.0"></line><line x1="-3" y1="20" x2="3" y2="20" stroke="black" stroke-width="1.0"></line></svg>